<svg width="16" height="16" viewBox="0 0 16 16" fill="none" xmlns="http://www.w3.org/2000/svg">
<g clip-path="url(#clip0_1363_191)">
<path d="M15.8 3.94466L8.13333 0.611331C8.09136 0.592657 8.04594 0.583008 8 0.583008C7.95406 0.583008 7.90864 0.592657 7.86667 0.611331L0.2 3.94466C0.140583 3.9706 0.0900164 4.01329 0.0544937 4.06752C0.0189709 4.12175 3.34001e-05 4.18517 0 4.25L0 5.25C0 5.3384 0.035119 5.42319 0.0976311 5.4857C0.160143 5.54821 0.244928 5.58333 0.333333 5.58333H15.6667C15.7551 5.58333 15.8399 5.54821 15.9024 5.4857C15.9649 5.42319 16 5.3384 16 5.25V4.25C16 4.18517 15.981 4.12175 15.9455 4.06752C15.91 4.01329 15.8594 3.9706 15.8 3.94466ZM11.5 9.58333H4.83333C4.70073 9.58333 4.57355 9.63601 4.47978 9.72978C4.38601 9.82355 4.33333 9.95072 4.33333 10.0833C4.33333 10.2159 4.38601 10.3431 4.47978 10.4369C4.57355 10.5307 4.70073 10.5833 4.83333 10.5833H11.5C11.6326 10.5833 11.7598 10.5307 11.8536 10.4369C11.9473 10.3431 12 10.2159 12 10.0833C12 9.95072 11.9473 9.82355 11.8536 9.72978C11.7598 9.63601 11.6326 9.58333 11.5 9.58333ZM11.5 11.9167H4.83333C4.70073 11.9167 4.57355 11.9693 4.47978 12.0631C4.38601 12.1569 4.33333 12.2841 4.33333 12.4167C4.33333 12.5493 4.38601 12.6764 4.47978 12.7702C4.57355 12.864 4.70073 12.9167 4.83333 12.9167H11.5C11.6326 12.9167 11.7598 12.864 11.8536 12.7702C11.9473 12.6764 12 12.5493 12 12.4167C12 12.2841 11.9473 12.1569 11.8536 12.0631C11.7598 11.9693 11.6326 11.9167 11.5 11.9167Z" fill="#1B2B42"/>
<path d="M16 14.7499C16 14.5731 15.9298 14.4035 15.8047 14.2785C15.6797 14.1535 15.5101 14.0833 15.3333 14.0833H15C14.9116 14.0833 14.8268 14.0481 14.7643 13.9856C14.7018 13.9231 14.6667 13.8383 14.6667 13.7499V6.91659C14.6667 6.82818 14.6315 6.74339 14.569 6.68088C14.5065 6.61837 14.4217 6.58325 14.3333 6.58325H1.66667C1.57826 6.58325 1.49348 6.61837 1.43096 6.68088C1.36845 6.74339 1.33333 6.82818 1.33333 6.91659V13.7499C1.33333 13.8383 1.29821 13.9231 1.2357 13.9856C1.17319 14.0481 1.08841 14.0833 1 14.0833H0.666667C0.489856 14.0833 0.320286 14.1535 0.195262 14.2785C0.0702379 14.4035 0 14.5731 0 14.7499C0 14.9267 0.0702379 15.0963 0.195262 15.2213C0.320286 15.3463 0.489856 15.4166 0.666667 15.4166H15.3333C15.5101 15.4166 15.6797 15.3463 15.8047 15.2213C15.9298 15.0963 16 14.9267 16 14.7499ZM3.33333 8.91659C3.33333 8.73977 3.40357 8.57021 3.5286 8.44518C3.65362 8.32016 3.82319 8.24992 4 8.24992H12.3333C12.5101 8.24992 12.6797 8.32016 12.8047 8.44518C12.9298 8.57021 13 8.73977 13 8.91659V13.7499C13 13.8383 12.9649 13.9231 12.9024 13.9856C12.8399 14.0481 12.7551 14.0833 12.6667 14.0833H3.66667C3.57826 14.0833 3.49348 14.0481 3.43096 13.9856C3.36845 13.9231 3.33333 13.8383 3.33333 13.7499V8.91659Z" fill="#1B2B42"/>
</g>
<defs>
<clipPath id="clip0_1363_191">
<rect width="16" height="16" fill="white"/>
</clipPath>
</defs>
</svg>
