<svg width="16" height="16" viewBox="0 0 16 16" fill="none" xmlns="http://www.w3.org/2000/svg">
<path d="M10 7.33325V3.33325L8 1.33325L6 3.33325V4.66659H2V13.9999H14V7.33325H10ZM4.66667 12.6666H3.33333V11.3333H4.66667V12.6666ZM4.66667 9.99992H3.33333V8.66659H4.66667V9.99992ZM4.66667 7.33325H3.33333V5.99992H4.66667V7.33325ZM8.66667 12.6666H7.33333V11.3333H8.66667V12.6666ZM8.66667 9.99992H7.33333V8.66659H8.66667V9.99992ZM8.66667 7.33325H7.33333V5.99992H8.66667V7.33325ZM8.66667 4.66659H7.33333V3.33325H8.66667V4.66659ZM12.6667 12.6666H11.3333V11.3333H12.6667V12.6666ZM12.6667 9.99992H11.3333V8.66659H12.6667V9.99992Z" fill="#1B2B42"/>
</svg>
