<svg width="16" height="16" viewBox="0 0 16 16" fill="none" xmlns="http://www.w3.org/2000/svg">
<path d="M8 3.55556V0H0V16H16V3.55556H8ZM3.2 14.2222H1.6V12.4444H3.2V14.2222ZM3.2 10.6667H1.6V8.88889H3.2V10.6667ZM3.2 7.11111H1.6V5.33333H3.2V7.11111ZM3.2 3.55556H1.6V1.77778H3.2V3.55556ZM6.4 14.2222H4.8V12.4444H6.4V14.2222ZM6.4 10.6667H4.8V8.88889H6.4V10.6667ZM6.4 7.11111H4.8V5.33333H6.4V7.11111ZM6.4 3.55556H4.8V1.77778H6.4V3.55556ZM14.4 14.2222H8V12.4444H9.6V10.6667H8V8.88889H9.6V7.11111H8V5.33333H14.4V14.2222ZM12.8 7.11111H11.2V8.88889H12.8V7.11111ZM12.8 10.6667H11.2V12.4444H12.8V10.6667Z" fill="#1B2B42"/>
</svg>
