<svg width="16" height="16" viewBox="0 0 16 16" fill="none" xmlns="http://www.w3.org/2000/svg">
<g clip-path="url(#clip0_2423_4994)">
<path d="M0 8.67199H0.48V8.99199H6.816V14.944H5.92V15.904H10.08V14.944H9.18405V8.99199H15.52V8.67199H16V0.0959473H0V8.67199ZM13.888 7.90399V7.67198C14.138 7.57072 14.3148 7.32648 14.3148 7.03999C14.3148 6.66287 14.009 6.35723 13.632 6.35723C13.255 6.35723 12.9493 6.66287 12.9493 7.03999C12.9493 7.32648 13.1261 7.57072 13.376 7.67198V7.90399H9.18405H8.256V7.67198C8.50598 7.57072 8.68276 7.32648 8.68276 7.03999C8.68276 7.03634 8.68177 7.03307 8.68177 7.02923C8.67603 6.65723 8.37329 6.35723 8 6.35723C7.62676 6.35723 7.32416 6.65723 7.31852 7.02923C7.31852 7.03288 7.31752 7.03611 7.31752 7.03999C7.31752 7.32648 7.49416 7.57072 7.74424 7.67198V7.90399H6.81624H2.432V7.66127C2.68212 7.56001 2.85876 7.31576 2.85876 7.02923C2.85876 6.65211 2.55313 6.34647 2.176 6.34647C1.79887 6.34647 1.49324 6.65211 1.49324 7.02923C1.49324 7.31572 1.66988 7.56001 1.92 7.66127V7.90399H0.512V0.607995H15.488V7.90399H13.888Z" fill="#1B2B42"/>
<path d="M0 8.67199H0.48V8.99199H6.816V14.944H5.92V15.904H10.08V14.944H9.18405V8.99199H15.52V8.67199H16V0.0959473H0V8.67199ZM13.888 7.90399V7.67198C14.138 7.57072 14.3148 7.32648 14.3148 7.03999C14.3148 6.66287 14.009 6.35723 13.632 6.35723C13.255 6.35723 12.9493 6.66287 12.9493 7.03999C12.9493 7.32648 13.1261 7.57072 13.376 7.67198V7.90399H9.18405H8.256V7.67198C8.50598 7.57072 8.68276 7.32648 8.68276 7.03999C8.68276 7.03634 8.68177 7.03307 8.68177 7.02923C8.67603 6.65723 8.37329 6.35723 8 6.35723C7.62676 6.35723 7.32416 6.65723 7.31852 7.02923C7.31852 7.03288 7.31752 7.03611 7.31752 7.03999C7.31752 7.32648 7.49416 7.57072 7.74424 7.67198V7.90399H6.81624H2.432V7.66127C2.68212 7.56001 2.85876 7.31576 2.85876 7.02923C2.85876 6.65211 2.55313 6.34647 2.176 6.34647C1.79887 6.34647 1.49324 6.65211 1.49324 7.02923C1.49324 7.31572 1.66988 7.56001 1.92 7.66127V7.90399H0.512V0.607995H15.488V7.90399H13.888Z" fill="white" fill-opacity="0.5"/>
<path d="M2.95033 1.49951L1.42334 5.77751H2.35845L2.64858 4.89815H4.22398L4.50639 5.77751H5.47587L3.96182 1.49951H2.95033ZM2.89145 4.16087L3.44674 2.47738L3.98723 4.16087H2.89145Z" fill="#1B2B42"/>
<path d="M2.95033 1.49951L1.42334 5.77751H2.35845L2.64858 4.89815H4.22398L4.50639 5.77751H5.47587L3.96182 1.49951H2.95033ZM2.89145 4.16087L3.44674 2.47738L3.98723 4.16087H2.89145Z" fill="white" fill-opacity="0.5"/>
<path d="M7.99337 3.01453C7.90035 2.86548 7.77961 2.74914 7.6306 2.6649C7.4816 2.58066 7.31136 2.53866 7.11984 2.53866C6.70388 2.53866 6.37161 2.69354 6.123 3.00301C5.87435 3.31253 5.75 3.73726 5.75 4.27713C5.75 4.74538 5.87625 5.12914 6.12888 5.4279C6.38151 5.72666 6.69236 5.87637 7.062 5.87637C7.28652 5.87637 7.47411 5.8339 7.62525 5.74866C7.77624 5.66337 7.91064 5.52712 8.02859 5.33925V5.77753H8.83271V1.50513H7.99389V3.01453H7.99337ZM7.83389 4.91837C7.712 5.09249 7.53389 5.17953 7.29984 5.17953C7.0656 5.17953 6.89095 5.09202 6.77599 4.9169C6.66112 4.74177 6.60324 4.50801 6.60324 4.21588C6.60324 3.94514 6.65984 3.71829 6.773 3.5353C6.88612 3.35255 7.06375 3.26119 7.30572 3.26119C7.46449 3.26119 7.60372 3.31154 7.72371 3.41218C7.91908 3.57858 8.01688 3.85535 8.01688 4.24248C8.0166 4.51901 7.95572 4.74438 7.83389 4.91837Z" fill="#1B2B42"/>
<path d="M7.99337 3.01453C7.90035 2.86548 7.77961 2.74914 7.6306 2.6649C7.4816 2.58066 7.31136 2.53866 7.11984 2.53866C6.70388 2.53866 6.37161 2.69354 6.123 3.00301C5.87435 3.31253 5.75 3.73726 5.75 4.27713C5.75 4.74538 5.87625 5.12914 6.12888 5.4279C6.38151 5.72666 6.69236 5.87637 7.062 5.87637C7.28652 5.87637 7.47411 5.8339 7.62525 5.74866C7.77624 5.66337 7.91064 5.52712 8.02859 5.33925V5.77753H8.83271V1.50513H7.99389V3.01453H7.99337ZM7.83389 4.91837C7.712 5.09249 7.53389 5.17953 7.29984 5.17953C7.0656 5.17953 6.89095 5.09202 6.77599 4.9169C6.66112 4.74177 6.60324 4.50801 6.60324 4.21588C6.60324 3.94514 6.65984 3.71829 6.773 3.5353C6.88612 3.35255 7.06375 3.26119 7.30572 3.26119C7.46449 3.26119 7.60372 3.31154 7.72371 3.41218C7.91908 3.57858 8.01688 3.85535 8.01688 4.24248C8.0166 4.51901 7.95572 4.74438 7.83389 4.91837Z" fill="white" fill-opacity="0.5"/>
</g>
<defs>
<clipPath id="clip0_2423_4994">
<rect width="16" height="16" fill="white"/>
</clipPath>
</defs>
</svg>
