<svg width="16" height="16" viewBox="0 0 16 16" fill="none" xmlns="http://www.w3.org/2000/svg">
<path d="M9.55232 6.29468C9.41479 6.29468 9.35582 6.30943 9.25507 6.48624L9.00207 6.9284L8.74907 6.48624C8.64835 6.3094 8.58944 6.29468 8.45185 6.29468C8.35607 6.29468 8.26025 6.34624 8.26025 6.48624V7.97233C8.26029 8.05087 8.35607 8.09018 8.45185 8.09018C8.54763 8.09018 8.64341 8.05087 8.64341 7.9723V7.02662L8.87675 7.45402C8.90622 7.51052 8.95294 7.52524 8.99713 7.52524C9.04379 7.52524 9.09291 7.50805 9.12485 7.45402L9.36066 7.05118V7.97233C9.36066 8.05093 9.45644 8.09021 9.55225 8.09021C9.64807 8.09021 9.74382 8.0509 9.74382 7.97233V6.48624C9.74388 6.34624 9.65057 6.29468 9.55232 6.29468Z" fill="#1B2B42"/>
<path d="M9.55232 6.29468C9.41479 6.29468 9.35582 6.30943 9.25507 6.48624L9.00207 6.9284L8.74907 6.48624C8.64835 6.3094 8.58944 6.29468 8.45185 6.29468C8.35607 6.29468 8.26025 6.34624 8.26025 6.48624V7.97233C8.26029 8.05087 8.35607 8.09018 8.45185 8.09018C8.54763 8.09018 8.64341 8.05087 8.64341 7.9723V7.02662L8.87675 7.45402C8.90622 7.51052 8.95294 7.52524 8.99713 7.52524C9.04379 7.52524 9.09291 7.50805 9.12485 7.45402L9.36066 7.05118V7.97233C9.36066 8.05093 9.45644 8.09021 9.55225 8.09021C9.64807 8.09021 9.74382 8.0509 9.74382 7.97233V6.48624C9.74388 6.34624 9.65057 6.29468 9.55232 6.29468Z" fill="white" fill-opacity="0.5"/>
<path d="M11.3088 7.90612L10.8494 6.40775C10.8224 6.32178 10.7119 6.28003 10.5989 6.28003C10.4859 6.28003 10.3754 6.32178 10.3484 6.40775L9.89148 7.90612C9.86307 8.01897 10.0246 8.09034 10.1322 8.09034C10.1936 8.09034 10.2427 8.07069 10.2574 8.01912L10.3409 7.71206H10.8593L10.9428 8.01912C10.9575 8.07069 11.0066 8.09034 11.068 8.09034C11.1755 8.09034 11.3372 8.01925 11.3088 7.90612ZM10.4195 7.41731L10.5989 6.75903L10.7782 7.41731H10.4195Z" fill="#1B2B42"/>
<path d="M11.3088 7.90612L10.8494 6.40775C10.8224 6.32178 10.7119 6.28003 10.5989 6.28003C10.4859 6.28003 10.3754 6.32178 10.3484 6.40775L9.89148 7.90612C9.86307 8.01897 10.0246 8.09034 10.1322 8.09034C10.1936 8.09034 10.2427 8.07069 10.2574 8.01912L10.3409 7.71206H10.8593L10.9428 8.01912C10.9575 8.07069 11.0066 8.09034 11.068 8.09034C11.1755 8.09034 11.3372 8.01925 11.3088 7.90612ZM10.4195 7.41731L10.5989 6.75903L10.7782 7.41731H10.4195Z" fill="white" fill-opacity="0.5"/>
<path d="M12.3993 7.75618H11.8392V6.41012C11.8392 6.32905 11.7435 6.29468 11.6476 6.29468C11.5518 6.29468 11.4561 6.32905 11.4561 6.41012V7.97237C11.4561 8.05096 11.5396 8.09027 11.6231 8.09027H12.3993C12.473 8.09027 12.5098 8.00677 12.5098 7.92324C12.5098 7.83974 12.473 7.75618 12.3993 7.75618Z" fill="#1B2B42"/>
<path d="M12.3993 7.75618H11.8392V6.41012C11.8392 6.32905 11.7435 6.29468 11.6476 6.29468C11.5518 6.29468 11.4561 6.32905 11.4561 6.41012V7.97237C11.4561 8.05096 11.5396 8.09027 11.6231 8.09027H12.3993C12.473 8.09027 12.5098 8.00677 12.5098 7.92324C12.5098 7.83974 12.473 7.75618 12.3993 7.75618Z" fill="white" fill-opacity="0.5"/>
<path d="M13.6078 7.75618H13.0477V6.41012C13.0477 6.32905 12.952 6.29468 12.8561 6.29468C12.7603 6.29468 12.6646 6.32905 12.6646 6.41012V7.97237C12.6646 8.05096 12.7481 8.09027 12.8316 8.09027H13.6078C13.6815 8.09027 13.7183 8.00677 13.7183 7.92324C13.7183 7.83974 13.6814 7.75618 13.6078 7.75618Z" fill="#1B2B42"/>
<path d="M13.6078 7.75618H13.0477V6.41012C13.0477 6.32905 12.952 6.29468 12.8561 6.29468C12.7603 6.29468 12.6646 6.32905 12.6646 6.41012V7.97237C12.6646 8.05096 12.7481 8.09027 12.8316 8.09027H13.6078C13.6815 8.09027 13.7183 8.00677 13.7183 7.92324C13.7183 7.83974 13.6814 7.75618 13.6078 7.75618Z" fill="white" fill-opacity="0.5"/>
<path d="M15.3725 13.1519H15.2551V10.8515C15.2551 10.7221 15.1502 10.6172 15.0207 10.6172C14.8912 10.6172 14.7863 10.7221 14.7863 10.8515V13.1519H13.1943V9.64668C13.1943 9.46521 13.0466 9.31753 12.8651 9.31753C12.6975 9.31753 9.17078 9.31753 8.9995 9.31753C8.81981 9.31753 8.67359 9.46372 8.67359 9.64343V13.1519H7.08153V8.90172H14.7863V9.75772C14.7863 9.88715 14.8912 9.99209 15.0207 9.99209C15.1502 9.99209 15.2551 9.88715 15.2551 9.75772C15.2551 9.62753 15.2551 5.9055 15.2551 5.8309C15.2551 5.59628 15.0642 5.4054 14.8296 5.4054H13.1943V4.78337C13.3198 4.77887 13.4202 4.676 13.4202 4.54943C13.4202 4.42287 13.3198 4.32 13.1943 4.3155V3.82406C13.3198 3.81956 13.4202 3.71668 13.4202 3.59012C13.4202 3.46356 13.3198 3.36068 13.1943 3.35618V1.98147C13.1943 1.82865 13.1201 1.68428 12.9958 1.59531C12.8716 1.50631 12.711 1.48256 12.5663 1.53184L1.48234 5.30262C1.18466 5.40387 0.984625 5.68322 0.984625 5.99762V13.1519H0.627563C0.281531 13.1519 0 13.4335 0 13.7795V13.8659C0 14.2119 0.281531 14.4935 0.627563 14.4935H7.45306C7.58253 14.4935 7.68744 14.3885 7.68744 14.2591C7.68744 14.1297 7.58253 14.0247 7.45306 14.0247H0.627563C0.5415 14.0247 0.468781 13.952 0.468781 13.8659V13.7795C0.468781 13.6935 0.5415 13.6207 0.627563 13.6207H15.3725C15.4585 13.6207 15.5312 13.6935 15.5312 13.7795V13.8659C15.5312 13.952 15.4585 14.0247 15.3725 14.0247H8.54691C8.41744 14.0247 8.31253 14.1297 8.31253 14.2591C8.31253 14.3885 8.41744 14.4935 8.54691 14.4935H15.3724C15.7185 14.4935 16 14.2119 16 13.8659V13.7795C16 13.4335 15.7185 13.1519 15.3725 13.1519ZM5.41556 13.1519H2.65706V12.441H5.41556V13.1519ZM5.41556 11.9722H2.65706V11.2612H5.41556V11.9722ZM5.41556 10.7924H2.65706V10.0815H5.41556V10.7924ZM5.41556 9.61268H2.65566L2.65538 8.90172H5.41556V9.61268ZM6.61269 5.8244C6.61269 6.17493 6.61269 12.8179 6.61269 13.1519H5.88438C5.88438 12.9426 5.88438 9.03272 5.88438 8.9C5.88438 8.64243 5.67488 8.43293 5.41731 8.43293H2.65538C2.39781 8.43293 2.18831 8.64243 2.18831 8.9C2.18831 9.05015 2.18831 13.0012 2.18831 13.1519H1.45341V5.99765C1.45341 5.884 1.52569 5.78306 1.63331 5.74643L12.7173 1.97562C12.7191 1.975 12.7203 1.97459 12.7229 1.97643C12.7255 1.97828 12.7255 1.97956 12.7255 1.98147V3.35568H10.9339C10.8044 3.35568 10.6995 3.46062 10.6995 3.59006C10.6995 3.7195 10.8044 3.82443 10.9339 3.82443H12.7255V4.315H10.9339C10.8044 4.315 10.6995 4.41993 10.6995 4.54937C10.6995 4.67881 10.8044 4.78375 10.9339 4.78375H12.7255V5.40534H7.03169C6.80063 5.4054 6.61269 5.59334 6.61269 5.8244ZM7.08147 5.87418H12.9598H14.7862V8.43297H7.08147V5.87418ZM10.6995 13.1519H9.14231V9.78634H10.6995V13.1519ZM12.7254 13.1519H11.1683V9.78634H12.7254V13.1519Z" fill="#1B2B42"/>
<path d="M15.3725 13.1519H15.2551V10.8515C15.2551 10.7221 15.1502 10.6172 15.0207 10.6172C14.8912 10.6172 14.7863 10.7221 14.7863 10.8515V13.1519H13.1943V9.64668C13.1943 9.46521 13.0466 9.31753 12.8651 9.31753C12.6975 9.31753 9.17078 9.31753 8.9995 9.31753C8.81981 9.31753 8.67359 9.46372 8.67359 9.64343V13.1519H7.08153V8.90172H14.7863V9.75772C14.7863 9.88715 14.8912 9.99209 15.0207 9.99209C15.1502 9.99209 15.2551 9.88715 15.2551 9.75772C15.2551 9.62753 15.2551 5.9055 15.2551 5.8309C15.2551 5.59628 15.0642 5.4054 14.8296 5.4054H13.1943V4.78337C13.3198 4.77887 13.4202 4.676 13.4202 4.54943C13.4202 4.42287 13.3198 4.32 13.1943 4.3155V3.82406C13.3198 3.81956 13.4202 3.71668 13.4202 3.59012C13.4202 3.46356 13.3198 3.36068 13.1943 3.35618V1.98147C13.1943 1.82865 13.1201 1.68428 12.9958 1.59531C12.8716 1.50631 12.711 1.48256 12.5663 1.53184L1.48234 5.30262C1.18466 5.40387 0.984625 5.68322 0.984625 5.99762V13.1519H0.627563C0.281531 13.1519 0 13.4335 0 13.7795V13.8659C0 14.2119 0.281531 14.4935 0.627563 14.4935H7.45306C7.58253 14.4935 7.68744 14.3885 7.68744 14.2591C7.68744 14.1297 7.58253 14.0247 7.45306 14.0247H0.627563C0.5415 14.0247 0.468781 13.952 0.468781 13.8659V13.7795C0.468781 13.6935 0.5415 13.6207 0.627563 13.6207H15.3725C15.4585 13.6207 15.5312 13.6935 15.5312 13.7795V13.8659C15.5312 13.952 15.4585 14.0247 15.3725 14.0247H8.54691C8.41744 14.0247 8.31253 14.1297 8.31253 14.2591C8.31253 14.3885 8.41744 14.4935 8.54691 14.4935H15.3724C15.7185 14.4935 16 14.2119 16 13.8659V13.7795C16 13.4335 15.7185 13.1519 15.3725 13.1519ZM5.41556 13.1519H2.65706V12.441H5.41556V13.1519ZM5.41556 11.9722H2.65706V11.2612H5.41556V11.9722ZM5.41556 10.7924H2.65706V10.0815H5.41556V10.7924ZM5.41556 9.61268H2.65566L2.65538 8.90172H5.41556V9.61268ZM6.61269 5.8244C6.61269 6.17493 6.61269 12.8179 6.61269 13.1519H5.88438C5.88438 12.9426 5.88438 9.03272 5.88438 8.9C5.88438 8.64243 5.67488 8.43293 5.41731 8.43293H2.65538C2.39781 8.43293 2.18831 8.64243 2.18831 8.9C2.18831 9.05015 2.18831 13.0012 2.18831 13.1519H1.45341V5.99765C1.45341 5.884 1.52569 5.78306 1.63331 5.74643L12.7173 1.97562C12.7191 1.975 12.7203 1.97459 12.7229 1.97643C12.7255 1.97828 12.7255 1.97956 12.7255 1.98147V3.35568H10.9339C10.8044 3.35568 10.6995 3.46062 10.6995 3.59006C10.6995 3.7195 10.8044 3.82443 10.9339 3.82443H12.7255V4.315H10.9339C10.8044 4.315 10.6995 4.41993 10.6995 4.54937C10.6995 4.67881 10.8044 4.78375 10.9339 4.78375H12.7255V5.40534H7.03169C6.80063 5.4054 6.61269 5.59334 6.61269 5.8244ZM7.08147 5.87418H12.9598H14.7862V8.43297H7.08147V5.87418ZM10.6995 13.1519H9.14231V9.78634H10.6995V13.1519ZM12.7254 13.1519H11.1683V9.78634H12.7254V13.1519Z" fill="white" fill-opacity="0.5"/>
</svg>
