<svg width="16" height="16" viewBox="0 0 16 16" fill="none" xmlns="http://www.w3.org/2000/svg">
<g clip-path="url(#clip0_2423_4987)">
<path d="M14.8308 15.3763C13.8738 14.2441 12.1592 13.3808 10.0869 13.0284C9.88419 11.8148 9.52232 11.2478 9.51285 11.232C9.67064 11.158 9.86105 11.1328 10.0784 11.1808C10.3435 11.2404 10.5245 11.381 10.6342 11.5592C10.6661 11.6111 10.7475 11.5935 10.7569 11.5332C10.7706 11.4449 10.7664 11.3484 10.7363 11.2415C10.6605 10.9753 10.4533 10.7541 10.1833 10.6959C10.0069 10.6584 9.83159 10.6875 9.68362 10.766C9.82072 10.6475 9.99149 10.5507 10.1994 10.483C10.6482 10.3393 11.0396 10.4094 11.3439 10.6037C11.3955 10.6363 11.4586 10.5889 11.4421 10.53C11.3913 10.3473 11.2906 10.1682 11.1041 10.0037C10.7899 9.72739 10.3527 9.60747 9.95537 9.73896C9.82738 9.78139 9.71097 9.84451 9.60963 9.9227C9.617 9.91323 9.62506 9.90342 9.63242 9.8943C9.92521 9.55031 10.2769 9.40164 10.6237 9.39322C10.6991 9.39147 10.7328 9.29364 10.6749 9.2449C10.5518 9.14251 10.4003 9.06186 10.2036 9.01979C9.76111 8.92546 9.29545 9.05801 9.01424 9.41216C8.91325 9.53874 8.84312 9.68146 8.80244 9.82873C8.68322 9.7323 8.54367 9.65761 8.38728 9.61343C7.95248 9.49 7.49699 9.65411 7.19263 9.98827C7.06113 10.1324 6.98504 10.2828 6.94472 10.4332C6.92368 10.5107 7.01274 10.5735 7.07972 10.5293C7.36479 10.3386 7.73332 10.2572 8.16707 10.3645C8.179 10.368 8.19057 10.3712 8.20249 10.374C8.0745 10.3691 7.94336 10.3859 7.81397 10.4262C7.41459 10.5507 7.12916 10.9028 7.03484 11.3106C6.98084 11.5455 7.00047 11.745 7.06148 11.9189C7.08358 11.982 7.17054 11.9834 7.19648 11.9217C7.33359 11.5928 7.60814 11.3148 8.04996 11.1728C8.25789 11.1058 8.4532 11.0851 8.63343 11.1012C8.46688 11.1233 8.30768 11.2022 8.18671 11.3358C8.00087 11.5406 7.96194 11.8404 8.05557 12.1013C8.09309 12.2065 8.14709 12.2878 8.2102 12.352C8.25228 12.3951 8.32802 12.3621 8.32346 12.3022C8.30768 12.0929 8.37325 11.8755 8.55384 11.6721C8.69304 11.516 8.85153 11.4158 9.01213 11.3933C9.01178 11.3933 9.26635 12.0185 9.30177 12.9207C8.87783 12.8772 8.44233 12.8531 7.99771 12.8531C6.90895 12.8531 5.87349 12.9888 4.93657 13.2346C5.13083 9.0012 7.73613 6.19673 7.73928 6.18271V6.18236C8.06013 6.3945 8.33118 6.71955 8.5065 7.17574C8.73477 7.76833 8.6955 8.30517 8.48897 8.74839C8.42971 8.87532 8.56856 9.00962 8.6962 8.95036C8.88695 8.862 9.07104 8.7284 9.24005 8.53028C9.65837 8.03903 9.82072 7.35106 9.58333 6.75145C9.42835 6.36013 9.14468 6.05753 8.80069 5.87133C9.20744 5.98424 9.61735 6.19007 10.0167 6.5067C10.8646 7.18029 11.2352 8.01483 11.2643 8.84411C11.2699 8.9998 11.461 9.06958 11.561 8.94966C11.8369 8.62005 12.0449 8.19998 12.1196 7.6421C12.2493 6.67396 11.9162 5.67076 11.1465 5.0694C10.8976 4.87444 10.6251 4.73033 10.3411 4.63495C10.3695 4.63776 10.3975 4.64091 10.4263 4.64372C11.4614 4.76469 12.1999 5.24508 12.6655 5.89623C12.7742 6.04806 13.0207 5.98319 13.0383 5.7977C13.0744 5.43583 13.0309 5.04521 12.8626 4.62163C12.4734 3.64122 11.6136 2.90907 10.562 2.82001C10.1847 2.7881 9.81757 2.83579 9.47814 2.94834C9.51145 2.59209 9.47428 2.22496 9.35822 1.8652C9.03457 0.860944 8.12745 0.188755 7.08463 0.0299124C6.62212 -0.0402169 6.22274 0.0102762 5.87139 0.133704C5.70518 0.191911 5.69747 0.433507 5.86052 0.499428C6.6116 0.802387 7.25714 1.41532 7.6134 2.40835C7.62322 2.43535 7.63234 2.46235 7.6411 2.489C7.48401 2.23408 7.28204 2.0009 7.03589 1.80278C6.27604 1.1888 5.2234 1.09097 4.30996 1.43565C3.76716 1.64043 3.39968 1.9504 3.13915 2.30666C3.055 2.42167 3.15388 2.57701 3.29309 2.5479C4.11851 2.37574 5.02949 2.54229 5.89068 3.22746C6.28971 3.54444 6.5832 3.89684 6.78518 4.26818C6.5264 3.97433 6.16699 3.76675 5.75077 3.70469C5.11294 3.60896 4.47932 3.92209 4.09537 4.4414C3.94143 4.64898 3.85377 4.85691 3.81029 5.06134C3.78084 5.20019 3.94459 5.30609 4.05679 5.21878C4.4418 4.91933 4.9541 4.76119 5.58141 4.84955C6.09651 4.92213 6.49168 5.13357 6.77501 5.42496C6.72451 5.46809 3.58132 7.81356 1.52197 14.9948C1.39644 15.114 1.27967 15.2382 1.17238 15.3651C0.961287 15.6151 1.13977 16.0001 1.46622 16.0001H14.5334C14.855 16.0019 15.0387 15.6225 14.8308 15.3763Z" fill="#1B2B42"/>
<path d="M14.8308 15.3763C13.8738 14.2441 12.1592 13.3808 10.0869 13.0284C9.88419 11.8148 9.52232 11.2478 9.51285 11.232C9.67064 11.158 9.86105 11.1328 10.0784 11.1808C10.3435 11.2404 10.5245 11.381 10.6342 11.5592C10.6661 11.6111 10.7475 11.5935 10.7569 11.5332C10.7706 11.4449 10.7664 11.3484 10.7363 11.2415C10.6605 10.9753 10.4533 10.7541 10.1833 10.6959C10.0069 10.6584 9.83159 10.6875 9.68362 10.766C9.82072 10.6475 9.99149 10.5507 10.1994 10.483C10.6482 10.3393 11.0396 10.4094 11.3439 10.6037C11.3955 10.6363 11.4586 10.5889 11.4421 10.53C11.3913 10.3473 11.2906 10.1682 11.1041 10.0037C10.7899 9.72739 10.3527 9.60747 9.95537 9.73896C9.82738 9.78139 9.71097 9.84451 9.60963 9.9227C9.617 9.91323 9.62506 9.90342 9.63242 9.8943C9.92521 9.55031 10.2769 9.40164 10.6237 9.39322C10.6991 9.39147 10.7328 9.29364 10.6749 9.2449C10.5518 9.14251 10.4003 9.06186 10.2036 9.01979C9.76111 8.92546 9.29545 9.05801 9.01424 9.41216C8.91325 9.53874 8.84312 9.68146 8.80244 9.82873C8.68322 9.7323 8.54367 9.65761 8.38728 9.61343C7.95248 9.49 7.49699 9.65411 7.19263 9.98827C7.06113 10.1324 6.98504 10.2828 6.94472 10.4332C6.92368 10.5107 7.01274 10.5735 7.07972 10.5293C7.36479 10.3386 7.73332 10.2572 8.16707 10.3645C8.179 10.368 8.19057 10.3712 8.20249 10.374C8.0745 10.3691 7.94336 10.3859 7.81397 10.4262C7.41459 10.5507 7.12916 10.9028 7.03484 11.3106C6.98084 11.5455 7.00047 11.745 7.06148 11.9189C7.08358 11.982 7.17054 11.9834 7.19648 11.9217C7.33359 11.5928 7.60814 11.3148 8.04996 11.1728C8.25789 11.1058 8.4532 11.0851 8.63343 11.1012C8.46688 11.1233 8.30768 11.2022 8.18671 11.3358C8.00087 11.5406 7.96194 11.8404 8.05557 12.1013C8.09309 12.2065 8.14709 12.2878 8.2102 12.352C8.25228 12.3951 8.32802 12.3621 8.32346 12.3022C8.30768 12.0929 8.37325 11.8755 8.55384 11.6721C8.69304 11.516 8.85153 11.4158 9.01213 11.3933C9.01178 11.3933 9.26635 12.0185 9.30177 12.9207C8.87783 12.8772 8.44233 12.8531 7.99771 12.8531C6.90895 12.8531 5.87349 12.9888 4.93657 13.2346C5.13083 9.0012 7.73613 6.19673 7.73928 6.18271V6.18236C8.06013 6.3945 8.33118 6.71955 8.5065 7.17574C8.73477 7.76833 8.6955 8.30517 8.48897 8.74839C8.42971 8.87532 8.56856 9.00962 8.6962 8.95036C8.88695 8.862 9.07104 8.7284 9.24005 8.53028C9.65837 8.03903 9.82072 7.35106 9.58333 6.75145C9.42835 6.36013 9.14468 6.05753 8.80069 5.87133C9.20744 5.98424 9.61735 6.19007 10.0167 6.5067C10.8646 7.18029 11.2352 8.01483 11.2643 8.84411C11.2699 8.9998 11.461 9.06958 11.561 8.94966C11.8369 8.62005 12.0449 8.19998 12.1196 7.6421C12.2493 6.67396 11.9162 5.67076 11.1465 5.0694C10.8976 4.87444 10.6251 4.73033 10.3411 4.63495C10.3695 4.63776 10.3975 4.64091 10.4263 4.64372C11.4614 4.76469 12.1999 5.24508 12.6655 5.89623C12.7742 6.04806 13.0207 5.98319 13.0383 5.7977C13.0744 5.43583 13.0309 5.04521 12.8626 4.62163C12.4734 3.64122 11.6136 2.90907 10.562 2.82001C10.1847 2.7881 9.81757 2.83579 9.47814 2.94834C9.51145 2.59209 9.47428 2.22496 9.35822 1.8652C9.03457 0.860944 8.12745 0.188755 7.08463 0.0299124C6.62212 -0.0402169 6.22274 0.0102762 5.87139 0.133704C5.70518 0.191911 5.69747 0.433507 5.86052 0.499428C6.6116 0.802387 7.25714 1.41532 7.6134 2.40835C7.62322 2.43535 7.63234 2.46235 7.6411 2.489C7.48401 2.23408 7.28204 2.0009 7.03589 1.80278C6.27604 1.1888 5.2234 1.09097 4.30996 1.43565C3.76716 1.64043 3.39968 1.9504 3.13915 2.30666C3.055 2.42167 3.15388 2.57701 3.29309 2.5479C4.11851 2.37574 5.02949 2.54229 5.89068 3.22746C6.28971 3.54444 6.5832 3.89684 6.78518 4.26818C6.5264 3.97433 6.16699 3.76675 5.75077 3.70469C5.11294 3.60896 4.47932 3.92209 4.09537 4.4414C3.94143 4.64898 3.85377 4.85691 3.81029 5.06134C3.78084 5.20019 3.94459 5.30609 4.05679 5.21878C4.4418 4.91933 4.9541 4.76119 5.58141 4.84955C6.09651 4.92213 6.49168 5.13357 6.77501 5.42496C6.72451 5.46809 3.58132 7.81356 1.52197 14.9948C1.39644 15.114 1.27967 15.2382 1.17238 15.3651C0.961287 15.6151 1.13977 16.0001 1.46622 16.0001H14.5334C14.855 16.0019 15.0387 15.6225 14.8308 15.3763Z" fill="white" fill-opacity="0.5"/>
</g>
<defs>
<clipPath id="clip0_2423_4987">
<rect width="16" height="16" fill="white"/>
</clipPath>
</defs>
</svg>
