<svg width="16" height="16" viewBox="0 0 16 16" fill="none" xmlns="http://www.w3.org/2000/svg">
<g clip-path="url(#clip0_1363_201)">
<path d="M15.6667 14H11C10.9116 14 10.8268 14.0351 10.7643 14.0976C10.7018 14.1601 10.6667 14.2449 10.6667 14.3333V15C10.6667 15.2652 10.772 15.5196 10.9596 15.7071C11.1471 15.8946 11.4015 16 11.6667 16H15C15.2652 16 15.5196 15.8946 15.7071 15.7071C15.8946 15.5196 16 15.2652 16 15V14.3333C16 14.2449 15.9649 14.1601 15.9024 14.0976C15.8399 14.0351 15.7551 14 15.6667 14ZM15 7.66667H7.83333C7.81142 7.66676 7.78971 7.6625 7.76945 7.65416C7.74919 7.64582 7.73078 7.63354 7.71529 7.61805C7.69979 7.60255 7.68752 7.58415 7.67917 7.56388C7.67083 7.54362 7.66658 7.52191 7.66667 7.5V6.83333C7.66667 6.78913 7.68423 6.74674 7.71548 6.71548C7.74674 6.68423 7.78913 6.66667 7.83333 6.66667H10.6667C11.0203 6.66667 11.3594 6.52619 11.6095 6.27614C11.8595 6.02609 12 5.68696 12 5.33333V1.33333C12 0.979711 11.8595 0.640573 11.6095 0.390524C11.3594 0.140476 11.0203 0 10.6667 0L3.33333 0C2.97971 0 2.64057 0.140476 2.39052 0.390524C2.14048 0.640573 2 0.979711 2 1.33333V5.33333C2 5.68696 2.14048 6.02609 2.39052 6.27614C2.64057 6.52619 2.97971 6.66667 3.33333 6.66667H6.16667C6.21087 6.66667 6.25326 6.68423 6.28452 6.71548C6.31577 6.74674 6.33333 6.78913 6.33333 6.83333V7.5C6.33342 7.52191 6.32917 7.54362 6.32083 7.56388C6.31248 7.58415 6.30021 7.60255 6.28471 7.61805C6.26922 7.63354 6.25081 7.64582 6.23055 7.65416C6.21029 7.6625 6.18858 7.66676 6.16667 7.66667H1C0.734784 7.66667 0.48043 7.77202 0.292893 7.95956C0.105357 8.1471 0 8.40145 0 8.66667L0 15.3333C0 15.5101 0.0702379 15.6797 0.195262 15.8047C0.320286 15.9298 0.489856 16 0.666667 16C0.843478 16 1.01305 15.9298 1.13807 15.8047C1.2631 15.6797 1.33333 15.5101 1.33333 15.3333V10.3333C1.33333 10.2449 1.36845 10.1601 1.43096 10.0976C1.49348 10.0351 1.57826 10 1.66667 10H15.6667C15.7551 10 15.8399 9.96488 15.9024 9.90237C15.9649 9.83986 16 9.75507 16 9.66667V8.66667C16 8.40145 15.8946 8.1471 15.7071 7.95956C15.5196 7.77202 15.2652 7.66667 15 7.66667ZM3.33333 1.33333H10.6667V5.33333H3.33333V1.33333Z" fill="#1B2B42"/>
<path d="M15.6666 10.9993H11C10.8159 10.9993 10.6666 11.1485 10.6666 11.3326V12.6659C10.6666 12.85 10.8159 12.9993 11 12.9993H15.6666C15.8507 12.9993 16 12.85 16 12.6659V11.3326C16 11.1485 15.8507 10.9993 15.6666 10.9993Z" fill="#1B2B42"/>
</g>
<defs>
<clipPath id="clip0_1363_201">
<rect width="16" height="16" fill="white"/>
</clipPath>
</defs>
</svg>
