<svg width="132" height="99" viewBox="0 0 132 99" fill="none" xmlns="http://www.w3.org/2000/svg">
<g clip-path="url(#clip0_1376_1573)">
<path opacity="0.18" d="M24.5037 96.2739C19.9573 95.5269 15.6773 93.6391 12.0678 90.7887C7.82502 87.4643 3.20643 82.9847 3.34841 77.4247C3.49874 71.5322 5.71199 65.8558 8.10898 60.5368C11.3495 53.3728 15.8595 45.8098 14.6652 37.823C13.4876 29.9609 15.0745 20.2786 19.3005 13.5052C25.982 2.85886 37.6747 0.265843 49.3673 0.0248256C57.0928 -0.133082 65.0438 0.315709 72.0844 3.49049C79.4842 6.81487 85.4057 12.9567 92.9642 15.8156C97.9753 17.6939 103.454 18.0596 108.357 20.1789C114.529 22.8467 119.289 28.1324 122.371 34.0831C125.453 40.0337 127.023 46.6409 128.217 53.1983C130.172 64.2851 125.528 78.1311 118.838 87.215C114.378 93.2487 106.912 100.238 99.2364 98.7755C60.158 91.3621 67.6663 103.214 24.5037 96.2739Z" fill="#009DDC"/>
<path d="M22.3572 20.312V77.4332C22.4157 78.6723 22.9654 79.8379 23.8859 80.6744C24.8064 81.511 26.0227 81.9503 27.2681 81.8962H53.5097C54.7568 81.9458 55.9729 81.5027 56.8929 80.6635C57.8129 79.8243 58.3621 78.6571 58.4206 77.4166V20.312C58.3927 19.6981 58.2436 19.0956 57.9817 18.5391C57.7198 17.9825 57.3503 17.4827 56.8942 17.0683C56.4382 16.6538 55.9046 16.3328 55.3238 16.1236C54.7431 15.9145 54.1267 15.8212 53.5097 15.8491H27.2681C26.0232 15.7971 24.8082 16.2372 23.8882 17.0733C22.9682 17.9094 22.4178 19.0737 22.3572 20.312ZM24.8627 20.3536C24.8975 19.5886 25.2348 18.8682 25.8012 18.3498C26.3676 17.8313 27.1171 17.5568 27.8861 17.5861H31.5443V17.9185C31.555 18.1609 31.6136 18.3988 31.7169 18.6185C31.8201 18.8383 31.9659 19.0357 32.1458 19.1994C32.3258 19.363 32.5365 19.4897 32.7657 19.5723C32.995 19.6548 33.2383 19.6916 33.4819 19.6804H47.5882C48.0795 19.7007 48.559 19.5269 48.922 19.1968C49.2849 18.8668 49.502 18.4072 49.5259 17.9185V17.5777H53.351C53.7313 17.5576 54.1118 17.6124 54.4707 17.7391C54.8296 17.8658 55.1598 18.0618 55.4423 18.3159C55.7249 18.57 55.9541 18.8772 56.1169 19.2198C56.2798 19.5623 56.3729 19.9335 56.3911 20.312V77.267C56.3564 78.0313 56.0188 78.7508 55.4521 79.268C54.8855 79.7851 54.136 80.0578 53.3677 80.0262L27.8611 80.0678C27.102 80.095 26.3625 79.8246 25.8018 79.3148C25.241 78.805 24.9038 78.0965 24.8627 77.3418V20.3536Z" fill="#009DDC"/>
<path d="M21.0962 21.5168V78.638C21.1547 79.8771 21.7044 81.0427 22.6249 81.8792C23.5454 82.7158 24.7617 83.1551 26.0071 83.101H52.2571C53.5036 83.1484 54.7185 82.7045 55.638 81.8658C56.5575 81.027 57.1073 79.8612 57.168 78.6214V21.4587C57.1117 20.218 56.5629 19.0504 55.6421 18.212C54.7213 17.3737 53.5039 16.9333 52.2571 16.9874L26.0071 17.0289C24.7587 16.9793 23.5413 17.4236 22.6211 18.2645C21.7008 19.1055 21.1526 20.2748 21.0962 21.5168ZM23.6018 21.5168C23.6365 20.7525 23.9741 20.033 24.5408 19.5158C25.1074 18.9987 25.8569 18.726 26.6251 18.7576H30.325V19.0983C30.3357 19.3404 30.3944 19.5779 30.4978 19.7972C30.6011 20.0166 30.747 20.2134 30.9271 20.3764C31.1072 20.5394 31.3179 20.6653 31.5472 20.7469C31.7764 20.8286 32.0195 20.8643 32.2627 20.852H46.369C46.8611 20.87 47.3405 20.6943 47.7033 20.3629C48.066 20.0315 48.2828 19.5712 48.3066 19.0817V18.7493H52.1318C52.8992 18.7155 53.6488 18.9862 54.2157 19.502C54.7826 20.0179 55.1205 20.7366 55.1552 21.5002V78.4884C55.1205 79.2527 54.7829 79.9722 54.2162 80.4894C53.6495 81.0065 52.9 81.2792 52.1318 81.2476H26.6251C26.2445 81.2643 25.8642 81.2062 25.5062 81.0765C25.1481 80.9469 24.8192 80.7482 24.5384 80.4919C24.2576 80.2356 24.0303 79.9268 23.8696 79.583C23.7089 79.2392 23.6179 78.8672 23.6018 78.4884V21.5168Z" fill="white"/>
<path d="M23.6016 21.5585V78.4885C23.6362 79.2521 23.9742 79.9708 24.5411 80.4867C25.108 81.0025 25.8575 81.2732 26.6249 81.2394H52.1316C52.8985 81.271 53.6467 80.9995 54.2132 80.4841C54.7796 79.9688 55.1182 79.2514 55.155 78.4885V21.5086C55.1203 20.745 54.7824 20.0263 54.2155 19.5105C53.6486 18.9946 52.899 18.7239 52.1316 18.7577H48.3064V19.0901C48.2826 19.5796 48.0658 20.0399 47.7031 20.3713C47.3403 20.7027 46.8609 20.8785 46.3688 20.8604H32.2625C32.0193 20.8727 31.7762 20.837 31.547 20.7554C31.3177 20.6737 31.107 20.5478 30.9269 20.3848C30.7468 20.2218 30.6009 20.025 30.4976 19.8056C30.3942 19.5863 30.3355 19.3488 30.3248 19.1068V18.766H26.6249C26.2418 18.7505 25.8594 18.8105 25.4997 18.9426C25.14 19.0748 24.8102 19.2764 24.5291 19.536C24.2481 19.7956 24.0214 20.1079 23.8623 20.455C23.7031 20.8021 23.6145 21.1772 23.6016 21.5585V21.5585Z" stroke="url(#paint0_linear_1376_1573)" stroke-width="0.539456" stroke-miterlimit="10"/>
<path d="M23.6016 21.5585V78.4885C23.6362 79.2521 23.9742 79.9708 24.5411 80.4867C25.108 81.0025 25.8575 81.2732 26.6249 81.2394H52.1316C52.8985 81.271 53.6467 80.9995 54.2132 80.4841C54.7796 79.9688 55.1182 79.2514 55.155 78.4885V21.5086C55.1203 20.745 54.7824 20.0263 54.2155 19.5105C53.6486 18.9946 52.899 18.7239 52.1316 18.7577H48.3064V19.0901C48.2826 19.5796 48.0658 20.0399 47.7031 20.3713C47.3403 20.7027 46.8609 20.8785 46.3688 20.8604H32.2625C32.0193 20.8727 31.7762 20.837 31.547 20.7554C31.3177 20.6737 31.107 20.5478 30.9269 20.3848C30.7468 20.2218 30.6009 20.025 30.4976 19.8056C30.3942 19.5863 30.3355 19.3488 30.3248 19.1068V18.766H26.6249C26.2418 18.7505 25.8594 18.8105 25.4997 18.9426C25.14 19.0748 24.8102 19.2764 24.5291 19.536C24.2481 19.7956 24.0214 20.1079 23.8623 20.455C23.7031 20.8021 23.6145 21.1772 23.6016 21.5585Z" fill="#009DDC"/>
<path opacity="0.28" d="M45.5088 48.4111H30.3918V63.4539H45.5088V48.4111Z" fill="white"/>
<path opacity="0.28" d="M51.4552 36.3022H28.8132V41.8041H51.4552V36.3022Z" fill="white"/>
<path opacity="0.28" d="M51.4552 28.1743H28.8132V33.6762H51.4552V28.1743Z" fill="white"/>
<path d="M37.3989 19.647L42.243 19.6387V19.248L37.3989 19.2564V19.647Z" fill="url(#paint1_linear_1376_1573)"/>
<path d="M36.1237 19.8666C36.4143 19.8638 36.6478 19.6457 36.6452 19.3795C36.6425 19.1133 36.4049 18.8998 36.1143 18.9026C35.8237 18.9054 35.5903 19.1235 35.5929 19.3897C35.5955 19.6559 35.8332 19.8694 36.1237 19.8666Z" fill="url(#paint2_linear_1376_1573)"/>
<path d="M110.57 77.8071H97.2485L99.2112 87.2068H108.649L110.57 77.8071Z" fill="#009DDC"/>
<path d="M110.57 77.8071H97.2485L99.2112 87.2068H108.649L110.57 77.8071Z" fill="url(#paint3_linear_1376_1573)"/>
<path d="M95.3945 55.0435C95.0898 55.7188 94.9523 56.4569 94.9936 57.196C94.7959 60.5645 95.2003 63.9412 96.1879 67.1691C97.8165 71.8149 101.383 75.4801 104.84 79.0205C104.582 78.6216 105.258 76.4774 105.333 75.9621C105.5 74.9648 105.684 73.9675 105.868 72.9702C106.035 71.37 105.847 69.7528 105.317 68.2329C104.346 64.7738 102.565 61.5926 100.122 58.9496C98.741 57.43 97.1492 56.1147 95.3945 55.0435Z" fill="#009DDC"/>
<path d="M95.3945 55.0435C95.0898 55.7188 94.9523 56.4569 94.9936 57.196C94.7959 60.5645 95.2003 63.9412 96.1879 67.1691C97.8165 71.8149 101.383 75.4801 104.84 79.0205C104.582 78.6216 105.258 76.4774 105.333 75.9621C105.5 74.9648 105.684 73.9675 105.868 72.9702C106.035 71.37 105.847 69.7528 105.317 68.2329C104.346 64.7738 102.565 61.5926 100.122 58.9496C98.741 57.43 97.1492 56.1147 95.3945 55.0435Z" fill="url(#paint4_linear_1376_1573)"/>
<path d="M110.67 65.8975C111.832 63.4077 112.655 60.7749 113.117 58.0686C113.339 56.7133 113.288 55.3276 112.967 53.9921C112.646 52.6566 112.061 51.398 111.246 50.2896L105.108 60.2627C103.821 62.1118 102.835 64.1507 102.184 66.3047C101.241 70.1278 102.377 75.9205 105.016 78.9125C106.419 77.6409 107.004 74.7985 107.73 73.0449L110.67 65.8975Z" fill="#009DDC"/>
<path d="M110.67 65.8975C111.832 63.4077 112.655 60.7749 113.117 58.0686C113.339 56.7133 113.288 55.3276 112.967 53.9921C112.646 52.6566 112.061 51.398 111.246 50.2896L105.108 60.2627C103.821 62.1118 102.835 64.1507 102.184 66.3047C101.241 70.1278 102.377 75.9205 105.016 78.9125C106.419 77.6409 107.004 74.7985 107.73 73.0449L110.67 65.8975Z" fill="url(#paint5_linear_1376_1573)"/>
<path d="M111.054 74.5742H96.7725C95.5778 74.5742 94.6094 75.5361 94.6094 76.7226C94.6094 77.9091 95.5778 78.871 96.7725 78.871H111.054C112.249 78.871 113.217 77.9091 113.217 76.7226C113.217 75.5361 112.249 74.5742 111.054 74.5742Z" fill="#009DDC"/>
<path d="M75.6005 79.0455C75.7301 79.4505 75.77 79.8786 75.7174 80.3004C75.613 80.7056 75.389 81.0703 75.0743 81.3476C74.395 81.9779 73.4975 82.3232 72.5688 82.3117C72.4465 82.3185 72.3257 82.2832 72.2264 82.212C72.1593 82.1508 72.1151 82.0687 72.1011 81.9792C72.0302 81.4975 72.1467 81.0071 72.4268 80.6079C72.7059 80.2112 72.915 79.7699 73.0448 79.3031C73.2119 78.4139 72.3266 76.4192 73.88 76.3361C75.2581 76.2613 75.3834 78.1645 75.6005 79.0455Z" fill="#FDB9A9"/>
<path d="M76.2018 80.3999C76.2018 80.3999 76.5609 80.857 76.3855 81.231C76.2101 81.605 74.0303 83.9902 71.8588 83.1757C69.6873 82.3613 73.8633 80.9983 73.8633 80.9983L76.2018 80.3999Z" fill="#009DDC"/>
<path d="M75.7592 79.2281C75.6668 79.2128 75.5719 79.2302 75.491 79.2772C75.4102 79.3243 75.3484 79.3981 75.3165 79.4857C75.1992 79.7336 75.0202 79.9476 74.7966 80.1076C74.5731 80.2675 74.3122 80.3681 74.0387 80.3999C73.4206 80.3999 72.9947 79.8181 72.7024 79.9012C72.0002 80.5434 71.5133 81.3847 71.3076 82.3114C71.3828 82.8932 72.2931 83.0843 73.1784 82.8932C74.3225 82.5501 75.3431 81.8865 76.1183 80.9817C76.2068 80.6824 76.2203 80.3661 76.1577 80.0605C76.0951 79.7548 75.9583 79.469 75.7592 79.2281Z" fill="white"/>
<path d="M82.7997 80.1924C83.0177 80.6005 83.1404 81.0521 83.1588 81.5139C83.1286 81.9703 82.9564 82.406 82.6661 82.7605C82.0684 83.5556 81.1862 84.0913 80.2023 84.2565C80.0755 84.3022 79.9365 84.3022 79.8097 84.2565C79.7313 84.1995 79.6705 84.1218 79.6343 84.0321C79.4725 83.526 79.5053 82.9781 79.7262 82.4946C79.954 82.0159 80.0954 81.5011 80.1438 80.9737C80.1438 79.9847 78.8326 78.0067 80.5113 77.6493C81.906 77.2587 82.3988 79.3198 82.7997 80.1924Z" fill="#FDB9A9"/>
<path d="M83.7018 81.5303C83.7018 81.5303 84.1779 81.9541 84.061 82.3614C83.944 82.7686 82.0398 85.7772 79.5593 85.2951C77.0788 84.8131 81.2965 82.5858 81.2965 82.5858L83.7018 81.5303Z" fill="#009DDC"/>
<path d="M83.0087 80.3584C82.9064 80.3572 82.8071 80.3926 82.7289 80.4582C82.6507 80.5238 82.5988 80.6153 82.5828 80.7158C82.4996 81.003 82.3451 81.2648 82.1334 81.4768C81.9218 81.6889 81.6598 81.8445 81.3717 81.9292C80.7119 82.0788 80.144 81.5053 79.8433 81.6466C79.5427 81.7879 78.6156 83.8823 78.8077 84.4973C78.9998 85.1123 80.002 85.1538 80.9207 84.7799C81.8394 84.4059 83.5683 82.8185 83.727 82.1702C83.7644 81.8329 83.7185 81.4915 83.5934 81.1758C83.4682 80.8601 83.2675 80.5795 83.0087 80.3584Z" fill="white"/>
<path d="M76.5777 58.6338C76.5276 59.3652 75.1495 60.5536 74.7068 61.1271C74.0053 62.1244 73.3622 63.1549 72.7358 64.2021C72.2002 65.0322 71.7709 65.9256 71.458 66.8616C71.2445 67.676 71.1323 68.5133 71.1239 69.3549C70.9903 72.2887 71.2408 75.3554 72.7191 77.8986C72.813 78.0871 72.9613 78.2433 73.145 78.3474C73.2771 78.3894 73.4159 78.4064 73.5543 78.3972H74.9741C75.0382 78.4161 75.1061 78.4181 75.1712 78.4029C75.2362 78.3877 75.2962 78.3558 75.3451 78.3105C75.394 78.2652 75.4302 78.2079 75.4501 78.1444C75.47 78.0809 75.4729 78.0134 75.4585 77.9484V72.3053C75.4427 71.973 75.4737 71.6401 75.5504 71.3163C75.6665 70.9814 75.8357 70.6672 76.0515 70.3855C76.5848 69.628 77.1708 68.9087 77.8054 68.2329C78.992 67.1026 80.1077 65.9008 81.1461 64.6343C81.9654 63.4994 82.4302 62.1494 82.4824 60.7531C82.4824 60.2544 82.7831 59.922 82.3572 59.6062C82.0456 59.4971 81.7186 59.4382 81.3884 59.4316C79.7848 59.1574 78.1645 58.9496 76.5777 58.6338Z" fill="#473F47"/>
<path d="M81.2799 59.5229C81.2799 60.2543 80.0855 61.5924 79.7181 62.2573C79.1418 63.3294 78.6156 64.4347 78.1228 65.5816C77.6841 66.4649 77.3613 67.4006 77.1624 68.3658C77.0462 69.192 77.0294 70.029 77.1123 70.8591C77.2019 72.4262 77.4652 73.9787 77.8973 75.4883C78.1127 76.2338 78.3921 76.9596 78.7325 77.6574C78.9149 78.0084 79.1157 78.3496 79.3339 78.6797C79.5009 78.9373 79.6095 79.3778 79.8433 79.5606C80.0216 79.6748 80.2339 79.7246 80.4447 79.7019C80.7257 79.7176 81.0075 79.6896 81.2799 79.6188C82.4408 79.2864 82.3322 78.1478 82.2153 77.2086L81.7476 73.2859C81.6972 72.9553 81.6972 72.6191 81.7476 72.2886C81.8235 71.9425 81.9561 71.6112 82.1401 71.3079C82.5823 70.497 83.079 69.7168 83.6267 68.9725C84.675 67.7126 85.6429 66.3885 86.5248 65.0082C87.1923 63.7834 87.4828 62.3902 87.36 61.0023C87.36 60.4953 87.5605 60.1047 87.1095 59.8803C86.784 59.8051 86.4488 59.7798 86.1156 59.8055C84.5204 59.6809 82.9001 59.6559 81.2799 59.5229Z" fill="#473F47"/>
<path d="M72.6272 50.9546C72.6272 51.6029 72.8778 52.1597 73.4624 52.3509H73.6127C74.6483 52.5503 76.0014 51.7691 76.9535 51.0876C77.3356 50.8215 77.7036 50.5358 78.0559 50.2316V43.3335L73.0448 48.4614C72.775 49.2655 72.6341 50.1069 72.6272 50.9546Z" fill="#009DDC"/>
<path d="M76.8866 51.104C76.8866 51.4281 76.8448 51.7522 76.8448 52.0764C76.8448 53.8632 77.2624 55.6916 76.7279 57.4452C76.5482 57.8143 76.4954 58.2319 76.5776 58.6337C76.7297 58.957 76.9978 59.2119 77.3292 59.3484C78.9576 60.1137 80.7122 60.5783 82.5074 60.7198C83.8437 60.9109 85.7479 61.3015 86.984 60.5868C87.4558 60.238 87.7708 59.7186 87.861 59.1407C88.3355 57.302 88.6154 55.4191 88.6962 53.5225L88.7463 52.7828C88.8465 51.1206 88.8799 49.367 88.8465 47.6633C88.9532 46.4216 88.6225 45.1817 87.9111 44.156C86.6071 42.9038 84.9484 42.08 83.1589 41.7957C82.6431 41.6868 82.1137 41.656 81.5887 41.7043C80.8496 41.8253 80.1357 42.0667 79.4757 42.4191C78.693 42.6841 78.0282 43.2134 77.5965 43.915C77.1862 44.8133 76.9051 45.7645 76.7613 46.7407C76.5931 47.6534 76.5538 48.5849 76.6444 49.5083C76.6444 49.9571 76.8031 50.4142 76.8532 50.863C76.8782 50.9378 76.8866 51.0624 76.8866 51.104Z" fill="#009DDC"/>
<path opacity="0.1" d="M83.5265 48.3531C83.1752 48.1811 82.9011 47.8847 82.7581 47.522C82.6189 47.1645 82.5045 46.798 82.4157 46.4249C82.1886 45.6574 81.8298 44.9347 81.355 44.289C81.0778 43.8524 80.6683 43.5148 80.1857 43.325C79.9402 43.253 79.6805 43.2443 79.4307 43.2995C79.1809 43.3547 78.9493 43.4722 78.7575 43.6408C78.1645 44.1893 78.2982 44.9373 78.3817 45.6437C78.7408 48.6024 80.5699 51.1456 82.1651 53.6721C82.4853 54.1697 82.7646 54.6922 83.0003 55.2345C83.4127 56.5773 83.7474 57.9426 84.0025 59.3235C84.1445 59.789 83.7603 60.6865 83.9524 61.0356C83.9751 61.0743 84.0052 61.1081 84.041 61.1352C84.0768 61.1623 84.1177 61.1821 84.1612 61.1935C84.679 61.3431 85.8316 60.8694 86.2742 60.8029C86.5081 60.8029 86.7252 60.645 86.9591 60.5868C88.1451 60.2876 88.2871 56.9715 88.404 56.0823C88.8187 53.712 89.0976 51.3201 89.2392 48.9182C89.289 48.0065 89.1817 47.0929 88.9218 46.2172C88.7872 45.7808 88.5582 45.379 88.2509 45.0402C87.9435 44.7013 87.5653 44.4336 87.1428 44.2558C85.9736 43.8319 85.5393 46.3335 85.3973 47.0067C85.3313 47.6877 85.214 48.3628 85.0465 49.0263C84.679 49.9654 83.4931 48.7853 83.0838 48.245C82.6746 47.7048 82.2486 46.8488 81.8143 46.1922C81.1592 45.5154 80.394 44.9535 79.551 44.53C79.4208 44.4221 79.2659 44.3479 79.1 44.314C78.9535 44.3113 78.8099 44.3549 78.6898 44.4385C78.5698 44.5222 78.4794 44.6415 78.4318 44.7794C78.4008 44.8628 78.3784 44.9491 78.365 45.037" fill="#020202"/>
<path d="M80.5449 40.3162C80.7378 40.522 80.9987 40.6518 81.2798 40.6819C81.5132 40.7027 81.748 40.7027 81.9814 40.6819H82.1067C82.139 40.6698 82.1746 40.6698 82.2069 40.6819C82.2069 40.6819 82.2069 40.7484 82.2069 40.7816C82.2486 41.2489 82.2486 41.7189 82.2069 42.1862C82.2069 42.2693 82.2069 42.3524 82.2069 42.4355C82.177 42.5216 82.177 42.6153 82.2069 42.7014C82.257 42.8095 82.3823 42.851 82.4908 42.8926C82.6993 42.9574 82.9156 42.9937 83.1339 43.0006C83.5962 42.9543 84.0403 42.7975 84.4285 42.5435C84.3952 41.7435 84.4372 40.9422 84.5538 40.15C84.7845 39.1445 84.8883 38.1143 84.8628 37.0833C84.8356 36.6781 84.6872 36.2902 84.4368 35.9696C84.2347 35.7771 83.9942 35.6288 83.731 35.5343C83.4678 35.4398 83.1876 35.4013 82.9084 35.4211C82.1688 35.4078 81.441 35.6069 80.8121 35.9945C80.5783 36.1524 80.5532 36.3519 80.4947 36.6095C80.4196 37.0168 80.3528 37.4406 80.311 37.8312C80.2554 38.2947 80.2248 38.7608 80.2191 39.2275C80.1914 39.6177 80.3071 40.0046 80.5449 40.3162Z" fill="#FDB9A9"/>
<path d="M81.355 36.2941C81.8944 36.2828 82.4331 36.3387 82.9586 36.4604C83.2942 36.629 83.5566 36.9136 83.6965 37.2609C83.8364 37.6082 83.8443 37.9943 83.7186 38.3469C83.919 38.4217 83.9524 38.0561 84.1111 37.9148C84.2698 37.7735 84.6122 37.9646 84.6373 38.214C84.6268 38.4641 84.5521 38.7073 84.4201 38.9204C84.2275 39.3611 84.195 39.8547 84.3283 40.3166C84.3283 40.433 84.4368 40.5577 84.5454 40.5327C84.654 40.5078 84.7375 40.3166 84.8043 40.2335C84.9126 40.1063 85.0298 39.9869 85.1551 39.8762C85.3973 39.6684 85.6646 39.4772 85.9151 39.2695C86.4216 38.8423 86.7663 38.2559 86.8923 37.6073C86.9048 37.47 86.9387 37.3354 86.9925 37.2083C87.0718 37.0936 87.1732 36.9956 87.2907 36.92C87.4083 36.8444 87.5397 36.7927 87.6774 36.7679C87.6897 36.5835 87.7434 36.4042 87.8344 36.2431C87.9255 36.082 88.0516 35.9433 88.2035 35.837L87.5605 35.7789C87.668 35.6265 87.7342 35.449 87.7525 35.2636C87.5251 35.2805 87.2967 35.2508 87.0812 35.1765C86.8658 35.1022 86.6679 34.9847 86.4998 34.8314C86.1406 34.5488 85.8567 34.1915 85.5142 33.8923C84.8611 33.3169 84.0228 32.9926 83.1506 32.9781C82.7166 32.9757 82.2869 33.0632 81.8886 33.2348C81.4903 33.4065 81.1323 33.6587 80.8372 33.9754C80.6579 34.155 80.5179 34.3695 80.4259 34.6055C80.334 34.8415 80.292 35.0938 80.3026 35.3467C80.3778 36.0448 80.8205 36.236 81.355 36.2941Z" fill="#F9692D"/>
<path d="M81.9814 40.6905H82.1067C82.139 40.6783 82.1747 40.6783 82.2069 40.6905C82.2069 40.6905 82.2069 40.757 82.2069 40.7902C82.2487 41.2575 82.2487 41.7275 82.2069 42.1948C82.6239 42.0775 82.9877 41.821 83.2371 41.4684C83.4865 41.1158 83.6064 40.6885 83.5767 40.2583C83.0653 40.4676 82.5335 40.6236 81.9898 40.7237L81.9814 40.6905Z" fill="#DE9F93"/>
<path d="M68.4346 49.1758C69.0938 50.1067 69.9105 50.9166 70.8483 51.5694C71.523 52.0326 72.3044 52.3185 73.12 52.4005C73.2248 52.4206 73.3325 52.4206 73.4374 52.4005C73.6108 52.3501 73.7632 52.2451 73.8716 52.1013C74.2135 51.6983 74.4182 51.1978 74.4563 50.6718C74.4207 50.2177 74.2704 49.78 74.0192 49.3993C73.7681 49.0186 73.4243 48.7073 73.0198 48.4943C73.0198 48.4943 69.6122 47.4139 69.2113 47.5884C68.9858 47.6881 68.777 48.1619 68.6267 48.5774C68.4763 48.993 68.4346 49.1758 68.4346 49.1758Z" fill="#009DDC"/>
<path opacity="0.1" d="M70.8483 51.5696C71.523 52.0328 72.3044 52.3187 73.12 52.4007C73.2248 52.4209 73.3325 52.4209 73.4374 52.4007H73.5877C74.6233 52.6001 75.9763 51.8189 76.9284 51.1374L76.6111 49.0763C75.9912 49.7169 75.2687 50.2505 74.473 50.6554C73.9126 50.952 73.2735 51.0681 72.6439 50.9878C72.4735 50.961 72.3076 50.9107 72.1512 50.8382C70.8815 50.2388 69.6966 49.476 68.6267 48.5693C68.5097 48.9184 68.4346 49.2176 68.4346 49.2176" fill="#020202"/>
<path d="M69.0694 46.7741L68.9942 46.6328C68.8713 46.4664 68.7344 46.3107 68.585 46.1674C68.3077 45.8511 67.9905 45.5717 67.6412 45.3363C67.2357 45.1321 66.8172 44.9544 66.3884 44.8044C66.2372 44.7244 66.0614 44.7037 65.8957 44.7462C65.8084 44.7889 65.7385 44.86 65.6975 44.9477C65.6565 45.0354 65.6468 45.1344 65.6702 45.2283C65.6972 45.3209 65.743 45.407 65.8048 45.4813C65.8665 45.5557 65.943 45.6166 66.0293 45.6604C66.1212 45.7103 66.2381 45.7768 66.2297 45.8848C66.2226 45.9336 66.2024 45.9795 66.1713 46.0178C66.0479 46.2508 65.9848 46.5107 65.9875 46.7741C65.9481 47.1942 65.9763 47.6178 66.071 48.0291C66.1628 48.4454 66.4032 48.8145 66.7476 49.0679C66.963 49.2189 67.2032 49.3314 67.4575 49.4004C68.3595 49.6248 69.0527 49.4004 69.2782 48.4363C69.3662 47.971 69.3228 47.4906 69.1529 47.0484C69.1278 46.9071 69.1278 46.8572 69.0694 46.7741Z" fill="#FDB9A9"/>
<path d="M104.49 44.2141C112.409 44.2141 118.83 37.8253 118.83 29.9442C118.83 22.0632 112.409 15.6743 104.49 15.6743C96.5697 15.6743 90.1494 22.0632 90.1494 29.9442C90.1494 37.8253 96.5697 44.2141 104.49 44.2141Z" fill="#009DDC"/>
<path d="M80.2858 25.0826C85.5027 25.0826 89.7318 20.8742 89.7318 15.6829C89.7318 10.4916 85.5027 6.2832 80.2858 6.2832C75.069 6.2832 70.8398 10.4916 70.8398 15.6829C70.8398 20.8742 75.069 25.0826 80.2858 25.0826Z" fill="#009DDC"/>
<path d="M80.7201 39.6433C80.5065 39.6239 80.2931 39.6823 80.1195 39.8076C79.946 39.9329 79.824 40.1167 79.7763 40.3248C79.7763 40.516 79.7763 40.7237 79.7262 40.9149C79.6427 41.3221 79.2836 41.6213 79.1082 42.0036C79.0036 42.2429 78.9756 42.5085 79.0279 42.7642C79.0802 43.02 79.2103 43.2535 79.4005 43.4331C79.6914 43.6554 80.0279 43.8115 80.386 43.8902C80.4744 43.9063 80.5649 43.9063 80.6533 43.8902C80.7608 43.8687 80.8629 43.8263 80.954 43.7655C81.3753 43.3909 81.6379 42.8711 81.6889 42.3111C81.856 41.3554 82.1232 39.8262 80.7201 39.6433Z" fill="#FDB9A9"/>
<path d="M80.4695 48.1119C80.782 49.3637 81.3506 50.5378 82.1399 51.5609C82.5329 52.0728 83.0381 52.4886 83.617 52.7767C84.196 53.0648 84.8334 53.2174 85.4807 53.2231C86.1975 53.1549 86.8836 52.9002 87.4701 52.4844C88.0565 52.0686 88.5226 51.5064 88.8214 50.8545C89.4011 49.5503 89.5869 48.1065 89.356 46.699C89.3085 45.974 89.0756 45.2731 88.6795 44.6629C88.4762 44.3607 88.1909 44.1221 87.8568 43.975C87.5226 43.8279 87.1534 43.7782 86.7919 43.8318C86.4573 43.9412 86.1524 44.1254 85.9005 44.3703C85.6485 44.6152 85.4564 44.9143 85.3387 45.2446C85.0631 45.9095 84.9378 46.6326 84.6204 47.2725L83.3844 44.6546C83.1476 44.0386 82.793 43.4741 82.3404 42.9924C82.1237 42.7873 81.8557 42.6439 81.5644 42.5771C81.273 42.5103 80.969 42.5225 80.684 42.6125C80.399 42.7025 80.1435 42.867 79.9442 43.0888C79.7449 43.3105 79.609 43.5815 79.5508 43.8733C79.4256 45.1615 80.1188 46.9068 80.4695 48.1119Z" fill="#009DDC"/>
<path d="M95.4697 22.9883V35.4464H114.395" stroke="white" stroke-width="1.23304" stroke-miterlimit="10"/>
<path d="M101.282 31.2241H98.092V35.4461H101.282V31.2241Z" fill="white"/>
<path d="M106.528 26.9941H103.337V35.4464H106.528V26.9941Z" fill="white"/>
<path d="M111.313 23.3955H108.123V35.4464H111.313V23.3955Z" fill="white"/>
<path d="M74.0805 19.0486C74.0785 18.9915 74.0886 18.9346 74.1102 18.8816C74.1318 18.8286 74.1644 18.7808 74.2058 18.7411C74.3888 18.5526 74.521 18.321 74.5899 18.0679C74.6198 17.9121 74.6041 17.7511 74.5449 17.6038C74.4858 17.4565 74.3854 17.3292 74.2559 17.2368C74.0888 17.1122 73.8987 17.0219 73.6963 16.9709C73.5925 16.9435 73.5022 16.8796 73.4423 16.7909C73.3823 16.7022 73.3569 16.5949 73.3706 16.4889C73.3706 16.3559 73.3706 16.2229 73.3706 16.0899C73.3812 15.9679 73.4398 15.8549 73.5336 15.7756C73.6274 15.6962 73.7489 15.6569 73.8717 15.6661C74.0653 15.6595 74.2556 15.6143 74.4313 15.5331C74.6412 15.4663 74.8161 15.3196 74.9178 15.125C75.0195 14.9304 75.0397 14.7036 74.9741 14.4942C74.9225 14.3208 74.8583 14.1514 74.782 13.9873C74.7397 13.892 74.7306 13.7854 74.7564 13.6844C74.7821 13.5835 74.8412 13.4941 74.924 13.4304C75.0242 13.3556 75.1328 13.2808 75.2247 13.1977C75.3123 13.1276 75.4213 13.0893 75.5337 13.0893C75.6461 13.0893 75.7552 13.1276 75.8427 13.1977C75.9875 13.3446 76.1608 13.4605 76.3522 13.5385C76.5288 13.6187 76.7279 13.6352 76.9154 13.5851C77.1029 13.5351 77.2669 13.4216 77.3795 13.2642C77.5097 13.0854 77.6086 12.8859 77.6718 12.6741C77.7044 12.5738 77.772 12.4885 77.8624 12.4336C77.9528 12.3787 78.06 12.3579 78.1646 12.3749L78.5738 12.4331C78.6808 12.4436 78.7799 12.4939 78.8512 12.5741C78.9225 12.6543 78.9606 12.7583 78.958 12.8653C78.9703 13.1181 79.0387 13.365 79.1584 13.5883C79.2457 13.7384 79.378 13.8576 79.5368 13.9291C79.6955 14.0007 79.8728 14.021 80.0437 13.9873C80.2367 13.9495 80.4227 13.8822 80.595 13.7878C80.6985 13.7293 80.8207 13.7131 80.936 13.7425C81.0513 13.772 81.1506 13.8448 81.213 13.9457C81.2882 14.0621 81.3884 14.1618 81.4719 14.2781C81.5283 14.3598 81.5542 14.4586 81.5451 14.5573C81.5359 14.656 81.4923 14.7483 81.4218 14.8184C81.2706 14.974 81.1515 15.1575 81.071 15.3586C80.9847 15.5553 80.9782 15.7777 81.0529 15.9791C81.1276 16.1805 81.2778 16.3453 81.4719 16.439C81.6188 16.5189 81.7725 16.5856 81.9313 16.6385C82.0259 16.6662 82.1086 16.7246 82.1661 16.8044C82.2236 16.8842 82.2526 16.9808 82.2486 17.0789C82.2486 17.2368 82.2486 17.4031 82.1902 17.561C82.1777 17.666 82.1262 17.7626 82.0459 17.8318C81.9655 17.901 81.8621 17.9378 81.7559 17.935C81.5185 17.9427 81.2853 17.9993 81.071 18.1012C80.914 18.1814 80.7867 18.3091 80.7071 18.4659C80.6276 18.6227 80.6 18.8005 80.6284 18.9738C80.6542 19.1782 80.7195 19.3758 80.8205 19.5556C80.8525 19.605 80.8742 19.6603 80.8844 19.7183C80.8946 19.7762 80.8931 19.8356 80.8798 19.8929C80.8666 19.9502 80.842 20.0043 80.8074 20.052C80.7728 20.0997 80.729 20.14 80.6785 20.1706L80.4029 20.3867C80.3188 20.4674 80.2065 20.5126 80.0897 20.5126C79.9728 20.5126 79.8605 20.4674 79.7765 20.3867C79.6127 20.2335 79.4195 20.1148 79.2085 20.0376C79.0327 19.9752 78.8409 19.9732 78.6638 20.0319C78.4866 20.0907 78.3344 20.2068 78.2314 20.3618C78.1115 20.5353 78.0185 20.7258 77.9558 20.9269C77.9253 21.0233 77.8618 21.1061 77.7763 21.1607C77.6909 21.2154 77.5889 21.2385 77.488 21.2261L77.012 21.143C76.9173 21.1247 76.8314 21.0756 76.7679 21.0033C76.7044 20.9311 76.6669 20.8399 76.6612 20.7441C76.6513 20.5028 76.5946 20.2657 76.4942 20.0459C76.4114 19.8737 76.2716 19.735 76.0982 19.6533C75.9248 19.5716 75.7284 19.5518 75.5421 19.5972C75.3567 19.6512 75.1754 19.7179 74.9992 19.7966C74.9104 19.8422 74.8089 19.8571 74.7106 19.8391C74.6124 19.821 74.5229 19.771 74.4563 19.6969C74.349 19.5752 74.2486 19.4475 74.1556 19.3146C74.1137 19.2351 74.0801 19.1516 74.0554 19.0653L74.0805 19.0486ZM77.8138 15.3253C77.6218 15.3242 77.4316 15.3608 77.2538 15.4328C77.0761 15.5049 76.9143 15.6111 76.7778 15.7454C76.6413 15.8797 76.5327 16.0394 76.4583 16.2155C76.3838 16.3915 76.3449 16.5804 76.3438 16.7714C76.3498 17.1482 76.5001 17.5085 76.764 17.7788C77.0278 18.0491 77.3854 18.209 77.7637 18.2258C77.9638 18.244 78.1656 18.2208 78.3564 18.1579C78.5472 18.0949 78.7228 17.9935 78.8724 17.8599C79.022 17.7263 79.1423 17.5634 79.2258 17.3815C79.3093 17.1995 79.3541 17.0024 79.3576 16.8024C79.361 16.6024 79.323 16.4039 79.2459 16.2192C79.1687 16.0345 79.0541 15.8676 78.9092 15.729C78.7644 15.5904 78.5923 15.483 78.4038 15.4135C78.2153 15.3441 78.0145 15.314 77.8138 15.3253Z" fill="white"/>
<path d="M85.1466 14.8433C85.1508 14.8986 85.1508 14.9542 85.1466 15.0095C85.1445 15.0801 85.1186 15.1479 85.0732 15.2021C85.0278 15.2563 84.9654 15.2939 84.8961 15.3087L84.5954 15.3835C84.5167 15.4043 84.433 15.3965 84.3596 15.3615C84.2861 15.3264 84.2276 15.2665 84.1945 15.1923C84.1301 15.0713 84.0576 14.9546 83.9774 14.8433C83.9244 14.7743 83.858 14.7168 83.782 14.6741C83.706 14.6315 83.6221 14.6047 83.5354 14.5954C83.4486 14.5861 83.3609 14.5944 83.2775 14.6199C83.1941 14.6453 83.1168 14.6874 83.0503 14.7436C82.9525 14.8199 82.8604 14.9033 82.7747 14.9929C82.7241 15.0536 82.6536 15.0944 82.5755 15.1081C82.4975 15.1218 82.4171 15.1075 82.3488 15.0677L82.0982 14.9181C82.0575 14.8986 82.0211 14.8712 81.9911 14.8376C81.961 14.8041 81.938 14.7649 81.9232 14.7224C81.9085 14.6799 81.9023 14.6349 81.9051 14.5901C81.9079 14.5452 81.9196 14.5013 81.9395 14.461C81.9834 14.3205 82.0114 14.1755 82.023 14.0288C82.0327 13.8701 81.981 13.7136 81.8785 13.5916C81.776 13.4695 81.6305 13.391 81.4718 13.3723C81.316 13.3638 81.1599 13.3638 81.0041 13.3723C80.9261 13.3687 80.852 13.3373 80.7953 13.2839C80.7386 13.2305 80.703 13.1587 80.6951 13.0814C80.6835 12.9966 80.664 12.9131 80.6366 12.832C80.6111 12.7514 80.6167 12.6642 80.6522 12.5874C80.6877 12.5106 80.7506 12.4497 80.8287 12.4165C80.9762 12.3426 81.1137 12.2505 81.238 12.1422C81.3442 12.044 81.4112 11.9107 81.4266 11.7672C81.4419 11.6236 81.4046 11.4793 81.3215 11.361C81.2465 11.2496 81.1597 11.1465 81.0626 11.0535C81.0205 11.0262 80.9847 10.9905 80.9574 10.9485C80.9301 10.9066 80.9119 10.8595 80.904 10.8102C80.8961 10.7608 80.8987 10.7104 80.9117 10.6621C80.9246 10.6138 80.9476 10.5688 80.979 10.5299C81.0292 10.4634 81.0626 10.3886 81.1127 10.3138C81.1519 10.2404 81.218 10.1848 81.2973 10.1585C81.3766 10.1322 81.463 10.1372 81.5386 10.1725C81.7136 10.2417 81.9021 10.2701 82.0898 10.2556C82.2153 10.2514 82.3359 10.2058 82.4326 10.1261C82.5293 10.0464 82.5967 9.93706 82.6244 9.81517C82.6621 9.65171 82.6789 9.48417 82.6745 9.31651C82.671 9.24009 82.6917 9.1645 82.7336 9.10039C82.7756 9.03628 82.8367 8.98688 82.9083 8.95914L83.2424 8.87603C83.3232 8.8563 83.4084 8.86651 83.4822 8.90475C83.556 8.94298 83.6132 9.00663 83.6433 9.0838C83.7173 9.26457 83.8349 9.42441 83.9857 9.54922C84.1064 9.64416 84.2576 9.69229 84.4112 9.68464C84.5648 9.677 84.7104 9.61411 84.8209 9.50766C84.9122 9.43885 84.9962 9.36087 85.0715 9.27496C85.1233 9.2136 85.1947 9.17185 85.2738 9.15671C85.3529 9.14158 85.4348 9.15399 85.5058 9.19185L85.7981 9.35807C85.8657 9.40084 85.9161 9.46584 85.9405 9.54177C85.9649 9.61769 85.9618 9.69973 85.9317 9.77361C85.8635 9.93076 85.8321 10.1013 85.8398 10.2723C85.8385 10.422 85.892 10.567 85.9904 10.6802C86.0888 10.7934 86.2253 10.8671 86.3744 10.8873C86.5162 10.8955 86.6585 10.8955 86.8003 10.8873C86.8855 10.8779 86.971 10.9023 87.0382 10.9552C87.1054 11.0081 87.149 11.0852 87.1594 11.1699C87.1594 11.2696 87.2095 11.3693 87.2263 11.469C87.2455 11.5429 87.2365 11.6211 87.201 11.6887C87.1655 11.7563 87.106 11.8083 87.0342 11.8347C86.873 11.9043 86.728 12.0061 86.6082 12.1339C86.5131 12.2244 86.4515 12.3442 86.4333 12.474C86.4151 12.6037 86.4414 12.7357 86.508 12.8487C86.5943 12.9886 86.6981 13.1171 86.817 13.231C86.8528 13.2565 86.8831 13.2889 86.9062 13.3262C86.9293 13.3634 86.9448 13.4049 86.9518 13.4481C86.9588 13.4914 86.9571 13.5356 86.9469 13.5782C86.9367 13.6208 86.9181 13.661 86.8922 13.6964C86.8922 13.7795 86.8003 13.8543 86.7585 13.9291C86.7189 14.0087 86.6496 14.0698 86.5653 14.0993C86.4811 14.1288 86.3886 14.1244 86.3075 14.087C86.0998 13.9959 85.8669 13.9783 85.6477 14.0371C85.5376 14.067 85.4384 14.1273 85.3614 14.2112C85.2845 14.2951 85.2332 14.399 85.2135 14.5109C85.2048 14.6215 85.2048 14.7326 85.2135 14.8433H85.1466ZM83.9106 11.0286C83.7666 11.0275 83.6238 11.0549 83.4906 11.1092C83.3573 11.1635 83.2363 11.2437 83.1344 11.345C83.0326 11.4463 82.9521 11.5668 82.8975 11.6994C82.8429 11.8319 82.8153 11.974 82.8165 12.1173C82.8165 12.406 82.9317 12.683 83.1369 12.8872C83.3421 13.0913 83.6204 13.206 83.9106 13.206C84.2007 13.206 84.479 13.0913 84.6842 12.8872C84.8894 12.683 85.0047 12.406 85.0047 12.1173C85.0058 11.974 84.9782 11.8319 84.9236 11.6994C84.869 11.5668 84.7885 11.4463 84.6867 11.345C84.5849 11.2437 84.4638 11.1635 84.3306 11.1092C84.1973 11.0549 84.0545 11.0275 83.9106 11.0286Z" fill="white"/>
<path d="M73.7548 42.0947H42.2432V73.4519H73.7548V42.0947Z" fill="white"/>
<path opacity="0.41" d="M67.0565 49.8491H47.2792C46.7119 49.8491 46.252 50.3068 46.252 50.8714V64.5927C46.252 65.1573 46.7119 65.615 47.2792 65.615H67.0565C67.6239 65.615 68.0838 65.1573 68.0838 64.5927V50.8714C68.0838 50.3068 67.6239 49.8491 67.0565 49.8491Z" fill="#009DDC"/>
<path d="M47.2625 56.4893L50.7452 53.273L55.5392 59.0241L59.7402 55.3673L61.4857 56.855L65.3861 51.6689L67.3655 54.0459V64.4678H47.2625V56.4893Z" fill="white"/>
<path d="M55.531 59.174L50.7287 53.4228L47.3378 56.5726L47.1875 56.4147L50.7538 53.1153L55.5561 58.8748L59.7404 55.2262L61.4692 56.7056L65.3779 51.4946L67.4492 53.9796L67.2821 54.1126L65.3863 51.8437L61.5026 57.0131L59.7404 55.5088L55.531 59.174Z" fill="#009DDC"/>
<path d="M67.3906 54.4117C67.6351 54.4117 67.8333 54.2145 67.8333 53.9712C67.8333 53.728 67.6351 53.5308 67.3906 53.5308C67.1462 53.5308 66.948 53.728 66.948 53.9712C66.948 54.2145 67.1462 54.4117 67.3906 54.4117Z" fill="#009DDC"/>
<path d="M61.4859 57.2955C61.7303 57.2955 61.9285 57.0983 61.9285 56.855C61.9285 56.6118 61.7303 56.4146 61.4859 56.4146C61.2414 56.4146 61.0432 56.6118 61.0432 56.855C61.0432 57.0983 61.2414 57.2955 61.4859 57.2955Z" fill="#009DDC"/>
<path d="M47.2625 56.9298C47.5069 56.9298 47.7051 56.7326 47.7051 56.4893C47.7051 56.246 47.5069 56.0488 47.2625 56.0488C47.018 56.0488 46.8198 56.246 46.8198 56.4893C46.8198 56.7326 47.018 56.9298 47.2625 56.9298Z" fill="#009DDC"/>
<path d="M59.7403 55.8082C59.9847 55.8082 60.1829 55.611 60.1829 55.3677C60.1829 55.1245 59.9847 54.9272 59.7403 54.9272C59.4958 54.9272 59.2976 55.1245 59.2976 55.3677C59.2976 55.611 59.4958 55.8082 59.7403 55.8082Z" fill="#009DDC"/>
<path d="M50.7454 53.7135C50.9899 53.7135 51.188 53.5163 51.188 53.273C51.188 53.0297 50.9899 52.8325 50.7454 52.8325C50.5009 52.8325 50.3027 53.0297 50.3027 53.273C50.3027 53.5163 50.5009 53.7135 50.7454 53.7135Z" fill="#009DDC"/>
<path d="M55.5393 59.465C55.7838 59.465 55.982 59.2677 55.982 59.0245C55.982 58.7812 55.7838 58.584 55.5393 58.584C55.2949 58.584 55.0967 58.7812 55.0967 59.0245C55.0967 59.2677 55.2949 59.465 55.5393 59.465Z" fill="#009DDC"/>
<path d="M65.428 52.1095C65.6725 52.1095 65.8706 51.9123 65.8706 51.669C65.8706 51.4257 65.6725 51.2285 65.428 51.2285C65.1835 51.2285 64.9854 51.4257 64.9854 51.669C64.9854 51.9123 65.1835 52.1095 65.428 52.1095Z" fill="#009DDC"/>
<path d="M65.787 42.0451C65.7505 42.2147 65.7565 42.3906 65.8046 42.5573C65.8526 42.724 65.9413 42.8764 66.0626 43.0009C66.167 43.0912 66.2895 43.1586 66.4219 43.1987C66.5542 43.2388 66.6936 43.2507 66.8309 43.2336C67.1091 43.1974 67.3645 43.0615 67.5492 42.8513C67.6601 42.9618 67.8034 43.0345 67.9584 43.0591C68.0381 43.0667 68.118 43.0469 68.1849 43.003C68.2517 42.9592 68.3015 42.8939 68.3259 42.818C68.3259 42.6435 68.2173 42.4939 68.1589 42.3194C68.1004 42.1449 68.1589 42.0451 68.067 41.9205C68.0077 41.8231 67.9289 41.739 67.8355 41.6732C67.7421 41.6075 67.6361 41.5615 67.5241 41.5382C66.9479 41.3719 65.9122 41.3304 65.787 42.0451Z" fill="#FDB9A9"/>
</g>
<defs>
<linearGradient id="paint0_linear_1376_1573" x1="71.6851" y1="27.6172" x2="24.5382" y2="68.8616" gradientUnits="userSpaceOnUse">
<stop stop-color="white"/>
<stop offset="1" stop-color="#CACACA"/>
</linearGradient>
<linearGradient id="paint1_linear_1376_1573" x1="-11743.9" y1="-136.881" x2="-11743.9" y2="-135.389" gradientUnits="userSpaceOnUse">
<stop stop-color="white"/>
<stop offset="1" stop-color="#CACACA"/>
</linearGradient>
<linearGradient id="paint2_linear_1376_1573" x1="-638.124" y1="99.673" x2="-638.293" y2="102.31" gradientUnits="userSpaceOnUse">
<stop stop-color="white"/>
<stop offset="1" stop-color="#CACACA"/>
</linearGradient>
<linearGradient id="paint3_linear_1376_1573" x1="97.5325" y1="65.7396" x2="115.184" y2="106.361" gradientUnits="userSpaceOnUse">
<stop offset="0.01"/>
<stop offset="0.08" stop-opacity="0.69"/>
<stop offset="0.21" stop-opacity="0.32"/>
<stop offset="1" stop-opacity="0"/>
</linearGradient>
<linearGradient id="paint4_linear_1376_1573" x1="113.266" y1="64.6147" x2="74.9046" y2="71.3548" gradientUnits="userSpaceOnUse">
<stop offset="0.01"/>
<stop offset="0.13" stop-opacity="0.69"/>
<stop offset="0.25" stop-opacity="0.32"/>
<stop offset="1" stop-opacity="0"/>
</linearGradient>
<linearGradient id="paint5_linear_1376_1573" x1="-19286.6" y1="25959.3" x2="-18243.5" y2="26151.4" gradientUnits="userSpaceOnUse">
<stop offset="0.01"/>
<stop offset="0.13" stop-opacity="0.69"/>
<stop offset="0.25" stop-opacity="0.32"/>
<stop offset="1" stop-opacity="0"/>
</linearGradient>
<clipPath id="clip0_1376_1573">
<rect width="132" height="99" fill="white"/>
</clipPath>
</defs>
</svg>
