<svg width="132" height="99" viewBox="0 0 132 99" fill="none" xmlns="http://www.w3.org/2000/svg">
<path d="M64.1124 95.0894L4.80477 60.2086C2.91717 59.1545 1.29687 57.4207 3.13827 56.2877L62.6604 22.136C63.5547 21.5843 64.911 21.2231 65.8185 21.7485L128.076 57.7096C129.964 58.7999 130.304 61.8472 128.406 62.9408L71.94 95.0336C70.753 95.72 69.4065 96.0862 68.0336 96.096C66.6608 96.1058 65.3091 95.7588 64.1124 95.0894Z" fill="#009B72"/>
<path style="mix-blend-mode:multiply" opacity="0.91" d="M23.8789 70.4804L38.2404 62.1428C34.8745 59.8737 27.5782 55.6737 24.6643 52.8726L8.69556 61.8144C11.5501 63.7059 19.7077 68.4379 23.8789 70.4804Z" fill="url(#paint0_linear_1376_1435)"/>
<path d="M51.1499 40.7056L15.6782 48.5473V58.9505L29.5316 67.229L51.1499 54.6191V40.7056Z" fill="#68E1FD"/>
<path opacity="0.81" d="M51.2753 40.686L29.3237 55.7095L15.6782 48.5475L25.9676 42.965" fill="#009DDC"/>
<path d="M13.1077 46.4163L26.1889 53.933C30.185 53.2977 34.033 51.9494 37.5475 49.953C43.4017 46.6265 51.4801 40.443 51.4801 40.443L39.4516 33.5142L22.4401 43.5101C22.4401 43.5101 17.7277 45.7924 13.1077 46.4163Z" fill="#68E1FD"/>
<path d="M14.5959 46.6331L26.4198 53.4405C30.2046 52.6095 33.8484 51.2368 37.2373 49.3652C42.5173 46.3605 49.8169 40.7715 49.8169 40.7715L38.9401 34.4961L23.562 43.5299C20.689 44.8695 17.6843 45.9094 14.5959 46.6331V46.6331Z" stroke="#2E3192" stroke-width="1.015" stroke-miterlimit="10"/>
<path opacity="0.54" d="M29.3237 55.7094V67.229L51.1499 54.6191L51.4667 40.4429L29.3237 55.7094Z" fill="#009DDC"/>
<path opacity="0.54" d="M29.3237 55.7094V67.229L51.1499 54.6191L51.4667 40.4429L29.3237 55.7094Z" fill="#009DDC"/>
<path opacity="0.5" d="M30.4985 41.215L38.5934 36.2104L47.4407 40.8702C47.4407 40.8702 38.2007 46.433 37.5044 46.8205C36.8081 47.208 29.1224 51.4178 25.7531 51.2339L18.0476 46.965L30.4985 41.215Z" fill="white"/>
<path opacity="0.54" d="M33.1486 48.1993C37.0014 48.1993 40.1248 46.7011 40.1248 44.8531C40.1248 43.005 37.0014 41.5068 33.1486 41.5068C29.2957 41.5068 26.1724 43.005 26.1724 44.8531C26.1724 46.7011 29.2957 48.1993 33.1486 48.1993Z" fill="#009DDC"/>
<path opacity="0.68" d="M15.6782 50.7345C17.975 51.9604 20.2652 53.1973 22.5488 54.4452C24.8324 55.693 27.1138 56.9453 29.393 58.2019H29.2478L34.6994 54.6488L40.1675 51.1416L45.6488 47.6378C47.4792 46.471 49.3129 45.3085 51.1499 44.1504C49.3525 45.3632 47.5496 46.5673 45.7412 47.7626L40.3094 51.3452L34.8611 54.9016L29.3996 58.4416L29.3303 58.4876L29.2577 58.4482C26.9829 57.1806 24.7103 55.9021 22.4399 54.6126C20.1695 53.3232 17.9156 52.0305 15.6782 50.7345Z" fill="#009DDC"/>
<path opacity="0.68" d="M15.6782 53.4637C17.975 54.6896 20.2652 55.9265 22.5488 57.1744C24.8324 58.4223 27.1138 59.6745 29.393 60.9311H29.2478L34.6994 57.3813L40.1675 53.8512L45.6488 50.3473C47.477 49.1849 49.3107 48.0268 51.1499 46.873C49.3525 48.0859 47.5496 49.2899 45.7412 50.4853L40.3094 54.0679L34.8611 57.6243L29.3996 61.1708L29.3303 61.2168L29.2577 61.1774C26.9829 59.9098 24.7103 58.6313 22.4399 57.3419C20.1695 56.0524 17.9156 54.7597 15.6782 53.4637Z" fill="#009DDC"/>
<path opacity="0.68" d="M15.741 55.5486C18.0378 56.7746 20.328 58.0115 22.6116 59.2594C24.8952 60.5072 27.1766 61.7594 29.4558 63.0161H29.3106L34.7622 59.463L40.2303 55.9328L45.7116 52.429C47.542 51.2643 49.3768 50.1073 51.216 48.958C49.4186 50.1708 47.6157 51.3749 45.8073 52.5702L40.3755 56.1529L34.9272 59.7092L29.4624 63.2558L29.3931 63.3018L29.3205 63.2623C27.0479 61.9948 24.7808 60.7174 22.5192 59.4301C20.2576 58.1429 17.9982 56.849 15.741 55.5486Z" fill="#009DDC"/>
<path opacity="0.68" d="M15.6782 57.5877C17.975 58.8137 20.2652 60.0506 22.5488 61.2984C24.8324 62.5463 27.1138 63.7985 29.393 65.0551H29.2478L34.6994 61.502L40.1675 57.9719L45.6488 54.4681C47.4792 53.3034 49.314 52.1464 51.1532 50.9971C49.3558 52.2099 47.5529 53.414 45.7445 54.6093L40.3094 58.2018L34.8611 61.7582L29.3996 65.2948L29.3303 65.3408L29.2577 65.3014C26.9829 64.0338 24.7103 62.7564 22.4399 61.4692C20.1695 60.1819 17.9156 58.8881 15.6782 57.5877Z" fill="#009DDC"/>
<path d="M23.8787 42.6565L37.5473 49.9498V62.5531L42.6953 59.5057V46.5576L29.3237 39.458L23.8787 42.6565Z" fill="#DCE5CA"/>
<path d="M37.5474 49.9498L42.6954 46.5576V59.5057L37.5474 62.5531V49.9498Z" fill="#C7D1B0"/>
<path d="M34.6335 43.8323C34.9691 43.86 35.2961 43.9514 35.5971 44.1015C35.8106 44.1909 35.9922 44.3419 36.1185 44.535C36.1653 44.6163 36.1879 44.7091 36.1838 44.8027C36.1797 44.8962 36.1491 44.9867 36.0954 45.0637C35.9503 45.2718 35.7536 45.4392 35.5245 45.5497L36.432 45.993L35.9304 46.2524L34.98 45.7927C34.54 45.9597 34.0748 46.0519 33.6039 46.0652C33.0982 46.0887 32.5935 46.0012 32.1255 45.8091L33.0825 45.3133C33.282 45.3892 33.4928 45.4314 33.7062 45.438C33.8635 45.4452 34.021 45.4319 34.1748 45.3986L32.7987 44.7255C32.4027 44.8338 32.0628 44.9126 31.7856 44.9619C31.4804 45.0126 31.1699 45.0247 30.8616 44.998C30.5238 44.9694 30.1945 44.8769 29.8914 44.7255C29.6688 44.6379 29.4842 44.4751 29.37 44.2657C29.3351 44.1796 29.324 44.0857 29.3379 43.9939C29.3518 43.902 29.3903 43.8156 29.4492 43.7436C29.5827 43.5716 29.75 43.4286 29.9409 43.3233L29.04 42.8898L29.5416 42.6304L30.4524 43.077C30.882 42.8998 31.3406 42.8029 31.8054 42.7913C32.2846 42.7729 32.7624 42.8546 33.2079 43.031L32.2377 43.5334C32.0588 43.4679 31.8706 43.4313 31.68 43.4251C31.5381 43.4196 31.3961 43.4328 31.2576 43.4645L32.5974 44.1212H32.6568C33.0638 44.0161 33.4114 43.9384 33.6996 43.8881C34.0072 43.8295 34.3211 43.8107 34.6335 43.8323ZM34.9338 44.9159C34.9338 44.801 34.8348 44.7025 34.6533 44.6105C34.4736 44.5239 34.2754 44.4822 34.0758 44.489C33.8838 44.4961 33.6927 44.5202 33.5049 44.5613L34.7589 45.1753C34.8777 45.0932 34.9404 45.0046 34.9371 44.9159H34.9338ZM31.9077 44.2821L30.7263 43.7042C30.6866 43.7286 30.6525 43.7611 30.6263 43.7996C30.6002 43.8381 30.5825 43.8817 30.5745 43.9275C30.5745 44.0293 30.657 44.1245 30.8352 44.2099C31.0112 44.2936 31.2045 44.3352 31.3995 44.3314C31.5711 44.3289 31.7422 44.3124 31.911 44.2821" fill="#009DDC"/>
<path d="M34.6335 43.8323C34.9691 43.86 35.2961 43.9514 35.5971 44.1015C35.8106 44.1909 35.9922 44.3419 36.1185 44.535C36.1653 44.6163 36.1879 44.7091 36.1838 44.8027C36.1797 44.8962 36.1491 44.9867 36.0954 45.0637C35.9503 45.2718 35.7536 45.4392 35.5245 45.5497L36.432 45.993L35.9304 46.2524L34.98 45.7927C34.54 45.9597 34.0748 46.0519 33.6039 46.0652C33.0982 46.0887 32.5935 46.0012 32.1255 45.8091L33.0825 45.3133C33.282 45.3892 33.4928 45.4314 33.7062 45.438C33.8635 45.4452 34.021 45.4319 34.1748 45.3986L32.7987 44.7255C32.4027 44.8338 32.0628 44.9126 31.7856 44.9619C31.4804 45.0126 31.1699 45.0247 30.8616 44.998C30.5238 44.9694 30.1945 44.8769 29.8914 44.7255C29.6688 44.6379 29.4842 44.4751 29.37 44.2657C29.3351 44.1796 29.324 44.0857 29.3379 43.9939C29.3518 43.902 29.3903 43.8156 29.4492 43.7436C29.5827 43.5716 29.75 43.4286 29.9409 43.3233L29.04 42.8898L29.5416 42.6304L30.4524 43.077C30.882 42.8998 31.3406 42.8029 31.8054 42.7913C32.2846 42.7729 32.7624 42.8546 33.2079 43.031L32.2377 43.5334C32.0588 43.4679 31.8706 43.4313 31.68 43.4251C31.5381 43.4196 31.3961 43.4328 31.2576 43.4645L32.5974 44.1212H32.6568C33.0638 44.0161 33.4114 43.9384 33.6996 43.8881C34.0072 43.8295 34.3211 43.8107 34.6335 43.8323ZM34.9338 44.9159C34.9338 44.801 34.8348 44.7025 34.6533 44.6105C34.4736 44.5239 34.2754 44.4822 34.0758 44.489C33.8838 44.4961 33.6927 44.5202 33.5049 44.5613L34.7589 45.1753C34.8777 45.0932 34.9404 45.0046 34.9371 44.9159H34.9338ZM31.9077 44.2821L30.7263 43.7042C30.6866 43.7286 30.6525 43.7611 30.6263 43.7996C30.6002 43.8381 30.5825 43.8817 30.5745 43.9275C30.5745 44.0293 30.657 44.1245 30.8352 44.2099C31.0112 44.2936 31.2045 44.3352 31.3995 44.3314C31.5711 44.3289 31.7422 44.3124 31.911 44.2821" fill="black" fill-opacity="0.5"/>
<path style="mix-blend-mode:multiply" opacity="0.91" d="M69.2471 70.1255C70.8047 70.6016 70.6529 72.1943 72.2534 72.5161C73.2434 72.7131 73.5107 74.9691 74.4974 75.0413L81.3977 80.2659L101.858 67.5805L82.6616 56.606L66.1616 67.1634C68.7257 69.0418 66.2375 69.2027 69.2471 70.1255Z" fill="url(#paint1_linear_1376_1435)"/>
<path d="M83.8397 5.74951L81.7673 6.66241L83.7605 7.53591L84.2423 6.51136" fill="#009B72"/>
<path d="M102.739 66.3853L85.5096 56.3959C84.817 55.9942 84.2422 55.4191 83.8421 54.7278C83.4421 54.0365 83.2308 53.253 83.2293 52.4553L82.6716 7.05976C82.6716 5.86773 84.5295 5.2635 85.5591 5.86773L103.379 16.3464C103.82 16.6075 104.186 16.978 104.441 17.4218C104.695 17.8655 104.83 18.3673 104.831 18.8782V65.1801C104.831 65.4239 104.767 65.6635 104.645 65.8747C104.523 66.0859 104.347 66.2614 104.135 66.3836C103.923 66.5057 103.682 66.5701 103.437 66.5705C103.192 66.5708 102.951 66.5069 102.739 66.3853Z" fill="#009B72"/>
<path d="M104.118 66.3983L101.868 67.5805L102.128 66.0207L103.693 65.7383" fill="#009B72"/>
<path d="M100.577 67.5216L83.3482 57.5289C82.6556 57.1272 82.0807 56.5521 81.6807 55.8608C81.2806 55.1695 81.0694 54.3861 81.0679 53.5883V7.76259C81.0683 7.54853 81.1255 7.33838 81.2337 7.1534C81.342 6.96842 81.4974 6.81518 81.6843 6.70919C81.8712 6.60321 82.0829 6.54823 82.298 6.54984C82.5131 6.55144 82.724 6.60957 82.9093 6.71834L101.228 17.4827C101.669 17.7438 102.035 18.1144 102.289 18.5581C102.544 19.0018 102.678 19.5036 102.68 20.0145V66.3165C102.681 66.5617 102.617 66.8029 102.494 67.0155C102.371 67.2281 102.194 67.4046 101.981 67.527C101.767 67.6495 101.525 67.7134 101.278 67.7125C101.032 67.7115 100.79 67.6457 100.577 67.5216Z" fill="#F4F4F4"/>
<path d="M101.584 22.809L81.9521 11.6079V51.6903L101.584 62.9833V22.809Z" fill="#68E1FD"/>
<path d="M90.2274 60.18C90.7131 60.0646 90.9799 59.4419 90.8233 58.7892C90.6667 58.1365 90.146 57.701 89.6602 57.8164C89.1745 57.9318 88.9077 58.5545 89.0643 59.2072C89.221 59.8599 89.7417 60.2954 90.2274 60.18Z" fill="#BABABC"/>
<path d="M89.2056 13.5353C89.2058 13.612 89.2264 13.6873 89.2652 13.7536C89.304 13.8199 89.3597 13.8748 89.4267 13.9129L93.2184 16.0835C93.2851 16.1222 93.3609 16.1427 93.4381 16.143C93.5154 16.1432 93.5913 16.1232 93.6583 16.0849C93.7252 16.0465 93.7808 15.9913 93.8195 15.9248C93.8581 15.8582 93.8785 15.7827 93.8784 15.7059V15.6106C93.878 15.5327 93.8567 15.4563 93.8167 15.3893C93.7767 15.3223 93.7193 15.2672 93.6507 15.2297L89.859 13.1543C89.7922 13.1171 89.7168 13.0979 89.6402 13.0987C89.5637 13.0994 89.4887 13.12 89.4226 13.1585C89.3566 13.197 89.3018 13.2521 89.2637 13.3182C89.2256 13.3842 89.2056 13.4591 89.2056 13.5353Z" fill="#CCCCCC"/>
<path d="M87.664 12.9235C87.8862 12.8416 87.9756 12.5312 87.8636 12.2302C87.7516 11.9291 87.4807 11.7514 87.2585 11.8333C87.0363 11.9151 86.947 12.2255 87.0589 12.5265C87.1709 12.8276 87.4418 13.0053 87.664 12.9235Z" fill="#CCCCCC"/>
<path d="M97.588 31.2548C99.2485 30.7297 100.02 28.5035 99.3103 26.2825C98.601 24.0615 96.6799 22.6867 95.0193 23.2118C93.3588 23.7369 92.5877 25.9631 93.297 28.1841C94.0063 30.4051 95.9275 31.78 97.588 31.2548Z" fill="#F2F2F2"/>
<path d="M96.4743 27.7999C97.087 27.6673 97.4263 26.84 97.2322 25.9522C97.0382 25.0643 96.3843 24.4521 95.7716 24.5846C95.159 24.7172 94.8197 25.5445 95.0137 26.4323C95.2078 27.3202 95.8617 27.9325 96.4743 27.7999Z" fill="#C4B7B3"/>
<path d="M98.34 30.8511C98.34 30.8511 97.6569 27.8793 95.9376 27.518C94.2183 27.1568 93.7959 29.3307 93.7959 29.3307C94.025 29.787 94.3446 30.1925 94.7353 30.5226C95.1261 30.8528 95.58 31.1008 96.0696 31.2517C97.8054 31.8297 98.34 30.8511 98.34 30.8511Z" fill="#C4B7B3"/>
<path d="M99.9173 25.5576L98.9075 26.3852L98.6699 25.9189C98.5181 25.6233 98.1419 25.9189 98.2937 26.2144L98.6006 26.8055C98.6122 26.8261 98.6266 26.8449 98.6435 26.8613C98.6963 27.0025 98.8382 27.101 98.9735 26.9894L100.181 26.0042C100.416 25.8039 100.155 25.3606 99.9173 25.5576Z" fill="#009B72"/>
<path d="M85.1003 28.4833V40.6334C85.1003 40.7641 85.1525 40.8894 85.2453 40.9817C85.3382 41.0741 85.4641 41.126 85.5954 41.126C85.7266 41.126 85.8525 41.0741 85.9454 40.9817C86.0382 40.8894 86.0904 40.7641 86.0904 40.6334V28.4833C86.0904 28.3527 86.0382 28.2274 85.9454 28.135C85.8525 28.0426 85.7266 27.9907 85.5954 27.9907C85.4641 27.9907 85.3382 28.0426 85.2453 28.135C85.1525 28.2274 85.1003 28.3527 85.1003 28.4833Z" fill="white"/>
<path d="M87.5786 32.2826V42.1111C87.5786 42.2417 87.6308 42.367 87.7236 42.4594C87.8164 42.5518 87.9423 42.6037 88.0736 42.6037C88.2049 42.6037 88.3308 42.5518 88.4236 42.4594C88.5164 42.367 88.5686 42.2417 88.5686 42.1111V32.2826C88.5686 32.152 88.5164 32.0267 88.4236 31.9343C88.3308 31.8419 88.2049 31.79 88.0736 31.79C87.9423 31.79 87.8164 31.8419 87.7236 31.9343C87.6308 32.0267 87.5786 32.152 87.5786 32.2826Z" fill="white"/>
<path d="M90.146 35.0673V43.7267C90.146 43.8574 90.1981 43.9827 90.291 44.075C90.3838 44.1674 90.5097 44.2193 90.641 44.2193C90.7723 44.2193 90.8982 44.1674 90.991 44.075C91.0839 43.9827 91.136 43.8574 91.136 43.7267V35.0673C91.136 34.9366 91.0839 34.8114 90.991 34.719C90.8982 34.6266 90.7723 34.5747 90.641 34.5747C90.5097 34.5747 90.3838 34.6266 90.291 34.719C90.1981 34.8114 90.146 34.9366 90.146 35.0673Z" fill="white"/>
<path d="M97.8025 47.2589C99.1756 46.9617 99.894 44.915 99.4071 42.6873C98.9203 40.4597 97.4125 38.8948 96.0394 39.1919C94.6663 39.4891 93.9479 41.5358 94.4348 43.7635C94.9216 45.9911 96.4294 47.556 97.8025 47.2589Z" fill="white"/>
<path d="M96.9208 43.4905L95.0959 39.7699C95.0959 39.7699 96.3796 38.105 98.2342 40.1935L96.9208 43.4905Z" fill="#009B72"/>
<path d="M96.9209 43.4904L99.5609 44.3541C99.6825 42.8501 99.2088 41.3583 98.2409 40.1968L96.9209 43.4904Z" fill="#FF9F9F"/>
<path d="M83.1038 42.2952L99.9899 51.9824C100.018 51.9988 100.049 52.0095 100.081 52.014C100.114 52.0184 100.147 52.0164 100.178 52.0082C100.21 51.9999 100.239 51.9856 100.265 51.966C100.291 51.9463 100.313 51.9218 100.33 51.8938C100.346 51.8658 100.357 51.8348 100.361 51.8026C100.366 51.7704 100.364 51.7377 100.356 51.7063C100.347 51.6749 100.333 51.6454 100.313 51.6196C100.293 51.5937 100.269 51.5719 100.241 51.5556L83.3678 41.8683C83.3109 41.8352 83.2431 41.8259 83.1794 41.8426C83.1156 41.8592 83.0611 41.9003 83.0279 41.9569C82.9946 42.0135 82.9853 42.081 83.002 42.1444C83.0187 42.2078 83.0601 42.2621 83.117 42.2952H83.1038Z" fill="#0071BC"/>
<path d="M83.5725 50.8826L85.9353 49.418L87.8658 51.7955L91.2516 50.2028L94.545 54.0974L98.934 53.1156V59.7784L83.5725 50.8826Z" fill="#009B72"/>
<path d="M46.421 40.9883C46.421 40.9883 46.5728 43.3362 44.738 43.4807C44.738 43.4807 46.2923 44.1375 46.5497 45.3492C46.5497 45.3492 46.7411 43.635 48.3185 43.4577C47.7606 43.3345 47.2642 43.0192 46.9171 42.5675C46.5699 42.1157 46.3942 41.5564 46.421 40.9883Z" fill="white"/>
<path style="mix-blend-mode:multiply" opacity="0.91" d="M65.1651 85.067L81.4143 75.8723C78.0483 73.6032 75.57 73.0023 72.6561 70.2012L56.793 79.0544C59.664 80.9524 62.4822 82.9293 65.1651 85.067Z" fill="url(#paint2_linear_1376_1435)"/>
<path d="M80.4276 32.4931C80.4276 32.4931 80.2197 31.0844 80.4276 30.5425C80.5979 29.8694 80.7084 29.1826 80.7576 28.4902C80.8925 28.4609 81.0334 28.481 81.1546 28.5467C81.2759 28.6125 81.3692 28.7194 81.4176 28.8481C81.6156 29.321 81.2031 30.49 81.2031 30.49C81.2031 30.49 82.3779 32.9135 81.2031 34.0201C80.0283 35.1268 80.4276 32.4931 80.4276 32.4931Z" fill="#FFAC99"/>
<path d="M72.6362 40.0587L80.4275 32.5059C80.4275 32.5059 82.193 36.3217 80.4275 38.0687L73.2797 45.1322" fill="#091114"/>
<path d="M71.1809 71.3504C71.1809 71.3504 70.1051 72.8347 70.1909 73.7016C70.2767 74.5685 71.6495 76.0331 71.9597 76.657C72.2699 77.281 72.3524 77.5502 71.9597 78.0001C71.567 78.45 68.2142 75.5438 68.135 75.0775C68.0558 74.6112 68.6069 72.815 68.6069 72.815L67.1187 74.6867L66.033 74.0497L68.3429 70.1978" fill="#EA7554"/>
<path d="M71.6101 78.0461C71.5177 77.9575 68.8645 77.0413 68.8645 77.0413C68.8645 77.0413 67.6171 75.7475 67.6534 75.2549C67.6897 74.7623 68.1451 72.8052 68.6137 72.8249C69.0823 72.8446 69.1318 75.4355 69.1318 75.4355L71.6101 78.0461Z" fill="#AF4127"/>
<path d="M74.7646 73.8004L75.0946 77.741C75.0946 77.741 75.9526 78.3649 76.1638 78.3124C76.375 78.2598 77.0053 78.0956 77.0119 77.984C77.0185 77.8723 76.7083 75.1895 76.7974 75.1172C76.8865 75.045 78.2032 77.1762 78.6157 77.2189C79.0282 77.2616 82.1797 75.439 81.8761 74.7494C81.5725 74.0598 80.0512 74.4211 79.2988 74.4211C78.5464 74.4211 77.5102 73.9876 76.9459 72.7036" fill="#EA7554"/>
<path d="M76.7613 63.0947L78.6852 73.2352C78.6852 73.2352 77.5731 74.6801 73.5999 74.4995L70.6299 67.3079" fill="#FFC65A"/>
<path d="M77.6126 47.2011C77.6126 47.2011 80.5826 51.5062 79.6652 58.4777C78.8567 64.6579 72.656 71.9414 72.656 71.9414C72.656 71.9414 70.8014 72.7558 66.9404 69.1206L71.2007 62.3789C71.2007 62.3789 67.0493 52.7836 71.9399 46.7085" fill="#FFC65A"/>
<path d="M85.9716 38.9258C85.9716 38.8117 86.0172 38.7023 86.0982 38.6216C86.1793 38.5409 86.2893 38.4956 86.4039 38.4956C86.5186 38.4956 86.6285 38.5409 86.7096 38.6216C86.7907 38.7023 86.8362 38.8117 86.8362 38.9258C86.8362 39.2147 86.8362 39.507 86.8362 39.796C86.8692 39.7336 86.9022 39.6712 86.9352 39.6088C87.2739 38.8077 87.5272 37.9734 87.6909 37.1197C87.7965 36.5647 88.5984 36.8143 88.5258 37.3495C88.4683 37.7681 88.3801 38.1818 88.2618 38.5875L88.3476 38.5514C88.4217 38.5275 88.4999 38.519 88.5774 38.5264C88.6549 38.5339 88.73 38.5571 88.7981 38.5947C88.8662 38.6323 88.9258 38.6834 88.9732 38.7449C89.0206 38.8063 89.0548 38.8769 89.0736 38.952C89.1166 39.0835 89.1246 39.2238 89.0967 39.3592H89.1627C89.258 39.3878 89.3451 39.4386 89.4168 39.5073C89.4884 39.576 89.5426 39.6607 89.5749 39.7544C89.6071 39.8481 89.6165 39.9481 89.6022 40.0462C89.5879 40.1442 89.5504 40.2374 89.4927 40.3181C89.5984 40.4001 89.6719 40.5162 89.7006 40.6465C89.7188 40.7995 89.6939 40.9546 89.6286 41.0944C89.5634 41.2341 89.4603 41.3531 89.331 41.4379C89.034 41.6842 88.7106 42.0027 88.4367 42.2687C88.0803 42.6135 87.6744 42.9583 87.3411 43.2341C87.0078 43.51 86.4567 42.5971 86.4501 42.2884C86.3886 42.3084 86.323 42.3131 86.2592 42.302C86.1954 42.291 86.1353 42.2645 86.0842 42.225C86.033 42.1854 85.9924 42.134 85.9659 42.0752C85.9394 42.0164 85.9277 41.9521 85.932 41.8878C85.9804 40.9048 85.9936 39.9175 85.9716 38.9258Z" fill="#FFAC99"/>
<path d="M87.7009 39.8422C87.9054 39.4175 88.0935 38.9873 88.2651 38.5516C88.3014 38.4597 88.4532 38.4991 88.4169 38.5943C88.2387 39.0453 88.0451 39.4831 87.8362 39.9079C87.7801 40.0129 87.658 39.9341 87.7009 39.8422Z" fill="#AF594A"/>
<path d="M77.1605 37.6782C77.1605 37.6782 78.6059 38.9918 79.1636 39.8784C79.7213 40.765 81.9653 43.241 82.8893 42.5054C83.8133 41.7699 85.4501 40.348 85.4501 40.348C85.4501 40.348 87.7865 41.9472 87.5456 43.6088C87.5456 43.6088 85.4699 47.8252 82.2392 46.8926C79.0085 45.96 78.2099 44.7483 78.2099 44.7483L77.7215 47.4903C77.7215 47.4903 73.7087 48.7414 71.8508 46.8861C71.8508 46.8861 70.6298 39.0049 71.5208 37.8293" fill="#091114"/>
<path d="M77.6095 32.9066C77.6392 32.9986 77.7085 35.8621 76.7317 36.128C75.7549 36.394 74.0917 35.7208 73.6627 34.8145C73.2337 33.9082 73.8475 31.0217 75.3886 30.8542C76.9297 30.6867 77.3323 32.0725 77.6095 32.9066Z" fill="#FFAC99"/>
<path d="M76.4214 33.4355C75.7614 33.8689 76.1871 34.6932 76.4577 35.2219C76.6615 35.6292 76.7602 36.0806 76.7448 36.5354C76.7367 36.9579 76.886 37.3685 77.1639 37.688C77.3789 37.9566 77.5627 38.2486 77.7117 38.5583C76.3059 38.8866 74.8276 38.7783 73.3954 38.6141C72.2163 38.5194 71.0432 38.3627 69.8809 38.1445C69.893 37.897 69.9488 37.6535 70.0459 37.4253C70.3231 36.7948 70.7785 36.4566 70.6696 35.7145C70.5871 35.1431 70.4386 34.5783 70.6399 34.0134C70.8412 33.4486 71.3428 33.1596 71.818 32.8116C71.9557 32.7131 72.0849 32.6032 72.2041 32.4832L72.3064 32.3124C72.5902 31.833 72.7948 31.255 73.1743 30.8445C73.5492 30.4664 74.034 30.2149 74.5603 30.1254C75.1115 30.0258 75.6774 30.0385 76.2236 30.1627C76.7698 30.2868 77.285 30.5199 77.7381 30.8478C77.7381 30.8478 78.5763 31.6491 78.3123 32.5062C78.0483 33.3632 76.9989 33.048 76.4214 33.4355Z" fill="#E28133"/>
<path d="M77.1573 65.1865C77.1573 65.1865 73.7616 71.035 72.6528 71.9249L73.5999 74.4995C73.5999 74.4995 77.55 68.9892 77.1573 65.1865Z" fill="#EA7554"/>
<path d="M71.2801 62.0539C72.3644 59.7766 72.9676 57.3021 73.0522 54.7835C73.0522 54.5832 73.3822 54.5832 73.3822 54.7835C73.2944 57.357 72.6766 59.8852 71.5672 62.2115C71.4517 62.3921 71.1844 62.2345 71.2801 62.0539Z" fill="#EA7554"/>
<path d="M89.968 22.1031C90.3739 24.3459 89.3641 26.3064 87.7108 26.4837C86.0575 26.661 84.3877 24.983 83.9818 22.7402C83.5759 20.4973 84.5857 18.5369 86.239 18.3595C87.8923 18.1822 89.5621 19.8602 89.968 22.1031Z" fill="#F4F4F4"/>
<path d="M88.0011 23.9388C87.9997 24.1318 87.9498 24.3215 87.8559 24.4905C87.8148 24.5634 87.7594 24.6273 87.6931 24.6787C87.6268 24.73 87.5509 24.7676 87.4698 24.7893C87.3024 24.8231 87.1289 24.8106 86.9682 24.7532L86.9484 25.3475C86.9484 25.5216 86.8362 25.561 86.7372 25.5117C86.6861 25.4802 86.6447 25.4354 86.6174 25.3821C86.59 25.3289 86.5778 25.2692 86.5821 25.2096L86.6019 24.5955C86.3382 24.446 86.1168 24.2325 85.9584 23.9749C85.7729 23.6791 85.6725 23.3384 85.668 22.9897L86.328 23.2426C86.3346 23.3922 86.3728 23.5388 86.4402 23.6728C86.4855 23.7639 86.5483 23.8453 86.625 23.9125L86.6613 22.7435C86.4854 22.6069 86.3179 22.46 86.1597 22.3034C86.0209 22.1577 85.9092 21.9887 85.8297 21.8043C85.7374 21.5785 85.6968 21.3351 85.7109 21.0917C85.7081 20.8912 85.7631 20.694 85.8693 20.5236C85.9617 20.3879 86.1038 20.2936 86.2653 20.2609C86.4213 20.2369 86.5808 20.2504 86.7306 20.3003L86.757 19.5384C86.757 19.3677 86.8725 19.325 86.9682 19.3775C87.0192 19.4091 87.0606 19.4539 87.088 19.5071C87.1153 19.5604 87.1275 19.62 87.1233 19.6797L87.12 20.4448C87.3707 20.5825 87.5811 20.7828 87.7305 21.026C87.9038 21.3084 87.9994 21.6311 88.0077 21.9619L87.3477 21.7058C87.3385 21.572 87.3026 21.4414 87.2421 21.3216C87.2067 21.2537 87.1611 21.1917 87.1068 21.1377L87.0705 22.2739C87.2474 22.4152 87.4159 22.5665 87.5754 22.727C87.7145 22.8749 87.8262 23.0461 87.9054 23.2328C87.9888 23.4583 88.0215 23.6993 88.0011 23.9388ZM87.2058 24.0406C87.2483 23.9973 87.2817 23.9459 87.3038 23.8894C87.3259 23.833 87.3363 23.7727 87.3345 23.7122C87.3403 23.5716 87.3047 23.4323 87.2322 23.3116C87.1741 23.2207 87.1054 23.1369 87.0276 23.062L86.9913 24.0997C87.0285 24.1071 87.0669 24.1065 87.1038 24.098C87.1408 24.0896 87.1756 24.0733 87.2058 24.0504V24.0406ZM86.4831 21.6992C86.5421 21.7934 86.6119 21.8804 86.691 21.9586L86.724 20.9571C86.6876 20.9486 86.6499 20.9474 86.613 20.9536C86.5762 20.9598 86.541 20.9733 86.5095 20.9932C86.4648 21.0347 86.4306 21.086 86.4094 21.143C86.3882 21.2 86.3806 21.2612 86.3874 21.3216C86.3813 21.4582 86.4145 21.5938 86.4831 21.7123" fill="#009B72"/>
<path style="mix-blend-mode:multiply" opacity="0.63" d="M56.9085 35.0742L62.8485 38.3909L55.1991 43.1656H55.0011C51.9057 41.4678 49.1865 41.9538 46.9854 40.6009C49.83 39.0903 54.2751 36.9197 56.9085 35.0742Z" fill="url(#paint3_linear_1376_1435)"/>
<path d="M65.6105 29.2486C65.6105 29.2486 66.3068 37.4581 61.9079 38.903C57.509 40.3479 55.3079 36.1577 55.4795 28.9268" fill="#009DDC"/>
<path d="M65.6105 29.2486C65.6105 29.2486 66.3068 37.4581 61.9079 38.903C57.509 40.3479 55.3079 36.1577 55.4795 28.9268" fill="black" fill-opacity="0.5"/>
<path d="M65.5195 29.1552C65.568 27.5447 63.338 26.1714 60.5386 26.0878C57.7391 26.0042 55.4304 27.242 55.3819 28.8525C55.3333 30.463 57.5633 31.8363 60.3627 31.9199C63.1622 32.0034 65.4709 30.7656 65.5195 29.1552Z" fill="#F2696A"/>
<path d="M59.4527 22.5725C59.4527 22.5725 61.5317 19.778 60.7298 17.7749C60.7298 17.7749 60.0698 16.4843 59.0468 16.2479C59.0468 16.2479 59.0468 18.9603 58.0568 18.5827C57.0668 18.2051 58.1459 15.7488 58.1459 15.7488C58.1459 15.7488 57.1262 14.2809 55.9613 14.2875C54.7964 14.294 55.8788 16.8193 55.0835 16.3825C54.2882 15.9458 55.1132 13.8507 54.209 13.5716C53.3804 13.3548 52.5381 13.1935 51.6878 13.0889C51.6878 13.0889 50.7473 15.532 51.5987 15.913C52.4501 16.2939 53.7107 16.4548 53.087 16.9802C52.4633 17.5056 50.7572 16.8259 50.7572 16.8259C50.7572 16.8259 50.6054 18.2116 51.173 18.8323C51.7406 19.4529 55.2287 18.2313 54.5819 19.4069C53.9351 20.5826 51.6746 19.9127 51.6746 19.9127C51.6746 19.9127 52.7999 21.5874 54.1199 22.3952C55.4399 23.203 59.4527 22.5725 59.4527 22.5725Z" fill="#8CCC00"/>
<path d="M58.7598 29.6986C58.7598 29.6986 60.2415 28.3325 59.9973 27.111C59.9973 27.111 59.7531 26.3064 59.2053 26.0667C59.2053 26.0667 58.9215 27.6068 58.3935 27.2883C57.8655 26.9698 58.74 25.6858 58.74 25.6858C58.74 25.6858 58.3209 24.7433 57.6543 24.6251C56.9877 24.5069 57.3243 26.0536 56.9316 25.7219C56.5389 25.3902 57.2187 24.2869 56.7369 24.034C56.2898 23.8229 55.8289 23.6419 55.3575 23.4922C55.3575 23.4922 54.5622 24.7794 55.0044 25.0848C55.4466 25.3902 56.1462 25.6168 55.7337 25.8467C55.3212 26.0766 54.4137 25.5183 54.4137 25.5183C54.4137 25.5183 54.1794 26.29 54.4335 26.7005C54.6876 27.111 56.7996 26.7891 56.3079 27.3901C55.8162 27.991 54.6018 27.3671 54.6018 27.3671C54.8805 27.9933 55.277 28.5607 55.77 29.0386C56.43 29.6362 58.7598 29.6986 58.7598 29.6986Z" fill="#8CCC00"/>
<path d="M64.1388 26.8152C64.1388 26.8152 67.6236 27.0615 68.8908 25.3079C68.8908 25.3079 69.6234 24.0469 69.2802 23.0749C69.2802 23.0749 66.99 24.5428 66.7722 23.4985C66.5544 22.4542 69.2241 22.0503 69.2241 22.0503C69.2241 22.0503 69.9204 20.4084 69.2868 19.4233C68.6532 18.4381 67.0956 20.7171 67.0395 19.8108C66.9834 18.9044 69.201 18.4775 68.9535 17.5646C68.6926 16.7531 68.3773 15.96 68.0097 15.1904C68.0097 15.1904 65.4324 15.7126 65.5677 16.632C65.703 17.5515 66.2442 18.6976 65.4621 18.4545C64.68 18.2115 64.35 16.4317 64.35 16.4317C64.35 16.4317 63.0927 17.0491 62.8716 17.8569C62.6505 18.6647 65.5611 20.9371 64.218 21.0258C62.8749 21.1144 62.238 18.8552 62.238 18.8552C62.238 18.8552 61.38 20.7007 61.4229 22.2441C61.4658 23.7875 64.1388 26.8152 64.1388 26.8152Z" fill="#8CCC00"/>
<path d="M52.4138 14.1989C52.7746 14.5229 53.1365 14.8512 53.4995 15.184C53.4731 14.7899 53.4401 14.3959 53.3906 14.0018C53.3642 13.7949 53.6843 13.7161 53.7206 13.923C53.7866 14.4484 53.8328 14.976 53.8592 15.5058C54.8096 16.3892 55.7534 17.3152 56.6246 18.2905C56.7239 17.6276 56.7658 16.9574 56.75 16.2874C56.75 16.0772 57.08 16.0871 57.08 16.2874C57.0967 17.0573 57.0392 17.827 56.9084 18.586C57.4628 19.2288 57.9806 19.902 58.4594 20.6023C59.0514 19.8409 59.4661 18.9582 59.6738 18.0179C59.72 17.8111 60.0335 17.9096 60.0038 18.1165C59.7793 19.1175 59.3278 20.0543 58.6838 20.8552C58.6741 20.8664 58.663 20.8764 58.6508 20.8847C60.0368 22.9765 60.9608 25.3015 60.9608 27.9646C60.9608 28.1748 60.6308 28.165 60.6308 27.9646C60.6308 25.4033 59.7464 23.1538 58.4165 21.131C57.0738 21.4399 55.6895 21.5298 54.3179 21.397C54.1067 21.3773 54.1166 21.0489 54.3179 21.0686C55.6201 21.1947 56.9342 21.116 58.2119 20.8355C57.5432 19.873 56.8042 18.9609 56.0009 18.1066H55.9712C55.199 18.1493 54.4268 18.1953 53.6612 18.1985C53.1746 18.2531 52.6822 18.1806 52.2323 17.9884C52.0442 17.8866 52.2323 17.6107 52.4072 17.7093C52.9319 17.9917 53.681 17.8767 54.2519 17.8603C54.7403 17.8603 55.2419 17.8209 55.7204 17.7946C54.5819 16.5993 53.3576 15.496 52.1729 14.4156C52.0145 14.2809 52.2554 14.0576 52.4138 14.1989Z" fill="#009DDC"/>
<path d="M52.4138 14.1989C52.7746 14.5229 53.1365 14.8512 53.4995 15.184C53.4731 14.7899 53.4401 14.3959 53.3906 14.0018C53.3642 13.7949 53.6843 13.7161 53.7206 13.923C53.7866 14.4484 53.8328 14.976 53.8592 15.5058C54.8096 16.3892 55.7534 17.3152 56.6246 18.2905C56.7239 17.6276 56.7658 16.9574 56.75 16.2874C56.75 16.0772 57.08 16.0871 57.08 16.2874C57.0967 17.0573 57.0392 17.827 56.9084 18.586C57.4628 19.2288 57.9806 19.902 58.4594 20.6023C59.0514 19.8409 59.4661 18.9582 59.6738 18.0179C59.72 17.8111 60.0335 17.9096 60.0038 18.1165C59.7793 19.1175 59.3278 20.0543 58.6838 20.8552C58.6741 20.8664 58.663 20.8764 58.6508 20.8847C60.0368 22.9765 60.9608 25.3015 60.9608 27.9646C60.9608 28.1748 60.6308 28.165 60.6308 27.9646C60.6308 25.4033 59.7464 23.1538 58.4165 21.131C57.0738 21.4399 55.6895 21.5298 54.3179 21.397C54.1067 21.3773 54.1166 21.0489 54.3179 21.0686C55.6201 21.1947 56.9342 21.116 58.2119 20.8355C57.5432 19.873 56.8042 18.9609 56.0009 18.1066H55.9712C55.199 18.1493 54.4268 18.1953 53.6612 18.1985C53.1746 18.2531 52.6822 18.1806 52.2323 17.9884C52.0442 17.8866 52.2323 17.6107 52.4072 17.7093C52.9319 17.9917 53.681 17.8767 54.2519 17.8603C54.7403 17.8603 55.2419 17.8209 55.7204 17.7946C54.5819 16.5993 53.3576 15.496 52.1729 14.4156C52.0145 14.2809 52.2554 14.0576 52.4138 14.1989Z" fill="black" fill-opacity="0.5"/>
<path d="M62.4295 20.9109C62.419 20.8674 62.4263 20.8215 62.4498 20.7833C62.4733 20.7451 62.5111 20.7178 62.5549 20.7073C62.5986 20.6969 62.6448 20.7042 62.6832 20.7276C62.7215 20.751 62.749 20.7886 62.7595 20.8321C63.0775 22.054 63.7864 23.1398 64.7791 23.9255C65.1861 22.9053 65.5612 21.8731 65.9044 20.8288C65.1337 20.0144 64.5087 19.0749 64.0564 18.0507C63.9706 17.857 64.261 17.6994 64.3468 17.8931C64.7556 18.834 65.3138 19.7032 66.0001 20.4676C66.3829 19.2723 66.7261 18.0606 67.0231 16.839C67.0726 16.6321 67.3894 16.7306 67.3531 16.9375C66.9483 18.6123 66.4621 20.2607 65.8945 21.883C66.5201 21.7815 67.1307 21.6039 67.7128 21.3543C67.9075 21.2722 68.0659 21.5579 67.8712 21.6432C67.2 21.9375 66.4917 22.1397 65.7658 22.2442C65.383 23.3147 64.9606 24.3688 64.5085 25.4098C65.4962 25.4096 66.4753 25.227 67.396 24.8712C67.5907 24.7957 67.7524 25.0847 67.5544 25.1602C66.5405 25.556 65.459 25.7523 64.3699 25.7382C63.7979 27.0364 63.1742 28.3127 62.4988 29.5671C62.3965 29.7543 62.1193 29.5671 62.2183 29.3931C63.1215 27.727 63.9312 26.0124 64.6438 24.2572C63.5526 23.4176 62.7735 22.2402 62.4295 20.9109Z" fill="#009DDC"/>
<path d="M62.4295 20.9109C62.419 20.8674 62.4263 20.8215 62.4498 20.7833C62.4733 20.7451 62.5111 20.7178 62.5549 20.7073C62.5986 20.6969 62.6448 20.7042 62.6832 20.7276C62.7215 20.751 62.749 20.7886 62.7595 20.8321C63.0775 22.054 63.7864 23.1398 64.7791 23.9255C65.1861 22.9053 65.5612 21.8731 65.9044 20.8288C65.1337 20.0144 64.5087 19.0749 64.0564 18.0507C63.9706 17.857 64.261 17.6994 64.3468 17.8931C64.7556 18.834 65.3138 19.7032 66.0001 20.4676C66.3829 19.2723 66.7261 18.0606 67.0231 16.839C67.0726 16.6321 67.3894 16.7306 67.3531 16.9375C66.9483 18.6123 66.4621 20.2607 65.8945 21.883C66.5201 21.7815 67.1307 21.6039 67.7128 21.3543C67.9075 21.2722 68.0659 21.5579 67.8712 21.6432C67.2 21.9375 66.4917 22.1397 65.7658 22.2442C65.383 23.3147 64.9606 24.3688 64.5085 25.4098C65.4962 25.4096 66.4753 25.227 67.396 24.8712C67.5907 24.7957 67.7524 25.0847 67.5544 25.1602C66.5405 25.556 65.459 25.7523 64.3699 25.7382C63.7979 27.0364 63.1742 28.3127 62.4988 29.5671C62.3965 29.7543 62.1193 29.5671 62.2183 29.3931C63.1215 27.727 63.9312 26.0124 64.6438 24.2572C63.5526 23.4176 62.7735 22.2402 62.4295 20.9109Z" fill="black" fill-opacity="0.5"/>
<path d="M56.3211 24.9632L57.179 26.5066C57.2952 26.3625 57.3969 26.2075 57.4826 26.0436C57.5816 25.8564 57.8588 26.0436 57.7631 26.2177C57.6526 26.4269 57.5187 26.623 57.3638 26.8022L58.2812 28.4835C58.3956 28.3829 58.4714 28.246 58.4957 28.096C58.5287 27.8891 58.8587 27.899 58.8257 28.096C58.7864 28.3553 58.6496 28.5901 58.4429 28.7528L59.6078 30.8446C59.6288 30.8829 59.6337 30.9279 59.6213 30.9698C59.6089 31.0117 59.5803 31.047 59.5418 31.0679C59.5033 31.0888 59.458 31.0936 59.416 31.0813C59.3739 31.069 59.3384 31.0405 59.3174 31.0022L57.7829 28.2438C57.5106 28.2399 57.2407 28.191 56.9843 28.0993C56.7863 28.0271 56.882 27.7118 57.0833 27.7709C57.2477 27.8281 57.4183 27.8655 57.5915 27.8826L56.0373 25.088C56.0349 25.0544 56.0431 25.0208 56.0606 24.9919C56.0781 24.9631 56.1042 24.9402 56.1352 24.9266C56.1662 24.913 56.2007 24.9092 56.2339 24.9157C56.2672 24.9223 56.2976 24.9389 56.3211 24.9632Z" fill="#009DDC"/>
<path d="M56.3211 24.9632L57.179 26.5066C57.2952 26.3625 57.3969 26.2075 57.4826 26.0436C57.5816 25.8564 57.8588 26.0436 57.7631 26.2177C57.6526 26.4269 57.5187 26.623 57.3638 26.8022L58.2812 28.4835C58.3956 28.3829 58.4714 28.246 58.4957 28.096C58.5287 27.8891 58.8587 27.899 58.8257 28.096C58.7864 28.3553 58.6496 28.5901 58.4429 28.7528L59.6078 30.8446C59.6288 30.8829 59.6337 30.9279 59.6213 30.9698C59.6089 31.0117 59.5803 31.047 59.5418 31.0679C59.5033 31.0888 59.458 31.0936 59.416 31.0813C59.3739 31.069 59.3384 31.0405 59.3174 31.0022L57.7829 28.2438C57.5106 28.2399 57.2407 28.191 56.9843 28.0993C56.7863 28.0271 56.882 27.7118 57.0833 27.7709C57.2477 27.8281 57.4183 27.8655 57.5915 27.8826L56.0373 25.088C56.0349 25.0544 56.0431 25.0208 56.0606 24.9919C56.0781 24.9631 56.1042 24.9402 56.1352 24.9266C56.1662 24.913 56.2007 24.9092 56.2339 24.9157C56.2672 24.9223 56.2976 24.9389 56.3211 24.9632Z" fill="black" fill-opacity="0.5"/>
<defs>
<linearGradient id="paint0_linear_1376_1435" x1="8.63286" y1="71.656" x2="30.2299" y2="57.4251" gradientUnits="userSpaceOnUse">
<stop stop-color="white" stop-opacity="0"/>
<stop offset="0.99" stop-color="#808080"/>
</linearGradient>
<linearGradient id="paint1_linear_1376_1435" x1="8537.2" y1="5290.19" x2="9649.15" y2="3661.47" gradientUnits="userSpaceOnUse">
<stop stop-color="white" stop-opacity="0"/>
<stop offset="0.99" stop-color="#808080"/>
</linearGradient>
<linearGradient id="paint2_linear_1376_1435" x1="4204.5" y1="3965.35" x2="5170.43" y2="2916.47" gradientUnits="userSpaceOnUse">
<stop stop-color="white" stop-opacity="0"/>
<stop offset="0.99" stop-color="#808080"/>
</linearGradient>
<linearGradient id="paint3_linear_1376_1435" x1="53.5953" y1="42.4136" x2="56.5443" y2="35.8088" gradientUnits="userSpaceOnUse">
<stop stop-color="white" stop-opacity="0"/>
<stop offset="1" stop-color="#006837"/>
</linearGradient>
</defs>
</svg>
