<svg width="132" height="99" viewBox="0 0 132 99" fill="none" xmlns="http://www.w3.org/2000/svg">
<path d="M68.0593 90.5116L117.477 62.9275C117.834 62.7272 118.133 62.4377 118.345 62.0874C118.556 61.7372 118.671 61.3382 118.68 60.9299C118.689 60.5217 118.591 60.1181 118.396 59.7589C118.2 59.3998 117.914 59.0975 117.566 58.8818L69.6598 29.3307C69.2961 29.1065 68.8781 28.9847 68.4504 28.9783C68.0226 28.9719 67.6012 29.0813 67.231 29.2946L14.959 59.4861C14.6014 59.6929 14.3047 59.9895 14.0985 60.3462C13.8922 60.7029 13.7837 61.1072 13.7837 61.5188C13.7837 61.9303 13.8922 62.3346 14.0985 62.6913C14.3047 63.048 14.6014 63.3446 14.959 63.5514L61.5715 90.4788C62.5568 91.0447 63.6733 91.3454 64.811 91.3511C65.9487 91.3569 67.0682 91.0675 68.0593 90.5116Z" fill="#009B72"/>
<path style="mix-blend-mode:multiply" d="M70.9335 56.5044C65.8845 59.8309 49.2492 72.4868 44.2563 75.879C52.7505 80.5453 57.3243 82.9917 58.2648 83.6649L88.6875 66.5036L70.9335 56.5044Z" fill="url(#paint0_linear_1376_1503)"/>
<path d="M45.0417 50.889C45.0417 50.889 45.6753 56.6816 49.3087 58.0116C52.942 59.3415 57.9613 54.2187 57.9613 54.2187L50.2591 48.5771" fill="#56403D"/>
<path d="M54.3609 35.1003C53.7009 34.6472 52.8297 34.8015 52.0509 35.1003C48.9027 36.3942 44.352 38.9588 44.4048 43.5365C44.4368 45.9936 44.6464 48.4453 45.0318 50.8725C45.1803 51.8248 45.309 53.0136 45.7941 53.828C46.5168 55.0561 49.7046 52.2879 50.3085 51.8216C51.3414 51.0269 52.3446 50.1797 53.3346 49.316C54.0705 48.6592 55.7139 47.6511 56.0109 46.6331C56.0667 46.402 56.0922 46.1647 56.0868 45.9271C56.1363 43.7728 56.0337 41.6177 55.7799 39.4777C55.6182 38.1149 55.5357 35.9082 54.3609 35.1003Z" fill="#56403D"/>
<path d="M61.9807 67.4625C62.1556 67.7055 61.7332 70.0272 62.5714 70.7464C63.4096 71.4655 65.5678 72.6838 64.9078 73.1895C62.9674 74.6804 58.5586 70.8908 58.5586 70.8908V66.8682" fill="#FF666D"/>
<path d="M66.99 65.4C67.1649 65.643 66.7425 67.9647 67.5807 68.6839C68.4189 69.403 70.5177 70.5556 69.9171 71.127C68.3067 72.6606 62.9673 69.3373 62.9673 69.3373L63.5679 64.8057" fill="#FF666D"/>
<path d="M51.325 52.1795C51.325 52.1795 51.0577 55.0561 52.4173 56.2121C53.7769 57.368 58.6345 58.7505 58.6345 58.7505C58.6345 58.7505 56.9845 66.6481 57.2914 67.3475C57.5983 68.047 61.1194 68.4443 62.9674 67.3475C62.9674 67.3475 65.6734 68.0437 67.4653 66.3985C67.4653 66.3985 70.9303 56.639 69.8281 53.4602C68.7259 50.2815 62.6737 49.3784 62.6737 49.3784L51.325 52.1795Z" fill="#FFE0DE"/>
<path d="M49.2954 57.2335V74.0696L50.3415 74.8052L51.9486 73.7544V56.9281L49.7541 55.9199L49.2954 57.2335Z" fill="#56403D"/>
<path d="M49.2954 55.9199L49.3086 58.0117L50.3943 58.1825L49.2954 55.9199Z" fill="#56403D"/>
<path d="M49.8004 58.4025L65.0794 67.2327C65.2392 67.3252 65.4214 67.3726 65.6063 67.3697C65.7913 67.3668 65.9719 67.3137 66.1288 67.2163L88.1332 53.4505C88.2829 53.3561 88.4052 53.2245 88.488 53.0686C88.5708 52.9127 88.6112 52.7379 88.6052 52.5617C88.5992 52.3855 88.547 52.2138 88.4538 52.0639C88.3606 51.9139 88.2296 51.7908 88.0738 51.7068L73.2238 43.7369C73.0724 43.653 72.902 43.6089 72.7288 43.6089C72.5555 43.6089 72.3851 43.653 72.2338 43.7369L49.7938 56.6325C49.6352 56.7206 49.5033 56.8493 49.4116 57.0052C49.32 57.1612 49.272 57.3388 49.2727 57.5194C49.2734 57.7001 49.3227 57.8773 49.4155 58.0326C49.5083 58.1879 49.6412 58.3156 49.8004 58.4025Z" fill="#56403D"/>
<path d="M67.9371 42.0783L79.068 35.6814C79.1571 35.6298 79.2582 35.6026 79.3611 35.6025C79.4641 35.6024 79.5653 35.6294 79.6544 35.6808C79.7435 35.7321 79.8174 35.806 79.8686 35.8949C79.9198 35.9838 79.9464 36.0846 79.9458 36.1871V44.6429C79.9454 44.8061 79.9015 44.9662 79.8186 45.1069C79.7357 45.2477 79.6168 45.3641 79.4739 45.4442L68.508 51.6145C68.4025 51.6786 68.2817 51.7137 68.158 51.716C68.0344 51.7183 67.9123 51.6877 67.8045 51.6276C67.6966 51.5674 67.6068 51.4797 67.5443 51.3735C67.4817 51.2673 67.4488 51.1465 67.4487 51.0234V42.9123C67.4494 42.7429 67.4949 42.5766 67.5806 42.4302C67.6664 42.2838 67.7893 42.1624 67.9371 42.0783Z" fill="#6DE2FC"/>
<path d="M86.3479 51.4273V66.9893L87.394 67.7216L89.0011 66.6708V51.1416C88.1101 51.1646 87.229 51.3025 86.3479 51.4273Z" fill="#56403D"/>
<path d="M63.3699 63.8765V80.7127L64.416 81.445L66.0231 80.3942V63.5678L63.8253 62.563L63.3699 63.8765Z" fill="#56403D"/>
<path d="M49.7081 56.8523L65.3567 65.919C65.4866 65.9972 65.6355 66.0386 65.7873 66.0386C65.9391 66.0386 66.0881 65.9972 66.218 65.919L88.5788 51.9299C88.7026 51.8532 88.8039 51.7455 88.8727 51.6175C88.9415 51.4895 88.9752 51.3458 88.9705 51.2007C88.9659 51.0557 88.9229 50.9144 88.846 50.7911C88.7692 50.6678 88.6611 50.5667 88.5326 50.4981L73.3262 42.305C73.2021 42.2359 73.0624 42.1997 72.9203 42.1997C72.7781 42.1997 72.6384 42.2359 72.5144 42.305L49.7114 55.4107C49.5828 55.4825 49.4757 55.587 49.4011 55.7134C49.3265 55.8399 49.287 55.9839 49.2866 56.1306C49.2863 56.2772 49.3251 56.4214 49.3992 56.5482C49.4732 56.675 49.5798 56.78 49.7081 56.8523Z" fill="#FFC050"/>
<path d="M67.9371 42.0783L79.068 35.6814C79.1571 35.6298 79.2582 35.6026 79.3611 35.6025C79.4641 35.6024 79.5653 35.6294 79.6544 35.6808C79.7435 35.7321 79.8174 35.806 79.8686 35.8949C79.9198 35.9838 79.9464 36.0846 79.9458 36.1871V44.6429C79.9454 44.8061 79.9015 44.9662 79.8186 45.1069C79.7357 45.2477 79.6168 45.3641 79.4739 45.4442L68.508 51.6145C68.4025 51.6786 68.2817 51.7137 68.158 51.716C68.0344 51.7183 67.9123 51.6877 67.8045 51.6276C67.6966 51.5674 67.6068 51.4797 67.5443 51.3735C67.4817 51.2673 67.4488 51.1465 67.4487 51.0234V42.9123C67.4494 42.7429 67.4949 42.5766 67.5806 42.4302C67.6664 42.2838 67.7893 42.1624 67.9371 42.0783Z" fill="#56403D"/>
<path d="M66.5808 60.005L71.7189 56.9577L65.6799 53.4111L60.3933 56.4585L66.5808 60.005Z" fill="#56403D"/>
<path d="M68.8283 59.7717L73.9697 56.7275L67.9273 53.1777L62.644 56.2251L68.8283 59.7717Z" fill="#68E1FD"/>
<path d="M73.0225 47.5594V51.1781L75.5437 49.8318V46.2754" fill="#56403D"/>
<path d="M74.1527 51.5325C76.2768 50.4961 77.7977 49.2481 77.5498 48.7449C77.3018 48.2417 75.3789 48.674 73.2549 49.7104C71.1308 50.7468 69.6099 51.9948 69.8579 52.498C70.1058 53.0012 72.0287 52.5689 74.1527 51.5325Z" fill="#56403D"/>
<path d="M91.0338 30.1647C91.1385 30.3663 91.2979 30.5347 91.4938 30.6508C91.6898 30.7669 91.9145 30.826 92.1426 30.8215C92.2027 30.8126 92.2615 30.7961 92.3175 30.7723H92.4033C93.0632 30.8248 93.1853 29.9644 92.7333 29.6755C92.6823 29.5193 92.6016 29.3744 92.4957 29.2486C92.5048 29.1331 92.4758 29.0178 92.4132 28.9202C92.3981 28.8972 92.3779 28.878 92.3541 28.864C92.3304 28.8501 92.3037 28.8419 92.2762 28.84C92.2487 28.8381 92.2211 28.8425 92.1956 28.853C92.1701 28.8635 92.1475 28.8798 92.1293 28.9005L91.9017 28.7199C91.7235 28.5819 91.5486 28.8841 91.7268 29.0187C91.8684 29.1188 92.0029 29.2285 92.1293 29.3471C92.0842 29.46 92.0313 29.5697 91.971 29.6755C91.8823 29.8303 91.8303 30.0033 91.8192 30.1812C91.8205 30.268 91.8419 30.3535 91.8819 30.4307C91.8301 30.4171 91.7803 30.3972 91.7334 30.3716C91.0734 30.0203 90.9579 29.0778 91.0734 28.4309C91.1163 28.2109 90.7797 28.1189 90.7434 28.3389C90.6055 28.9622 90.7092 29.6143 91.0338 30.1647ZM92.2613 30.3749C92.2164 30.3099 92.1904 30.2337 92.1863 30.1549C92.1823 30.076 92.2002 29.9976 92.2383 29.9283L92.2844 29.8265C92.2901 29.8545 92.3047 29.8799 92.3262 29.8988C92.3476 29.9178 92.3747 29.9293 92.4033 29.9316H92.4231C92.4358 30.0131 92.4277 30.0964 92.3994 30.1739C92.3711 30.2514 92.3237 30.3206 92.2613 30.3749Z" fill="#FF413B"/>
<path d="M91.08 19.7321C90.9051 19.5909 91.1526 19.3479 91.3276 19.4858C91.4561 19.5932 91.5616 19.7253 91.6379 19.874C91.7141 20.0228 91.7596 20.1853 91.7716 20.3519C91.7836 20.5185 91.7619 20.6858 91.7077 20.8439C91.6536 21.0019 91.568 21.1476 91.4563 21.2722C91.3045 21.4397 91.0603 21.1934 91.2088 21.0259C91.2878 20.9335 91.3473 20.8261 91.3837 20.7103C91.4201 20.5945 91.4327 20.4725 91.4206 20.3518C91.4086 20.231 91.3723 20.1139 91.3138 20.0074C91.2552 19.9009 91.1758 19.8073 91.08 19.7321Z" fill="#FF413B"/>
<path d="M83.2789 23.9125L83.3779 24.0668C83.3002 24.2492 83.2795 24.4506 83.3185 24.6448C83.3567 24.8074 83.4438 24.9546 83.5682 25.0666C83.6926 25.1787 83.8484 25.2503 84.0148 25.272C84.0619 25.2781 84.1096 25.2781 84.1567 25.272C84.1834 25.2961 84.2169 25.3113 84.2527 25.3157C84.2884 25.3201 84.3247 25.3134 84.3565 25.2965C84.3882 25.2796 84.414 25.2533 84.4302 25.2213C84.4464 25.1893 84.4523 25.1531 84.4471 25.1177C84.5502 25.0152 84.6114 24.8783 84.6187 24.7335C84.6115 24.4544 84.5011 24.1878 84.3085 23.9847C84.6879 23.9947 85.0656 24.0386 85.4371 24.1161C85.6582 24.1621 85.7506 23.8271 85.5295 23.7877C85.0436 23.6844 84.5479 23.6338 84.0511 23.6367L84.0907 23.5841C84.226 23.4068 83.9224 23.2327 83.7904 23.4101C83.731 23.4856 83.6683 23.571 83.6122 23.6564H83.4307C83.401 23.6576 83.3722 23.6663 83.3467 23.6815C83.3213 23.6967 83.3 23.718 83.285 23.7434C83.2699 23.7689 83.2614 23.7977 83.2604 23.8272C83.2593 23.8567 83.2657 23.886 83.2789 23.9125ZM83.7772 24.0439L83.8135 23.9782C83.9691 24.1082 84.097 24.2679 84.1897 24.4478C84.2392 24.5499 84.252 24.6658 84.226 24.7761L83.7772 24.0439Z" fill="#FF413B"/>
<path d="M101.455 38.9915C101.653 38.8897 101.831 39.1886 101.63 39.2904C101.201 39.5104 100.525 39.8552 100.68 40.4463C100.759 40.7451 101.03 40.8929 101.29 40.6794C101.467 40.4904 101.587 40.2562 101.637 40.003C101.655 39.9673 101.685 39.9391 101.722 39.923C101.759 39.907 101.801 39.9041 101.839 39.915C101.878 39.9258 101.912 39.9496 101.935 39.9824C101.958 40.0152 101.97 40.0549 101.967 40.0949C101.895 40.4816 101.675 40.8254 101.353 41.0538C101.209 41.1353 101.039 41.1599 100.878 41.1228C100.717 41.0857 100.575 40.9896 100.482 40.8535C99.8845 40.0555 100.802 39.3429 101.455 38.9915Z" fill="#FF413B"/>
<path d="M99.66 24.2737C99.7887 24.0931 100.092 24.2737 99.9603 24.4477C99.8636 24.5663 99.7939 24.7042 99.756 24.8521C99.718 25 99.7126 25.1543 99.7403 25.3044C99.7679 25.4545 99.8278 25.5969 99.916 25.7218C100.004 25.8467 100.119 25.9511 100.251 26.0279C100.384 26.1046 100.531 26.1519 100.684 26.1665C100.837 26.181 100.991 26.1625 101.136 26.1123C101.28 26.062 101.413 25.9811 101.523 25.8751C101.633 25.7692 101.719 25.6407 101.775 25.4986C101.871 25.295 102.171 25.4723 102.076 25.6726C101.998 25.8563 101.882 26.0215 101.735 26.157C101.588 26.2925 101.414 26.3953 101.224 26.4585C101.034 26.5218 100.832 26.5439 100.633 26.5236C100.434 26.5033 100.241 26.4409 100.068 26.3406C99.8949 26.2404 99.7452 26.1045 99.629 25.9421C99.5128 25.7798 99.4327 25.5946 99.3941 25.399C99.3555 25.2034 99.3592 25.0019 99.4051 24.8078C99.4509 24.6138 99.5378 24.4317 99.66 24.2737Z" fill="#FF413B"/>
<path d="M86.7604 12.2186C81.0085 16.0015 80.7016 25.6199 86.0707 33.6981C91.4398 41.7763 100.805 45.7398 106.201 41.4742C112.596 36.4236 111.012 25.3834 105.709 18.0277C101.142 11.6932 92.509 8.43232 86.7604 12.2186Z" fill="#009B72"/>
<path d="M104.466 41.9703C109.45 38.6898 109.237 29.6292 103.989 21.733C98.7404 13.8367 90.4452 10.095 85.4606 13.3755C80.4761 16.656 80.6898 25.7166 85.938 33.6128C91.1861 41.5091 99.4814 45.2508 104.466 41.9703Z" fill="#68E1FD"/>
<path opacity="0.42" d="M104.466 41.9703C109.45 38.6898 109.237 29.6292 103.989 21.733C98.7404 13.8367 90.4452 10.095 85.4606 13.3755C80.4761 16.656 80.6898 25.7166 85.938 33.6128C91.1861 41.5091 99.4814 45.2508 104.466 41.9703Z" fill="#009B72"/>
<path d="M102.014 38.8806C106.011 36.2503 105.969 29.1811 101.922 23.091C97.8739 17.001 91.3528 14.1962 87.3563 16.8264C83.3599 19.4566 83.4014 26.5259 87.4492 32.6159C91.4969 38.706 98.018 41.5108 102.014 38.8806Z" fill="white"/>
<path d="M88.8064 19.0096L94.06 29.1894C94.115 29.283 94.1994 29.3559 94.3002 29.3968C94.4011 29.4378 94.5126 29.4445 94.6177 29.416L99.4423 27.5114C100.026 27.2815 99.7723 26.3259 99.1783 26.5624L94.357 28.4834L94.9147 28.71L89.6611 18.5301C89.3707 17.9653 88.516 18.4644 88.8064 19.026V19.0096Z" fill="#42210B"/>
<path d="M93.5187 17.8999C94.3436 17.8999 94.3436 19.1773 93.5187 19.1773C92.6937 19.1773 92.6904 17.8999 93.5187 17.8999Z" fill="#606060"/>
<path d="M95.1556 37.0215C95.9806 37.0215 95.9806 38.2989 95.1556 38.2989C94.3306 38.2989 94.3306 37.0215 95.1556 37.0215Z" fill="#606060"/>
<path d="M86.3612 26.395C87.1862 26.395 87.1862 27.6724 86.3612 27.6724C85.5362 27.6724 85.5329 26.395 86.3612 26.395Z" fill="#606060"/>
<path d="M102.745 28.2832C103.57 28.2832 103.57 29.5606 102.745 29.5606C101.92 29.5606 101.917 28.2832 102.745 28.2832Z" fill="#606060"/>
<path d="M94.2712 7.95947V11.9263H97.8979V7.95947" fill="#68E1FD"/>
<path d="M96.0861 13.0363C97.0867 13.0363 97.8978 12.5393 97.8978 11.9263C97.8978 11.3133 97.0867 10.8164 96.0861 10.8164C95.0855 10.8164 94.2744 11.3133 94.2744 11.9263C94.2744 12.5393 95.0855 13.0363 96.0861 13.0363Z" fill="#68E1FD"/>
<path opacity="0.42" d="M94.2712 7.95947V11.9263C94.2712 12.5404 95.083 13.0363 96.0829 13.0363C97.0828 13.0363 97.8946 12.5404 97.8946 11.9263V7.95947H94.2712Z" fill="black"/>
<path d="M96.0861 9.06948C97.0867 9.06948 97.8978 8.57254 97.8978 7.95954C97.8978 7.34654 97.0867 6.84961 96.0861 6.84961C95.0855 6.84961 94.2744 7.34654 94.2744 7.95954C94.2744 8.57254 95.0855 9.06948 96.0861 9.06948Z" fill="#68E1FD"/>
<path d="M101.525 12.8457L99.9242 14.6124C99.8487 14.7598 99.8268 14.9287 99.8623 15.0903C99.8978 15.252 99.9885 15.3964 100.119 15.499C100.422 15.8011 100.842 15.8734 101.056 15.6599L102.63 13.9392L101.525 12.8457Z" fill="#68E1FD"/>
<path opacity="0.42" d="M101.525 12.8457L99.9242 14.6124C99.8487 14.7598 99.8268 14.9287 99.8623 15.0903C99.8978 15.252 99.9885 15.3964 100.119 15.499C100.422 15.8011 100.842 15.8734 101.056 15.6599L102.63 13.9392L101.525 12.8457Z" fill="black"/>
<path d="M102.622 13.9412C102.836 13.7284 102.764 13.3115 102.461 13.0101C102.158 12.7087 101.739 12.637 101.526 12.8499C101.312 13.0628 101.384 13.4797 101.687 13.781C101.989 14.0824 102.408 14.1541 102.622 13.9412Z" fill="#68E1FD"/>
<path opacity="0.37" d="M94.4856 28.9496C94.4856 28.9496 97.7064 18.5268 97.7163 18.5366C97.7262 18.5465 101.511 21.6595 103.363 25.6527L94.4856 28.9496Z" fill="#36B2BF"/>
<path d="M57.0044 56.5928C57.2651 56.9211 57.0572 57.6403 58.4102 58.2347C59.7632 58.829 63.0302 58.9834 62.5121 57.6797C61.994 56.376 59.4101 55.9229 59.4101 55.9229" fill="#009B72"/>
<path d="M57.727 53.71C58.3615 54.3421 59.029 54.9406 59.7268 55.5029C60.2152 55.8313 62.0929 56.4191 61.9543 57.0529C61.8157 57.6867 60.1558 56.5275 60.0469 56.5931C59.938 56.6588 59.8984 57.1481 58.9117 57.2499C57.925 57.3517 57.5059 57.2335 57.2617 56.9215C57.0175 56.6096 55.8064 55.1647 56.2222 54.6458C56.638 54.127 57.727 53.71 57.727 53.71Z" fill="#FBB5AD"/>
<path d="M69.7687 37.9737C69.7687 37.9737 71.3065 36.5847 71.7652 35.7112C72.224 34.8377 72.5936 35.6586 72.5573 36.0855C72.521 36.5124 71.7652 37.3629 71.7652 37.3629C71.7652 37.3629 72.0061 38.1872 72.0061 38.2955C72.0061 38.4039 72.2339 39.6091 71.5342 40.0064C70.8346 40.4038 69.3727 40.4629 69.3727 40.4629L69.1318 38.5254L69.7687 37.9737Z" fill="#FBB5AD"/>
<path d="M69.8247 37.3135C66.264 39.2148 61.875 39.3527 58.0305 38.1771C57.9778 38.1715 57.9247 38.1715 57.8721 38.1771L58.0602 43.2178C64.3038 44.9254 70.2207 40.7779 70.2207 40.7779C69.6729 39.9143 69.7026 38.4201 69.8247 37.3135Z" fill="#F47A63"/>
<path d="M58.7929 39.4052C58.3258 38.6074 57.7017 37.9116 56.9581 37.3594C55.8922 37.98 54.2224 38.3445 53.2423 39.1129C50.467 41.2803 50.6023 45.0829 50.8894 48.2321C51.0115 49.5227 51.325 50.8887 51.325 52.1727C52.2535 52.5687 53.2438 52.802 54.2521 52.8623C55.957 51.7981 57.5927 50.6278 59.1493 49.3585C59.0965 46.0418 58.9975 42.7219 58.7929 39.4052Z" fill="#F47A63"/>
<path d="M58.7402 35.2779C58.7402 35.2779 58.9316 40.4959 57.1496 40.8407C55.3676 41.1855 53.8793 39.7275 53.7539 38.7259C53.6285 37.7243 54.0641 36.309 54.0641 36.309C54.0641 36.309 55.6085 34.7459 58.7402 35.2779Z" fill="#FBB5AD"/>
<path d="M59.0701 34.4109C59.344 33.1992 57.75 32.1122 56.7897 33.0186C56.622 32.8155 56.4116 32.6514 56.1732 32.538C55.9349 32.4245 55.6745 32.3644 55.4103 32.3618C54.6612 32.3618 54.318 32.8248 54.2553 33.5177C54.0474 33.4771 53.8327 33.4856 53.6286 33.5426C53.4246 33.5997 53.2368 33.7036 53.0805 33.8461C52.9021 34.0201 52.782 34.2447 52.7365 34.4892C52.691 34.7336 52.7224 34.9861 52.8264 35.2122C52.5508 35.2687 52.3026 35.4169 52.1227 35.6323C51.9428 35.8477 51.8419 36.1176 51.8364 36.3976C51.8141 36.6565 51.8596 36.9167 51.9684 37.1529C51.9215 37.225 51.8827 37.3021 51.8529 37.3828C51.7772 37.603 51.7681 37.8405 51.8268 38.0659C51.8854 38.2912 52.0093 38.4944 52.1829 38.6503C52.3838 38.8444 52.6394 38.9727 52.9155 39.0181C52.9747 39.2079 53.0866 39.3772 53.2385 39.5062C53.3904 39.6353 53.5759 39.7188 53.7735 39.7471C54.0216 39.7806 54.2733 39.7222 54.4808 39.5829C54.6883 39.4436 54.8371 39.2332 54.8988 38.9919C54.9342 38.8556 54.9398 38.7134 54.9153 38.5748C55.2359 38.1097 55.3808 37.5467 55.3245 36.9854C55.4029 36.9749 55.4795 36.9539 55.5522 36.9231C55.7762 36.821 55.9539 36.6395 56.0506 36.4141C56.2675 36.5377 56.5133 36.6023 56.7633 36.6012C56.8816 36.5977 56.9968 36.5634 57.0976 36.5018C57.1983 36.4401 57.2811 36.3533 57.3376 36.2499C57.9019 36.5093 58.7764 36.4305 59.1757 35.951C59.3512 35.7262 59.4374 35.445 59.418 35.1609C59.3985 34.8769 59.2746 34.6099 59.0701 34.4109Z" fill="#D86212"/>
<path d="M55.44 38.2563C55.44 38.0904 55.4061 37.9263 55.3403 37.7738C55.2745 37.6214 55.1781 37.4839 55.0572 37.3697C54.9441 37.2388 54.7837 37.1575 54.6107 37.1433C54.4378 37.1292 54.2662 37.1834 54.1332 37.2942C54.0287 37.4066 53.962 37.5486 53.9425 37.7005C53.923 37.8523 53.9516 38.0065 54.0243 38.1414C54.1959 38.4698 54.5589 38.5388 54.8526 38.7226C55.0275 38.8343 55.1826 38.6635 55.1628 38.4993C55.1974 38.5035 55.2325 38.5003 55.2658 38.4901C55.2992 38.4798 55.3299 38.4626 55.3561 38.4396C55.3823 38.4167 55.4033 38.3885 55.4177 38.3569C55.4322 38.3253 55.4398 38.2911 55.44 38.2563Z" fill="#FBB5AD"/>
<path d="M57.9875 37.4054C57.9875 37.2839 57.7961 37.3036 57.7994 37.4219V38.2362C57.8103 38.3608 57.8103 38.486 57.7994 38.6106C57.7632 38.8273 57.6477 38.8503 57.4695 38.9193C57.4486 38.9299 57.4325 38.9478 57.424 38.9695C57.4155 38.9912 57.4153 39.0152 57.4234 39.0371C57.4316 39.0589 57.4475 39.077 57.4681 39.088C57.4887 39.099 57.5127 39.102 57.5355 39.0966C57.7731 39.0047 57.9644 38.9751 57.9941 38.7025C58.0189 38.2705 58.0167 37.8373 57.9875 37.4054Z" fill="#56403D"/>
<path d="M58.4564 37.2676C58.4342 37.268 58.4129 37.2761 58.3961 37.2904C58.3793 37.3047 58.3679 37.3244 58.364 37.346C58.3601 37.3677 58.3639 37.3901 58.3748 37.4093C58.3856 37.4285 58.4028 37.4434 58.4234 37.4515C58.4455 37.451 58.4668 37.443 58.4836 37.4287C58.5005 37.4144 58.5118 37.3947 58.5157 37.373C58.5196 37.3513 58.5158 37.3289 58.505 37.3097C58.4942 37.2905 58.477 37.2756 58.4564 37.2676Z" fill="#56403D"/>
<path d="M56.5521 37.5532C56.5299 37.5537 56.5086 37.5617 56.4918 37.576C56.475 37.5903 56.4636 37.61 56.4597 37.6317C56.4559 37.6534 56.4596 37.6757 56.4705 37.695C56.4813 37.7142 56.4985 37.7291 56.5191 37.7371C56.5412 37.7367 56.5625 37.7286 56.5794 37.7143C56.5962 37.7 56.6075 37.6803 56.6114 37.6586C56.6153 37.637 56.6115 37.6146 56.6007 37.5954C56.5899 37.5761 56.5727 37.5613 56.5521 37.5532Z" fill="#56403D"/>
<path d="M51.81 40.7681C50.8444 41.8362 50.2953 43.2132 50.2623 44.6495C50.1666 47.1288 51.1038 52.5077 55.4862 55.5026C55.4862 55.5026 57.2649 53.9789 58.7037 53.8607C58.7037 53.8607 55.3542 49.5359 55.4235 47.5918" fill="#F47A63"/>
<path d="M58.5454 53.8475C56.4598 50.7935 54.6547 47.4604 54.2884 43.7267C54.2686 43.5198 53.9386 43.5165 53.9584 43.7267C54.3313 47.5228 56.1364 50.9051 58.2484 54.0116C58.3771 54.1857 58.6642 54.0215 58.5454 53.8475Z" fill="#56403D"/>
<path d="M72.0621 31.9545L78.7941 28.0861C78.8479 28.0548 78.9091 28.0382 78.9714 28.0381C79.0337 28.0379 79.095 28.0542 79.149 28.0852C79.2029 28.1162 79.2477 28.1609 79.2787 28.2147C79.3097 28.2685 79.3258 28.3295 79.3254 28.3915V33.5077C79.3256 33.6065 79.2993 33.7035 79.2495 33.7888C79.1996 33.8742 79.1279 33.9449 79.0416 33.9937L72.4119 37.7241C72.348 37.7624 72.275 37.7832 72.2004 37.7843C72.1258 37.7854 72.0523 37.7668 71.9872 37.7304C71.9222 37.6941 71.868 37.6412 71.8301 37.5772C71.7923 37.5133 71.7721 37.4404 71.7717 37.3662V32.4602C71.7715 32.358 71.7982 32.2575 71.8491 32.1688C71.9001 32.08 71.9735 32.0061 72.0621 31.9545Z" fill="#68E1FD"/>
<path style="mix-blend-mode:multiply" d="M27.1658 64.9077C27.1508 64.8938 27.1388 64.8771 27.1306 64.8584C27.1224 64.8398 27.1182 64.8197 27.1182 64.7993C27.1182 64.779 27.1224 64.7588 27.1306 64.7402C27.1388 64.7215 27.1508 64.7048 27.1658 64.6909L27.3638 64.4939C27.3899 64.4664 27.425 64.449 27.4628 64.4447C27.5354 64.3834 27.6102 64.3253 27.6872 64.2706C27.7062 63.8756 27.7481 63.482 27.8126 63.0917C27.817 63.0678 27.8272 63.0452 27.8423 63.026L21.3842 59.3843C20.2721 60.1166 17.8763 61.8833 15.4871 63.6533C17.609 65.2952 20.1071 66.3427 22.4666 67.5938L27.1493 64.9668L27.1658 64.9077Z" fill="url(#paint1_linear_1376_1503)"/>
<path d="M23.43 57.5976C21.7272 57.4499 19.9353 56.9409 18.678 55.7817V60.8026C18.678 62.1848 19.2297 63.5103 20.2119 64.4877C21.194 65.465 22.5261 66.0141 23.9151 66.0141C25.304 66.0141 26.6361 65.465 27.6183 64.4877C28.6004 63.5103 29.1522 62.1848 29.1522 60.8026V55.6963C27.3735 56.4187 25.344 57.7618 23.43 57.5976Z" fill="#009DDC"/>
<path d="M23.9217 58.5107C26.814 58.5107 29.1588 57.2742 29.1588 55.749C29.1588 54.2238 26.814 52.9873 23.9217 52.9873C21.0293 52.9873 18.6846 54.2238 18.6846 55.749C18.6846 57.2742 21.0293 58.5107 23.9217 58.5107Z" fill="#009B72"/>
<path d="M23.9219 56.2154C23.9219 56.2154 20.3612 55.6933 19.4207 49.9762C19.4207 49.963 22.4402 51.6312 23.9219 56.2154Z" fill="#009B72"/>
<path d="M24.4464 55.4863C24.4464 55.4863 20.3609 48.1929 24.4464 43.2935C25.6932 47.263 25.6932 51.5167 24.4464 55.4863Z" fill="#009B72"/>
<path d="M23.9219 50.9019C23.9219 50.9019 20.3612 50.3798 19.4207 44.6627C19.4207 44.6495 22.4402 46.3177 23.9219 50.9019Z" fill="#009B72"/>
<path d="M24.354 53.2369C24.354 53.2369 23.463 49.7692 28.4097 46.689C28.413 46.6922 28.05 50.1206 24.354 53.2369Z" fill="#009B72"/>
<path d="M23.9217 58.5107C26.814 58.5107 29.1588 57.2742 29.1588 55.749C29.1588 54.2238 26.814 52.9873 23.9217 52.9873C21.0293 52.9873 18.6846 54.2238 18.6846 55.749C18.6846 57.2742 21.0293 58.5107 23.9217 58.5107Z" fill="#146666"/>
<path d="M23.9219 56.2154C23.9219 56.2154 20.3612 55.6933 19.4207 49.9762C19.4207 49.963 22.4402 51.6312 23.9219 56.2154Z" fill="#009B72"/>
<path d="M24.4464 55.4863C24.4464 55.4863 20.3609 48.1929 24.4464 43.2935C25.6932 47.263 25.6932 51.5167 24.4464 55.4863Z" fill="#009B72"/>
<path d="M23.9219 50.9019C23.9219 50.9019 20.3612 50.3798 19.4207 44.6627C19.4207 44.6495 22.4402 46.3177 23.9219 50.9019Z" fill="#009B72"/>
<path d="M24.354 53.2369C24.354 53.2369 23.463 49.7692 28.4097 46.689C28.413 46.6922 28.05 50.1206 24.354 53.2369Z" fill="#009B72"/>
<defs>
<linearGradient id="paint0_linear_1376_1503" x1="78.4212" y1="54.8789" x2="63.9419" y2="74.8532" gradientUnits="userSpaceOnUse">
<stop offset="0.01" stop-color="#88A80D"/>
<stop offset="1" stop-color="white"/>
</linearGradient>
<linearGradient id="paint1_linear_1376_1503" x1="958.683" y1="1529.31" x2="827.167" y2="1800.95" gradientUnits="userSpaceOnUse">
<stop offset="0.01" stop-color="#88A80D"/>
<stop offset="1" stop-color="white"/>
</linearGradient>
</defs>
</svg>
