<svg width="257" height="512" viewBox="0 0 257 512" fill="none" xmlns="http://www.w3.org/2000/svg">
<path opacity="0.36" d="M260.585 16.7212C251.975 15.31 243.231 14.596 234.377 14.5792C225.524 14.89 216.586 15.9232 207.615 17.6452C198.694 19.6948 189.824 22.3996 181.113 25.726C172.57 29.3128 164.338 33.4372 156.568 38.0572C149.168 42.8284 142.423 48.0112 136.501 53.5384C131.158 59.116 126.79 64.9624 123.506 71.0272C120.818 77.0332 119.171 83.2156 118.474 89.5324C118.012 95.7232 118.105 102.023 118.449 108.407C118.189 114.648 117.475 120.965 115.887 127.358C112.737 133.599 108.1 139.932 101.767 146.367C93.543 152.658 83.7318 159.084 72.6438 165.636C60.6822 172.079 48.5694 178.682 37.095 185.452C26.8806 192.147 18.8166 199.035 13.617 206.124C11.3406 213.172 12.4662 220.43 16.8846 227.922C23.5626 235.382 32.2398 243.093 41.8746 251.039C50.787 258.977 58.4058 267.176 63.7062 275.626C65.5794 284.076 64.2354 292.594 60.0102 301.145C53.0718 309.705 44.8314 318.298 36.3642 326.908C28.1826 335.518 21.8154 344.12 17.9934 352.688C16.725 361.239 18.699 369.723 23.7474 378.081C31.257 386.388 40.9926 394.536 52.2234 402.458C64.1682 410.253 76.2642 417.762 87.873 424.919C98.4738 431.866 107.806 438.384 115.694 444.39C121.943 450.111 126.807 455.252 130.495 459.746C135.845 469.515 143.347 476.092 148.067 475.79C151.847 475.37 156.484 474.58 161.919 473.496C167.698 472.682 174.166 471.8 181.205 470.968C188.471 470.699 196.174 470.674 204.213 470.985C212.344 472.068 220.711 473.597 229.237 475.588C237.788 478.385 246.448 481.586 255.184 485.13C263.92 489.263 272.53 493.413 281.006 497.42C289.498 501.603 297.898 505.341 306.223 508.508C314.606 511.439 322.955 513.556 331.297 514.782C339.747 515.488 348.231 515.177 356.749 513.858C365.375 511.91 374.036 508.953 382.705 505.055C391.415 500.578 400.059 495.252 408.568 489.188C416.943 482.703 425.041 475.613 432.752 468.045C440.11 460.241 446.923 452.085 453.071 443.685C458.725 435.218 463.63 426.608 467.771 417.922C471.451 409.278 474.449 400.626 476.835 392C479.078 383.482 480.959 374.998 482.623 366.59C484.588 358.29 486.613 350.042 488.797 341.852C491.577 333.754 494.609 325.69 497.852 317.651C501.59 309.68 505.336 301.708 508.906 293.736C512.476 285.798 515.5 277.844 517.768 269.872C519.507 261.909 520.229 253.912 519.877 245.898C518.885 237.893 516.962 230.048 514.316 222.395C511.493 214.743 508.343 207.284 505.059 200.034C502.169 192.794 499.439 185.788 496.936 179.018C495.063 172.272 493.391 165.788 491.837 159.588C490.67 153.414 489.343 147.526 487.721 141.948C486.008 136.388 483.689 131.129 480.682 126.19C477.213 121.242 472.921 116.589 467.83 112.238C462.202 107.844 455.843 103.712 448.88 99.8308C441.555 95.8492 433.802 92.0692 425.755 88.4908C417.632 84.7444 409.383 81.1324 401.101 77.6548C392.944 73.942 384.847 70.3216 376.833 66.7768C369.038 62.9716 361.318 59.2252 353.649 55.5544C346.198 51.6232 338.747 47.7928 331.246 44.08C323.896 40.174 316.437 36.4528 308.81 32.9668C301.267 29.4136 293.505 26.1796 285.483 23.3572C277.495 20.6104 269.204 18.376 260.594 16.7212" stroke="url(#paint0_linear_2276_3835)" stroke-width="2" stroke-linecap="round" stroke-dasharray="3 2"/>
<path opacity="0.23" d="M239.798 27.5456C231.353 26.7357 222.923 26.5985 214.556 27.1221C206.219 27.9551 197.964 29.4645 189.864 31.6365C181.862 34.1048 174.098 37.2047 166.668 40.8621C159.458 44.7734 152.713 49.1824 146.562 54.0293C140.775 59.0106 135.721 64.3528 131.513 69.9888C127.77 75.651 124.935 81.5354 123.03 87.5898C121.492 93.5931 120.729 99.7185 120.605 105.95C120.407 112.086 120.418 118.334 120.336 124.681C119.423 130.951 117.813 137.364 115.186 143.932C111.025 150.466 105.445 157.193 98.3801 164.109C89.7566 171.017 79.9341 178.119 69.2815 185.389C58.195 192.597 47.3609 199.922 37.5011 207.33C29.0772 214.561 22.8862 221.81 19.4721 229.032C18.7364 236.023 21.0978 242.989 26.381 249.95C33.5477 256.754 42.3889 263.658 51.9912 270.727C60.8214 277.833 68.4365 285.262 73.9644 293.065C76.3668 301.089 75.8809 309.35 72.7573 317.823C67.111 326.466 60.1593 335.227 52.8372 343.988C45.5563 352.738 39.7149 361.361 35.9971 369.766C34.4303 377.986 35.7556 385.901 39.9282 393.471C46.4337 400.81 55.2048 407.794 65.6507 414.408C77.0849 420.826 89.0501 426.894 100.922 432.59C112.227 438.141 122.629 443.301 131.874 448.046C139.751 452.626 146.332 456.743 151.722 460.32C161.102 468.179 170.747 473.115 174.808 472.542C179.773 471.543 193.552 468.473 202.271 466.973C208.511 466.507 215.279 466.222 222.503 466.217C229.879 466.917 237.617 467.979 245.668 469.415C253.804 471.585 262.192 474.092 270.792 476.87C279.431 480.192 288.06 483.507 296.647 486.69C305.254 490.04 313.833 492.987 322.358 495.417C330.912 497.659 339.43 499.154 347.917 499.852C356.422 500.093 364.905 499.41 373.346 497.794C381.765 495.625 390.118 492.517 398.358 488.525C406.494 484.009 414.43 478.691 422.089 472.668C429.5 466.25 436.501 459.254 443.006 451.797C449.107 444.107 454.587 436.091 459.367 427.829C463.68 419.5 467.267 411.027 470.142 402.496C472.666 393.99 474.598 385.466 476.037 376.977C477.445 368.549 478.622 360.163 479.675 351.828C481.111 343.55 482.676 335.296 484.446 327.095C486.825 318.927 489.448 310.768 492.277 302.652C495.545 294.548 498.797 286.47 501.851 278.431C504.848 270.43 507.292 262.468 508.965 254.569C510.104 246.724 510.237 238.951 509.315 231.269C507.749 223.632 505.282 216.244 502.109 209.117C498.743 202.003 495.04 195.124 491.202 188.473C487.734 181.804 484.415 175.361 481.341 169.144C478.887 162.901 476.677 156.893 474.656 151.158C473.078 145.392 471.452 139.906 469.647 134.737C467.85 129.559 465.579 124.701 462.741 120.177C459.524 115.646 455.573 111.445 450.886 107.566C445.676 103.656 439.744 100.033 433.183 96.6816C426.187 93.2432 418.709 90.024 410.849 87.0003C402.793 83.8136 394.51 80.7691 386.119 77.8502C377.72 74.7045 369.31 71.6354 360.939 68.6478C352.676 65.3999 344.468 62.207 336.324 59.0939C328.331 55.7343 320.362 52.474 312.401 49.3394C304.556 46.0368 296.672 42.9136 288.714 40.0484C280.827 37.1108 272.82 34.51 264.673 32.3149C256.558 30.2018 248.267 28.5895 239.806 27.545" stroke="url(#paint1_linear_2276_3835)" stroke-width="2" stroke-linecap="round" stroke-dasharray="10 7"/>
<path opacity="0.7" d="M222.932 39.6808C214.752 39.4337 206.746 39.8152 198.962 40.8015C191.235 42.0765 183.758 43.9695 176.604 46.4698C169.574 49.241 162.945 52.5662 156.788 56.4098C150.858 60.4756 145.507 64.9768 140.821 69.8587C136.451 74.8739 132.827 80.182 130.002 85.7415C127.495 91.3321 125.77 97.1088 124.769 103.029C123.909 108.92 123.559 114.943 123.571 121.066C123.243 127.179 122.839 133.422 122.102 139.822C120.394 146.257 117.867 152.903 114.295 159.773C109.311 166.734 103.083 173.964 95.6173 181.438C86.9732 188.977 77.5116 196.735 67.6317 204.653C57.7056 212.485 48.3627 220.361 40.234 228.184C33.6438 235.728 29.2693 243.103 27.5369 250.264C28.2093 257.032 31.6415 263.578 37.6279 269.948C45.1482 276.067 54.0595 282.183 63.5552 288.411C72.243 294.746 79.8102 301.435 85.5084 308.584C88.3968 316.141 88.6917 324.074 86.6139 332.327C82.192 340.921 76.4953 349.68 70.3174 358.456C63.9804 367.246 58.7329 375.822 55.2178 384.05C53.4693 391.993 54.2397 399.452 57.5622 406.361C63.046 412.896 70.7362 418.897 80.1672 424.371C90.7876 429.558 102.21 434.299 113.886 438.614C125.388 442.776 136.337 446.575 146.444 449.994C155.494 453.324 163.431 456.279 170.247 458.815C178.237 462.262 189.087 466.559 193.106 467.32C196.632 467.473 205.081 465.612 210.57 463.933C214.593 462.989 219.214 461.951 224.417 460.89C229.833 460.316 235.811 459.875 242.301 459.632C248.966 460.026 256.103 460.693 263.645 461.65C271.307 463.269 279.343 465.131 287.688 467.196C296.11 469.751 304.613 472.268 313.154 474.644C321.711 477.188 330.283 479.356 338.828 481.045C347.354 482.592 355.845 483.474 364.265 483.619C372.632 483.39 380.905 482.325 389.051 480.422C397.085 478.026 404.931 474.783 412.544 470.741C419.947 466.228 427.026 460.99 433.697 455.096C440.04 448.859 445.883 442.083 451.139 434.88C455.966 427.467 460.139 419.747 463.618 411.804C466.662 403.787 469.044 395.644 470.788 387.429C472.278 379.217 473.289 370.98 473.921 362.762C474.631 354.559 475.206 346.358 475.753 338.195C476.747 330.019 477.911 321.845 479.316 313.687C481.31 305.505 483.534 297.325 485.949 289.176C488.743 281.008 491.484 272.881 493.998 264.838C496.424 256.824 498.271 248.917 499.367 241.16C499.914 233.48 499.493 225.972 498.046 218.643C495.958 211.406 493.009 204.502 489.385 197.916C485.544 191.36 481.368 185.072 477.066 179.031C473.081 172.954 469.252 167.083 465.66 161.442C462.666 155.707 459.948 150.188 457.468 144.915C455.47 139.565 453.525 134.471 451.503 129.668C449.586 124.832 447.324 120.309 444.616 116.12C441.645 111.927 438.028 108.079 433.76 104.553C429.018 101.027 423.588 97.8016 417.53 94.8692C411.013 91.8747 403.97 89.1161 396.482 86.5733C388.703 83.8936 380.632 81.3657 372.352 78.9779C363.957 76.3772 355.473 73.874 346.958 71.4431C338.454 68.7901 329.966 66.1942 321.531 63.6755C313.158 60.9359 304.833 58.2914 296.554 55.7931C288.336 53.1249 280.146 50.6563 271.965 48.4242C263.827 46.1433 255.667 44.188 247.486 42.6175C239.343 41.1349 231.149 40.1347 222.94 39.6796" stroke="url(#paint2_linear_2276_3835)" stroke-width="2" stroke-linecap="round" stroke-dasharray="7 5"/>
<path opacity="0.81" d="M210.233 52.394C202.412 52.6644 194.91 53.4938 187.764 54.8651C180.699 56.4939 174.028 58.674 167.804 61.3766C161.72 64.3327 156.146 67.7807 151.144 71.6556C146.342 75.7369 142.18 80.2045 138.696 84.9823C135.447 89.8983 132.906 95.0663 131.062 100.445C129.386 105.883 128.322 111.49 127.779 117.242C127.174 123.025 126.843 128.965 126.612 135.054C125.881 141.208 124.873 147.559 123.365 154.137C120.861 160.843 117.525 167.832 113.198 175.127C107.659 182.58 101.094 190.339 93.6095 198.372C85.3021 206.497 76.5461 214.812 67.7401 223.216C59.1912 231.495 51.4846 239.697 45.1479 247.716C40.3592 255.343 37.7259 262.644 37.5236 269.543C39.4496 275.952 43.7954 281.986 50.3248 287.706C58.0807 293.137 66.9725 298.496 76.282 303.92C84.7785 309.518 92.2572 315.499 98.0711 322.008C101.38 329.056 102.384 336.573 101.264 344.52C97.9991 352.919 93.5077 361.53 88.452 370.193C83.0724 378.909 78.4884 387.368 75.264 395.398C73.4369 403.093 73.7445 410.166 76.2929 416.552C80.7737 422.455 87.3304 427.662 95.6239 432.196C105.184 436.346 115.749 439.936 126.825 443.022C138.046 445.905 149.055 448.403 159.529 450.527C169.279 452.6 178.128 454.36 186.018 455.776C192.897 457.203 198.859 458.277 204.017 458.973C210.242 459.836 220.008 459.585 224.48 458.522C228.957 457.329 239.867 454.161 246.602 452.56C251.451 451.931 256.822 451.379 262.719 450.955C268.807 451.099 275.392 451.438 282.433 451.979C289.64 453.095 297.264 454.387 305.271 455.787C313.375 457.638 321.61 459.417 329.938 461.031C338.278 462.823 346.653 464.255 355.01 465.244C363.322 466.139 371.57 466.422 379.705 466.058C387.724 465.392 395.583 463.98 403.228 461.814C410.677 459.252 417.851 455.933 424.674 451.899C431.208 447.48 437.318 442.405 442.936 436.757C448.171 430.813 452.83 424.382 456.868 417.579C460.477 410.583 463.444 403.313 465.731 395.838C467.657 388.284 468.995 380.591 469.77 372.838C470.408 365.046 470.666 357.207 470.645 349.35C470.805 341.455 470.909 333.537 471.061 325.6C471.687 317.596 472.523 309.564 473.593 301.507C475.225 293.381 477.075 285.234 479.059 277.11C481.379 268.948 483.599 260.842 485.575 252.84C487.416 244.893 488.684 237.112 489.214 229.54C489.195 222.087 488.249 214.884 486.312 207.946C483.768 201.138 480.407 194.729 476.397 188.7C472.156 182.711 467.599 177.014 462.904 171.596C458.479 166.111 454.185 160.839 450.139 155.763C446.644 150.568 443.444 145.55 440.529 140.738C438.104 135.803 435.813 131.097 433.544 126.653C430.307 120.019 422.071 108.274 416.536 103.225C412.263 99.967 407.353 97.0264 401.849 94.4022C395.9 91.7449 389.404 89.3423 382.434 87.1706C375.119 84.9098 367.436 82.8222 359.486 80.8868C351.329 78.7894 342.997 76.7984 334.584 74.9106C326.085 72.8182 317.552 70.8102 309.046 68.8908C300.525 66.7772 292.045 64.7751 283.636 62.9038C275.233 60.9022 266.904 59.0825 258.642 57.4974C250.408 55.8806 242.239 54.5677 234.146 53.6079C226.082 52.7449 218.103 52.319 210.241 52.3923" stroke="url(#paint3_linear_2276_3835)" stroke-width="2" stroke-linecap="round" stroke-dasharray="8 1"/>
<path opacity="0.38" d="M201.477 65.0325C194.089 65.7652 187.137 66.9751 180.635 68.6494C174.232 70.5484 168.327 72.9243 162.943 75.7437C157.713 78.7898 153.048 82.2492 148.99 86.0836C145.109 90.1031 141.853 94.4398 139.239 99.0627C136.786 103.814 134.942 108.8 133.665 113.989C132.423 119.272 131.619 124.735 131.153 130.371C130.457 136.118 129.849 142.048 129.147 148.199C127.86 154.501 126.177 161.067 123.924 167.929C120.743 174.999 116.785 182.408 111.98 190.149C106.211 198.1 99.6758 206.361 92.5239 214.879C84.883 223.459 77.1284 232.161 69.6207 240.869C62.6049 249.374 56.6072 257.68 52.0448 265.657C48.9852 273.147 47.9511 280.172 49.1235 286.662C52.118 292.59 57.213 298.04 64.1399 303.082C72.0118 307.823 80.7949 312.449 89.8631 317.124C98.1302 322.023 105.469 327.338 111.356 333.198C115.018 339.71 116.65 346.758 116.393 354.293C114.197 362.38 110.835 370.727 106.866 379.153C102.447 387.684 98.5537 395.948 95.6971 403.746C93.8962 411.203 93.8592 417.957 95.7381 423.928C99.2822 429.338 104.719 433.945 111.804 437.752C120.168 441.083 129.632 443.745 139.807 445.808C150.366 447.602 160.989 448.949 171.359 449.906C181.318 450.807 190.633 451.413 199.181 451.726C206.94 452.093 213.873 452.209 220.018 452.046C227.809 451.8 240.093 450.069 245.352 448.597C250.326 447.173 261.25 443.824 267.624 442.161C272.161 441.459 277.153 440.79 282.624 440.202C288.278 440.129 294.412 440.171 301.017 440.329C307.783 441.01 314.991 441.772 322.583 442.59C330.298 443.8 338.173 444.902 346.132 445.841C354.122 446.945 362.136 447.71 370.105 448.077C378.02 448.381 385.824 448.149 393.47 447.341C400.962 446.307 408.228 444.612 415.185 442.273C421.913 439.624 428.271 436.303 434.2 432.381C439.803 428.143 444.898 423.334 449.432 418.033C453.589 412.49 457.133 406.522 460.041 400.231C462.56 393.773 464.454 387.058 465.725 380.157C466.726 373.168 467.206 366.041 467.221 358.822C467.189 351.528 466.881 344.158 466.382 336.729C466.135 329.209 465.9 321.607 465.766 313.959C466.099 306.175 466.658 298.326 467.445 290.419C468.734 282.402 470.205 274.35 471.784 266.31C473.613 258.224 475.324 250.215 476.748 242.334C478.018 234.523 478.711 226.924 478.694 219.591C478.147 212.421 476.71 205.561 474.348 199.039C471.389 192.69 467.678 186.796 463.36 181.313C458.79 175.894 453.921 170.798 448.906 165.99C444.116 161.107 439.445 156.426 434.995 151.935C431.049 147.28 427.41 142.781 424.073 138.448C419.895 131.788 412.494 119.345 408.672 113.701C404.429 108.292 393.275 99.1058 386.115 95.3122C380.757 92.8769 374.867 90.7183 368.501 88.8198C361.76 86.8639 354.622 85.1103 347.172 83.5436C339.45 81.8544 331.499 80.3104 323.405 78.8776C315.147 77.3001 306.815 75.8313 298.459 74.4573C290.033 72.9369 281.627 71.5423 273.293 70.2754C264.92 68.906 256.644 67.7186 248.484 66.7511C240.327 65.7651 232.295 65.0579 224.428 64.6789C216.586 64.3886 208.92 64.4935 201.487 65.0383" stroke="url(#paint4_linear_2276_3835)" stroke-width="2" stroke-linecap="round" stroke-dasharray="11 10"/>
<path opacity="0.66" d="M196.018 77.1345C189.124 78.2479 182.729 79.7684 176.842 81.6746C171.069 83.7899 165.834 86.2978 161.163 89.1711C156.626 92.2635 152.679 95.6938 149.32 99.4355C146.104 103.367 143.464 107.578 141.391 112.038C139.399 116.646 137.895 121.487 136.825 126.534C135.691 131.722 134.842 137.128 134.146 142.754C133.145 148.546 132.085 154.593 130.821 160.912C128.949 167.454 126.644 174.326 123.792 181.533C120.139 188.999 115.825 196.834 110.855 205C105.181 213.371 99.0032 222.025 92.5124 230.876C85.82 239.738 79.2877 248.621 73.2358 257.4C67.8317 265.895 63.5337 274.064 60.6807 281.782C59.2323 288.938 59.6318 295.522 61.9889 301.466C65.8824 306.818 71.545 311.626 78.7324 315.981C86.6128 320.054 95.2038 323.991 103.969 327.963C111.966 332.207 119.141 336.871 125.035 342.113C128.987 348.062 131.163 354.583 131.677 361.625C130.45 369.309 128.136 377.276 125.19 385.35C121.7 393.598 118.526 401.586 116.095 409.113C114.422 416.316 114.165 422.792 115.481 428.439C118.191 433.492 122.572 437.663 128.464 440.955C135.575 443.691 143.81 445.664 152.853 446.937C162.447 447.883 172.325 448.312 182.19 448.29C191.921 448.173 201.259 447.744 210.035 447.049C218.273 446.426 225.823 445.59 232.675 444.555C238.909 443.666 244.539 442.597 249.635 441.34C256.407 439.654 268.345 435.78 274.109 433.687C279.971 431.959 293.194 428.902 300.806 427.722C306.186 427.407 311.993 427.159 318.209 426.975C324.603 427.227 331.397 427.52 338.55 427.815C345.827 428.45 353.25 428.968 360.733 429.311C368.256 429.81 375.764 430.001 383.198 429.844C390.572 429.646 397.789 428.996 404.777 427.848C411.607 426.534 418.14 424.659 424.305 422.247C430.219 419.588 435.695 416.373 440.681 412.651C445.342 408.68 449.452 404.232 452.964 399.378C456.122 394.313 458.677 388.898 460.598 383.197C462.203 377.343 463.222 371.258 463.686 365.001C463.962 358.625 463.806 352.095 463.272 345.462C462.782 338.706 462.087 331.828 461.277 324.858C460.765 317.725 460.302 310.484 459.969 303.133C460.094 295.613 460.42 287.984 460.958 280.277C461.933 272.417 463.045 264.517 464.216 256.63C465.563 248.688 466.767 240.843 467.662 233.156C468.366 225.557 468.514 218.199 467.986 211.17C466.939 204.333 465.057 197.856 462.318 191.775C459.012 185.902 455.008 180.519 450.437 175.587C445.621 170.744 440.51 166.243 435.256 162.036C430.171 157.749 425.187 153.667 420.407 149.75C416.064 145.656 412.024 141.683 408.283 137.841C403.506 131.838 395.24 120.416 391.25 115.144C387.085 110.026 376.78 101.26 370.344 97.6579C365.548 95.3502 360.253 93.3421 354.523 91.6105C348.415 89.8481 341.913 88.329 335.074 87.0143C327.925 85.6347 320.524 84.4197 312.92 83.3598C305.108 82.1974 297.183 81.1659 289.201 80.2718C281.089 79.2648 272.98 78.3905 264.926 77.666C256.809 76.8664 248.778 76.2502 240.901 75.8365C232.99 75.4265 225.26 75.2634 217.738 75.3995C210.237 75.6174 202.988 76.1809 196.034 77.1287" stroke="url(#paint5_linear_2276_3835)" stroke-width="2" stroke-linecap="round" stroke-dasharray="9 2"/>
<path opacity="0.58" d="M192.946 88.4814C186.567 89.9255 180.713 91.6955 175.383 93.7913C170.155 96.0717 165.489 98.6794 161.366 101.595C155.648 106.408 147.068 117.715 144.092 124.14C142.281 128.668 140.85 133.449 139.714 138.456C138.443 143.653 137.334 149.108 136.26 154.824C134.853 160.764 133.302 167.017 131.49 173.591C129.133 180.428 126.37 187.632 123.134 195.197C119.264 203.029 114.905 211.21 110.09 219.707C104.824 228.369 99.3205 237.241 93.7374 246.221C88.2094 255.141 83.0384 263.973 78.5154 272.587C74.7216 280.836 72.0583 288.649 70.7859 295.91C70.7866 302.561 72.4302 308.564 75.7677 313.869C80.3664 318.579 86.4352 322.728 93.7384 326.386C101.539 329.819 109.869 333.097 118.292 336.417C125.983 340.057 132.939 344.11 138.797 348.732C142.97 354.112 145.608 360.073 146.792 366.569C146.432 373.75 145.064 381.248 143.055 388.878C140.472 396.747 138.015 404.385 136.046 411.591C134.591 418.529 134.222 424.747 135.113 430.122C137.139 434.93 140.572 438.811 145.337 441.76C151.207 444.119 158.165 445.638 165.966 446.391C174.407 446.745 183.275 446.492 192.325 445.743C201.46 444.836 210.411 443.579 219.023 442.041C227.321 440.543 235.104 438.863 242.337 437.025C249.105 435.341 255.321 433.555 261.042 431.652C266.358 429.977 271.302 428.211 275.946 426.351C282.51 423.948 295.217 419.332 301.804 417.205C306.332 416.151 311.122 415.128 316.197 414.123C321.436 413.524 327.008 412.968 332.906 412.441C338.987 412.3 345.389 412.154 352.088 411.975C358.926 412.102 365.843 412.101 372.775 411.946C379.753 411.936 386.675 411.657 393.47 411.076C400.208 410.492 406.726 409.52 412.978 408.142C419.065 406.645 424.81 404.694 430.129 402.308C435.204 399.728 439.813 396.704 443.885 393.268C447.657 389.635 450.865 385.611 453.482 381.254C455.79 376.724 457.505 371.898 458.644 366.816C459.529 361.6 459.896 356.156 459.775 350.545C459.561 344.792 458.974 338.865 458.104 332.799C457.338 326.576 456.424 320.189 455.464 313.657C454.804 306.934 454.227 300.045 453.768 293.011C453.742 285.773 453.891 278.391 454.199 270.91C454.885 263.268 455.641 255.577 456.415 247.905C457.304 240.181 458.004 232.569 458.396 225.134C458.565 217.817 458.197 210.779 457.186 204.094C455.689 197.638 453.416 191.587 450.343 185.969C446.749 180.586 442.517 175.729 437.767 171.337C432.771 167.055 427.486 163.133 422.069 159.511C416.767 155.818 411.54 152.331 406.487 148.986C401.814 145.462 397.42 142.024 393.318 138.684C387.954 133.379 378.741 123.046 374.484 118.173C370.258 113.351 360.485 104.965 354.623 101.479C350.311 99.247 345.569 97.31 340.433 95.6615C334.962 94.0069 329.112 92.6151 322.926 91.4579C316.444 90.2585 309.682 89.2772 302.699 88.4786C295.485 87.618 288.118 86.9278 280.67 86.3848C273.058 85.7862 265.433 85.3413 257.834 85.0591C250.152 84.7321 242.552 84.589 235.094 84.6396C227.602 84.7151 220.296 85.02 213.227 85.5865C206.177 86.2364 199.401 87.187 192.954 88.4779" stroke="url(#paint6_linear_2276_3835)" stroke-width="2" stroke-linecap="round" stroke-dasharray="7 8"/>
<path opacity="0.5" d="M191.214 99.2055C185.36 100.914 180.008 102.897 175.156 105.155C168.29 108.934 157.271 118.115 153.058 123.491C149.382 129.408 143.89 142.779 141.746 150.266C140.229 155.565 138.773 161.156 137.292 167.056C135.484 173.217 133.511 179.725 131.296 186.583C128.627 193.713 125.634 201.218 122.276 209.072C118.479 217.172 114.36 225.579 110.004 234.237C105.414 242.992 100.801 251.864 96.328 260.747C92.0836 269.488 88.3444 278.034 85.3358 286.253C83.092 294.032 81.9453 301.297 82.08 307.931C83.3272 313.937 86.0043 319.25 90.1182 323.847C95.2416 327.891 101.562 331.359 108.848 334.354C116.475 337.166 124.478 339.843 132.512 342.56C139.869 345.632 146.583 349.107 152.353 353.128C156.672 357.93 159.689 363.308 161.426 369.213C161.823 375.838 161.31 382.791 160.162 389.895C158.418 397.309 156.661 404.521 155.19 411.361C154.016 417.991 153.654 423.948 154.251 429.101C157.046 435.572 169.696 442.988 179.08 444.101C186.278 444.111 193.989 443.463 202.007 442.25C210.266 440.811 218.52 438.974 226.623 436.819C234.616 434.655 242.272 432.291 249.521 429.774C256.478 427.405 263.001 424.955 269.078 422.439C274.88 420.157 280.301 417.841 285.418 415.508C290.34 413.451 295.081 411.396 299.695 409.334C304.262 407.593 308.829 405.87 313.446 404.168C318.148 402.821 322.991 401.503 328.015 400.222C333.2 399.292 338.604 398.398 344.238 397.522C350.051 396.98 356.096 396.427 362.347 395.83C368.737 395.492 375.139 395.052 381.493 394.486C387.895 394.047 394.189 393.388 400.292 392.499C406.35 391.615 412.155 390.419 417.631 388.913C422.972 387.318 427.917 385.373 432.418 383.085C438.606 379.269 447.983 369.732 451.088 364.103C453.269 357.979 454.733 344.353 454.225 336.938C453.717 331.756 452.913 326.398 451.887 320.855C451.005 315.12 450.034 309.185 449.036 303.074C448.338 296.724 447.714 290.173 447.205 283.465C447.068 276.509 447.062 269.406 447.176 262.19C447.576 254.812 448.011 247.376 448.398 239.976C448.852 232.54 449.08 225.234 448.988 218.13C448.659 211.154 447.82 204.489 446.377 198.207C444.475 192.172 441.864 186.575 438.52 181.44C434.695 176.563 430.292 172.227 425.422 168.37C420.315 164.64 414.931 161.28 409.412 158.221C403.964 155.114 398.562 152.202 393.312 149.427C388.374 146.456 383.684 143.571 379.263 140.76C373.364 136.179 363.15 127.052 358.542 122.635C354.127 118.152 344.564 110.181 339.104 106.804C335.164 104.622 330.883 102.728 326.257 101.115C321.375 99.5064 316.134 98.1676 310.588 97.0784C304.771 95.9822 298.679 95.1198 292.373 94.478C285.832 93.8095 279.121 93.3377 272.31 93.053C265.328 92.7359 258.304 92.6042 251.289 92.6489C244.179 92.6776 237.135 92.8998 230.21 93.3251C223.259 93.7737 216.481 94.454 209.931 95.3641C203.403 96.3676 197.154 97.6409 191.225 99.209" stroke="url(#paint7_linear_2276_3835)" stroke-width="2" stroke-linecap="round" stroke-dasharray="1 5"/>
<path opacity="0.42" d="M189.86 109.712C184.51 111.626 179.609 113.792 175.163 116.207C168.869 120.179 158.641 129.622 154.614 135.103C152.101 139.018 149.918 143.203 148.01 147.65C146.069 152.297 144.317 157.242 142.682 162.481C140.899 167.943 139.132 173.743 137.31 179.866C135.22 186.257 132.989 193.006 130.564 200.107C127.805 207.468 124.825 215.169 121.627 223.186C118.164 231.381 114.559 239.824 110.888 248.429C107.182 257.056 103.624 265.698 100.362 274.242C97.4363 282.564 95.1003 290.593 93.5456 298.206C92.7086 305.336 92.9084 311.889 94.2452 317.773C96.5313 323.036 100.023 327.596 104.708 331.451C110.167 334.816 116.581 337.617 123.755 339.986C131.117 342.226 138.745 344.339 146.356 346.501C153.349 349.055 159.783 351.982 165.417 355.435C169.83 359.661 173.12 364.438 175.326 369.732C176.367 375.743 176.587 382.094 176.208 388.627C175.239 395.502 174.155 402.241 173.189 408.647C172.225 417.776 174.608 431.834 178.511 436.322C182.22 438.429 186.795 439.659 192.109 440.045C198.072 439.95 204.565 439.152 211.441 437.734C218.648 436.038 225.993 433.885 233.324 431.364C240.713 428.777 247.923 425.955 254.879 422.966C261.704 420.07 268.2 417.093 274.359 414.071C280.358 411.25 286.032 408.435 291.417 405.635C296.681 403.099 301.742 400.603 306.641 398.15C311.514 396.002 316.332 393.908 321.114 391.866C325.977 390.142 330.899 388.479 335.894 386.869C341.045 385.568 346.314 384.313 351.722 383.088C357.293 382.138 362.997 381.193 368.816 380.225C374.777 379.466 380.667 378.642 386.442 377.731C392.283 376.939 397.945 375.99 403.374 374.862C408.767 373.756 413.866 372.419 418.613 370.857C425.358 368.289 436.375 361.697 440.508 357.671C443.826 353.206 447.582 342.897 448.109 337.117C448.07 330.879 446.254 317.138 444.801 309.609C443.952 304.291 443.016 298.76 442.075 293.014C441.412 287.002 440.801 280.788 440.284 274.377C440.063 267.727 439.932 260.922 439.857 254.001C440.001 246.922 440.115 239.813 440.142 232.738C440.179 225.648 439.981 218.705 439.436 211.983C438.665 205.423 437.402 199.185 435.575 193.343C433.322 187.771 430.431 182.651 426.875 178.003C422.875 173.646 418.366 169.818 413.443 166.482C408.28 163.287 402.869 160.469 397.31 157.952C391.783 155.405 386.298 153.051 380.909 150.834C375.781 148.432 370.86 146.089 366.181 143.8C359.799 139.996 348.622 132.197 343.605 128.304C338.892 124.248 329.237 116.828 323.996 113.603C318.343 110.56 305.388 105.794 298.061 104.078C292.868 103.02 287.422 102.221 281.762 101.647C275.905 101.078 269.882 100.734 263.733 100.598C257.444 100.462 251.085 100.529 244.717 100.801C238.255 101.082 231.839 101.562 225.517 102.252C219.179 102.982 212.974 103.936 206.984 105.121C201.014 106.383 195.3 107.91 189.867 109.708" stroke="url(#paint8_linear_2276_3835)" stroke-width="2" stroke-linecap="round" stroke-dasharray="9 1"/>
<path opacity="0.31" d="M188.161 120.559C181.043 123.827 168.872 131.734 163.8 136.407C159.203 141.554 151.626 153.422 148.471 160.188C146.402 164.986 144.465 170.105 142.607 175.53C140.636 181.184 138.668 187.182 136.656 193.503C134.462 200.072 132.168 206.987 129.765 214.222C127.155 221.672 124.44 229.418 121.64 237.404C118.734 245.499 115.84 253.753 113.03 262.079C110.323 270.331 107.891 278.505 105.861 286.487C104.218 294.174 103.202 301.494 102.945 308.327C103.341 314.66 104.669 320.389 106.991 325.428C110.08 329.892 114.179 333.675 119.227 336.792C124.863 339.474 131.238 341.645 138.183 343.427C145.222 345.139 152.427 346.751 159.576 348.414C166.182 350.487 172.308 352.914 177.766 355.822C182.209 359.477 185.695 363.659 188.254 368.326C189.834 373.703 190.691 379.414 190.971 385.32C190.706 391.606 190.245 397.809 189.787 403.747C189.282 412.327 191.225 425.834 194.22 430.284C198.882 433.09 212.365 433.835 220.735 432.084C226.827 430.385 233.135 428.171 239.548 425.547C246.118 422.796 252.647 419.763 259.052 416.519C265.456 413.316 271.66 410.011 277.627 406.64C283.534 403.429 289.201 400.216 294.622 397.039C300.01 394.085 305.202 391.191 310.227 388.368C315.271 385.812 320.214 383.331 325.077 380.939C330.025 378.819 334.966 376.789 339.915 374.825C345.007 373.141 350.132 371.517 355.306 369.93C360.633 368.595 366.018 367.28 371.423 365.951C376.965 364.822 382.368 363.661 387.597 362.461C392.894 361.367 397.96 360.172 402.76 358.871C409.78 356.874 421.913 352.03 426.872 349.131C434.178 342.125 439.982 329.236 440.234 324.096C440.05 318.505 438.295 305.976 437.005 299.009C436.265 294.036 435.458 288.831 434.624 283.405C434.036 277.705 433.481 271.793 432.962 265.676C432.687 259.338 432.431 252.84 432.189 246.249C432.088 239.523 431.918 232.774 431.601 226.081C431.259 219.397 430.663 212.878 429.719 206.594C428.551 200.487 426.915 194.723 424.762 189.361C422.235 184.285 419.118 179.654 415.403 175.515C411.303 171.66 406.747 168.348 401.82 165.509C396.669 162.834 391.281 160.531 385.758 158.526C380.235 156.521 374.716 154.691 369.275 153.012C364.028 151.169 358.949 149.37 354.079 147.614C347.308 144.609 335.249 138.247 329.812 134.969C324.742 131.441 314.736 124.778 309.555 121.792C304.147 118.91 292.147 114.299 285.499 112.622C280.832 111.582 275.947 110.798 270.885 110.269C265.654 109.738 260.272 109.455 254.777 109.401C249.159 109.365 243.466 109.551 237.743 109.967C231.953 110.391 226.176 111.045 220.48 111.922C214.759 112.837 209.153 113.992 203.721 115.383C198.32 116.846 193.12 118.567 188.168 120.554" stroke="url(#paint9_linear_2276_3835)" stroke-width="2" stroke-linecap="round" stroke-dasharray="9 10"/>
<path opacity="0.83" d="M185.742 132.369C179.252 135.863 167.989 144.235 163.191 149.134C157.209 156.245 152.238 164.479 148.016 173.841C143.73 183.942 139.766 195.356 135.864 208.008C131.547 221.456 127.129 236.069 122.745 251.46C118.408 266.997 114.845 282.537 112.768 297.244C112.293 310.631 114.536 322.08 120.032 330.948C127.926 337.774 138.817 342.249 151.917 344.877C158.569 346.121 165.316 347.284 171.987 348.5C178.185 350.13 183.98 352.092 189.216 354.486C193.613 357.605 197.221 361.196 200.048 365.231C202.057 369.964 203.426 375.02 204.279 380.272C204.607 391.895 204.581 402.804 205.283 411.935C207.142 419.927 211.137 424.866 217.269 426.641C225.338 426.623 235.037 423.917 245.628 419.15C257.104 413.674 268.608 407.115 279.638 400.011C290.801 393.312 301.338 386.628 311.206 380.182C321.314 374.613 331.069 369.421 340.567 364.614C345.53 362.552 350.462 360.571 355.383 358.655C360.449 356.947 365.493 355.279 370.499 353.644C375.636 352.163 380.568 350.7 385.297 349.245C390.096 347.886 394.631 346.475 398.878 345.023C407.373 342.161 414.436 338.885 419.884 335.164C424.997 331.154 428.361 326.527 430.031 321.322C431.457 315.52 431.473 308.954 430.393 301.645C429.63 293.426 428.288 284.255 426.714 274.188C425.908 263.106 425.046 251.232 424.095 238.904C423.482 226.156 422.185 213.615 419.786 201.88C418.277 196.271 416.34 191.014 413.924 186.154C411.175 181.588 407.902 177.47 404.089 173.832C399.942 170.489 395.396 167.662 390.515 165.309C385.435 163.124 380.135 161.304 374.709 159.789C363.836 156.721 353.101 154.242 342.92 151.987C333.655 148.798 325.124 145.58 317.253 142.384C310.112 138.27 303.131 134.461 296.07 131.193C289.007 127.508 281.395 124.655 273.182 122.743C264.548 120.749 255.248 119.763 245.504 119.771C235.399 119.834 225.073 120.857 214.873 122.843C209.753 123.891 204.727 125.179 199.824 126.727C194.963 128.338 190.259 130.212 185.754 132.37" stroke="url(#paint10_linear_2276_3835)" stroke-width="2" stroke-linecap="round"/>
<path opacity="0.4" d="M182.622 145.651C174.662 150.492 167.738 156.376 161.808 163.262C156.159 170.626 151.323 179.144 147.131 188.785C142.961 199.062 139.148 210.578 135.556 223.195C131.839 236.381 128.357 250.467 125.293 264.99C122.61 279.374 120.994 293.406 120.992 306.325C122.495 317.84 126.441 327.371 133.096 334.433C141.574 339.731 152.372 342.943 164.788 344.579C177.054 346.362 189.039 348.446 199.634 351.691C207.536 357.578 212.867 365.114 216.026 373.794C217.427 384.149 218.24 394.023 219.304 402.475C221.028 410.172 224.222 415.216 229.006 417.419C235.326 418.022 243.068 416.018 251.727 411.903C261.368 406.966 271.301 400.767 281.092 393.848C291.286 387.087 301.125 380.203 310.475 373.482C320.192 367.423 329.586 361.705 338.649 356.394C348.251 351.813 357.666 347.569 366.739 343.589C376.301 340.107 384.905 336.799 392.415 333.552C400.013 330.383 406.224 326.999 410.958 323.368C415.493 319.45 418.482 315.072 420.009 310.198C421.44 304.712 421.661 298.519 420.939 291.58C420.529 283.735 419.575 274.964 418.315 265.341C417.622 254.797 416.704 243.555 415.493 231.954C414.415 220.082 412.55 208.51 409.572 197.795C405.766 187.868 400.253 179.45 392.875 172.862C384.327 167.433 374.567 163.827 364.104 161.616C353.469 159.516 342.857 158.016 332.658 156.758C323.157 154.676 314.268 152.522 305.985 150.314C298.377 147.175 291.035 144.198 283.79 141.585C276.686 138.457 269.274 135.996 261.502 134.358C253.501 132.569 245.021 131.72 236.21 131.866C227.174 132.033 217.956 133.202 208.804 135.399C199.688 137.716 190.875 141.111 182.628 145.645" stroke="url(#paint11_linear_2276_3835)" stroke-width="2" stroke-linecap="round" stroke-dasharray="1 1"/>
<path opacity="0.34" d="M179.172 160.626C171.988 165.675 165.653 171.79 160.149 178.933C154.918 186.463 150.393 195.134 146.463 204.871C142.657 215.099 139.3 226.431 136.341 238.643C133.498 251.182 131.16 264.314 129.519 277.547C128.45 290.4 128.599 302.626 130.352 313.546C133.425 323.088 138.594 330.682 145.958 336.013C154.65 339.893 165.089 341.978 176.68 342.749C187.999 343.84 199.033 345.228 208.94 347.66C216.698 352.52 222.36 358.835 226.159 366.214C228.464 375.256 230.046 384.038 231.554 391.724C234.711 401.553 247.913 407.385 257.917 403.587C265.803 399.496 274.134 394.014 282.554 387.659C291.513 381.253 300.359 374.544 308.907 367.841C317.906 361.605 326.663 355.604 335.103 349.961C344.06 344.888 352.751 340.14 361.032 335.703C369.766 331.667 377.524 327.923 384.216 324.356C391.047 320.834 396.596 317.254 400.827 313.539C404.976 309.55 407.781 305.19 409.335 300.394C410.887 295.004 411.4 288.951 411.077 282.181C411.019 274.567 410.409 266.095 409.407 256.861C408.78 246.848 407.773 236.264 406.301 225.458C404.815 214.527 402.466 203.989 399.023 194.344C394.827 185.524 389.084 178.161 381.703 172.558C373.332 168.075 363.917 165.327 353.858 163.915C343.591 162.701 333.26 162.103 323.202 161.793C313.649 160.773 304.579 159.688 296.034 158.518C288.066 156.455 280.41 154.434 272.958 152.649C265.726 150.274 258.383 148.406 250.884 147.22C243.312 145.812 235.441 145.249 227.377 145.626C219.204 145.975 210.908 147.324 202.687 149.728C194.544 152.223 186.64 155.828 179.172 160.626Z" stroke="url(#paint12_linear_2276_3835)" stroke-width="2" stroke-linecap="round" stroke-dasharray="3 2"/>
<path opacity="0.24" d="M176.043 177.177C169.595 182.384 163.887 188.655 158.917 195.896C154.218 203.46 150.18 212.081 146.75 221.635C143.528 231.538 140.854 242.328 138.753 253.737C136.913 265.261 135.788 277.069 135.528 288.672C135.903 299.724 137.523 309.953 140.636 318.787C144.83 326.363 150.765 332.11 158.43 335.849C167.001 338.462 176.866 339.58 187.527 339.647C197.863 340.152 207.938 340.955 217.115 342.667C224.626 346.552 230.434 351.705 234.7 357.834C237.721 365.559 239.986 373.181 241.962 380.031C245.238 389.275 256.114 396.377 264.085 393.988C270.438 390.921 277.279 386.417 284.333 380.903C291.968 375.198 299.663 368.999 307.228 362.627C315.273 356.538 323.185 350.527 330.837 344.772C338.975 339.432 346.855 334.359 354.322 329.563C362.196 325.079 369.16 320.924 375.149 317.006C381.286 313.117 386.304 309.237 390.175 305.293C394.039 301.068 396.76 296.539 398.412 291.624C400.098 286.153 400.889 280.07 400.91 273.333C401.139 265.855 400.78 257.641 399.946 248.788C399.326 239.326 398.19 229.447 396.47 219.501C394.625 209.565 391.89 200.1 388.091 191.567C383.634 183.852 377.804 177.54 370.54 172.891C362.451 169.303 353.469 167.338 343.925 166.656C334.139 166.235 324.228 166.447 314.479 166.985C305.064 166.963 295.994 166.921 287.373 166.788C279.196 165.843 271.333 164.874 263.733 164.032C256.388 162.581 249.061 161.493 241.745 160.943C234.457 160.108 227.037 159.997 219.562 160.732C212.071 161.403 204.549 163.013 197.134 165.658C189.833 168.359 182.745 172.164 176.043 177.177Z" stroke="url(#paint13_linear_2276_3835)" stroke-width="2" stroke-linecap="round" stroke-dasharray="9 4"/>
<path opacity="0.89" d="M173.957 194.796C168.239 200.1 163.209 206.392 158.879 213.558C154.804 220.964 151.394 229.282 148.638 238.334C146.139 247.605 144.286 257.515 143.121 267.769C142.306 277.951 142.311 288.141 143.255 297.885C144.802 307.02 147.543 315.202 151.582 321.996C156.46 327.704 162.745 331.784 170.343 334.134C178.527 335.673 187.652 336.002 197.312 335.505C206.642 335.537 215.758 335.849 224.182 336.933C231.348 339.923 237.167 344.007 241.717 348.945C245.279 355.364 248.11 361.824 250.536 367.754C254.105 376.191 263.589 384.115 270.033 383.046C275.157 381.034 280.71 377.594 286.519 373.096C292.889 368.313 299.405 362.882 305.91 357.101C312.902 351.451 319.839 345.704 326.594 340.048C333.797 334.688 340.792 329.462 347.421 324.438C354.41 319.632 360.602 315.134 365.942 310.859C371.435 306.595 375.976 302.356 379.548 298.06C383.148 293.523 385.783 288.709 387.508 283.537C389.282 277.893 390.247 271.706 390.509 264.953C390.903 257.603 390.682 249.646 389.902 241.209C389.218 232.351 387.92 223.25 385.968 214.21C383.821 205.312 380.795 196.952 376.767 189.531C372.177 182.916 366.378 177.627 359.335 173.872C351.637 171.124 343.173 169.872 334.219 169.818C325.027 170.08 315.672 170.999 306.392 172.279C297.295 173.157 288.441 174.065 279.93 174.927C271.746 175.079 263.846 175.197 256.229 175.361C248.837 174.939 241.57 174.77 234.421 175.002C227.363 174.912 220.306 175.415 213.332 176.648C206.389 177.771 199.518 179.746 192.819 182.681C186.246 185.638 179.912 189.649 173.957 194.796Z" stroke="url(#paint14_linear_2276_3835)" stroke-width="2" stroke-linecap="round" stroke-dasharray="8 5"/>
<path opacity="0.42" d="M173.607 212.645C168.612 217.968 164.301 224.13 160.67 231.002C157.29 238.045 154.593 245.791 152.592 254.065C150.855 262.419 149.843 271.162 149.579 279.98C149.674 288.625 150.63 297.041 152.503 304.855C154.9 312.049 158.357 318.268 162.92 323.192C168.084 327.22 174.344 329.85 181.589 331.059C189.187 331.725 197.453 331.446 206.069 330.545C214.398 330.205 222.564 330.121 230.222 330.665C236.954 332.868 242.639 335.955 247.32 339.779C251.243 344.95 254.501 350.237 257.313 355.206C261.267 362.631 270.063 370.788 275.472 370.789C279.673 369.714 284.211 367.325 288.983 363.853C294.236 360.092 299.672 355.577 305.153 350.557C311.072 345.561 317.008 340.296 322.833 334.939C329.05 329.775 335.114 324.591 340.889 319.457C346.98 314.501 352.398 309.744 357.102 305.144C361.956 300.551 366.012 295.953 369.267 291.288C372.563 286.415 375.04 281.283 376.753 275.847C378.486 270.016 379.512 263.729 379.864 256.995C380.272 249.821 380.06 242.19 379.249 234.251C378.432 226.068 376.957 217.803 374.795 209.73C372.423 201.894 369.2 194.66 365.06 188.335C360.464 182.785 354.811 178.462 348.094 175.564C340.87 173.567 332.999 172.94 324.715 173.421C316.218 174.264 307.527 175.76 298.85 177.658C290.261 179.298 281.813 181.046 273.615 182.78C265.639 183.965 257.901 185.12 250.43 186.281C243.154 186.925 236.04 187.727 229.132 188.829C222.321 189.59 215.629 190.824 209.114 192.649C202.667 194.338 196.379 196.753 190.343 200.005C184.431 203.259 178.822 207.446 173.607 212.645Z" stroke="url(#paint15_linear_2276_3835)" stroke-width="2" stroke-linecap="round" stroke-dasharray="9 2"/>
<path opacity="0.23" d="M175.482 229.682C171.199 234.912 167.607 240.786 164.705 247.163C162.027 253.656 160.05 260.611 158.79 267.859C157.781 275.106 157.508 282.488 158.003 289.74C158.823 296.757 160.465 303.373 162.961 309.306C165.855 314.694 169.668 319.141 174.37 322.42C179.475 325.044 185.431 326.501 192.096 326.815C198.95 326.829 206.296 326.118 213.88 324.944C221.205 324.336 228.438 323.943 235.327 324.057C241.555 325.55 246.997 327.757 251.659 330.571C255.763 334.562 259.307 338.714 262.42 342.699C266.741 348.94 275.331 356.683 280.085 357.402C285.559 356.307 298.011 348.451 304.821 342.457C309.763 338.228 314.742 333.588 319.651 328.683C324.897 323.89 330.045 318.912 334.966 313.827C340.144 308.863 344.787 303.971 348.849 299.147C353.038 294.329 356.573 289.441 359.444 284.462C362.353 279.325 364.581 273.957 366.142 268.311C367.712 262.39 368.636 256.107 368.936 249.51C369.231 242.613 368.918 235.428 367.994 228.101C366.996 220.675 365.349 213.304 363.025 206.244C360.486 199.481 357.174 193.347 353.032 188.103C348.537 183.564 343.14 180.142 336.843 178.013C330.165 176.688 322.964 176.602 315.416 177.524C307.676 178.81 299.747 180.751 291.79 183.124C283.864 185.372 275.998 187.788 268.31 190.261C260.767 192.328 253.393 194.392 246.275 196.465C239.287 198.108 232.486 199.867 225.932 201.808C219.467 203.466 213.196 205.458 207.176 207.903C201.228 210.215 195.517 213.104 190.132 216.659C184.868 220.215 179.95 224.531 175.482 229.682Z" stroke="url(#paint16_linear_2276_3835)" stroke-width="2" stroke-linecap="round" stroke-dasharray="1 7"/>
<path opacity="0.94" d="M179.758 244.774C176.179 249.807 173.291 255.244 171.082 260.973C169.07 266.753 167.748 272.774 167.122 278.86C166.725 284.89 167.042 290.848 168.08 296.528C170.408 304.425 179.211 316.409 185.664 319.838C190.45 321.346 195.874 321.911 201.821 321.599C207.854 321.159 214.241 320.18 220.794 318.869C227.169 318.084 233.495 317.469 239.607 317.221C245.28 318.119 250.375 319.549 254.893 321.465C260.85 325.909 270.572 335.402 274.851 339.201C279.185 342.145 288.39 342.888 293.386 340.691C297.042 338.718 300.792 335.971 304.583 332.563C308.668 329.099 312.796 325.128 316.865 320.756C321.208 316.445 325.468 311.814 329.552 306.916C333.856 302.104 337.724 297.229 341.107 292.328C344.607 287.427 347.568 282.405 349.97 277.266C352.416 272.016 354.276 266.557 355.562 260.882C356.844 255.034 357.543 248.923 357.661 242.612C357.747 236.153 357.243 229.545 356.161 222.937C354.987 216.356 353.18 209.943 350.744 203.916C348.132 198.226 344.818 193.154 340.786 188.929C336.499 185.336 331.448 182.751 325.664 181.305C319.59 180.558 313.104 180.912 306.338 182.167C299.424 183.778 292.332 186.033 285.193 188.729C278.044 191.403 270.917 194.302 263.908 197.311C256.971 200.068 250.176 202.853 243.592 205.676C237.091 208.17 230.783 210.749 224.724 213.451C218.748 215.916 212.998 218.613 207.54 221.623C202.154 224.516 197.064 227.832 192.343 231.634C187.724 235.431 183.495 239.795 179.758 244.774Z" stroke="url(#paint17_linear_2276_3835)" stroke-width="2" stroke-linecap="round" stroke-dasharray="10 5"/>
<path opacity="0.26" d="M186.289 256.954C180.638 266.439 177.646 276.566 177.215 286.434C177.491 296.012 180.444 304.417 185.836 310.387C192.016 315.125 200.534 316.869 210.745 315.576C221.079 314.313 232.241 312.111 243.192 310.275C253.044 312.003 261.346 315.095 268.164 318.685C274.508 324.081 280.277 327.679 285.691 328.572C291.665 329.049 297.828 326.374 303.928 320.961C310.93 315.336 317.923 307.677 324.318 298.459C331.403 289.455 336.898 279.737 340.612 269.606C344.453 259.268 346.255 248.075 346.008 236.51C345.578 224.799 342.958 213.172 338.123 202.924C332.741 194.01 324.901 187.823 314.641 185.512C303.663 185.51 291.495 188.938 279.038 194.511C266.481 200.29 253.96 206.916 242.174 213.754C230.576 219.761 219.665 226.158 210.01 233.13C200.605 239.749 192.48 247.629 186.289 256.954Z" stroke="url(#paint18_linear_2276_3835)" stroke-width="2" stroke-linecap="round" stroke-dasharray="9 4"/>
<path opacity="0.22" d="M194.637 265.545C190.203 274.158 188.21 282.629 188.473 290.276C189.266 297.651 192.336 303.568 197.399 307.245C202.935 310.161 210.289 310.666 218.895 308.894C227.518 307.454 236.865 305.287 246.211 303.266C254.917 303.968 262.598 305.577 269.156 307.56C275.412 311.155 281.103 313.555 286.269 314.046C291.779 314.505 297.207 312.486 302.36 308.08C308.15 303.532 313.762 296.956 318.76 288.623C324.282 280.412 328.422 271.29 331.059 261.693C333.792 252.059 334.776 241.788 333.973 231.486C333.011 221.344 330.137 211.624 325.363 203.416C320.209 196.422 313.042 191.897 303.956 190.682C294.427 191.348 283.989 194.967 273.361 200.527C262.631 206.485 251.898 213.409 241.787 220.66C231.753 227.472 222.378 234.603 214.194 241.989C206.209 249.154 199.49 257.022 194.637 265.545Z" stroke="url(#paint19_linear_2276_3835)" stroke-width="2" stroke-linecap="round"/>
<path opacity="0.47" d="M204.134 270.277C200.804 277.856 199.565 284.718 200.213 290.439C202.653 297.966 216.226 303.636 226.276 301.69C233.285 300.289 240.939 298.269 248.762 296.201C256.245 296.128 263.097 296.54 269.139 297.17C275.035 299.12 280.428 300.283 285.261 300.13C290.307 300.181 295.092 298.378 299.431 294.656C304.204 290.876 308.643 285.273 312.387 277.974C316.528 270.739 319.424 262.579 321.034 254.007C322.721 245.482 322.931 236.564 321.641 227.879C320.242 219.492 317.25 211.749 312.707 205.491C307.943 200.277 301.595 197.181 293.777 196.851C285.716 197.971 277.016 201.565 268.231 206.839C259.369 212.586 250.515 219.338 242.184 226.481C233.906 233.463 226.208 240.742 219.577 248.059C213.101 255.264 207.786 262.751 204.134 270.277Z" stroke="url(#paint20_linear_2276_3835)" stroke-width="2" stroke-linecap="round" stroke-dasharray="6 6"/>
<path opacity="0.23" d="M214.066 271.362C211.354 280.471 214.024 292.747 218.848 295.182C222.606 296.154 227.411 295.719 232.934 294.05C238.467 292.837 244.563 291.077 250.908 289.086C257.13 288.459 262.984 287.992 268.276 287.576C275.966 288.161 289.266 285.828 294.918 281.615C298.782 278.337 302.196 273.593 304.869 267.433C307.809 261.306 309.638 254.403 310.379 247.225C311.188 240.137 310.772 232.88 309.157 226.021C307.486 219.494 304.552 213.687 300.441 209.243C296.225 205.589 290.812 203.7 284.322 204.025C277.738 205.396 270.738 208.753 263.731 213.501C256.708 218.695 249.728 224.829 243.199 231.375C236.702 237.94 230.712 244.779 225.632 251.532C220.655 258.26 216.666 264.984 214.066 271.362Z" stroke="url(#paint21_linear_2276_3835)" stroke-width="2" stroke-linecap="round" stroke-dasharray="3 7"/>
<path opacity="0.2" d="M223.798 269.429C220.816 279.738 222.788 285.851 228.232 287.134C234.037 288.457 242.793 286.259 252.708 281.883C262.549 280.907 271.681 279.204 278.858 276.084C286.444 273.964 292.727 268.038 296.097 258.106C300.147 248.187 300.217 236.46 296.779 226.243C293.319 217.144 286.054 211.398 275.815 212.139C265.522 215.634 254.339 224.666 244.674 235.601C235.143 246.933 227.377 259.132 223.798 269.429Z" stroke="url(#paint22_linear_2276_3835)" stroke-width="2" stroke-linecap="round" stroke-dasharray="4 7"/>
<path opacity="0.82" d="M232.867 265.416C231.866 275.308 243.815 278.719 254.149 274.541C261.455 272.983 268.401 270.332 273.903 266.729C279.668 263.819 284.22 258.583 286.253 251.103C288.671 243.603 287.993 235.42 284.83 228.811C281.737 222.921 276.047 219.712 268.506 221.106C261.031 224.112 253.185 231.064 246.589 239.45C240.115 248.233 235.004 257.678 232.867 265.416Z" stroke="url(#paint23_linear_2276_3835)" stroke-width="2" stroke-linecap="round" stroke-dasharray="4 6"/>
<path opacity="0.93" d="M241.115 260.416C239.462 270.654 245.931 272.556 255.201 267.041C264.855 264.745 273.938 257.349 275.814 247.346C278.348 237.254 272.474 228.578 262.597 230.79C253.066 235.897 243.376 250.104 241.115 260.416Z" stroke="url(#paint24_linear_2276_3835)" stroke-width="2" stroke-linecap="round" stroke-dasharray="5 9"/>
<defs>
<linearGradient id="paint0_linear_2276_3835" x1="266.217" y1="14.5792" x2="266.217" y2="515.15" gradientUnits="userSpaceOnUse">
<stop stop-color="#1F89DB"/>
<stop offset="1" stop-color="#30AD8C"/>
</linearGradient>
<linearGradient id="paint1_linear_2276_3835" x1="249.746" y1="24.6367" x2="283.671" y2="504.963" gradientUnits="userSpaceOnUse">
<stop stop-color="#1F89DB"/>
<stop offset="1" stop-color="#30AD8C"/>
</linearGradient>
<linearGradient id="paint2_linear_2276_3835" x1="234.629" y1="35.738" x2="299.63" y2="493.606" gradientUnits="userSpaceOnUse">
<stop stop-color="#1F89DB"/>
<stop offset="1" stop-color="#30AD8C"/>
</linearGradient>
<linearGradient id="paint3_linear_2276_3835" x1="220.971" y1="47.7339" x2="314.061" y2="481.221" gradientUnits="userSpaceOnUse">
<stop stop-color="#1F89DB"/>
<stop offset="1" stop-color="#30AD8C"/>
</linearGradient>
<linearGradient id="paint4_linear_2276_3835" x1="208.961" y1="60.4414" x2="327.037" y2="467.923" gradientUnits="userSpaceOnUse">
<stop stop-color="#1F89DB"/>
<stop offset="1" stop-color="#30AD8C"/>
</linearGradient>
<linearGradient id="paint5_linear_2276_3835" x1="198.608" y1="73.6663" x2="338.487" y2="453.845" gradientUnits="userSpaceOnUse">
<stop stop-color="#1F89DB"/>
<stop offset="1" stop-color="#30AD8C"/>
</linearGradient>
<linearGradient id="paint6_linear_2276_3835" x1="189.779" y1="87.3025" x2="348.218" y2="439.189" gradientUnits="userSpaceOnUse">
<stop stop-color="#1F89DB"/>
<stop offset="1" stop-color="#30AD8C"/>
</linearGradient>
<linearGradient id="paint7_linear_2276_3835" x1="182.438" y1="101.237" x2="356.147" y2="424.119" gradientUnits="userSpaceOnUse">
<stop stop-color="#1F89DB"/>
<stop offset="1" stop-color="#30AD8C"/>
</linearGradient>
<linearGradient id="paint8_linear_2276_3835" x1="176.583" y1="115.309" x2="361.92" y2="408.257" gradientUnits="userSpaceOnUse">
<stop stop-color="#1F89DB"/>
<stop offset="1" stop-color="#30AD8C"/>
</linearGradient>
<linearGradient id="paint9_linear_2276_3835" x1="172.447" y1="129.693" x2="366.639" y2="393.474" gradientUnits="userSpaceOnUse">
<stop stop-color="#1F89DB"/>
<stop offset="1" stop-color="#30AD8C"/>
</linearGradient>
<linearGradient id="paint10_linear_2276_3835" x1="169.557" y1="143.459" x2="369.349" y2="378.214" gradientUnits="userSpaceOnUse">
<stop stop-color="#1F89DB"/>
<stop offset="1" stop-color="#30AD8C"/>
</linearGradient>
<linearGradient id="paint11_linear_2276_3835" x1="168.029" y1="156.728" x2="370.477" y2="363.172" gradientUnits="userSpaceOnUse">
<stop stop-color="#1F89DB"/>
<stop offset="1" stop-color="#30AD8C"/>
</linearGradient>
<linearGradient id="paint12_linear_2276_3835" x1="168.135" y1="169.586" x2="370.121" y2="348.414" gradientUnits="userSpaceOnUse">
<stop stop-color="#1F89DB"/>
<stop offset="1" stop-color="#30AD8C"/>
</linearGradient>
<linearGradient id="paint13_linear_2276_3835" x1="169.467" y1="181.914" x2="368.167" y2="334.272" gradientUnits="userSpaceOnUse">
<stop stop-color="#1F89DB"/>
<stop offset="1" stop-color="#30AD8C"/>
</linearGradient>
<linearGradient id="paint14_linear_2276_3835" x1="171.977" y1="193.58" x2="364.725" y2="320.867" gradientUnits="userSpaceOnUse">
<stop stop-color="#1F89DB"/>
<stop offset="1" stop-color="#30AD8C"/>
</linearGradient>
<linearGradient id="paint15_linear_2276_3835" x1="175.598" y1="204.438" x2="359.919" y2="308.297" gradientUnits="userSpaceOnUse">
<stop stop-color="#1F89DB"/>
<stop offset="1" stop-color="#30AD8C"/>
</linearGradient>
<linearGradient id="paint16_linear_2276_3835" x1="180.247" y1="214.347" x2="353.882" y2="296.646" gradientUnits="userSpaceOnUse">
<stop stop-color="#1F89DB"/>
<stop offset="1" stop-color="#30AD8C"/>
</linearGradient>
<linearGradient id="paint17_linear_2276_3835" x1="185.844" y1="223.147" x2="346.758" y2="285.95" gradientUnits="userSpaceOnUse">
<stop stop-color="#1F89DB"/>
<stop offset="1" stop-color="#30AD8C"/>
</linearGradient>
<linearGradient id="paint18_linear_2276_3835" x1="192.493" y1="230.726" x2="338.687" y2="276.204" gradientUnits="userSpaceOnUse">
<stop stop-color="#1F89DB"/>
<stop offset="1" stop-color="#30AD8C"/>
</linearGradient>
<linearGradient id="paint19_linear_2276_3835" x1="199.461" y1="237.175" x2="329.704" y2="267.819" gradientUnits="userSpaceOnUse">
<stop stop-color="#1F89DB"/>
<stop offset="1" stop-color="#30AD8C"/>
</linearGradient>
<linearGradient id="paint20_linear_2276_3835" x1="207.105" y1="241.299" x2="320.172" y2="259.611" gradientUnits="userSpaceOnUse">
<stop stop-color="#1F89DB"/>
<stop offset="1" stop-color="#30AD8C"/>
</linearGradient>
<linearGradient id="paint21_linear_2276_3835" x1="215.831" y1="246.339" x2="309.711" y2="254.817" gradientUnits="userSpaceOnUse">
<stop stop-color="#1F89DB"/>
<stop offset="1" stop-color="#30AD8C"/>
</linearGradient>
<linearGradient id="paint22_linear_2276_3835" x1="222.967" y1="249.174" x2="299.082" y2="250.662" gradientUnits="userSpaceOnUse">
<stop stop-color="#1F89DB"/>
<stop offset="1" stop-color="#30AD8C"/>
</linearGradient>
<linearGradient id="paint23_linear_2276_3835" x1="231.945" y1="249.901" x2="288.017" y2="247.041" gradientUnits="userSpaceOnUse">
<stop stop-color="#1F89DB"/>
<stop offset="1" stop-color="#30AD8C"/>
</linearGradient>
<linearGradient id="paint24_linear_2276_3835" x1="239.406" y1="252.273" x2="277.13" y2="247.667" gradientUnits="userSpaceOnUse">
<stop stop-color="#1F89DB"/>
<stop offset="1" stop-color="#30AD8C"/>
</linearGradient>
</defs>
</svg>
