<svg width="300" height="597" viewBox="0 0 300 597" fill="none" xmlns="http://www.w3.org/2000/svg">
<path opacity="0.36" d="M-4.18064 19.8173C5.85895 18.1727 16.0553 17.3406 26.3789 17.321C36.7025 17.6832 47.1241 18.8873 57.5848 20.8941C67.9868 23.2826 78.33 26.4347 88.4872 30.3112C98.4484 34.4911 108.047 39.2976 117.107 44.6816C125.736 50.2418 133.602 56.2817 140.507 62.7229C146.736 69.2229 151.83 76.0361 155.659 83.1038C158.794 90.1031 160.713 97.3078 161.526 104.669C162.065 111.884 161.957 119.226 161.556 126.665C161.859 133.939 162.692 141.3 164.543 148.75C168.216 156.023 173.623 163.404 181.008 170.902C190.597 178.234 202.037 185.723 214.966 193.359C228.914 200.867 243.038 208.561 256.418 216.451C268.328 224.253 277.731 232.28 283.794 240.542C286.448 248.755 285.136 257.213 279.984 265.945C272.197 274.637 262.079 283.624 250.844 292.884C240.452 302.135 231.568 311.689 225.388 321.537C223.204 331.385 224.771 341.311 229.698 351.276C237.788 361.251 247.397 371.266 257.27 381.3C266.81 391.333 274.234 401.357 278.691 411.342C280.17 421.308 277.868 431.195 271.981 440.935C263.225 450.616 251.873 460.112 238.777 469.343C224.849 478.427 210.745 487.179 197.209 495.519C184.848 503.614 173.966 511.211 164.768 518.21C157.481 524.876 151.81 530.867 147.51 536.105C141.271 547.489 132.524 555.154 127.02 554.802C122.612 554.312 117.205 553.392 110.868 552.129C104.129 551.18 96.5874 550.152 88.3794 549.183C79.907 548.869 70.9252 548.84 61.5517 549.202C52.0704 550.465 42.3149 552.247 32.3733 554.567C22.4022 557.827 12.3039 561.556 2.11736 565.687C-8.06915 570.503 -18.1087 575.339 -27.9916 580.009C-37.894 584.884 -47.6887 589.24 -57.3953 592.93C-67.1704 596.347 -76.9064 598.813 -86.6325 600.243C-96.486 601.065 -106.379 600.703 -116.311 599.166C-126.37 596.895 -136.468 593.449 -146.576 588.907C-156.733 583.689 -166.812 577.483 -176.734 570.415C-186.499 562.858 -195.942 554.596 -204.933 545.776C-213.513 536.682 -221.457 527.177 -228.627 517.388C-235.218 507.52 -240.939 497.486 -245.767 487.365C-250.057 477.292 -253.554 467.209 -256.336 457.155C-258.951 447.229 -261.145 437.342 -263.084 427.543C-265.376 417.872 -267.737 408.259 -270.283 398.714C-273.526 389.278 -277.061 379.88 -280.842 370.512C-285.201 361.222 -289.569 351.932 -293.732 342.642C-297.895 333.392 -301.421 324.121 -304.065 314.832C-306.093 305.551 -306.935 296.232 -306.524 286.893C-305.368 277.564 -303.125 268.421 -300.04 259.504C-296.749 250.586 -293.076 241.893 -289.246 233.445C-285.877 225.007 -282.693 216.843 -279.775 208.953C-277.59 201.092 -275.641 193.535 -273.829 186.31C-272.468 179.115 -270.92 172.253 -269.03 165.753C-267.032 159.273 -264.328 153.145 -260.822 147.389C-256.777 141.623 -251.771 136.2 -245.836 131.129C-239.273 126.009 -231.859 121.193 -223.739 116.671C-215.198 112.031 -206.157 107.626 -196.774 103.455C-187.303 99.0894 -177.684 94.8801 -168.027 90.8274C-158.516 86.5007 -149.074 82.2816 -139.73 78.1506C-130.64 73.7161 -121.639 69.3501 -112.696 65.0723C-104.008 60.491 -95.3205 56.0272 -86.5738 51.7004C-78.0034 47.1485 -69.3057 42.8119 -60.4121 38.7494C-51.6164 34.6086 -42.5661 30.8398 -33.2122 27.5507C-23.8974 24.3496 -14.23 21.7457 -4.19044 19.8173" stroke="url(#paint0_linear_2276_3808)" stroke-width="2" stroke-linecap="round" stroke-dasharray="3 2"/>
<path opacity="0.23" d="M20.0584 32.4316C29.9049 31.4878 39.7353 31.328 49.4917 31.9381C59.2127 32.9089 68.8388 34.6679 78.2826 37.1991C87.6137 40.0756 96.667 43.6881 105.331 47.9503C113.738 52.5084 121.603 57.6465 128.774 63.295C135.522 69.1 141.416 75.3256 146.323 81.8937C150.687 88.4923 153.993 95.3497 156.214 102.405C158.008 109.401 158.897 116.54 159.042 123.802C159.273 130.953 159.259 138.233 159.355 145.63C160.42 152.938 162.297 160.411 165.36 168.065C170.213 175.68 176.719 183.519 184.957 191.578C195.012 199.628 206.465 207.905 218.887 216.377C231.814 224.778 244.447 233.314 255.944 241.947C265.767 250.373 272.986 258.822 276.966 267.238C277.824 275.385 275.071 283.503 268.91 291.616C260.554 299.544 250.245 307.589 239.048 315.827C228.752 324.109 219.872 332.766 213.426 341.86C210.625 351.21 211.192 360.838 214.834 370.713C221.418 380.785 229.524 390.994 238.062 401.204C246.551 411.401 253.363 421.45 257.698 431.245C259.525 440.825 257.979 450.048 253.114 458.871C245.528 467.422 235.301 475.562 223.121 483.269C209.788 490.748 195.836 497.82 181.993 504.458C168.81 510.927 156.681 516.941 145.902 522.47C136.717 527.808 129.043 532.605 122.759 536.774C111.821 545.933 100.574 551.685 95.8394 551.017C90.0499 549.852 73.9833 546.275 63.8164 544.527C56.5395 543.984 48.6488 543.652 40.2244 543.646C31.6241 544.462 22.6012 545.7 13.2138 547.373C3.72649 549.902 -6.0536 552.823 -16.0818 556.06C-26.1549 559.932 -36.2176 563.795 -46.2301 567.504C-56.2662 571.408 -66.2691 574.843 -76.2098 577.675C-86.1841 580.288 -96.1165 582.03 -106.013 582.843C-115.93 583.124 -125.821 582.328 -135.664 580.445C-145.481 577.917 -155.221 574.296 -164.829 569.643C-174.316 564.381 -183.569 558.183 -192.5 551.164C-201.142 543.684 -209.305 535.532 -216.89 526.842C-224.004 517.88 -230.394 508.538 -235.968 498.91C-240.997 489.203 -245.179 479.33 -248.532 469.388C-251.474 459.474 -253.728 449.541 -255.405 439.648C-257.048 429.827 -258.419 420.054 -259.647 410.34C-261.322 400.693 -263.146 391.075 -265.211 381.518C-267.984 371.999 -271.044 362.49 -274.342 353.032C-278.152 343.588 -281.945 334.174 -285.505 324.806C-289 315.482 -291.849 306.203 -293.801 296.998C-295.128 287.856 -295.284 278.797 -294.209 269.844C-292.382 260.945 -289.506 252.336 -285.806 244.029C-281.882 235.739 -277.564 227.722 -273.089 219.971C-269.044 212.2 -265.175 204.691 -261.589 197.447C-258.729 190.171 -256.152 183.169 -253.795 176.486C-251.955 169.766 -250.06 163.374 -247.955 157.349C-245.859 151.315 -243.21 145.653 -239.902 140.381C-236.151 135.101 -231.544 130.206 -226.079 125.685C-220.003 121.128 -213.086 116.906 -205.436 113.001C-197.278 108.994 -188.559 105.242 -179.394 101.718C-170 98.0046 -160.342 94.4567 -150.558 91.0551C-140.764 87.3893 -130.958 83.8126 -121.197 80.3309C-111.562 76.5458 -101.99 72.825 -92.4943 69.1971C-83.1742 65.2819 -73.8819 61.4824 -64.6 57.8295C-55.4515 53.9807 -46.2589 50.3411 -36.9796 47.002C-27.7826 43.5786 -18.4465 40.5478 -8.94734 37.9896C0.515568 35.5271 10.1827 33.6482 20.0486 32.4309" stroke="url(#paint1_linear_2276_3808)" stroke-width="2" stroke-linecap="round" stroke-dasharray="10 7"/>
<path opacity="0.7" d="M39.7251 46.5734C49.2632 46.2855 58.5983 46.73 67.6751 47.8794C76.6842 49.3653 85.4031 51.5713 93.7445 54.4851C101.942 57.7146 109.672 61.5897 116.851 66.0688C123.766 70.8071 130.005 76.0526 135.469 81.7419C140.565 87.5864 144.791 93.7723 148.085 100.251C151.008 106.766 153.02 113.498 154.186 120.397C155.19 127.263 155.598 134.281 155.583 141.418C155.966 148.541 156.436 155.816 157.296 163.274C159.288 170.775 162.234 178.519 166.399 186.526C172.212 194.637 179.473 203.063 188.178 211.773C198.258 220.559 209.29 229.599 220.811 238.827C232.385 247.954 243.279 257.133 252.758 266.249C260.442 275.041 265.543 283.635 267.563 291.98C266.779 299.868 262.777 307.496 255.796 314.92C247.027 322.05 236.636 329.178 225.564 336.436C215.434 343.819 206.61 351.613 199.966 359.945C196.598 368.751 196.254 377.996 198.677 387.614C203.833 397.63 210.475 407.837 217.679 418.064C225.068 428.308 231.187 438.302 235.286 447.891C237.325 457.148 236.426 465.84 232.552 473.892C226.158 481.507 217.191 488.501 206.194 494.88C193.81 500.924 180.491 506.45 166.876 511.479C153.465 516.329 140.697 520.756 128.913 524.74C118.36 528.621 109.106 532.064 101.157 535.019C91.8413 539.037 79.1893 544.044 74.5026 544.931C70.3915 545.109 60.5396 542.94 54.1397 540.984C49.4485 539.884 44.0605 538.674 37.9937 537.438C31.6781 536.769 24.7074 536.255 17.1399 535.972C9.36801 536.431 1.0465 537.208 -7.74843 538.324C-16.6826 540.21 -26.0528 542.381 -35.783 544.787C-45.6041 547.764 -55.5181 550.698 -65.4779 553.467C-75.4556 556.431 -85.4502 558.958 -95.4149 560.926C-105.356 562.729 -115.257 563.756 -125.075 563.925C-134.831 563.658 -144.478 562.418 -153.977 560.2C-163.345 557.408 -172.493 553.628 -181.37 548.918C-190.002 543.659 -198.256 537.554 -206.036 530.686C-213.432 523.418 -220.244 515.52 -226.373 507.126C-232.001 498.487 -236.867 489.492 -240.924 480.235C-244.474 470.892 -247.252 461.402 -249.285 451.829C-251.022 442.259 -252.201 432.659 -252.938 423.083C-253.766 413.523 -254.437 403.966 -255.074 394.453C-256.233 384.925 -257.591 375.399 -259.228 365.892C-261.554 356.357 -264.147 346.824 -266.963 337.328C-270.221 327.809 -273.417 318.338 -276.349 308.964C-279.177 299.625 -281.331 290.411 -282.609 281.371C-283.247 272.421 -282.756 263.671 -281.068 255.131C-278.634 246.697 -275.196 238.652 -270.969 230.976C-266.491 223.335 -261.621 216.008 -256.605 208.968C-251.958 201.885 -247.494 195.044 -243.306 188.47C-239.814 181.787 -236.645 175.356 -233.754 169.21C-231.424 162.976 -229.156 157.039 -226.798 151.441C-224.563 145.806 -221.924 140.535 -218.768 135.654C-215.303 130.766 -211.085 126.283 -206.109 122.174C-200.579 118.064 -194.248 114.306 -187.184 110.888C-179.585 107.399 -171.372 104.184 -162.641 101.22C-153.571 98.0977 -144.16 95.1518 -134.505 92.369C-124.715 89.3383 -114.824 86.4211 -104.894 83.5883C-94.9778 80.4966 -85.0805 77.4713 -75.2455 74.5361C-65.4828 71.3435 -55.7754 68.2617 -46.1218 65.3502C-36.5391 62.2408 -26.9894 59.364 -17.4491 56.7627C-7.96017 54.1047 1.55406 51.8259 11.0936 49.9958C20.5889 48.268 30.1429 47.1023 39.7154 46.5721" stroke="url(#paint2_linear_2276_3808)" stroke-width="2" stroke-linecap="round" stroke-dasharray="7 5"/>
<path opacity="0.81" d="M54.5325 61.389C63.6513 61.7041 72.3998 62.6706 80.732 64.2687C88.9697 66.1669 96.7488 68.7075 104.006 71.8571C111.1 75.302 117.6 79.3202 123.432 83.8359C129.032 88.5921 133.884 93.7986 137.947 99.3664C141.735 105.095 144.699 111.118 146.848 117.386C148.802 123.723 150.043 130.257 150.677 136.961C151.382 143.701 151.768 150.622 152.037 157.718C152.89 164.89 154.065 172.291 155.824 179.957C158.743 187.773 162.633 195.916 167.679 204.418C174.137 213.104 181.792 222.146 190.519 231.508C200.206 240.976 210.416 250.666 220.684 260.459C230.653 270.108 239.639 279.666 247.028 289.011C252.611 297.899 255.682 306.408 255.918 314.448C253.672 321.916 248.605 328.948 240.991 335.615C231.947 341.944 221.579 348.189 210.724 354.51C200.817 361.034 192.096 368.003 185.317 375.589C181.459 383.802 180.288 392.562 181.594 401.823C185.401 411.612 190.638 421.646 196.533 431.743C202.806 441.9 208.151 451.758 211.911 461.115C214.041 470.083 213.683 478.326 210.711 485.768C205.487 492.646 197.841 498.715 188.171 503.999C177.023 508.835 164.704 513.019 151.789 516.615C138.705 519.975 125.867 522.886 113.655 525.361C102.286 527.777 91.9676 529.828 82.7672 531.478C74.7461 533.141 67.7952 534.392 61.7803 535.204C54.5216 536.209 43.1337 535.918 37.92 534.678C32.699 533.288 19.9778 529.596 12.1239 527.73C6.47087 526.998 0.207607 526.354 -6.66867 525.86C-13.7676 526.028 -21.446 526.423 -29.6561 527.053C-38.06 528.354 -46.9491 529.86 -56.2856 531.491C-65.7353 533.648 -75.3375 535.722 -85.0483 537.602C-94.7736 539.69 -104.539 541.359 -114.284 542.512C-123.975 543.555 -133.593 543.884 -143.079 543.46C-152.43 542.685 -161.593 541.039 -170.508 538.514C-179.193 535.529 -187.558 531.661 -195.514 526.96C-203.134 521.81 -210.258 515.896 -216.808 509.314C-222.913 502.387 -228.346 494.893 -233.053 486.964C-237.262 478.812 -240.722 470.34 -243.388 461.628C-245.634 452.825 -247.194 443.86 -248.098 434.825C-248.841 425.745 -249.142 416.609 -249.118 407.453C-249.305 398.251 -249.426 389.024 -249.603 379.775C-250.334 370.447 -251.308 361.087 -252.556 351.697C-254.458 342.228 -256.616 332.734 -258.93 323.266C-261.634 313.755 -264.223 304.308 -266.527 294.983C-268.674 285.721 -270.152 276.653 -270.771 267.83C-270.748 259.144 -269.645 250.75 -267.387 242.665C-264.42 234.731 -260.501 227.262 -255.826 220.235C-250.88 213.257 -245.566 206.618 -240.092 200.304C-234.932 193.912 -229.925 187.768 -225.208 181.852C-221.132 175.798 -217.401 169.95 -214.002 164.342C-211.174 158.591 -208.503 153.107 -205.857 147.928C-202.082 140.198 -192.479 126.509 -186.025 120.626C-181.042 116.829 -175.317 113.402 -168.899 110.344C-161.963 107.247 -154.389 104.447 -146.261 101.917C-137.731 99.2819 -128.773 96.8491 -119.502 94.5936C-109.991 92.1495 -100.276 89.8291 -90.4663 87.6292C-80.5555 85.1907 -70.6057 82.8507 -60.6881 80.6139C-50.7519 78.1508 -40.8637 75.8175 -31.0584 73.6368C-21.2604 71.3042 -11.5481 69.1835 -1.91458 67.3363C7.68681 65.4522 17.2121 63.9221 26.649 62.8036C36.0516 61.798 45.3548 61.3016 54.523 61.387" stroke="url(#paint3_linear_2276_3808)" stroke-width="2" stroke-linecap="round" stroke-dasharray="8 1"/>
<path opacity="0.38" d="M64.7422 76.1177C73.3564 76.9715 81.4627 78.3815 89.0448 80.3327C96.5103 82.5457 103.397 85.3145 109.674 88.6001C115.773 92.15 121.212 96.1814 125.943 100.65C130.469 105.334 134.266 110.388 137.313 115.775C140.175 121.313 142.324 127.123 143.814 133.17C145.261 139.327 146.199 145.693 146.743 152.261C147.554 158.958 148.263 165.869 149.081 173.037C150.582 180.382 152.544 188.033 155.172 196.03C158.881 204.269 163.496 212.903 169.099 221.925C175.825 231.191 183.446 240.817 191.785 250.744C200.695 260.744 209.737 270.884 218.491 281.032C226.672 290.944 233.666 300.623 238.986 309.92C242.553 318.648 243.759 326.834 242.392 334.398C238.9 341.306 232.959 347.657 224.882 353.533C215.703 359.059 205.462 364.45 194.888 369.898C185.248 375.606 176.691 381.801 169.827 388.629C165.556 396.218 163.654 404.432 163.953 413.213C166.513 422.638 170.434 432.365 175.061 442.184C180.215 452.126 184.754 461.757 188.085 470.845C190.185 479.535 190.228 487.405 188.038 494.364C183.905 500.668 177.565 506.038 169.304 510.474C159.551 514.355 148.515 517.458 136.652 519.862C124.339 521.953 111.953 523.522 99.8611 524.638C88.2476 525.687 77.3861 526.394 67.4192 526.759C58.3723 527.186 50.2872 527.322 43.1223 527.132C34.0377 526.845 19.7139 524.827 13.5825 523.113C7.78193 521.453 -4.95532 517.55 -12.3882 515.612C-17.678 514.793 -23.4994 514.014 -29.8781 513.329C-36.4717 513.244 -43.6241 513.292 -51.326 513.477C-59.2144 514.271 -67.6199 515.159 -76.4723 516.111C-85.4676 517.522 -94.6509 518.807 -103.932 519.9C-113.248 521.187 -122.593 522.078 -131.884 522.506C-141.114 522.86 -150.213 522.59 -159.129 521.649C-167.865 520.443 -176.338 518.469 -184.45 515.742C-192.294 512.655 -199.708 508.786 -206.622 504.215C-213.155 499.276 -219.097 493.672 -224.382 487.494C-229.23 481.035 -233.363 474.079 -236.754 466.748C-239.691 459.222 -241.899 451.397 -243.381 443.354C-244.548 435.21 -245.108 426.904 -245.126 418.491C-245.089 409.991 -244.729 401.402 -244.147 392.744C-243.86 383.981 -243.586 375.122 -243.428 366.209C-243.817 357.138 -244.469 347.991 -245.387 338.776C-246.89 329.433 -248.605 320.05 -250.447 310.68C-252.579 301.257 -254.574 291.924 -256.235 282.739C-257.716 273.637 -258.523 264.781 -258.503 256.236C-257.865 247.88 -256.19 239.886 -253.436 232.285C-249.985 224.886 -245.658 218.017 -240.624 211.627C-235.295 205.312 -229.617 199.374 -223.77 193.77C-218.184 188.08 -212.738 182.625 -207.549 177.391C-202.947 171.966 -198.704 166.723 -194.813 161.674C-189.942 153.912 -181.312 139.412 -176.856 132.834C-171.908 126.531 -158.902 115.826 -150.553 111.405C-144.305 108.567 -137.437 106.051 -130.014 103.839C-122.154 101.559 -113.831 99.5157 -105.144 97.6899C-96.1396 95.7214 -86.8683 93.922 -77.4307 92.2523C-67.8013 90.414 -58.0864 88.7023 -48.3423 87.101C-38.5181 85.3292 -28.716 83.7039 -18.9979 82.2276C-9.23497 80.6317 0.415493 79.2479 9.93047 78.1204C19.4415 76.9714 28.8074 76.1472 37.9807 75.7055C47.1241 75.3673 56.0626 75.4895 64.7301 76.1243" stroke="url(#paint4_linear_2276_3808)" stroke-width="2" stroke-linecap="round" stroke-dasharray="11 10"/>
<path opacity="0.66" d="M71.1077 90.221C79.1463 91.5185 86.6032 93.2905 93.4668 95.5119C100.199 97.977 106.303 100.9 111.75 104.248C117.04 107.852 121.643 111.849 125.558 116.21C129.309 120.791 132.387 125.699 134.805 130.896C137.128 136.267 138.881 141.908 140.129 147.79C141.451 153.836 142.441 160.135 143.252 166.692C144.42 173.442 145.656 180.489 147.13 187.853C149.312 195.477 152 203.485 155.326 211.884C159.585 220.585 164.615 229.715 170.411 239.231C177.027 248.986 184.23 259.072 191.799 269.386C199.602 279.714 207.219 290.066 214.276 300.297C220.577 310.197 225.589 319.717 228.916 328.711C230.605 337.05 230.139 344.723 227.39 351.65C222.85 357.887 216.248 363.491 207.867 368.566C198.678 373.312 188.661 377.9 178.44 382.528C169.115 387.475 160.748 392.91 153.876 399.019C149.268 405.951 146.731 413.551 146.131 421.758C147.562 430.712 150.26 439.997 153.695 449.406C157.765 459.018 161.466 468.327 164.301 477.098C166.251 485.493 166.551 493.04 165.016 499.62C161.857 505.51 156.749 510.37 149.878 514.206C141.586 517.394 131.983 519.694 121.439 521.178C110.252 522.28 98.7339 522.78 87.2318 522.754C75.885 522.618 64.9956 522.119 54.7634 521.308C45.1578 520.582 36.353 519.607 28.3642 518.401C21.0953 517.366 14.5301 516.12 8.58836 514.655C0.691158 512.69 -13.2291 508.176 -19.9496 505.736C-26.7855 503.723 -42.2039 500.16 -51.0799 498.784C-57.353 498.418 -64.1244 498.129 -71.3721 497.915C-78.8277 498.209 -86.7495 498.55 -95.0898 498.894C-103.575 499.633 -112.231 500.237 -120.957 500.637C-129.729 501.218 -138.484 501.441 -147.152 501.258C-155.75 501.027 -164.165 500.269 -172.314 498.931C-180.277 497.401 -187.895 495.215 -195.084 492.404C-201.98 489.306 -208.365 485.56 -214.178 481.221C-219.614 476.594 -224.406 471.411 -228.501 465.753C-232.184 459.852 -235.162 453.541 -237.402 446.897C-239.275 440.075 -240.463 432.984 -241.003 425.692C-241.326 418.261 -241.144 410.651 -240.521 402.922C-239.95 395.048 -239.139 387.033 -238.194 378.911C-237.597 370.598 -237.058 362.16 -236.67 353.593C-236.815 344.83 -237.195 335.939 -237.823 326.957C-238.96 317.798 -240.256 308.59 -241.621 299.4C-243.192 290.144 -244.596 281.001 -245.64 272.044C-246.461 263.189 -246.633 254.614 -246.018 246.422C-244.796 238.454 -242.602 230.906 -239.409 223.819C-235.553 216.976 -230.885 210.702 -225.555 204.954C-219.939 199.311 -213.979 194.065 -207.854 189.162C-201.923 184.167 -196.112 179.409 -190.539 174.845C-185.474 170.074 -180.764 165.443 -176.402 160.966C-170.831 153.971 -161.193 140.659 -156.541 134.516C-151.684 128.552 -139.668 118.336 -132.163 114.138C-126.571 111.449 -120.397 109.109 -113.716 107.091C-106.593 105.037 -99.0114 103.267 -91.0373 101.735C-82.7015 100.127 -74.071 98.711 -65.2043 97.4758C-56.0954 96.1211 -46.8548 94.9191 -37.5478 93.8771C-28.0881 92.7035 -18.6331 91.6847 -9.24244 90.8404C0.222235 89.9085 9.58735 89.1904 18.7717 88.7083C27.9961 88.2305 37.0103 88.0405 45.7813 88.1991C54.5277 88.453 62.9796 89.1097 71.0893 90.2143" stroke="url(#paint5_linear_2276_3808)" stroke-width="2" stroke-linecap="round" stroke-dasharray="9 2"/>
<path opacity="0.58" d="M74.6893 103.444C82.127 105.127 88.9533 107.19 95.1682 109.632C101.265 112.29 106.706 115.329 111.513 118.727C118.181 124.336 128.185 137.512 131.655 145C133.767 150.277 135.436 155.848 136.76 161.683C138.242 167.739 139.535 174.097 140.788 180.758C142.428 187.68 144.237 194.967 146.35 202.628C149.098 210.596 152.319 218.991 156.092 227.807C160.606 236.934 165.688 246.468 171.303 256.37C177.443 266.466 183.86 276.804 190.37 287.27C196.816 297.664 202.846 307.956 208.12 317.995C212.544 327.608 215.649 336.714 217.133 345.175C217.132 352.926 215.215 359.922 211.324 366.105C205.962 371.593 198.885 376.428 190.369 380.691C181.273 384.692 171.56 388.512 161.739 392.381C152.771 396.622 144.66 401.346 137.829 406.732C132.963 413.002 129.887 419.949 128.507 427.519C128.926 435.888 130.522 444.626 132.864 453.517C135.876 462.688 138.741 471.588 141.037 479.986C142.734 488.071 143.164 495.318 142.125 501.582C139.762 507.185 135.759 511.707 130.204 515.144C123.358 517.893 115.245 519.664 106.149 520.541C96.3065 520.954 85.966 520.659 75.4134 519.786C64.7613 518.729 54.3251 517.264 44.2832 515.472C34.6071 513.727 25.5317 511.768 17.0976 509.626C9.20572 507.664 1.95782 505.583 -4.71258 503.365C-10.9119 501.413 -16.677 499.355 -22.0916 497.187C-29.7457 494.387 -44.5628 489.008 -52.2434 486.528C-57.5233 485.301 -63.1086 484.108 -69.0263 482.937C-75.1352 482.239 -81.6322 481.591 -88.5093 480.976C-95.6004 480.813 -103.064 480.643 -110.876 480.434C-118.849 480.582 -126.915 480.581 -134.998 480.401C-143.135 480.389 -151.206 480.064 -159.129 479.386C-166.986 478.706 -174.586 477.573 -181.876 475.967C-188.974 474.222 -195.673 471.949 -201.875 469.168C-207.793 466.162 -213.166 462.638 -217.915 458.633C-222.313 454.4 -226.054 449.71 -229.106 444.633C-231.797 439.353 -233.797 433.73 -235.124 427.807C-236.156 421.728 -236.585 415.384 -236.443 408.845C-236.194 402.14 -235.51 395.234 -234.495 388.165C-233.601 380.912 -232.536 373.469 -231.416 365.857C-230.647 358.022 -229.974 349.994 -229.439 341.797C-229.409 333.362 -229.583 324.759 -229.941 316.041C-230.742 307.136 -231.623 298.172 -232.526 289.231C-233.562 280.23 -234.378 271.36 -234.835 262.695C-235.033 254.168 -234.603 245.966 -233.425 238.176C-231.679 230.652 -229.028 223.6 -225.445 217.053C-221.254 210.78 -216.32 205.121 -210.781 200.002C-204.955 195.012 -198.793 190.441 -192.476 186.22C-186.295 181.916 -180.199 177.853 -174.308 173.955C-168.859 169.848 -163.735 165.841 -158.952 161.949C-152.697 155.767 -141.955 143.725 -136.991 138.047C-132.064 132.427 -120.668 122.654 -113.832 118.591C-108.804 115.99 -103.275 113.733 -97.2859 111.812C-90.9067 109.884 -84.0854 108.262 -76.8716 106.913C-69.3135 105.515 -61.4294 104.372 -53.2868 103.441C-44.8753 102.438 -36.2848 101.634 -27.5996 101.001C-18.7242 100.303 -9.83267 99.7849 -0.972941 99.4561C7.9855 99.075 16.8474 98.9082 25.5432 98.9672C34.2796 99.0552 42.7988 99.4105 51.0412 100.071C59.2611 100.828 67.1622 101.936 74.6804 103.44" stroke="url(#paint6_linear_2276_3808)" stroke-width="2" stroke-linecap="round" stroke-dasharray="7 8"/>
<path opacity="0.5" d="M76.7095 115.942C83.5344 117.933 89.7757 120.244 95.4333 122.875C103.439 127.28 116.288 137.978 121.201 144.244C125.486 151.139 131.891 166.721 134.39 175.446C136.16 181.622 137.858 188.137 139.584 195.013C141.692 202.193 143.993 209.777 146.576 217.769C149.688 226.079 153.178 234.824 157.093 243.977C161.521 253.416 166.324 263.213 171.403 273.303C176.755 283.506 182.134 293.846 187.35 304.198C192.299 314.384 196.659 324.343 200.167 333.921C202.783 342.987 204.12 351.454 203.963 359.184C202.509 366.183 199.387 372.374 194.59 377.732C188.616 382.445 181.247 386.486 172.75 389.977C163.857 393.254 154.526 396.374 145.158 399.54C136.58 403.12 128.75 407.169 122.023 411.856C116.987 417.451 113.468 423.719 111.443 430.6C110.98 438.321 111.579 446.424 112.917 454.702C114.95 463.343 116.999 471.748 118.715 479.718C120.083 487.445 120.506 494.387 119.809 500.393C116.55 507.933 101.799 516.576 90.8572 517.873C82.4647 517.885 73.473 517.13 64.1241 515.715C54.4938 514.039 44.8687 511.898 35.4212 509.386C26.1011 506.865 17.1736 504.11 8.72039 501.177C0.608222 498.416 -6.99716 495.56 -14.0831 492.628C-20.8486 489.969 -27.1703 487.27 -33.1364 484.551C-38.8755 482.154 -44.4043 479.76 -49.7839 477.356C-55.109 475.327 -60.4346 473.319 -65.818 471.336C-71.3015 469.766 -76.9481 468.231 -82.8063 466.737C-88.852 465.654 -95.1533 464.611 -101.722 463.591C-108.5 462.959 -115.55 462.315 -122.839 461.619C-130.29 461.225 -137.755 460.713 -145.163 460.053C-152.629 459.541 -159.968 458.774 -167.084 457.737C-174.148 456.707 -180.917 455.313 -187.302 453.559C-193.53 451.699 -199.295 449.433 -204.544 446.766C-211.76 442.32 -222.694 431.205 -226.314 424.645C-228.857 417.509 -230.564 401.629 -229.972 392.988C-229.379 386.949 -228.443 380.705 -227.245 374.245C-226.217 367.562 -225.085 360.645 -223.921 353.523C-223.108 346.124 -222.379 338.49 -221.786 330.672C-221.626 322.566 -221.619 314.288 -221.753 305.879C-222.218 297.281 -222.726 288.616 -223.177 279.992C-223.706 271.326 -223.973 262.812 -223.865 254.533C-223.481 246.403 -222.504 238.636 -220.821 231.315C-218.603 224.282 -215.559 217.76 -211.659 211.775C-207.199 206.092 -202.065 201.038 -196.386 196.544C-190.432 192.198 -184.153 188.282 -177.718 184.716C-171.365 181.096 -165.067 177.702 -158.944 174.469C-153.187 171.006 -147.718 167.644 -142.563 164.369C-135.685 159.03 -123.775 148.393 -118.402 143.245C-113.254 138.021 -102.103 128.732 -95.7361 124.797C-91.1418 122.254 -86.15 120.047 -80.756 118.168C-75.0642 116.293 -68.9524 114.732 -62.4856 113.463C-55.7029 112.186 -48.5998 111.181 -41.2458 110.433C-33.6192 109.654 -25.7935 109.104 -17.8516 108.772C-9.71136 108.402 -1.52064 108.249 6.65954 108.301C14.9498 108.334 23.1632 108.593 31.2381 109.089C39.3428 109.612 47.2467 110.405 54.8839 111.465C62.496 112.635 69.7831 114.119 76.6962 115.946" stroke="url(#paint7_linear_2276_3808)" stroke-width="2" stroke-linecap="round" stroke-dasharray="1 5"/>
<path opacity="0.42" d="M78.2876 128.186C84.5257 130.416 90.2409 132.941 95.425 135.755C102.764 140.384 114.69 151.388 119.386 157.775C122.316 162.338 124.862 167.215 127.087 172.397C129.349 177.813 131.392 183.576 133.299 189.682C135.378 196.047 137.439 202.806 139.564 209.941C142 217.389 144.601 225.254 147.43 233.53C150.646 242.108 154.121 251.082 157.85 260.425C161.889 269.975 166.091 279.814 170.372 289.842C174.694 299.895 178.843 309.967 182.646 319.924C186.057 329.622 188.781 338.978 190.594 347.851C191.57 356.16 191.337 363.797 189.778 370.653C187.113 376.787 183.042 382.101 177.578 386.593C171.213 390.515 163.734 393.779 155.369 396.54C146.784 399.151 137.89 401.612 129.015 404.133C120.861 407.109 113.359 410.52 106.789 414.544C101.644 419.469 97.8069 425.035 95.2345 431.205C94.0217 438.21 93.7641 445.612 94.2071 453.224C95.3363 461.236 96.6003 469.09 97.7273 476.556C98.8515 487.194 96.0724 503.577 91.521 508.807C87.1967 511.263 81.8616 512.696 75.6659 513.146C68.7123 513.035 61.1413 512.105 53.1236 510.453C44.7205 508.476 36.1552 505.967 27.6067 503.03C18.9913 500.015 10.5839 496.726 2.47354 493.243C-5.48482 489.867 -13.0596 486.398 -20.2416 482.876C-27.2359 479.589 -33.8523 476.309 -40.1314 473.045C-46.2699 470.09 -52.1709 467.182 -57.8832 464.323C-63.5653 461.819 -69.1834 459.379 -74.7593 457C-80.4295 454.99 -86.1688 453.052 -91.9934 451.176C-97.9997 449.66 -104.143 448.197 -110.449 446.77C-116.946 445.662 -123.597 444.561 -130.382 443.433C-137.332 442.548 -144.2 441.588 -150.935 440.527C-157.745 439.603 -164.347 438.498 -170.677 437.183C-176.966 435.894 -182.911 434.336 -188.446 432.516C-196.311 429.524 -209.158 421.841 -213.977 417.149C-217.846 411.946 -222.226 399.933 -222.841 393.196C-222.794 385.927 -220.678 369.913 -218.983 361.139C-217.993 354.942 -216.902 348.496 -215.804 341.8C-215.032 334.794 -214.319 327.553 -213.715 320.081C-213.458 312.332 -213.305 304.401 -213.218 296.336C-213.386 288.086 -213.519 279.801 -213.551 271.557C-213.593 263.293 -213.363 255.203 -212.727 247.369C-211.829 239.724 -210.356 232.454 -208.225 225.647C-205.598 219.153 -202.228 213.187 -198.08 207.77C-193.416 202.692 -188.159 198.232 -182.418 194.344C-176.398 190.621 -170.089 187.336 -163.607 184.403C-157.162 181.435 -150.766 178.691 -144.483 176.108C-138.504 173.309 -132.765 170.578 -127.31 167.911C-119.867 163.478 -106.835 154.389 -100.984 149.852C-95.4887 145.126 -84.2311 136.478 -78.1201 132.72C-71.5285 129.173 -56.4225 123.62 -47.8781 121.62C-41.8235 120.387 -35.4736 119.455 -28.8729 118.787C-22.0438 118.124 -15.0209 117.723 -7.85087 117.565C-0.517849 117.406 6.89694 117.484 14.3229 117.801C21.8578 118.128 29.3384 118.688 36.7108 119.492C44.1005 120.342 51.3363 121.454 58.3203 122.835C65.282 124.306 71.944 126.086 78.2793 128.181" stroke="url(#paint8_linear_2276_3808)" stroke-width="2" stroke-linecap="round" stroke-dasharray="9 1"/>
<path opacity="0.31" d="M80.2692 140.826C88.5682 144.635 102.761 153.85 108.675 159.295C114.035 165.293 122.87 179.124 126.549 187.009C128.961 192.601 131.22 198.566 133.386 204.888C135.684 211.478 137.98 218.466 140.326 225.833C142.884 233.489 145.559 241.547 148.361 249.978C151.404 258.66 154.57 267.687 157.835 276.994C161.223 286.428 164.598 296.046 167.874 305.75C171.031 315.366 173.867 324.892 176.234 334.194C178.149 343.152 179.334 351.682 179.634 359.646C179.173 367.026 177.624 373.702 174.916 379.574C171.314 384.777 166.534 389.186 160.649 392.817C154.076 395.944 146.643 398.473 138.545 400.55C130.337 402.546 121.936 404.423 113.6 406.362C105.897 408.778 98.7541 411.606 92.3901 414.995C87.2092 419.254 83.1445 424.128 80.1604 429.566C78.3179 435.832 77.3193 442.488 76.9927 449.371C77.3008 456.697 77.8393 463.925 78.373 470.845C78.9616 480.845 76.6961 496.585 73.2043 501.771C67.7677 505.04 52.0465 505.908 42.2861 503.869C35.1827 501.888 27.8271 499.308 20.3497 496.25C12.6889 493.044 5.07594 489.51 -2.39221 485.729C-9.85993 481.997 -17.0936 478.145 -24.0518 474.217C-30.9397 470.474 -37.5475 466.731 -43.869 463.028C-50.1509 459.585 -56.2049 456.212 -62.0642 452.922C-67.9463 449.944 -73.71 447.052 -79.3807 444.266C-85.1505 441.795 -90.9114 439.429 -96.6815 437.14C-102.619 435.178 -108.595 433.285 -114.628 431.436C-120.84 429.88 -127.119 428.348 -133.421 426.798C-139.884 425.483 -146.184 424.13 -152.281 422.731C-158.458 421.457 -164.365 420.064 -169.962 418.548C-178.148 416.22 -192.295 410.576 -198.077 407.197C-206.597 399.032 -213.364 384.013 -213.658 378.022C-213.444 371.506 -211.397 356.906 -209.893 348.787C-209.029 342.992 -208.088 336.925 -207.116 330.603C-206.431 323.959 -205.783 317.07 -205.178 309.941C-204.858 302.555 -204.559 294.983 -204.277 287.302C-204.159 279.463 -203.96 271.599 -203.591 263.799C-203.192 256.009 -202.498 248.412 -201.397 241.089C-200.035 233.972 -198.128 227.255 -195.617 221.007C-192.67 215.091 -189.035 209.694 -184.704 204.871C-179.923 200.378 -174.611 196.519 -168.865 193.209C-162.859 190.092 -156.577 187.409 -150.137 185.072C-143.697 182.736 -137.261 180.603 -130.917 178.646C-124.799 176.498 -118.876 174.402 -113.197 172.356C-105.302 168.854 -91.2417 161.439 -84.9011 157.62C-78.9901 153.509 -67.3228 145.744 -61.2808 142.263C-54.9752 138.904 -40.9828 133.531 -33.2307 131.576C-27.7895 130.365 -22.093 129.451 -16.1901 128.835C-10.0913 128.216 -3.81557 127.887 2.59183 127.824C9.14241 127.781 15.7815 127.998 22.4543 128.483C29.2056 128.977 35.9416 129.739 42.584 130.761C49.2541 131.828 55.7916 133.173 62.1259 134.795C68.4236 136.499 74.487 138.505 80.2613 140.82" stroke="url(#paint9_linear_2276_3808)" stroke-width="2" stroke-linecap="round" stroke-dasharray="9 10"/>
<path opacity="0.83" d="M83.0896 154.59C90.6575 158.661 103.79 168.418 109.385 174.128C116.361 182.414 122.157 192.01 127.079 202.919C132.077 214.691 136.699 227.993 141.249 242.737C146.283 258.409 151.434 275.439 156.547 293.374C161.604 311.481 165.758 329.591 168.18 346.73C168.734 362.331 166.118 375.673 159.71 386.007C150.505 393.962 137.806 399.178 122.53 402.24C114.775 403.69 106.907 405.044 99.1279 406.462C91.9018 408.362 85.1445 410.649 79.0392 413.438C73.9121 417.073 69.7049 421.258 66.4078 425.961C64.0655 431.475 62.4693 437.367 61.4751 443.489C61.0925 457.033 61.1222 469.746 60.3044 480.388C58.1359 489.701 53.4784 495.457 46.3284 497.525C36.9187 497.504 25.6101 494.351 13.2604 488.796C-0.121605 482.413 -13.5357 474.77 -26.3964 466.492C-39.4137 458.685 -51.7 450.895 -63.2066 443.383C-74.9922 436.893 -86.3673 430.843 -97.4422 425.24C-103.229 422.838 -108.98 420.53 -114.719 418.297C-120.625 416.306 -126.507 414.363 -132.344 412.457C-138.334 410.73 -144.085 409.026 -149.6 407.331C-155.196 405.746 -160.484 404.102 -165.435 402.41C-175.341 399.075 -183.576 395.258 -189.928 390.921C-195.891 386.248 -199.813 380.855 -201.761 374.79C-203.424 368.028 -203.442 360.377 -202.182 351.859C-201.293 342.281 -199.728 331.592 -197.893 319.862C-196.953 306.946 -195.948 293.109 -194.839 278.742C-194.124 263.886 -192.612 249.272 -189.815 235.596C-188.055 229.059 -185.797 222.933 -182.98 217.269C-179.774 211.949 -175.957 207.149 -171.511 202.909C-166.676 199.014 -161.375 195.719 -155.683 192.977C-149.76 190.431 -143.58 188.309 -137.253 186.544C-124.575 182.969 -112.058 180.08 -100.186 177.452C-89.3821 173.736 -79.4353 169.985 -70.2576 166.261C-61.9305 161.466 -53.7901 157.027 -45.5572 153.219C-37.3217 148.925 -28.4454 145.6 -18.8694 143.372C-8.80077 141.049 2.04326 139.899 13.4045 139.909C25.1878 139.982 37.2278 141.174 49.122 143.488C55.0916 144.709 60.9518 146.21 66.6695 148.014C72.3376 149.892 77.8219 152.076 83.0758 154.591" stroke="url(#paint10_linear_2276_3808)" stroke-width="2" stroke-linecap="round"/>
<path opacity="0.4" d="M86.7279 170.068C96.0088 175.709 104.083 182.567 110.997 190.591C117.585 199.173 123.223 209.1 128.112 220.335C132.974 232.312 137.42 245.732 141.609 260.436C145.942 275.802 150.002 292.217 153.576 309.141C156.704 325.904 158.589 342.257 158.59 357.313C156.838 370.732 152.236 381.838 144.476 390.069C134.591 396.243 122.001 399.986 107.523 401.893C93.2196 403.971 79.2454 406.399 66.8913 410.181C57.6773 417.041 51.4603 425.824 47.7775 435.939C46.1432 448.006 45.196 459.514 43.9556 469.362C41.9446 478.332 38.2204 484.211 32.6422 486.778C25.2726 487.48 16.2456 485.146 6.14877 480.35C-5.09338 474.597 -16.6755 467.372 -28.0926 459.309C-39.9789 451.43 -51.451 443.408 -62.3533 435.575C-73.6844 428.514 -84.6377 421.851 -95.2053 415.662C-106.402 410.323 -117.38 405.377 -127.96 400.739C-139.109 396.681 -149.142 392.826 -157.899 389.042C-166.759 385.349 -174.001 381.405 -179.521 377.174C-184.809 372.608 -188.294 367.506 -190.074 361.826C-191.744 355.433 -192.001 348.215 -191.159 340.129C-190.681 330.987 -189.568 320.766 -188.099 309.551C-187.291 297.263 -186.221 284.162 -184.808 270.643C-183.552 256.807 -181.377 243.322 -177.904 230.835C-173.467 219.266 -167.038 209.457 -158.435 201.779C-148.468 195.452 -137.087 191.249 -124.888 188.673C-112.486 186.226 -100.112 184.478 -88.2202 183.012C-77.1411 180.585 -66.7763 178.075 -57.1186 175.502C-48.2472 171.844 -39.6857 168.375 -31.2378 165.33C-22.955 161.684 -14.3114 158.817 -5.24974 156.908C4.0803 154.823 13.9682 153.833 24.2415 154.003C34.7782 154.198 45.5272 155.56 56.1979 158.121C66.8284 160.821 77.104 164.777 86.7209 170.061" stroke="url(#paint11_linear_2276_3808)" stroke-width="2" stroke-linecap="round" stroke-dasharray="1 1"/>
<path opacity="0.34" d="M90.7499 187.519C99.1277 193.403 106.514 200.53 112.932 208.853C119.032 217.629 124.308 227.734 128.891 239.081C133.328 251.001 137.243 264.207 140.693 278.438C144.008 293.05 146.734 308.354 148.647 323.776C149.894 338.754 149.721 353.002 147.677 365.727C144.093 376.848 138.066 385.698 129.479 391.91C119.344 396.432 107.172 398.861 93.6559 399.76C80.4575 401.031 67.5919 402.649 56.0399 405.483C46.9942 411.147 40.3917 418.506 35.9619 427.106C33.2739 437.643 31.4299 447.877 29.6707 456.834C25.9901 468.289 10.5958 475.085 -1.06944 470.659C-10.2645 465.891 -19.9786 459.503 -29.7972 452.096C-40.2437 444.631 -50.5576 436.813 -60.5251 429.002C-71.0183 421.734 -81.2298 414.741 -91.0712 408.165C-101.515 402.253 -111.649 396.72 -121.305 391.549C-131.489 386.846 -140.536 382.482 -148.339 378.325C-156.304 374.221 -162.774 370.049 -167.708 365.72C-172.546 361.071 -175.817 355.99 -177.628 350.401C-179.438 344.119 -180.036 337.065 -179.66 329.175C-179.592 320.303 -178.88 310.43 -177.712 299.669C-176.981 288 -175.807 275.665 -174.09 263.072C-172.358 250.334 -169.619 238.053 -165.605 226.813C-160.712 216.535 -154.014 207.955 -145.409 201.425C-135.647 196.2 -124.669 192.998 -112.94 191.353C-100.968 189.938 -88.9216 189.241 -77.194 188.879C-66.0545 187.691 -55.4793 186.426 -45.5155 185.062C-36.2241 182.659 -27.2964 180.303 -18.6075 178.224C-10.1751 175.456 -1.61205 173.279 7.13158 171.896C15.9603 170.255 25.1385 169.6 34.5415 170.039C44.0714 170.445 53.7453 172.018 63.3307 174.82C72.8264 177.727 82.0421 181.928 90.7499 187.519Z" stroke="url(#paint12_linear_2276_3808)" stroke-width="2" stroke-linecap="round" stroke-dasharray="3 2"/>
<path opacity="0.24" d="M94.3986 206.808C101.917 212.875 108.574 220.184 114.368 228.622C119.848 237.437 124.557 247.484 128.556 258.617C132.313 270.158 135.431 282.732 137.88 296.028C140.025 309.458 141.338 323.218 141.641 336.74C141.204 349.62 139.315 361.541 135.685 371.835C130.795 380.664 123.874 387.362 114.937 391.719C104.943 394.764 93.4393 396.067 81.0079 396.145C68.9562 396.733 57.208 397.669 46.5073 399.664C37.7496 404.192 30.9765 410.197 26.0021 417.34C22.4797 426.342 19.8395 435.224 17.5345 443.208C13.7155 453.98 1.03258 462.256 -8.26144 459.473C-15.6695 455.898 -23.6458 450.65 -31.8718 444.223C-40.7741 437.575 -49.7471 430.352 -58.5675 422.925C-67.9486 415.829 -77.174 408.824 -86.0965 402.117C-95.5859 395.894 -104.774 389.983 -113.481 384.394C-122.662 379.168 -130.783 374.326 -137.767 369.76C-144.922 365.227 -150.773 360.706 -155.287 356.11C-159.792 351.187 -162.965 345.909 -164.891 340.181C-166.858 333.805 -167.779 326.715 -167.804 318.864C-168.072 310.15 -167.652 300.578 -166.681 290.261C-165.958 279.234 -164.633 267.721 -162.627 256.13C-160.476 244.551 -157.286 233.522 -152.857 223.577C-147.66 214.586 -140.862 207.23 -132.392 201.812C-122.96 197.632 -112.486 195.341 -101.357 194.547C-89.9472 194.056 -78.3901 194.303 -67.0228 194.93C-56.0445 194.905 -45.4681 194.855 -35.4159 194.701C-25.8812 193.599 -16.7131 192.47 -7.85099 191.488C0.713607 189.797 9.25727 188.53 17.788 187.889C26.2858 186.915 34.9375 186.786 43.6547 187.643C52.3886 188.425 61.1597 190.302 69.8065 193.383C78.3189 196.531 86.5843 200.966 94.3986 206.808Z" stroke="url(#paint13_linear_2276_3808)" stroke-width="2" stroke-linecap="round" stroke-dasharray="9 4"/>
<path opacity="0.89" d="M96.8318 227.34C103.498 233.522 109.364 240.853 114.413 249.205C119.165 257.835 123.14 267.529 126.354 278.077C129.268 288.882 131.429 300.431 132.787 312.38C133.737 324.246 133.732 336.122 132.631 347.477C130.827 358.122 127.631 367.657 122.921 375.575C117.233 382.227 109.905 386.982 101.045 389.72C91.502 391.514 80.8622 391.897 69.599 391.318C58.7189 391.355 48.09 391.719 38.2667 392.982C29.9116 396.467 23.1265 401.226 17.8203 406.981C13.6666 414.462 10.3656 421.989 7.53734 428.9C3.37605 438.732 -7.68276 447.967 -15.1968 446.721C-21.1713 444.376 -27.6464 440.367 -34.4204 435.125C-41.8477 429.551 -49.4455 423.222 -57.0307 416.485C-65.1843 409.901 -73.2723 403.203 -81.1488 396.612C-89.5484 390.366 -97.7041 384.276 -105.434 378.421C-113.584 372.82 -120.804 367.578 -127.03 362.596C-133.436 357.627 -138.731 352.687 -142.895 347.681C-147.094 342.393 -150.166 336.784 -152.177 330.756C-154.246 324.179 -155.371 316.968 -155.677 309.099C-156.136 300.534 -155.879 291.26 -154.969 281.428C-154.171 271.106 -152.658 260.499 -150.382 249.964C-147.878 239.595 -144.35 229.853 -139.653 221.204C-134.301 213.495 -127.539 207.332 -119.327 202.956C-110.351 199.753 -100.481 198.295 -90.0404 198.232C-79.3221 198.536 -68.4142 199.608 -57.5924 201.099C-46.9858 202.123 -36.662 203.181 -26.7372 204.185C-17.1946 204.362 -7.98326 204.5 0.899159 204.691C9.51834 204.199 17.9922 204.003 26.3283 204.273C34.5573 204.167 42.786 204.754 50.9187 206.191C59.0138 207.499 67.0259 209.801 74.8374 213.221C82.5022 216.667 89.8872 221.342 96.8318 227.34Z" stroke="url(#paint14_linear_2276_3808)" stroke-width="2" stroke-linecap="round" stroke-dasharray="8 5"/>
<path opacity="0.42" d="M97.2389 248.141C103.063 254.344 108.09 261.525 112.324 269.534C116.266 277.741 119.41 286.768 121.743 296.41C123.769 306.145 124.95 316.335 125.257 326.611C125.147 336.685 124.032 346.493 121.847 355.6C119.052 363.983 115.021 371.23 109.701 376.968C103.679 381.663 96.3798 384.728 87.9326 386.137C79.0725 386.913 69.4341 386.588 59.3871 385.538C49.6751 385.142 40.1532 385.043 31.2247 385.678C23.3743 388.245 16.746 391.843 11.2873 396.299C6.71332 402.324 2.91364 408.487 -0.365037 414.277C-4.97548 422.93 -15.2319 432.436 -21.5385 432.437C-26.4379 431.185 -31.7291 428.4 -37.2933 424.354C-43.418 419.971 -49.7573 414.71 -56.1477 408.859C-63.0497 403.037 -69.9717 396.902 -76.7631 390.659C-84.0127 384.64 -91.0835 378.599 -97.8182 372.616C-104.92 366.84 -111.238 361.297 -116.722 355.936C-122.382 350.584 -127.112 345.225 -130.908 339.789C-134.75 334.11 -137.638 328.13 -139.637 321.794C-141.657 314.999 -142.854 307.673 -143.264 299.825C-143.74 291.464 -143.492 282.571 -142.547 273.32C-141.594 263.783 -139.874 254.151 -137.354 244.743C-134.587 235.612 -130.83 227.181 -126.002 219.811C-120.643 213.343 -114.051 208.305 -106.219 204.928C-97.7953 202.6 -88.6171 201.87 -78.9583 202.431C-69.0506 203.413 -58.9166 205.156 -48.7988 207.368C-38.7837 209.279 -28.9334 211.316 -19.3733 213.337C-10.073 214.718 -1.05068 216.064 7.66057 217.417C16.1446 218.167 24.4404 219.102 32.4948 220.387C40.4374 221.273 48.2406 222.711 55.8367 224.837C63.3549 226.806 70.6869 229.621 77.7251 233.41C84.6187 237.203 91.1583 242.082 97.2389 248.141Z" stroke="url(#paint15_linear_2276_3808)" stroke-width="2" stroke-linecap="round" stroke-dasharray="9 2"/>
<path opacity="0.23" d="M95.0536 267.995C100.047 274.091 104.236 280.935 107.62 288.367C110.742 295.934 113.047 304.039 114.517 312.486C115.693 320.931 116.011 329.533 115.434 337.985C114.478 346.162 112.563 353.873 109.653 360.787C106.279 367.065 101.832 372.248 96.3497 376.069C90.3969 379.128 83.4519 380.825 75.6805 381.192C67.6887 381.207 59.1231 380.379 50.2798 379.011C41.738 378.302 33.3049 377.844 25.2712 377.977C18.0098 379.716 11.6641 382.289 6.22802 385.568C1.44215 390.219 -2.69051 395.058 -6.31958 399.702C-11.3578 406.974 -21.375 415.999 -26.9174 416.837C-33.3004 415.56 -47.8201 406.405 -55.761 399.42C-61.5238 394.491 -67.3291 389.084 -73.0535 383.367C-79.1705 377.783 -85.1735 371.982 -90.9109 366.055C-96.9493 360.27 -102.363 354.569 -107.099 348.948C-111.984 343.332 -116.105 337.637 -119.453 331.834C-122.846 325.847 -125.443 319.592 -127.263 313.012C-129.094 306.112 -130.171 298.79 -130.522 291.102C-130.865 283.064 -130.501 274.691 -129.423 266.153C-128.259 257.499 -126.339 248.909 -123.629 240.681C-120.668 232.8 -116.807 225.652 -111.977 219.54C-106.735 214.251 -100.443 210.263 -93.1001 207.781C-85.3127 206.237 -76.9161 206.138 -68.1147 207.212C-59.0901 208.711 -49.845 210.972 -40.5666 213.737C-31.3247 216.357 -22.1525 219.173 -13.1877 222.055C-4.39256 224.464 4.20549 226.869 12.5054 229.286C20.6537 231.2 28.5846 233.249 36.2261 235.512C43.7651 237.444 51.0769 239.765 58.0971 242.614C65.0329 245.308 71.6917 248.676 77.9706 252.819C84.1092 256.963 89.8436 261.992 95.0536 267.995Z" stroke="url(#paint16_linear_2276_3808)" stroke-width="2" stroke-linecap="round" stroke-dasharray="1 7"/>
<path opacity="0.94" d="M90.0675 285.583C94.2399 291.448 97.608 297.784 100.184 304.461C102.53 311.196 104.072 318.213 104.801 325.305C105.264 332.333 104.895 339.276 103.684 345.896C100.969 355.099 90.7044 369.064 83.1806 373.061C77.6 374.817 71.2756 375.477 64.3414 375.113C57.3066 374.599 49.8587 373.459 42.2176 371.931C34.7842 371.016 27.4073 370.3 20.2815 370.011C13.6665 371.057 7.72466 372.723 2.45655 374.957C-4.48971 380.136 -15.8253 391.199 -20.8154 395.625C-25.868 399.056 -36.6014 399.922 -42.4276 397.361C-46.69 395.062 -51.0629 391.861 -55.484 387.89C-60.2465 383.852 -65.0605 379.225 -69.805 374.13C-74.8684 369.107 -79.8359 363.709 -84.5989 358.001C-89.6173 352.393 -94.1277 346.712 -98.0722 341C-102.153 335.289 -105.605 329.437 -108.407 323.448C-111.258 317.33 -113.428 310.968 -114.927 304.354C-116.421 297.539 -117.236 290.418 -117.375 283.063C-117.475 275.536 -116.887 267.835 -115.625 260.135C-114.256 252.466 -112.149 244.992 -109.309 237.968C-106.263 231.337 -102.399 225.427 -97.6976 220.503C-92.6986 216.315 -86.8092 213.303 -80.0651 211.618C-72.9822 210.747 -65.4191 211.16 -57.5301 212.622C-49.4682 214.5 -41.1979 217.128 -32.8737 220.27C-24.5385 223.386 -16.2273 226.765 -8.05532 230.271C0.0335877 233.484 7.9567 236.73 15.6339 240.019C23.2143 242.926 30.5701 245.931 37.6355 249.08C44.6032 251.953 51.3085 255.096 57.6725 258.603C63.952 261.975 69.8874 265.839 75.3923 270.27C80.779 274.694 85.7091 279.78 90.0675 285.583Z" stroke="url(#paint17_linear_2276_3808)" stroke-width="2" stroke-linecap="round" stroke-dasharray="10 5"/>
<path opacity="0.26" d="M82.4517 299.777C89.0412 310.83 92.53 322.632 93.0322 334.132C92.7111 345.294 89.2668 355.089 82.98 362.047C75.7743 367.568 65.8414 369.6 53.9352 368.094C41.8858 366.622 28.8703 364.056 16.1001 361.916C4.61245 363.929 -5.06713 367.533 -13.0173 371.717C-20.4152 378.005 -27.1418 382.198 -33.4548 383.238C-40.421 383.794 -47.6074 380.677 -54.7202 374.369C-62.8844 367.814 -71.0379 358.888 -78.495 348.145C-86.7563 337.653 -93.1638 326.328 -97.4951 314.521C-101.973 302.474 -104.074 289.43 -103.787 275.952C-103.285 262.305 -100.23 248.755 -94.5924 236.812C-88.3169 226.424 -79.1749 219.214 -67.2119 216.52C-54.411 216.518 -40.2222 220.513 -25.6966 227.008C-11.0551 233.743 3.54487 241.465 17.2879 249.433C30.8119 256.433 43.5337 263.888 54.7921 272.014C65.7583 279.727 75.2326 288.91 82.4517 299.777Z" stroke="url(#paint18_linear_2276_3808)" stroke-width="2" stroke-linecap="round" stroke-dasharray="9 4"/>
<path opacity="0.22" d="M72.7174 309.789C77.8877 319.826 80.2118 329.698 79.9049 338.61C78.98 347.205 75.4012 354.1 69.4972 358.385C63.0424 361.783 54.4671 362.372 44.4319 360.306C34.3771 358.628 23.4788 356.102 12.5805 353.748C2.42924 354.566 -6.52743 356.441 -14.174 358.752C-21.4689 362.941 -28.1054 365.738 -34.1289 366.31C-40.5534 366.845 -46.883 364.492 -52.8913 359.358C-59.6432 354.057 -66.1866 346.394 -72.0148 336.683C-78.4532 327.115 -83.2802 316.484 -86.3558 305.3C-89.5424 294.072 -90.6898 282.103 -89.7531 270.097C-88.6313 258.278 -85.2807 246.951 -79.7143 237.386C-73.7042 229.235 -65.3464 223.961 -54.7521 222.546C-43.6418 223.322 -31.4698 227.54 -19.0774 234.018C-6.56565 240.962 5.94951 249.031 17.7395 257.481C29.4392 265.42 40.3711 273.73 49.9137 282.337C59.2248 290.687 67.0586 299.857 72.7174 309.789Z" stroke="url(#paint19_linear_2276_3808)" stroke-width="2" stroke-linecap="round"/>
<path opacity="0.47" d="M61.6443 315.304C65.5264 324.136 66.9712 332.133 66.216 338.8C63.3708 347.571 47.5439 354.179 35.8252 351.911C27.6525 350.278 18.728 347.925 9.60564 345.514C0.880043 345.429 -7.10904 345.909 -14.1541 346.643C-21.029 348.916 -27.3184 350.271 -32.9535 350.093C-38.8377 350.153 -44.4173 348.051 -49.4761 343.713C-55.0419 339.309 -60.218 332.779 -64.5831 324.273C-69.4123 315.842 -72.7889 306.333 -74.6658 296.343C-76.6331 286.408 -76.8786 276.015 -75.3733 265.895C-73.7424 256.12 -70.2535 247.097 -64.9562 239.803C-59.4019 233.728 -51.9991 230.12 -42.8833 229.735C-33.4838 231.04 -23.339 235.229 -13.0953 241.375C-2.7624 248.072 7.56195 255.94 17.2755 264.265C26.9288 272.401 35.9042 280.885 43.6362 289.411C51.1885 297.807 57.3851 306.533 61.6443 315.304Z" stroke="url(#paint20_linear_2276_3808)" stroke-width="2" stroke-linecap="round" stroke-dasharray="6 6"/>
<path opacity="0.23" d="M50.0628 316.568C53.2248 327.183 50.1116 341.489 44.4869 344.327C40.1047 345.459 34.5023 344.952 28.062 343.008C21.6107 341.595 14.5018 339.543 7.10306 337.223C-0.152071 336.492 -6.97722 335.948 -13.148 335.463C-22.1145 336.144 -37.6234 333.426 -44.2136 328.516C-48.7188 324.696 -52.6997 319.168 -55.8168 311.989C-59.2452 304.848 -61.3784 296.804 -62.2424 288.439C-63.1854 280.18 -62.7006 271.722 -60.8167 263.728C-58.8684 256.122 -55.4476 249.356 -50.6541 244.176C-45.7379 239.918 -39.4263 237.717 -31.8588 238.096C-24.1812 239.693 -16.0191 243.605 -7.84815 249.139C0.340212 255.191 8.48002 262.34 16.0928 269.968C23.6683 277.619 30.6531 285.589 36.5764 293.458C42.3792 301.299 47.0309 309.135 50.0628 316.568Z" stroke="url(#paint21_linear_2276_3808)" stroke-width="2" stroke-linecap="round" stroke-dasharray="3 7"/>
<path opacity="0.2" d="M38.7148 314.315C42.1925 326.329 39.8925 333.453 33.5441 334.948C26.7755 336.49 16.5663 333.929 5.00453 328.828C-6.46992 327.691 -17.1185 325.706 -25.4873 322.071C-34.333 319.6 -41.6588 312.694 -45.5883 301.119C-50.311 289.56 -50.3922 275.894 -46.3832 263.988C-42.3487 253.384 -33.8783 246.688 -21.9389 247.551C-9.93681 251.625 3.1026 262.15 14.373 274.893C25.486 288.099 34.5418 302.315 38.7148 314.315Z" stroke="url(#paint22_linear_2276_3808)" stroke-width="2" stroke-linecap="round" stroke-dasharray="4 7"/>
<path opacity="0.82" d="M28.1403 309.638C29.3075 321.166 15.3742 325.141 3.32412 320.273C-5.19412 318.456 -13.2943 315.368 -19.7099 311.169C-26.4315 307.778 -31.7397 301.675 -34.1095 292.958C-36.9293 284.218 -36.1386 274.682 -32.4502 266.98C-28.8438 260.116 -22.2095 256.377 -13.4166 258.001C-4.70004 261.504 4.44873 269.606 12.1392 279.378C19.6883 289.614 25.6485 300.621 28.1403 309.638Z" stroke="url(#paint23_linear_2276_3808)" stroke-width="2" stroke-linecap="round" stroke-dasharray="4 6"/>
<path opacity="0.93" d="M18.5229 303.812C20.4501 315.743 12.9071 317.959 2.09795 311.532C-9.15964 308.857 -19.7504 300.237 -21.938 288.58C-24.8925 276.819 -18.0429 266.708 -6.5268 269.287C4.58716 275.238 15.886 291.794 18.5229 303.812Z" stroke="url(#paint24_linear_2276_3808)" stroke-width="2" stroke-linecap="round" stroke-dasharray="5 9"/>
<defs>
<linearGradient id="paint0_linear_2276_3808" x1="-10.7474" y1="17.321" x2="-10.7474" y2="600.671" gradientUnits="userSpaceOnUse">
<stop stop-color="white"/>
<stop offset="1" stop-color="#30AD8C"/>
</linearGradient>
<linearGradient id="paint1_linear_2276_3808" x1="8.45862" y1="29.0417" x2="-31.0537" y2="588.802" gradientUnits="userSpaceOnUse">
<stop stop-color="white"/>
<stop offset="1" stop-color="#30AD8C"/>
</linearGradient>
<linearGradient id="paint2_linear_2276_3808" x1="26.0857" y1="41.9786" x2="-49.6229" y2="575.576" gradientUnits="userSpaceOnUse">
<stop stop-color="white"/>
<stop offset="1" stop-color="#30AD8C"/>
</linearGradient>
<linearGradient id="paint3_linear_2276_3808" x1="42.0113" y1="55.9583" x2="-66.416" y2="561.156" gradientUnits="userSpaceOnUse">
<stop stop-color="white"/>
<stop offset="1" stop-color="#30AD8C"/>
</linearGradient>
<linearGradient id="paint4_linear_2276_3808" x1="56.0155" y1="70.7673" x2="-81.5199" y2="545.676" gradientUnits="userSpaceOnUse">
<stop stop-color="white"/>
<stop offset="1" stop-color="#30AD8C"/>
</linearGradient>
<linearGradient id="paint5_linear_2276_3808" x1="68.0872" y1="86.1792" x2="-94.8518" y2="529.288" gradientUnits="userSpaceOnUse">
<stop stop-color="white"/>
<stop offset="1" stop-color="#30AD8C"/>
</linearGradient>
<linearGradient id="paint6_linear_2276_3808" x1="78.3822" y1="102.07" x2="-106.188" y2="512.227" gradientUnits="userSpaceOnUse">
<stop stop-color="white"/>
<stop offset="1" stop-color="#30AD8C"/>
</linearGradient>
<linearGradient id="paint7_linear_2276_3808" x1="86.942" y1="118.309" x2="-115.429" y2="494.682" gradientUnits="userSpaceOnUse">
<stop stop-color="white"/>
<stop offset="1" stop-color="#30AD8C"/>
</linearGradient>
<linearGradient id="paint8_linear_2276_3808" x1="93.7695" y1="134.708" x2="-122.163" y2="476.212" gradientUnits="userSpaceOnUse">
<stop stop-color="white"/>
<stop offset="1" stop-color="#30AD8C"/>
</linearGradient>
<linearGradient id="paint9_linear_2276_3808" x1="98.5917" y1="151.471" x2="-127.675" y2="458.997" gradientUnits="userSpaceOnUse">
<stop stop-color="white"/>
<stop offset="1" stop-color="#30AD8C"/>
</linearGradient>
<linearGradient id="paint10_linear_2276_3808" x1="101.961" y1="167.514" x2="-130.849" y2="441.222" gradientUnits="userSpaceOnUse">
<stop stop-color="white"/>
<stop offset="1" stop-color="#30AD8C"/>
</linearGradient>
<linearGradient id="paint11_linear_2276_3808" x1="103.743" y1="182.977" x2="-132.18" y2="423.696" gradientUnits="userSpaceOnUse">
<stop stop-color="white"/>
<stop offset="1" stop-color="#30AD8C"/>
</linearGradient>
<linearGradient id="paint12_linear_2276_3808" x1="103.62" y1="197.961" x2="-131.785" y2="406.496" gradientUnits="userSpaceOnUse">
<stop stop-color="white"/>
<stop offset="1" stop-color="#30AD8C"/>
</linearGradient>
<linearGradient id="paint13_linear_2276_3808" x1="102.067" y1="212.328" x2="-129.527" y2="390.009" gradientUnits="userSpaceOnUse">
<stop stop-color="white"/>
<stop offset="1" stop-color="#30AD8C"/>
</linearGradient>
<linearGradient id="paint14_linear_2276_3808" x1="99.14" y1="225.923" x2="-125.533" y2="374.378" gradientUnits="userSpaceOnUse">
<stop stop-color="white"/>
<stop offset="1" stop-color="#30AD8C"/>
</linearGradient>
<linearGradient id="paint15_linear_2276_3808" x1="94.9178" y1="238.576" x2="-119.948" y2="359.716" gradientUnits="userSpaceOnUse">
<stop stop-color="white"/>
<stop offset="1" stop-color="#30AD8C"/>
</linearGradient>
<linearGradient id="paint16_linear_2276_3808" x1="89.4967" y1="250.124" x2="-112.926" y2="346.123" gradientUnits="userSpaceOnUse">
<stop stop-color="white"/>
<stop offset="1" stop-color="#30AD8C"/>
</linearGradient>
<linearGradient id="paint17_linear_2276_3808" x1="82.9704" y1="260.38" x2="-104.633" y2="333.641" gradientUnits="userSpaceOnUse">
<stop stop-color="white"/>
<stop offset="1" stop-color="#30AD8C"/>
</linearGradient>
<linearGradient id="paint18_linear_2276_3808" x1="75.2175" y1="269.211" x2="-95.2331" y2="322.266" gradientUnits="userSpaceOnUse">
<stop stop-color="white"/>
<stop offset="1" stop-color="#30AD8C"/>
</linearGradient>
<linearGradient id="paint19_linear_2276_3808" x1="67.0926" y1="276.727" x2="-84.7664" y2="312.477" gradientUnits="userSpaceOnUse">
<stop stop-color="white"/>
<stop offset="1" stop-color="#30AD8C"/>
</linearGradient>
<linearGradient id="paint20_linear_2276_3808" x1="58.1792" y1="281.533" x2="-73.6569" y2="302.898" gradientUnits="userSpaceOnUse">
<stop stop-color="white"/>
<stop offset="1" stop-color="#30AD8C"/>
</linearGradient>
<linearGradient id="paint21_linear_2276_3808" x1="48.0051" y1="287.407" x2="-61.4621" y2="297.298" gradientUnits="userSpaceOnUse">
<stop stop-color="white"/>
<stop offset="1" stop-color="#30AD8C"/>
</linearGradient>
<linearGradient id="paint22_linear_2276_3808" x1="39.6844" y1="290.711" x2="-49.0693" y2="292.447" gradientUnits="userSpaceOnUse">
<stop stop-color="white"/>
<stop offset="1" stop-color="#30AD8C"/>
</linearGradient>
<linearGradient id="paint23_linear_2276_3808" x1="29.2156" y1="291.557" x2="-36.1672" y2="288.221" gradientUnits="userSpaceOnUse">
<stop stop-color="white"/>
<stop offset="1" stop-color="#30AD8C"/>
</linearGradient>
<linearGradient id="paint24_linear_2276_3808" x1="20.5156" y1="294.322" x2="-23.4711" y2="288.949" gradientUnits="userSpaceOnUse">
<stop stop-color="white"/>
<stop offset="1" stop-color="#30AD8C"/>
</linearGradient>
</defs>
</svg>
