<svg width="24" height="24" viewBox="0 0 24 24" fill="none" xmlns="http://www.w3.org/2000/svg">
<path d="M20.6516 10.2902L22.1334 7.15348C22.2127 6.98548 22.2007 6.79179 22.1015 6.63485C22.0022 6.47792 21.8319 6.38435 21.6461 6.38435H17.9964V6.04479C17.9964 5.7476 17.7547 5.50592 17.4575 5.50592H11.7446C11.6927 5.44948 11.6302 5.40298 11.5586 5.3726V5.00604C11.5586 4.61979 11.2444 4.30554 10.8581 4.30554C10.4719 4.30554 10.1576 4.61979 10.1576 5.00604V5.3726C9.96429 5.45454 9.82817 5.64617 9.82817 5.8691V12.9547C9.82817 13.1775 9.9641 13.3693 10.1576 13.451V16.0612H4.79248C4.54104 16.0612 4.31848 16.2302 4.25079 16.472L2.5856 22.4231C2.5376 22.5941 2.57173 22.7732 2.67898 22.9145C2.78623 23.0561 2.94954 23.1373 3.12729 23.1373H18.9144C19.0918 23.1373 19.2551 23.0561 19.3625 22.9147C19.47 22.7734 19.5039 22.5943 19.4561 22.4231L17.7909 16.472C17.7234 16.23 17.5007 16.061 17.2492 16.061H11.5586V13.451C11.6302 13.4207 11.6927 13.3742 11.7446 13.3177H17.6214V13.6573C17.6214 13.9545 17.8631 14.1962 18.1601 14.1962H21.6461C21.8317 14.1962 22.002 14.1024 22.1015 13.9455C22.2007 13.7887 22.2127 13.5949 22.1334 13.427L20.6516 10.2902Z" fill="#E6E7E8"/>
<path d="M4.73414 10.6066L5.53195 10.7997C5.99282 10.9112 6.34832 11.2667 6.45989 11.7276L6.65301 12.5254C6.67326 12.6096 6.74864 12.6689 6.83526 12.6689C6.92189 12.6689 6.99707 12.6096 7.01751 12.5254L7.21045 11.7276C7.3222 11.2667 7.6777 10.9112 8.13839 10.7997L8.9362 10.6066C9.0202 10.5861 9.07964 10.5107 9.07964 10.4243C9.07964 10.3377 9.02039 10.2625 8.9362 10.2421L8.13839 10.0489C7.6777 9.93756 7.32201 9.58187 7.21045 9.12118L7.01751 8.32337C6.99726 8.23918 6.92189 8.17993 6.83526 8.17993C6.74864 8.17993 6.67345 8.23918 6.65301 8.32337L6.45989 9.12118C6.34832 9.58187 5.99282 9.93737 5.53195 10.0489L4.73414 10.2421C4.65014 10.2625 4.5907 10.3377 4.5907 10.4243C4.5907 10.5107 4.65014 10.5861 4.73414 10.6066Z" fill="#E6E7E8"/>
<path d="M18.6566 4.60074L19.2358 4.74099C19.5516 4.8173 19.7951 5.06086 19.8718 5.37661L20.0119 5.9558C20.0321 6.03999 20.1075 6.09924 20.1941 6.09924C20.2807 6.09924 20.3559 6.03999 20.3764 5.9558L20.5166 5.37642C20.5929 5.06067 20.8365 4.8173 21.1524 4.7408L21.7316 4.60055C21.8156 4.58011 21.8751 4.50492 21.8751 4.4183C21.8751 4.33167 21.8158 4.25649 21.7316 4.23605L21.1524 4.0958C20.8365 4.01949 20.5931 3.77592 20.5166 3.46017L20.3764 2.88099C20.3561 2.7968 20.2807 2.73755 20.1941 2.73755C20.1075 2.73755 20.0323 2.7968 20.0119 2.88099L19.8718 3.46017C19.7953 3.77592 19.5516 4.01949 19.2358 4.0958L18.6566 4.23605C18.5726 4.25649 18.5132 4.33167 18.5132 4.4183C18.5132 4.50492 18.5726 4.5803 18.6566 4.60074Z" fill="#E6E7E8"/>
<path d="M12.7605 3.19073L13.2291 3.30416C13.4713 3.36285 13.6583 3.54979 13.7171 3.79204L13.8306 4.26079C13.8508 4.34498 13.9262 4.40423 14.0128 4.40423C14.0994 4.40423 14.1746 4.34498 14.1951 4.26079L14.3083 3.79223C14.367 3.54998 14.5541 3.36285 14.7964 3.30435L15.2649 3.19091C15.3489 3.17048 15.4084 3.0951 15.4084 3.00866C15.4084 2.92223 15.3491 2.84685 15.2649 2.82642L14.7964 2.71298C14.5539 2.65429 14.367 2.46735 14.3083 2.2251L14.1951 1.75635C14.1748 1.67216 14.0994 1.61292 14.0128 1.61292C13.9262 1.61292 13.851 1.67216 13.8306 1.75635L13.7171 2.2251C13.6584 2.46735 13.4715 2.65448 13.2291 2.71298L12.7605 2.82642C12.6765 2.84685 12.6171 2.92223 12.6171 3.00866C12.6171 3.09491 12.6763 3.17029 12.7605 3.19073Z" fill="#E6E7E8"/>
<path d="M17.4743 17.9664L9.55188 21.5994L9.86875 22.1998H18.1645C18.4128 22.1998 18.5926 21.9628 18.5256 21.7237L17.4743 17.9664Z" fill="#D4FBFF"/>
<path d="M8.34183 19.3347L16.6361 15.5273C16.5931 15.5102 16.5476 15.4988 16.4992 15.4988H6.26489L8.34183 19.3347Z" fill="#6DC9F7"/>
<path d="M3.5958 16.0785L2.0163 21.7237C1.94936 21.9628 2.12917 22.1998 2.37742 22.1998H6.90349L3.5958 16.0785Z" fill="#009B72"/>
<path d="M6.90357 22.1998H9.86888L9.55201 21.5995L17.4744 17.9665L16.8606 15.7727C16.8283 15.6572 16.7428 15.5695 16.6363 15.5273L8.34188 19.3347L6.26494 15.4988H4.04269C3.87451 15.4988 3.72694 15.6107 3.68157 15.7727L3.59607 16.0785L6.90357 22.1998Z" fill="#009B72"/>
<path d="M6.90357 22.1998H9.86888L9.55201 21.5995L17.4744 17.9665L16.8606 15.7727C16.8283 15.6572 16.7428 15.5695 16.6363 15.5273L8.34188 19.3347L6.26494 15.4988H4.04269C3.87451 15.4988 3.72694 15.6107 3.68157 15.7727L3.59607 16.0785L6.90357 22.1998Z" fill="white" fill-opacity="0.5"/>
<path d="M10.5992 12.556H9.61703C9.60953 12.556 9.60241 12.5543 9.59509 12.5537V19.855C9.59509 20.1383 9.82478 20.368 10.1081 20.368C10.3914 20.368 10.6211 20.1383 10.6211 19.855V12.5537C10.6138 12.5543 10.6067 12.556 10.5992 12.556Z" fill="#6DC9F7"/>
<path d="M9.61703 4.76773H10.5992C10.6067 4.76773 10.6138 4.76942 10.6211 4.76998V4.25604C10.6211 3.97273 10.3914 3.74304 10.1081 3.74304C9.82478 3.74304 9.59509 3.97273 9.59509 4.25604V4.76998C9.60259 4.76942 9.60953 4.76773 9.61703 4.76773Z" fill="#6DC9F7"/>
<path d="M17.0589 5.29473C17.0589 5.10067 16.9015 4.94336 16.7075 4.94336H10.9017C10.9319 4.9953 10.9505 5.05473 10.9505 5.11905V12.2047C10.9505 12.269 10.9319 12.3284 10.9017 12.3804H17.0589V5.29473Z" fill="#009B72"/>
<path d="M11.513 5.11905C11.513 5.05473 11.4944 4.9953 11.4642 4.94336H10.9017C10.9319 4.9953 10.9505 5.05473 10.9505 5.11905V12.2047C10.9505 12.269 10.9319 12.3284 10.9017 12.3804H11.4642C11.4944 12.3284 11.513 12.269 11.513 12.2047V5.11905Z" fill="white"/>
<path d="M20.8962 5.8219H17.0588V12.9075C17.0588 13.1016 17.2162 13.2589 17.4102 13.2589H20.8962C21.154 13.2589 21.3241 12.9906 21.2138 12.7575L19.694 9.54059L21.2138 6.32346C21.3239 6.09021 21.1538 5.8219 20.8962 5.8219Z" fill="#009B72"/>
<path d="M20.8962 5.8219H17.0588V12.9075C17.0588 13.1016 17.2162 13.2589 17.4102 13.2589H20.8962C21.154 13.2589 21.3241 12.9906 21.2138 12.7575L19.694 9.54059L21.2138 6.32346C21.3239 6.09021 21.1538 5.8219 20.8962 5.8219Z" fill="white" fill-opacity="0.5"/>
<path d="M10.5991 12.556H9.617C9.42294 12.556 9.26562 12.3986 9.26562 12.2046V5.11895C9.26562 4.92489 9.42294 4.76758 9.617 4.76758H10.5991C10.7932 4.76758 10.9505 4.92489 10.9505 5.11895V12.2046C10.9505 12.3986 10.7932 12.556 10.5991 12.556Z" fill="#009B72"/>
<path d="M6.08532 7.61731L6.27844 8.41512C6.40594 8.94218 6.8175 9.35356 7.34438 9.48106L8.14219 9.67418L7.34438 9.86731C6.81732 9.99481 6.40594 10.4064 6.27844 10.9332L6.08532 11.7311L5.89219 10.9332C5.76469 10.4062 5.35313 9.99481 4.82625 9.86731L4.02844 9.67418L4.82625 9.48106C5.35332 9.35356 5.76469 8.942 5.89219 8.41512L6.08532 7.61731Z" fill="#009B72"/>
<path d="M6.08532 7.61731L6.27844 8.41512C6.40594 8.94218 6.8175 9.35356 7.34438 9.48106L8.14219 9.67418L7.34438 9.86731C6.81732 9.99481 6.40594 10.4064 6.27844 10.9332L6.08532 11.7311L5.89219 10.9332C5.76469 10.4062 5.35313 9.99481 4.82625 9.86731L4.02844 9.67418L4.82625 9.48106C5.35332 9.35356 5.76469 8.942 5.89219 8.41512L6.08532 7.61731Z" fill="white" fill-opacity="0.5"/>
<path d="M19.4439 2.17517L19.5842 2.75436C19.6768 3.13686 19.9755 3.43555 20.358 3.52817L20.9372 3.66842L20.358 3.80867C19.9755 3.9013 19.6768 4.19998 19.5842 4.58248L19.4439 5.16167L19.3037 4.58248C19.2111 4.19998 18.9124 3.9013 18.5299 3.80867L17.9507 3.66842L18.5299 3.52817C18.9124 3.43555 19.2111 3.13686 19.3037 2.75436L19.4439 2.17517Z" fill="#009B72"/>
<path d="M19.4439 2.17517L19.5842 2.75436C19.6768 3.13686 19.9755 3.43555 20.358 3.52817L20.9372 3.66842L20.358 3.80867C19.9755 3.9013 19.6768 4.19998 19.5842 4.58248L19.4439 5.16167L19.3037 4.58248C19.2111 4.19998 18.9124 3.9013 18.5299 3.80867L17.9507 3.66842L18.5299 3.52817C18.9124 3.43555 19.2111 3.13686 19.3037 2.75436L19.4439 2.17517Z" fill="white" fill-opacity="0.5"/>
<path d="M13.2626 1.05017L13.3761 1.51873C13.4511 1.8283 13.6926 2.06998 14.0021 2.1448L14.4707 2.25823L14.0021 2.37167C13.6926 2.44667 13.4509 2.68817 13.3761 2.99773L13.2626 3.4663L13.1492 2.99773C13.0742 2.68817 12.8327 2.44648 12.5231 2.37167L12.0546 2.25823L12.5231 2.1448C12.8327 2.0698 13.0744 1.8283 13.1492 1.51873L13.2626 1.05017Z" fill="#009B72"/>
<path d="M13.2626 1.05017L13.3761 1.51873C13.4511 1.8283 13.6926 2.06998 14.0021 2.1448L14.4707 2.25823L14.0021 2.37167C13.6926 2.44667 13.4509 2.68817 13.3761 2.99773L13.2626 3.4663L13.1492 2.99773C13.0742 2.68817 12.8327 2.44648 12.5231 2.37167L12.0546 2.25823L12.5231 2.1448C12.8327 2.0698 13.0744 1.8283 13.1492 1.51873L13.2626 1.05017Z" fill="white" fill-opacity="0.5"/>
<path d="M14.4207 22.0123H12.6176C12.5139 22.0123 12.4301 22.0963 12.4301 22.1998C12.4301 22.3033 12.5139 22.3873 12.6176 22.3873H14.4207C14.5244 22.3873 14.6082 22.3033 14.6082 22.1998C14.6082 22.0963 14.5242 22.0123 14.4207 22.0123Z" fill="#009B72"/>
<path d="M14.4207 22.0123H12.6176C12.5139 22.0123 12.4301 22.0963 12.4301 22.1998C12.4301 22.3033 12.5139 22.3873 12.6176 22.3873H14.4207C14.5244 22.3873 14.6082 22.3033 14.6082 22.1998C14.6082 22.0963 14.5242 22.0123 14.4207 22.0123Z" fill="black" fill-opacity="0.5"/>
<path d="M19.9014 9.54011L21.3834 6.40324C21.4627 6.23524 21.4505 6.04155 21.3514 5.88461C21.252 5.72786 21.0817 5.6343 20.8961 5.6343H17.2464V5.29474C17.2464 4.99755 17.0047 4.75586 16.7075 4.75586H10.9946C10.9427 4.69942 10.8802 4.65292 10.8086 4.62255V4.2558C10.8086 3.86955 10.4944 3.5553 10.1081 3.5553C9.72185 3.5553 9.40779 3.86955 9.40779 4.2558V4.62255C9.21448 4.70449 9.07835 4.89611 9.07835 5.11905V12.2047C9.07835 12.4276 9.21429 12.6192 9.40779 12.7012V15.3112H4.04266C3.79141 15.3112 3.56866 15.4801 3.50079 15.722L1.8356 21.6732C1.78779 21.844 1.82191 22.0233 1.92916 22.1647C2.03641 22.306 2.19973 22.3872 2.37748 22.3872H11.7152C11.8189 22.3872 11.9027 22.3032 11.9027 22.1997C11.9027 22.0962 11.8189 22.0122 11.7152 22.0122H9.98191L9.81016 21.6873L17.3529 18.2285L18.345 21.7745C18.3609 21.8313 18.3495 21.8911 18.3139 21.9382C18.2782 21.9852 18.2237 22.0124 18.1644 22.0124H15.3127C15.209 22.0124 15.1252 22.0964 15.1252 22.1999C15.1252 22.3034 15.209 22.3874 15.3127 22.3874H18.1644C18.342 22.3874 18.5053 22.3062 18.6127 22.1647C18.72 22.0233 18.7541 21.8442 18.7061 21.6732L17.0411 15.722C16.9734 15.4801 16.7505 15.3112 16.4992 15.3112H10.8086V12.701C10.8802 12.6706 10.9427 12.6241 10.9946 12.5677H16.8714V12.9072C16.8714 13.2042 17.1131 13.4461 17.4103 13.4461H20.8963C21.0819 13.4461 21.252 13.3525 21.3515 13.1958C21.4507 13.039 21.4629 12.8452 21.3836 12.6772L19.9014 9.54011ZM9.7826 12.7434H10.4336V19.8549C10.4336 20.0343 10.2875 20.1804 10.1081 20.1804C9.92867 20.1804 9.78279 20.0343 9.78279 19.8549V12.7434H9.7826ZM10.763 5.11905V12.2047C10.763 12.295 10.6895 12.3685 10.5992 12.3685H9.61723C9.52685 12.3685 9.45335 12.295 9.45335 12.2047V5.11905C9.45335 5.02867 9.52685 4.95517 9.61723 4.95517H10.5992C10.6895 4.95517 10.763 5.02867 10.763 5.11905ZM9.7826 4.2558C9.7826 4.07636 9.92848 3.9303 10.1079 3.9303C10.2874 3.9303 10.4334 4.07636 10.4334 4.2558V4.57999H9.78241V4.2558H9.7826ZM9.4076 18.6389L8.42323 19.0908L6.57973 15.6862H9.40779V18.6389H9.4076ZM2.22804 21.938C2.19223 21.8909 2.18079 21.8311 2.19673 21.7743L3.65135 16.5757L6.58891 22.0122H2.37748C2.31841 22.0122 2.26385 21.9852 2.22804 21.938ZM17.2507 17.8627L9.47379 21.4289C9.42692 21.4505 9.3911 21.4902 9.37442 21.539C9.35791 21.5877 9.36223 21.6412 9.38623 21.6869L9.55798 22.0122H7.01548L3.79685 16.0559L3.86191 15.8234C3.8846 15.7428 3.95885 15.6864 4.04266 15.6864H6.15335L8.17704 19.424C8.21079 19.4864 8.2751 19.5222 8.34204 19.5222C8.36829 19.5222 8.39473 19.5168 8.42004 19.5052L9.4076 19.0518V19.855C9.4076 20.2413 9.72185 20.5555 10.1079 20.5555C10.4944 20.5555 10.8084 20.2413 10.8084 19.855V18.4087L16.6256 15.7381C16.6504 15.761 16.6704 15.7893 16.68 15.823L17.2507 17.8627ZM15.8402 15.6862L10.8086 17.996V15.6862H15.8402ZM11.138 12.1927V5.13086H16.7075C16.7979 5.13086 16.8714 5.20436 16.8714 5.29474V12.1929H11.138V12.1927ZM21.0347 12.995C21.0202 13.0179 20.9775 13.0711 20.8963 13.0711H17.4103C17.3199 13.0711 17.2464 12.9976 17.2464 12.9072V6.00911H20.8963C20.9777 6.00911 21.02 6.06236 21.0347 6.08524C21.0491 6.10811 21.0791 6.16942 21.0444 6.24292L19.5245 9.46005C19.5005 9.51086 19.5005 9.56955 19.5245 9.62017L21.0444 12.8371C21.0791 12.9108 21.0491 12.9721 21.0347 12.995Z" fill="#009B72"/>
<path d="M19.9014 9.54011L21.3834 6.40324C21.4627 6.23524 21.4505 6.04155 21.3514 5.88461C21.252 5.72786 21.0817 5.6343 20.8961 5.6343H17.2464V5.29474C17.2464 4.99755 17.0047 4.75586 16.7075 4.75586H10.9946C10.9427 4.69942 10.8802 4.65292 10.8086 4.62255V4.2558C10.8086 3.86955 10.4944 3.5553 10.1081 3.5553C9.72185 3.5553 9.40779 3.86955 9.40779 4.2558V4.62255C9.21448 4.70449 9.07835 4.89611 9.07835 5.11905V12.2047C9.07835 12.4276 9.21429 12.6192 9.40779 12.7012V15.3112H4.04266C3.79141 15.3112 3.56866 15.4801 3.50079 15.722L1.8356 21.6732C1.78779 21.844 1.82191 22.0233 1.92916 22.1647C2.03641 22.306 2.19973 22.3872 2.37748 22.3872H11.7152C11.8189 22.3872 11.9027 22.3032 11.9027 22.1997C11.9027 22.0962 11.8189 22.0122 11.7152 22.0122H9.98191L9.81016 21.6873L17.3529 18.2285L18.345 21.7745C18.3609 21.8313 18.3495 21.8911 18.3139 21.9382C18.2782 21.9852 18.2237 22.0124 18.1644 22.0124H15.3127C15.209 22.0124 15.1252 22.0964 15.1252 22.1999C15.1252 22.3034 15.209 22.3874 15.3127 22.3874H18.1644C18.342 22.3874 18.5053 22.3062 18.6127 22.1647C18.72 22.0233 18.7541 21.8442 18.7061 21.6732L17.0411 15.722C16.9734 15.4801 16.7505 15.3112 16.4992 15.3112H10.8086V12.701C10.8802 12.6706 10.9427 12.6241 10.9946 12.5677H16.8714V12.9072C16.8714 13.2042 17.1131 13.4461 17.4103 13.4461H20.8963C21.0819 13.4461 21.252 13.3525 21.3515 13.1958C21.4507 13.039 21.4629 12.8452 21.3836 12.6772L19.9014 9.54011ZM9.7826 12.7434H10.4336V19.8549C10.4336 20.0343 10.2875 20.1804 10.1081 20.1804C9.92867 20.1804 9.78279 20.0343 9.78279 19.8549V12.7434H9.7826ZM10.763 5.11905V12.2047C10.763 12.295 10.6895 12.3685 10.5992 12.3685H9.61723C9.52685 12.3685 9.45335 12.295 9.45335 12.2047V5.11905C9.45335 5.02867 9.52685 4.95517 9.61723 4.95517H10.5992C10.6895 4.95517 10.763 5.02867 10.763 5.11905ZM9.7826 4.2558C9.7826 4.07636 9.92848 3.9303 10.1079 3.9303C10.2874 3.9303 10.4334 4.07636 10.4334 4.2558V4.57999H9.78241V4.2558H9.7826ZM9.4076 18.6389L8.42323 19.0908L6.57973 15.6862H9.40779V18.6389H9.4076ZM2.22804 21.938C2.19223 21.8909 2.18079 21.8311 2.19673 21.7743L3.65135 16.5757L6.58891 22.0122H2.37748C2.31841 22.0122 2.26385 21.9852 2.22804 21.938ZM17.2507 17.8627L9.47379 21.4289C9.42692 21.4505 9.3911 21.4902 9.37442 21.539C9.35791 21.5877 9.36223 21.6412 9.38623 21.6869L9.55798 22.0122H7.01548L3.79685 16.0559L3.86191 15.8234C3.8846 15.7428 3.95885 15.6864 4.04266 15.6864H6.15335L8.17704 19.424C8.21079 19.4864 8.2751 19.5222 8.34204 19.5222C8.36829 19.5222 8.39473 19.5168 8.42004 19.5052L9.4076 19.0518V19.855C9.4076 20.2413 9.72185 20.5555 10.1079 20.5555C10.4944 20.5555 10.8084 20.2413 10.8084 19.855V18.4087L16.6256 15.7381C16.6504 15.761 16.6704 15.7893 16.68 15.823L17.2507 17.8627ZM15.8402 15.6862L10.8086 17.996V15.6862H15.8402ZM11.138 12.1927V5.13086H16.7075C16.7979 5.13086 16.8714 5.20436 16.8714 5.29474V12.1929H11.138V12.1927ZM21.0347 12.995C21.0202 13.0179 20.9775 13.0711 20.8963 13.0711H17.4103C17.3199 13.0711 17.2464 12.9976 17.2464 12.9072V6.00911H20.8963C20.9777 6.00911 21.02 6.06236 21.0347 6.08524C21.0491 6.10811 21.0791 6.16942 21.0444 6.24292L19.5245 9.46005C19.5005 9.51086 19.5005 9.56955 19.5245 9.62017L21.0444 12.8371C21.0791 12.9108 21.0491 12.9721 21.0347 12.995Z" fill="black" fill-opacity="0.5"/>
<path d="M3.98414 9.8565L4.78195 10.0496C5.24264 10.161 5.59832 10.5167 5.70989 10.9774L5.90282 11.7752C5.92307 11.8594 5.99845 11.9186 6.08507 11.9186C6.1717 11.9186 6.24689 11.8594 6.26732 11.7752L6.46045 10.9772C6.57201 10.5165 6.92732 10.161 7.3882 10.0494L8.18601 9.85631C8.27001 9.83588 8.32945 9.76069 8.32945 9.67406C8.32945 9.58744 8.2702 9.51225 8.18601 9.49181L7.3882 9.29869C6.92732 9.18712 6.57182 8.83163 6.46045 8.37094L6.26732 7.57312C6.24707 7.48894 6.1717 7.42969 6.08507 7.42969C5.99845 7.42969 5.92326 7.48894 5.90282 7.57312L5.70989 8.37094C5.59814 8.83181 5.24264 9.18731 4.78195 9.29869L3.98414 9.49181C3.90014 9.51225 3.8407 9.58744 3.8407 9.67406C3.8407 9.76069 3.90014 9.83606 3.98414 9.8565ZM4.87026 9.66337C5.46801 9.51862 5.92945 9.05738 6.07439 8.45925L6.08526 8.41444L6.09632 8.45925C6.24089 9.05719 6.70214 9.51862 7.30026 9.66337L7.34507 9.67425L7.30026 9.68512C6.70232 9.82987 6.24089 10.2913 6.09632 10.8893L6.08526 10.9341L6.07439 10.8893C5.92964 10.2913 5.4682 9.82987 4.87026 9.68512L4.82545 9.67425L4.87026 9.66337Z" fill="#009B72"/>
<path d="M3.98414 9.8565L4.78195 10.0496C5.24264 10.161 5.59832 10.5167 5.70989 10.9774L5.90282 11.7752C5.92307 11.8594 5.99845 11.9186 6.08507 11.9186C6.1717 11.9186 6.24689 11.8594 6.26732 11.7752L6.46045 10.9772C6.57201 10.5165 6.92732 10.161 7.3882 10.0494L8.18601 9.85631C8.27001 9.83588 8.32945 9.76069 8.32945 9.67406C8.32945 9.58744 8.2702 9.51225 8.18601 9.49181L7.3882 9.29869C6.92732 9.18712 6.57182 8.83163 6.46045 8.37094L6.26732 7.57312C6.24707 7.48894 6.1717 7.42969 6.08507 7.42969C5.99845 7.42969 5.92326 7.48894 5.90282 7.57312L5.70989 8.37094C5.59814 8.83181 5.24264 9.18731 4.78195 9.29869L3.98414 9.49181C3.90014 9.51225 3.8407 9.58744 3.8407 9.67406C3.8407 9.76069 3.90014 9.83606 3.98414 9.8565ZM4.87026 9.66337C5.46801 9.51862 5.92945 9.05738 6.07439 8.45925L6.08526 8.41444L6.09632 8.45925C6.24089 9.05719 6.70214 9.51862 7.30026 9.66337L7.34507 9.67425L7.30026 9.68512C6.70232 9.82987 6.24089 10.2913 6.09632 10.8893L6.08526 10.9341L6.07439 10.8893C5.92964 10.2913 5.4682 9.82987 4.87026 9.68512L4.82545 9.67425L4.87026 9.66337Z" fill="black" fill-opacity="0.5"/>
<path d="M17.9066 3.85073L18.4858 3.99098C18.8017 4.06729 19.0451 4.31085 19.1216 4.6266L19.2619 5.20579C19.2821 5.28998 19.3575 5.34923 19.4441 5.34923C19.5307 5.34923 19.6059 5.28998 19.6264 5.20579L19.7664 4.62679C19.8429 4.31104 20.0865 4.06748 20.4022 3.99116L20.9814 3.85091C21.0654 3.83048 21.1249 3.75529 21.1249 3.66866C21.1249 3.58204 21.0656 3.50685 20.9814 3.48641L20.4022 3.34635C20.0865 3.26985 19.8431 3.0261 19.7664 2.71054L19.6264 2.13135C19.6061 2.04716 19.5307 1.98792 19.4441 1.98792C19.3575 1.98792 19.2823 2.04716 19.2619 2.13135L19.1216 2.71054C19.0453 3.0261 18.8017 3.26967 18.4858 3.34617L17.9066 3.48641C17.8226 3.50685 17.7632 3.58204 17.7632 3.66866C17.7632 3.75529 17.8226 3.83029 17.9066 3.85073ZM19.4441 2.93704C19.5694 3.27698 19.8356 3.54323 20.1754 3.66848C19.8354 3.79354 19.5694 4.05979 19.4441 4.39991C19.3189 4.05998 19.0526 3.79373 18.7127 3.66848C19.0526 3.54323 19.3191 3.27698 19.4441 2.93704Z" fill="#009B72"/>
<path d="M17.9066 3.85073L18.4858 3.99098C18.8017 4.06729 19.0451 4.31085 19.1216 4.6266L19.2619 5.20579C19.2821 5.28998 19.3575 5.34923 19.4441 5.34923C19.5307 5.34923 19.6059 5.28998 19.6264 5.20579L19.7664 4.62679C19.8429 4.31104 20.0865 4.06748 20.4022 3.99116L20.9814 3.85091C21.0654 3.83048 21.1249 3.75529 21.1249 3.66866C21.1249 3.58204 21.0656 3.50685 20.9814 3.48641L20.4022 3.34635C20.0865 3.26985 19.8431 3.0261 19.7664 2.71054L19.6264 2.13135C19.6061 2.04716 19.5307 1.98792 19.4441 1.98792C19.3575 1.98792 19.2823 2.04716 19.2619 2.13135L19.1216 2.71054C19.0453 3.0261 18.8017 3.26967 18.4858 3.34617L17.9066 3.48641C17.8226 3.50685 17.7632 3.58204 17.7632 3.66866C17.7632 3.75529 17.8226 3.83029 17.9066 3.85073ZM19.4441 2.93704C19.5694 3.27698 19.8356 3.54323 20.1754 3.66848C19.8354 3.79354 19.5694 4.05979 19.4441 4.39991C19.3189 4.05998 19.0526 3.79373 18.7127 3.66848C19.0526 3.54323 19.3191 3.27698 19.4441 2.93704Z" fill="black" fill-opacity="0.5"/>
<path d="M12.0103 2.44067L12.4788 2.55411C12.7213 2.6128 12.9084 2.79973 12.9671 3.04198L13.0803 3.51073C13.1006 3.59492 13.1759 3.65417 13.2626 3.65417C13.3492 3.65417 13.4244 3.59492 13.4448 3.51073L13.5581 3.04217C13.6168 2.79973 13.8041 2.6128 14.0463 2.55411L14.5149 2.44067C14.5989 2.42023 14.6583 2.34486 14.6583 2.25842C14.6583 2.17198 14.5991 2.09661 14.5149 2.07617L14.0463 1.96273C13.8041 1.90405 13.6169 1.71711 13.5581 1.47486L13.4448 1.00611C13.4246 0.921921 13.3492 0.862671 13.2626 0.862671C13.1759 0.862671 13.1008 0.921921 13.0803 1.00611L12.9671 1.47467C12.9084 1.71692 12.7213 1.90405 12.4788 1.96255L12.0103 2.07598C11.9263 2.09642 11.8668 2.1718 11.8668 2.25823C11.8668 2.34467 11.9263 2.42023 12.0103 2.44067ZM13.2626 1.75967C13.3653 1.97961 13.5416 2.15567 13.7613 2.25842C13.5416 2.36098 13.3653 2.53723 13.2626 2.75717C13.16 2.53723 12.9838 2.36117 12.7638 2.25842C12.9838 2.15567 13.1598 1.97961 13.2626 1.75967Z" fill="#009B72"/>
<path d="M12.0103 2.44067L12.4788 2.55411C12.7213 2.6128 12.9084 2.79973 12.9671 3.04198L13.0803 3.51073C13.1006 3.59492 13.1759 3.65417 13.2626 3.65417C13.3492 3.65417 13.4244 3.59492 13.4448 3.51073L13.5581 3.04217C13.6168 2.79973 13.8041 2.6128 14.0463 2.55411L14.5149 2.44067C14.5989 2.42023 14.6583 2.34486 14.6583 2.25842C14.6583 2.17198 14.5991 2.09661 14.5149 2.07617L14.0463 1.96273C13.8041 1.90405 13.6169 1.71711 13.5581 1.47486L13.4448 1.00611C13.4246 0.921921 13.3492 0.862671 13.2626 0.862671C13.1759 0.862671 13.1008 0.921921 13.0803 1.00611L12.9671 1.47467C12.9084 1.71692 12.7213 1.90405 12.4788 1.96255L12.0103 2.07598C11.9263 2.09642 11.8668 2.1718 11.8668 2.25823C11.8668 2.34467 11.9263 2.42023 12.0103 2.44067ZM13.2626 1.75967C13.3653 1.97961 13.5416 2.15567 13.7613 2.25842C13.5416 2.36098 13.3653 2.53723 13.2626 2.75717C13.16 2.53723 12.9838 2.36117 12.7638 2.25842C12.9838 2.15567 13.1598 1.97961 13.2626 1.75967Z" fill="black" fill-opacity="0.5"/>
</svg>
