<svg width="48" height="48" viewBox="0 0 48 48" fill="none" xmlns="http://www.w3.org/2000/svg">
<path d="M36 16H34V12C34 6.48 29.52 2 24 2C18.48 2 14 6.48 14 12V16H12C9.8 16 8 17.8 8 20V40C8 42.2 9.8 44 12 44H36C38.2 44 40 42.2 40 40V20C40 17.8 38.2 16 36 16ZM17.8 12C17.8 8.58 20.58 5.8 24 5.8C27.42 5.8 30.2 8.58 30.2 12V16H17.8V12ZM26 31V32V36H22V32V31V30L21.2905 28.5811C20.5198 27.0397 20.8219 25.1781 22.0405 23.9595L22.2929 23.7071C22.7456 23.2544 23.3597 23 24 23C24.6403 23 25.2544 23.2544 25.7071 23.7071L25.9595 23.9595C27.1781 25.1781 27.4802 27.0397 26.7095 28.5811L26 30V31Z" fill="#009B72"/>
</svg>
