<svg width="48" height="48" viewBox="0 0 48 48" fill="none" xmlns="http://www.w3.org/2000/svg">
<path d="M6 33.3352L16.1262 46L19.5021 43.888L27.7134 41.8766L38.9788 34.779C40.283 33.9573 40.5902 32.3408 39.6612 31.1869C38.7321 30.0331 36.9047 29.7615 35.6003 30.5833L36.7861 29.8362C38.0905 29.0144 38.3976 27.398 37.4686 26.2441C36.5395 25.0902 34.7121 24.8187 33.4076 25.6404L34.6575 24.853C35.961 24.0316 36.2689 22.4148 35.3398 21.2609C34.4135 20.1105 32.5942 19.8371 31.2906 20.65L40.7805 14.6709C42.0849 13.8491 42.3919 12.2326 41.4629 11.0788C40.5339 9.92488 38.7064 9.65333 37.402 10.4751L19.7641 21.5877L17.6156 14.4288C16.9407 12.3905 16.4127 10.453 14.1312 10.3948L11.2661 10.3217L12.1815 21.0926L9.32629 31.2508L6 33.3352Z" fill="#009B72"/>
<rect x="16" y="5" width="2" height="6" transform="rotate(-30 16 5)" fill="#009B72"/>
<rect width="2" height="6" transform="matrix(-0.866025 -0.5 -0.5 0.866025 33.7319 5)" fill="#009B72"/>
<rect x="24" y="2" width="2" height="6" fill="#009B72"/>
</svg>
