<svg width="24" height="24" viewBox="0 0 24 24" fill="none" xmlns="http://www.w3.org/2000/svg">
<path d="M7.5 21.375H23.25V20.625H22.125V18.375H18.75V18.75H18V18C18 17.9005 18.0395 17.8052 18.1098 17.7348C18.1802 17.6645 18.2755 17.625 18.375 17.625H22.125V16.5H18.75V16.875H18V16.125C18 16.0255 18.0395 15.9302 18.1098 15.8598C18.1802 15.7895 18.2755 15.75 18.375 15.75H22.125V14.625H18.75V15H18V14.25C18 14.1505 18.0395 14.0552 18.1098 13.9848C18.1802 13.9145 18.2755 13.875 18.375 13.875H22.125V12.75H18.75V13.125H18V12.375C18 12.2755 18.0395 12.1802 18.1098 12.1098C18.1802 12.0395 18.2755 12 18.375 12H22.125V10.5C22.1249 10.4373 22.109 10.3755 22.0789 10.3205C22.0488 10.2655 22.0053 10.2189 21.9525 10.185L16.7025 6.81C16.6459 6.77368 16.5805 6.75325 16.5133 6.75086C16.4461 6.74847 16.3795 6.7642 16.3204 6.79641C16.2614 6.82862 16.2121 6.87612 16.1777 6.93393C16.1433 6.99174 16.1251 7.05774 16.125 7.125V20.625H15.75V1.5C15.75 1.40054 15.7105 1.30516 15.6402 1.23483C15.5698 1.16451 15.4745 1.125 15.375 1.125H8.625C8.52554 1.125 8.43016 1.16451 8.35983 1.23483C8.28951 1.30516 8.25 1.40054 8.25 1.5V20.625H7.875V7.125C7.87489 7.05774 7.85669 6.99174 7.8223 6.93393C7.78792 6.87612 7.73862 6.82862 7.67957 6.79641C7.62052 6.7642 7.55389 6.74847 7.48667 6.75086C7.41945 6.75325 7.35411 6.77368 7.2975 6.81L2.0475 10.185C1.99469 10.2189 1.95123 10.2655 1.92109 10.3205C1.89095 10.3755 1.8751 10.4373 1.875 10.5V12H5.625C5.72446 12 5.81984 12.0395 5.89016 12.1098C5.96049 12.1802 6 12.2755 6 12.375V13.125H5.25V12.75H1.875V13.875H5.625C5.72446 13.875 5.81984 13.9145 5.89016 13.9848C5.96049 14.0552 6 14.1505 6 14.25V15H5.25V14.625H1.875V15.75H5.625C5.72446 15.75 5.81984 15.7895 5.89016 15.8598C5.96049 15.9302 6 16.0255 6 16.125V16.875H5.25V16.5H1.875V17.625H5.625C5.72446 17.625 5.81984 17.6645 5.89016 17.7348C5.96049 17.8052 6 17.9005 6 18V18.75H5.25V18.375H1.875V20.625H0.75V21.375H7.5ZM13.5 4.5H14.25V19.125H13.5V4.5ZM11.625 4.5H12.375V19.125H11.625V4.5ZM9.75 4.5H10.5V19.125H9.75V4.5Z" fill="#009B72"/>
</svg>
