<svg width="80" height="52" viewBox="0 0 80 52" fill="none" xmlns="http://www.w3.org/2000/svg">
<path fill-rule="evenodd" clip-rule="evenodd" d="M25.9403 33.8432L22.6901 28.5513L19.9453 24.0949L8.28145 30.9387L10.0629 33.8432H25.9403ZM52.9274 33.8432H68.8048L47.9924 0L36.3401 6.84374L52.9274 33.8432ZM47.3788 39.1467C46.2589 38.4416 44.9465 38.0297 43.526 38.0297H43.4901C39.5664 38.0531 36.3765 41.1811 36.3765 45.0146C36.3765 48.8486 39.5664 51.9762 43.4901 52H43.526C44.9465 52 46.2589 51.5885 47.3788 50.883V51.6119H50.6645V33.8436H47.3788V39.1467ZM47.3788 45.744C47.0299 47.5081 45.4285 48.8599 43.526 48.8599H43.4901C41.3354 48.8365 39.5904 47.1196 39.5904 45.0146C39.5904 42.9101 41.3354 41.1932 43.4901 41.1811H43.526C45.4285 41.1811 47.0294 42.522 47.3788 44.2857V45.744ZM62.8102 39.1467C61.6647 38.4165 60.3262 38.0283 58.9584 38.0297H58.9216C54.9979 38.0531 51.8083 41.1811 51.8083 45.0146C51.8083 48.8486 54.9979 51.9762 58.9216 52H58.9584C60.3789 52 61.7027 51.5885 62.8102 50.883V51.6119H66.0968V38.3823H62.8102V39.1467ZM62.8102 45.744C62.4613 47.5081 60.8599 48.8599 58.9584 48.8599H58.9216C56.7677 48.8365 55.0222 47.1196 55.0222 45.0146C55.0222 42.9101 56.7677 41.1932 58.9216 41.1811H58.9584C60.8599 41.1811 62.4609 42.522 62.8102 44.2857V45.744ZM77.7846 44.1445C77.6644 44.0852 77.4955 44.0267 77.3027 43.9561C76.5685 43.7092 75.3767 43.4034 73.7155 43.0509C72.259 42.733 71.5248 42.3219 71.5248 41.8044C71.5248 41.4397 71.657 41.1456 71.9097 40.9342C72.2471 40.6518 72.8483 40.5106 73.7155 40.5106C74.5942 40.5106 75.2322 40.699 75.6055 41.0633C75.8343 41.2868 76.0023 41.6861 76.1109 42.2509H79.6019C79.6019 40.5812 78.9036 39.3819 77.5314 38.653C77.4592 38.6069 77.3825 38.5676 77.3027 38.5356C76.3512 38.1003 75.0877 37.8768 73.5111 37.8768C71.5967 37.8768 70.1527 38.371 69.1901 39.3702C68.42 40.1698 68.0467 41.1456 68.0467 42.2981C68.0467 43.7335 68.7685 44.7678 70.2373 45.4382C70.7911 45.6968 72.1389 46.0615 74.2821 46.5085C75.7145 46.8142 76.4359 47.2495 76.4359 47.8022C76.4359 48.1318 76.2922 48.4137 75.9792 48.6723C75.5815 49.0015 74.9795 49.1665 74.1734 49.1665C73.1019 49.1665 72.3437 48.9902 71.8986 48.6493C71.4526 48.3202 71.2238 47.8381 71.2238 47.2265H67.5648C67.5648 48.8494 68.2631 50.0605 69.6712 50.8596C70.7911 51.4828 72.2595 51.8007 74.0777 51.8007C75.2929 51.8007 76.376 51.6006 77.3031 51.213C77.4959 51.1307 77.6648 51.048 77.8453 50.954C79.2778 50.1783 80 48.9434 80 47.2504C79.9996 45.8614 79.2645 44.8262 77.7846 44.1445ZM11.0019 39.1467C9.85127 38.4179 8.50934 38.03 7.13803 38.0297H7.10169C3.18994 38.0531 0 41.1811 0 45.0146C0 48.8486 3.18994 51.9762 7.10169 52H7.13803C8.55854 52 9.88241 51.5885 11.0019 50.883V51.6119H14.288V38.3823H11.0019V39.1467ZM11.0019 45.744C10.653 47.5081 9.05157 48.8599 7.13803 48.8599H7.10169C4.95938 48.8365 3.21389 47.1196 3.21389 45.0146C3.21389 42.9101 4.95938 41.1932 7.10169 41.1811H7.13803C9.052 41.1811 10.653 42.522 11.0019 44.2857V45.744ZM31.5133 36.9833H35.0885V33.9138H31.5133V36.9833ZM31.5133 51.6115H35.0885V38.0297H31.5133V51.6115ZM26.5903 39.1467C25.4395 38.4179 24.0974 38.0299 22.726 38.0297H22.6901C18.7659 38.0531 15.576 41.1811 15.576 45.0146C15.576 48.8486 18.7655 51.9762 22.6901 52H22.726C24.0975 51.9999 25.4396 51.612 26.5903 50.883V51.6119H29.8764V33.8436H26.5903V39.1467ZM26.5903 45.744C26.2413 47.5081 24.64 48.8599 22.726 48.8599H22.6901C20.5354 48.8365 18.7899 47.1196 18.7899 45.0146C18.7899 42.9101 20.5354 41.1932 22.6901 41.1811H22.726C24.64 41.1811 26.2409 42.522 26.5903 44.2857V45.744ZM47.3659 33.8432L43.4901 27.517L33.969 12.0416L22.6901 18.674L22.3048 18.8971L22.6901 19.5203L31.5009 33.8432H47.3659Z" fill="#C2C9D1"/>
<path fill-rule="evenodd" clip-rule="evenodd" d="M25.9403 33.8432L22.6901 28.5513L19.9453 24.0949L8.28145 30.9387L10.0629 33.8432H25.9403ZM52.9274 33.8432H68.8048L47.9924 0L36.3401 6.84374L52.9274 33.8432ZM47.3788 39.1467C46.2589 38.4416 44.9465 38.0297 43.526 38.0297H43.4901C39.5664 38.0531 36.3765 41.1811 36.3765 45.0146C36.3765 48.8486 39.5664 51.9762 43.4901 52H43.526C44.9465 52 46.2589 51.5885 47.3788 50.883V51.6119H50.6645V33.8436H47.3788V39.1467ZM47.3788 45.744C47.0299 47.5081 45.4285 48.8599 43.526 48.8599H43.4901C41.3354 48.8365 39.5904 47.1196 39.5904 45.0146C39.5904 42.9101 41.3354 41.1932 43.4901 41.1811H43.526C45.4285 41.1811 47.0294 42.522 47.3788 44.2857V45.744ZM62.8102 39.1467C61.6647 38.4165 60.3262 38.0283 58.9584 38.0297H58.9216C54.9979 38.0531 51.8083 41.1811 51.8083 45.0146C51.8083 48.8486 54.9979 51.9762 58.9216 52H58.9584C60.3789 52 61.7027 51.5885 62.8102 50.883V51.6119H66.0968V38.3823H62.8102V39.1467ZM62.8102 45.744C62.4613 47.5081 60.8599 48.8599 58.9584 48.8599H58.9216C56.7677 48.8365 55.0222 47.1196 55.0222 45.0146C55.0222 42.9101 56.7677 41.1932 58.9216 41.1811H58.9584C60.8599 41.1811 62.4609 42.522 62.8102 44.2857V45.744ZM77.7846 44.1445C77.6644 44.0852 77.4955 44.0267 77.3027 43.9561C76.5685 43.7092 75.3767 43.4034 73.7155 43.0509C72.259 42.733 71.5248 42.3219 71.5248 41.8044C71.5248 41.4397 71.657 41.1456 71.9097 40.9342C72.2471 40.6518 72.8483 40.5106 73.7155 40.5106C74.5942 40.5106 75.2322 40.699 75.6055 41.0633C75.8343 41.2868 76.0023 41.6861 76.1109 42.2509H79.6019C79.6019 40.5812 78.9036 39.3819 77.5314 38.653C77.4592 38.6069 77.3825 38.5676 77.3027 38.5356C76.3512 38.1003 75.0877 37.8768 73.5111 37.8768C71.5967 37.8768 70.1527 38.371 69.1901 39.3702C68.42 40.1698 68.0467 41.1456 68.0467 42.2981C68.0467 43.7335 68.7685 44.7678 70.2373 45.4382C70.7911 45.6968 72.1389 46.0615 74.2821 46.5085C75.7145 46.8142 76.4359 47.2495 76.4359 47.8022C76.4359 48.1318 76.2922 48.4137 75.9792 48.6723C75.5815 49.0015 74.9795 49.1665 74.1734 49.1665C73.1019 49.1665 72.3437 48.9902 71.8986 48.6493C71.4526 48.3202 71.2238 47.8381 71.2238 47.2265H67.5648C67.5648 48.8494 68.2631 50.0605 69.6712 50.8596C70.7911 51.4828 72.2595 51.8007 74.0777 51.8007C75.2929 51.8007 76.376 51.6006 77.3031 51.213C77.4959 51.1307 77.6648 51.048 77.8453 50.954C79.2778 50.1783 80 48.9434 80 47.2504C79.9996 45.8614 79.2645 44.8262 77.7846 44.1445ZM11.0019 39.1467C9.85127 38.4179 8.50934 38.03 7.13803 38.0297H7.10169C3.18994 38.0531 0 41.1811 0 45.0146C0 48.8486 3.18994 51.9762 7.10169 52H7.13803C8.55854 52 9.88241 51.5885 11.0019 50.883V51.6119H14.288V38.3823H11.0019V39.1467ZM11.0019 45.744C10.653 47.5081 9.05157 48.8599 7.13803 48.8599H7.10169C4.95938 48.8365 3.21389 47.1196 3.21389 45.0146C3.21389 42.9101 4.95938 41.1932 7.10169 41.1811H7.13803C9.052 41.1811 10.653 42.522 11.0019 44.2857V45.744ZM31.5133 36.9833H35.0885V33.9138H31.5133V36.9833ZM31.5133 51.6115H35.0885V38.0297H31.5133V51.6115ZM26.5903 39.1467C25.4395 38.4179 24.0974 38.0299 22.726 38.0297H22.6901C18.7659 38.0531 15.576 41.1811 15.576 45.0146C15.576 48.8486 18.7655 51.9762 22.6901 52H22.726C24.0975 51.9999 25.4396 51.612 26.5903 50.883V51.6119H29.8764V33.8436H26.5903V39.1467ZM26.5903 45.744C26.2413 47.5081 24.64 48.8599 22.726 48.8599H22.6901C20.5354 48.8365 18.7899 47.1196 18.7899 45.0146C18.7899 42.9101 20.5354 41.1932 22.6901 41.1811H22.726C24.64 41.1811 26.2409 42.522 26.5903 44.2857V45.744ZM47.3659 33.8432L43.4901 27.517L33.969 12.0416L22.6901 18.674L22.3048 18.8971L22.6901 19.5203L31.5009 33.8432H47.3659Z" fill="black" fill-opacity="0.25"/>
</svg>
