<svg width="80" height="26" viewBox="0 0 80 26" fill="none" xmlns="http://www.w3.org/2000/svg">
<path fill-rule="evenodd" clip-rule="evenodd" d="M20.0031 0.727136C21.9852 0.727136 23.5923 2.27109 23.5923 4.17625C23.5923 6.08166 21.9852 7.62561 20.0031 7.62561H3.58928C1.60691 7.62561 0 6.08166 0 4.17625C0 2.27109 1.60691 0.727136 3.58915 0.727136H20.0031ZM18.3533 9.76553C20.3358 9.76553 21.9427 11.3097 21.9427 13.2149C21.9427 15.12 20.3358 16.6642 18.3533 16.6642H9.01114C8.21434 16.667 7.56217 17.2728 7.53166 18.0308V22.5265C7.53166 24.4315 5.92475 25.9757 3.9429 25.9757C1.96053 25.9757 0.353616 24.4315 0.353616 22.5265V14.8756C0.353616 12.0535 2.73406 9.7654 5.67066 9.7654L18.3533 9.76553ZM25.2222 3.44936C25.2222 1.54445 26.8291 0 28.8113 0C30.7938 0 32.4005 1.54445 32.4005 3.44936V22.5506C32.4005 24.4558 30.794 26 28.8113 26C26.8292 26 25.2222 24.4557 25.2222 22.5506V3.44936ZM69.3967 19.1584L70.8391 19.1549C71.1338 19.1547 71.3726 18.9251 71.3728 18.6418C71.375 18.5744 71.3622 18.5074 71.3351 18.4452L65.9719 9.78391L57.5934 23.7266C56.9462 24.8047 55.784 25.4196 54.5779 25.4505C54.5419 25.4553 54.5056 25.4578 54.4693 25.4578H40.8339C37.8972 25.4578 35.5166 23.1698 35.5166 20.3477V3.44961C35.5166 1.54457 37.1236 0.000124212 39.1057 0.000124212C41.0877 0.000124212 42.6949 1.54457 42.6949 3.44948V17.1369C42.6975 17.903 43.3277 18.5302 44.117 18.5587H51.7446C51.9408 18.5007 52.5407 18.3047 52.7235 18.0318L62.3041 2.09297C63.0311 0.893331 64.3834 0.0857061 65.9312 0.0857061C67.4798 0.0857061 68.8324 0.894573 69.5562 2.09669L78.8918 17.1601C79.6121 18.06 80.0017 19.1639 80 20.2992C80 23.1482 77.5968 25.4576 74.6328 25.4576H63.7507C61.94 25.4576 60.4734 24.0473 60.4734 22.3076C60.4734 20.5685 61.9401 19.1584 63.7507 19.1584H69.3967Z" fill="#C2C9D1"/>
<path fill-rule="evenodd" clip-rule="evenodd" d="M20.0031 0.727136C21.9852 0.727136 23.5923 2.27109 23.5923 4.17625C23.5923 6.08166 21.9852 7.62561 20.0031 7.62561H3.58928C1.60691 7.62561 0 6.08166 0 4.17625C0 2.27109 1.60691 0.727136 3.58915 0.727136H20.0031ZM18.3533 9.76553C20.3358 9.76553 21.9427 11.3097 21.9427 13.2149C21.9427 15.12 20.3358 16.6642 18.3533 16.6642H9.01114C8.21434 16.667 7.56217 17.2728 7.53166 18.0308V22.5265C7.53166 24.4315 5.92475 25.9757 3.9429 25.9757C1.96053 25.9757 0.353616 24.4315 0.353616 22.5265V14.8756C0.353616 12.0535 2.73406 9.7654 5.67066 9.7654L18.3533 9.76553ZM25.2222 3.44936C25.2222 1.54445 26.8291 0 28.8113 0C30.7938 0 32.4005 1.54445 32.4005 3.44936V22.5506C32.4005 24.4558 30.794 26 28.8113 26C26.8292 26 25.2222 24.4557 25.2222 22.5506V3.44936ZM69.3967 19.1584L70.8391 19.1549C71.1338 19.1547 71.3726 18.9251 71.3728 18.6418C71.375 18.5744 71.3622 18.5074 71.3351 18.4452L65.9719 9.78391L57.5934 23.7266C56.9462 24.8047 55.784 25.4196 54.5779 25.4505C54.5419 25.4553 54.5056 25.4578 54.4693 25.4578H40.8339C37.8972 25.4578 35.5166 23.1698 35.5166 20.3477V3.44961C35.5166 1.54457 37.1236 0.000124212 39.1057 0.000124212C41.0877 0.000124212 42.6949 1.54457 42.6949 3.44948V17.1369C42.6975 17.903 43.3277 18.5302 44.117 18.5587H51.7446C51.9408 18.5007 52.5407 18.3047 52.7235 18.0318L62.3041 2.09297C63.0311 0.893331 64.3834 0.0857061 65.9312 0.0857061C67.4798 0.0857061 68.8324 0.894573 69.5562 2.09669L78.8918 17.1601C79.6121 18.06 80.0017 19.1639 80 20.2992C80 23.1482 77.5968 25.4576 74.6328 25.4576H63.7507C61.94 25.4576 60.4734 24.0473 60.4734 22.3076C60.4734 20.5685 61.9401 19.1584 63.7507 19.1584H69.3967Z" fill="black" fill-opacity="0.25"/>
</svg>
