<svg width="152" height="92" viewBox="0 0 152 92" fill="none" xmlns="http://www.w3.org/2000/svg">
<path fill-rule="evenodd" clip-rule="evenodd" d="M93.4494 12.4668C93.3757 12.5273 93.3283 12.6156 93.3231 12.7442C92.5993 12.9408 92.3308 14.1938 91.3675 14.0072C91.3991 14.1308 91.3175 14.3198 91.3465 14.4434C91.0043 14.4081 89.7384 14.7484 89.641 14.9652C89.2383 15.056 88.0144 15.1694 88.1408 15.7493C87.7881 15.8627 87.5723 15.8754 87.338 16.0871C87.0933 16.3065 87.1327 16.6241 86.8011 16.6846C86.7011 17.146 86.1484 17.9956 85.6404 18.0561C85.5852 18.4494 85.2509 18.7469 85.3693 19.2108C85.5667 19.3343 85.7904 19.3797 86.0273 19.3393C86.2221 18.9662 86.6037 18.757 87.0511 18.82C87.0538 18.7418 87.0722 18.6536 87.0722 18.578C87.4749 18.6107 88.3276 17.8721 88.5066 17.5998C89.3251 17.5292 90.3832 18.2679 90.7938 18.9738C91.0175 19.3595 90.828 19.7049 90.4727 20.0705C90.3806 20.1663 90.0989 20.2873 90.0463 20.378C89.9252 20.5797 89.9726 20.789 89.8726 20.9982C89.7436 21.268 89.162 21.8201 89.512 22.1756C89.9015 22.5714 90.4648 22.0949 90.7438 21.8957C91.3886 21.4419 91.7413 20.6301 92.3229 20.0805C92.7019 20.0856 92.9651 19.7024 93.3468 19.6494C93.381 19.6444 93.4152 19.6444 93.4494 19.6494V22.0773C93.0573 22.5739 92.7572 23.2697 92.1861 23.4109C91.8834 24.4698 90.9464 25.3093 90.4148 26.2749C89.9147 27.185 89.2383 28.1531 88.904 29.1464C88.5908 30.0742 88.196 30.9112 87.8802 31.8894C87.5381 32.9457 87.2301 34.0046 86.9432 35.1038C86.8327 35.5197 86.7722 35.9307 86.7406 36.3517H75.6653C75.8417 35.7517 75.8785 35.0533 75.9627 34.5037C76.1128 33.5382 76.8418 32.6684 77.2971 31.7557C77.734 30.8759 78.3499 29.8927 78.95 29.0935C79.3948 28.501 79.7738 27.8531 80.2002 27.248C80.3976 26.9657 80.7582 25.8917 81.0056 25.7631C82.0399 25.216 82.4189 22.6369 83.7796 22.6722C83.8217 21.8201 84.8403 21.8857 85.4825 22.1705C85.6299 22.6016 86.151 22.8714 86.3984 23.2521C86.609 23.5798 86.6511 23.9656 86.8722 24.2983C87.1143 24.6639 88.0329 26.4463 88.6856 25.7354C89.262 25.1076 88.3908 23.8824 88.0671 23.4008C87.5775 22.6672 86.9485 22.0949 86.38 21.4621C85.7089 20.7108 84.7377 19.5612 83.4638 20.0831C82.6953 20.3982 81.853 22.9899 80.8266 22.0621C80.5318 21.7949 80.5081 19.2385 80.6634 19.2309C81.0056 19.2133 81.4293 19.2864 81.7478 19.1729C82.0478 19.0671 82.1478 18.8276 82.5637 18.7645C83.0058 18.6965 83.9139 18.8805 84.1139 18.346C84.4297 17.5065 83.2822 17.8645 82.9032 17.9805C81.1924 18.4973 80.4818 17.7662 79.3553 16.6594C78.7579 16.072 78.3341 15.235 77.5867 14.7812C76.8576 14.34 75.9759 14.2316 75.2679 13.7854C74.7521 13.4627 74.3151 13.0089 73.8993 12.6408C73.4887 12.2777 73.4098 12.129 73.0913 11.6298C72.4175 10.5836 71.8727 9.67345 71.3621 8.57678C70.8831 7.54565 70.6304 6.51956 70.6304 5.31195C70.6304 4.43461 70.8252 4.00098 71.1173 3.17406C71.1752 3.00263 71.27 2.748 71.3279 2.48076H81.3372C81.2609 2.57656 81.2161 2.69758 81.2372 2.8438C80.9424 2.92447 80.5344 2.86901 80.4186 3.19171C79.9423 3.26986 79.5396 3.38079 79.0184 3.37323C78.5052 3.36819 78.1052 3.19927 77.6077 3.24465C76.9892 3.30516 76.955 3.67576 76.5628 4.07914C76.2391 4.41696 75.7917 4.6842 75.5548 5.06489C74.9573 5.38759 74.781 6.0103 74.6441 6.68343C74.5652 7.06664 74.3967 7.45741 74.4257 7.85826C74.4415 8.05995 74.5362 8.15575 74.5783 8.33727C74.6257 8.55913 74.5494 8.83141 74.6152 9.0457C74.681 9.25243 74.8731 9.37344 74.9758 9.55748C75.0679 9.71883 75.0889 9.97094 75.1969 10.1323C75.2916 10.271 75.4443 10.581 75.5469 10.6869C75.7101 10.8508 75.918 10.8886 76.0207 11.0802C76.1917 11.4004 75.9759 11.8542 76.1628 12.1668C76.2786 12.3559 76.4655 12.4391 76.5602 12.6483C76.597 12.729 76.6076 13.1274 76.6497 13.1727L76.6628 13.2055C76.9655 13.3265 77.4524 13.2685 77.7841 13.2509C77.7577 12.84 78.0604 12.5198 77.7814 12.1819C77.4656 11.7987 77.0576 11.9677 76.926 11.3853C76.7708 10.6768 76.6681 9.81211 76.9708 9.12637C77.184 8.64232 78.7868 7.73221 78.8868 8.67762C79.1211 8.73308 79.3606 8.73813 79.6001 8.78098C79.7185 9.08856 80.2212 8.93225 80.4634 8.85157C80.5134 8.79107 80.4871 8.81124 80.5555 8.76586C80.5923 8.6272 80.6608 8.52887 80.7082 8.38769C81.4372 8.544 80.7845 7.68683 80.5634 7.55321C80.3292 7.40951 79.458 7.11454 79.1553 7.24816C78.8842 7.36665 78.9921 7.56581 78.6552 7.59607C78.5157 7.60867 77.9551 7.52296 77.8341 7.46749C77.3419 7.24564 77.4656 6.53217 77.434 6.12375C77.5814 6.03299 77.6472 5.80357 77.6156 5.60188C77.9078 5.42792 78.042 5.08253 78.3262 4.97665C78.3736 4.64638 78.6184 4.5052 78.9658 4.54302C78.9869 3.65307 81.224 4.09931 81.7899 3.76652C81.9425 3.67576 82.1399 3.46147 82.2005 3.28751C82.2557 3.12616 82.3794 2.65976 82.3347 2.50345C82.3321 2.49589 82.3294 2.48832 82.3268 2.48076H83.677C83.6428 2.72026 83.6349 2.96733 83.7217 3.13877C83.8507 3.39844 84.993 3.91526 85.1904 3.585C85.2667 3.4539 85.3009 3.3102 85.2825 3.16398C84.864 3.10347 84.4955 2.8564 84.2586 2.52362C84.2508 2.51101 84.2402 2.49589 84.2297 2.48076H92.0834C92.8388 2.48076 93.4494 3.06565 93.4494 3.78669V12.4668ZM93.4494 18.4166C93.1099 18.4141 92.723 18.5805 92.7098 18.1191C92.0782 18.0889 91.0991 17.9981 91.0728 17.2065C90.0937 17.1838 91.1938 15.4089 92.165 15.4871C92.1887 15.3232 92.3229 15.2375 92.3229 15.051C92.6361 15.0837 92.923 14.7988 93.2652 14.7156C93.3231 14.7005 93.3836 14.6955 93.4494 14.693V18.4166ZM93.4494 26.3354C93.2783 26.4766 93.1573 26.6203 93.0362 26.8371C92.7519 27.3514 92.7388 27.9615 92.523 28.4985C92.1466 29.4237 91.6386 30.3465 91.1701 31.2515C90.7201 32.1213 90.5701 33.4121 90.399 34.4357C90.3174 34.9349 90.0674 35.7366 90.1147 36.3517H88.0513C88.0671 36.1904 88.0934 36.0315 88.1381 35.8727C88.2803 35.3609 88.6093 35.0962 88.6987 34.5668C88.8014 33.9466 88.7988 33.5709 89.0225 32.986C89.2172 32.4843 89.6541 31.9574 89.7936 31.4356C89.9358 30.8986 89.8436 30.4473 90.1279 29.9305C90.249 29.7137 90.4858 29.57 90.6227 29.3582C90.7648 29.1414 90.8806 28.7985 91.0675 28.5439C91.2491 28.2993 91.4886 28.1657 91.6307 27.9212C91.765 27.6892 91.7308 27.3791 91.8308 27.122C92.0203 26.643 92.3756 26.3051 92.6546 25.8866C93.002 25.3648 93.1862 24.7975 93.4494 24.2555V26.3354ZM93.4494 35.0458C93.4494 35.7668 92.8388 36.3517 92.0834 36.3517H91.6018C91.5939 36.1223 91.5939 35.8929 91.6307 35.6786C91.6781 35.3912 91.8492 35.1567 91.9045 34.8945C91.965 34.5995 91.8334 34.2668 91.9018 33.9743C91.9571 33.7323 92.165 33.5079 92.2571 33.2583C92.344 33.0239 92.3335 32.8272 92.3782 32.5423C92.4545 32.0558 92.5598 31.607 92.773 31.1582C92.9757 30.7297 93.2073 30.2885 93.4494 29.8498V35.0458ZM73.6466 36.3517H63.8216C64.1348 35.9685 64.3769 35.4744 64.5769 35.1517C64.8559 34.7029 65.2139 34.2315 65.3349 33.6869C65.4507 33.155 65.3692 32.5549 65.4507 32.0205C65.6087 30.9843 65.8824 30.4801 66.8825 30.1246C68.4327 29.5725 69.2486 28.7229 70.2777 27.5153C70.6252 27.1068 70.691 26.6379 70.8489 26.1589C71.0121 25.6623 71.0384 24.8278 71.4095 24.4496C71.6595 24.1899 72.7439 23.7588 72.3228 23.1512C71.9674 22.642 71.1489 23.2723 70.9015 23.5319C70.5725 23.8824 70.3567 24.4597 70.2383 24.916C70.1698 25.1858 70.204 25.4076 70.0751 25.6698C69.9409 25.9421 69.6698 25.8841 69.6671 26.2648C68.9881 26.3253 69.1407 26.9707 68.7223 27.3337C68.3117 27.6892 67.8642 27.659 67.551 28.2212C66.6957 28.2691 66.4088 27.9918 66.6772 27.185C66.8115 26.7766 67.1694 26.2245 67.4247 25.8665C67.7116 25.4631 68.2485 25.0925 68.538 24.7093C68.8644 24.2757 69.0091 23.7639 69.3513 23.3C69.7066 22.821 70.054 22.3168 70.4093 21.8352C70.8436 21.2529 70.9884 20.847 71.2568 20.2016C71.4121 19.8284 71.828 19.594 71.9806 19.2385C72.1043 18.9486 72.078 18.6284 72.1833 18.3712C72.3359 18.0032 72.7728 17.6754 72.886 17.2796C72.9781 16.9594 72.8413 16.546 72.8781 16.2132C72.986 15.2451 73.3913 13.5459 74.5152 14.7459C75.997 16.3266 77.2814 18.2023 78.3341 20.0049C78.6289 20.5041 78.7789 21.0411 79 21.505C79.2501 22.0268 79.6975 22.4832 79.9896 22.9949C80.2634 23.4714 80.287 23.953 80.2291 24.5101C80.2133 24.6689 80.1712 25.2311 80.0975 25.3622C79.9923 25.5463 79.6843 25.6068 79.5527 25.806C79 25.8312 78.3078 25.7505 78.0499 25.2412C77.084 25.1858 76.6971 25.4606 75.8917 25.8286C75.9601 26.4589 75.3811 26.464 75.0074 26.8119C74.6547 27.1447 74.5652 27.8279 74.2572 28.0472C74.1572 28.1632 74.273 28.1556 74.1204 28.2439C74.1309 28.9094 74.7231 29.1313 75.3232 29.0708C75.568 28.5968 76.0128 28.1783 76.3391 27.7472C76.6971 27.2732 76.5339 27.1951 77.1076 27.0564C77.4472 26.9757 77.8446 26.9581 78.1762 27.0236C78.2973 27.6312 78.0051 27.8859 77.763 28.38C77.4419 29.0355 77.3393 29.1136 76.7839 29.5548C76.5628 29.7313 76.5786 29.8624 76.4128 30.049C75.8706 30.6591 75.7311 31.4255 75.2837 32.1667C74.5626 33.3667 73.6124 34.8214 73.6466 36.3517ZM62.6846 36.3517H61.6528C62.1582 35.8576 62.6609 34.7987 61.9292 34.471C61.487 34.2718 61.2133 34.6071 60.987 34.9777C60.8396 35.2197 60.7106 35.4769 60.5659 35.6105C60.0342 36.1021 59.2051 35.9735 58.584 36.3114C57.9865 36.1727 57.5417 35.6609 57.5417 35.0458V24.1798C58.1181 24.1345 58.7656 23.9555 59.1762 23.9202C59.8315 23.8672 60.4579 24.1446 61.087 24.2479C61.7476 24.3563 62.0503 24.6034 62.5345 25.032C63.2557 25.6723 63.9926 26.5825 64.1585 27.5102C64.3453 28.559 64.0874 29.7187 64.0874 30.7776C64.0874 32.0053 63.9374 33.0844 63.7452 34.2416C63.611 35.0382 62.8609 35.5903 62.6846 36.3517ZM57.5417 12.192C57.547 12.1845 57.5496 12.1744 57.5575 12.1668C57.647 12.0307 57.7444 12.0029 57.8286 11.8996C58.026 11.6601 58.2471 11.3197 58.2445 11.0298C58.2445 10.7147 58.105 10.4651 57.9918 10.1953C57.8576 9.8701 57.826 9.54488 57.826 9.15159C57.8286 8.77342 57.8813 8.49358 57.8971 8.1255C57.9128 7.74229 57.8128 7.51035 57.7576 7.18261C57.726 6.991 57.8997 6.81201 57.8655 6.65318C57.8365 6.5246 57.6128 6.40863 57.547 6.28762C57.5444 6.2851 57.5444 6.28006 57.5417 6.27753V3.78669C57.5417 3.06565 58.1524 2.48076 58.9051 2.48076H60.6106C60.6316 2.51101 60.6501 2.53875 60.679 2.569C61.3607 3.28751 61.666 4.49512 61.8029 5.21363C61.9397 5.93214 61.1896 6.09349 60.8133 6.42124C60.4395 6.74646 59.4499 7.72717 59.8947 8.31458C60.3711 8.94738 59.9289 9.58774 60.3369 10.1777C61.158 11.355 66.5641 7.37925 66.9273 6.33552C67.2905 5.28926 69.1092 2.67741 69.1092 2.67741C69.1802 2.64463 69.2223 2.57152 69.2434 2.48076H69.9198C69.8514 2.78581 69.8198 3.07322 69.8145 3.22196C69.7698 4.10939 69.5092 4.88085 69.4724 5.76827C69.4197 7.06916 69.346 8.4961 69.8698 9.67345C70.3699 10.8029 71.7332 11.3702 71.9964 12.5551C72.1701 13.3442 72.1306 13.7097 71.9385 14.4535C71.7858 15.0434 71.9253 15.6838 71.7753 16.2787C71.5674 17.1157 70.8699 17.4183 70.4909 18.1116C70.2225 18.6007 70.204 19.3721 69.9672 19.9368C69.4855 21.0965 68.8828 22.5462 67.9853 23.3176C67.7432 23.5269 67.501 23.595 67.3589 23.8571C67.2299 24.0941 67.3273 24.4673 67.2142 24.6916C66.9773 25.1606 66.1666 26.285 65.5192 26.2749C65.0059 26.2648 64.8586 25.6471 64.698 25.2286C64.3374 24.2782 63.611 23.6328 62.6688 23.1235C61.1633 22.3117 59.2762 22.6672 57.5417 22.8941V12.192ZM67.3694 2.48076C67.4458 2.66732 67.5616 2.92699 67.3931 3.18919C67.1194 3.61273 65.6903 4.56067 65.5876 4.69176C65.485 4.82286 64.2585 4.91866 63.6084 4.72454C62.982 4.53293 62.2266 2.59673 62.1819 2.48076H67.3694ZM93.7179 0H57.2707C55.9889 0 54.9519 0.993313 54.9519 2.22109V36.6114C54.9519 37.8392 55.9889 38.8325 57.2707 38.8325H93.7179C94.9996 38.8325 96.0392 37.8392 96.0392 36.6114V2.22109C96.0392 0.993313 94.9996 0 93.7179 0ZM67.251 15.593C67.4484 15.7216 67.6063 15.7644 67.7853 15.709C67.9221 15.6661 68.1116 15.6106 68.2248 15.53C68.3459 15.4468 68.3275 15.3711 68.3985 15.2955C68.5354 15.1468 68.7354 15.0812 68.8828 14.9602C69.0091 14.8543 69.2013 14.7283 69.246 14.5669C69.2723 14.4686 69.2144 14.3551 69.2644 14.2593C69.3276 14.1333 69.4355 14.1534 69.5382 14.0602C69.6408 13.9719 69.7987 13.7803 69.775 13.6644C69.7487 13.5206 69.4987 13.3492 69.4092 13.2206C69.1881 12.903 69.0355 13.029 68.7591 13.1727C68.638 13.2358 68.4959 13.2711 68.3485 13.2988C68.1695 13.3341 67.98 13.3568 67.8116 13.4022C67.5932 13.4627 67.6142 13.4425 67.4668 13.6013C67.3852 13.6896 67.28 13.7602 67.1905 13.8433C67.0194 14.0047 66.6299 14.5694 66.6904 14.8014C66.7378 14.9804 67.0983 15.4896 67.251 15.593ZM85.7825 7.37169C85.7589 7.63388 85.4851 6.85487 85.5062 6.90277C85.3825 6.62292 85.343 6.6078 85.0114 6.53721C84.8035 6.49435 83.6375 6.40611 83.6901 6.80696C83.5322 6.91789 83.3059 6.991 83.3269 7.24059C83.1322 7.3011 82.6058 7.53808 83.1006 7.60363C83.0032 8.08012 84.6087 8.4961 84.9719 8.46837C85.1983 8.45072 85.3825 8.46585 85.5641 8.3045C85.6878 8.19609 85.6088 8.02466 85.7773 7.88852C85.972 7.73221 86.2984 7.88347 86.4195 7.61372C86.6169 7.17757 85.8247 6.8952 85.7825 7.37169ZM91.336 6.93806C91.207 6.72881 91.2202 6.55738 91.1201 6.36829C90.9517 6.05568 90.6227 5.81113 90.4253 5.5086C90.0726 4.97161 89.7831 4.12704 89.0251 3.8598C88.1434 3.55223 87.3643 3.71862 86.4326 3.68585C86.1905 4.06653 86.5695 4.34637 86.5221 4.71697C86.7643 4.76992 87.1933 5.25145 87.288 5.41784C87.4354 5.67247 87.4433 6.25484 87.2828 6.50191C87.038 6.53216 86.8959 6.8826 87.1459 6.99605C87.1222 7.22547 87.2801 7.4322 87.5091 7.47253C87.596 7.78515 87.5591 8.27424 88.0539 8.2566C88.2882 8.54904 88.2566 8.87426 88.2355 9.24487C88.025 9.24991 87.8855 9.98355 87.8355 10.2079C87.7828 10.45 87.8328 10.6668 87.7539 10.9063C87.6933 11.0928 87.517 11.1987 87.5617 11.4281C87.6618 11.9626 88.2145 11.7231 88.4224 11.4181C88.5487 11.234 88.6593 11.0878 88.6987 10.8609C88.7382 10.6264 88.6014 10.3617 88.8725 10.2457C88.8303 9.89783 89.1435 9.75413 89.3804 9.55244C89.6252 9.76673 89.92 9.60286 90.1016 9.94573C90.2121 10.155 90.1832 10.5483 90.0989 10.7651C90.0121 10.9844 89.8726 11.0222 89.7436 11.2214C89.6673 11.3424 89.6647 11.5416 89.5989 11.6349C89.4594 11.829 89.2567 11.8542 89.1199 12.0786C88.9883 12.2853 88.9383 12.661 88.9777 12.9005C89.0777 12.8954 89.3594 12.9811 89.4252 12.9559C89.6989 12.8601 89.5831 12.6357 89.7042 12.5223C89.8515 12.3887 90.1226 12.3988 90.2911 12.2475C90.449 12.1088 90.2963 11.9122 90.5543 11.8139C90.8464 10.4399 92.1413 8.94234 91.6413 7.3364C91.5781 7.12966 91.4412 7.10445 91.336 6.93806ZM82.4268 13.9114C82.1926 13.9467 81.9452 13.8963 81.7057 13.9165C81.6662 13.9921 81.6451 14.1232 81.6609 14.2089C81.6662 14.2341 82.311 14.6425 82.4268 14.6072C82.5979 14.5518 83.0532 14.2215 82.9716 13.9946C82.89 13.7652 82.6426 13.8786 82.4268 13.9114ZM85.0193 11.9954C84.9061 11.8441 84.7192 12.0332 84.7377 11.7382C83.9349 11.7206 83.2664 11.5012 82.5137 11.5668C82.1847 11.5945 81.8162 11.6147 81.5162 11.645C81.2556 11.6727 80.6055 11.5567 80.5108 11.771C80.3634 11.7382 80.1844 11.7105 80.0238 11.7382C80.0238 11.7912 80.0107 11.8492 80.0107 11.8996C79.658 12.0231 79.4553 11.9349 79.2816 12.3357C78.471 12.3786 78.8131 13.6467 78.8421 14.2089C78.929 14.2316 79.1053 14.2316 79.1921 14.2064C79.2343 14.1534 79.2843 14.1207 79.329 14.0753C79.4001 13.6417 79.9686 13.2232 80.2528 13.0038C81.0845 12.9786 81.9241 12.9937 82.79 12.9509C83.2375 12.9307 83.7007 12.8551 84.1455 12.9584C84.1481 13.0063 84.1639 13.0618 84.1692 13.1072C84.1692 13.1097 84.1692 13.1148 84.1692 13.1198C84.3034 13.0971 84.3955 13.1727 84.5087 13.1753C84.5271 13.2156 84.5166 13.2534 84.5245 13.2937C85.2693 13.1601 84.7008 14.1106 85.1904 14.1207C85.3641 14.1232 85.4746 13.3517 85.4693 13.2383C85.4614 12.8954 85.2746 12.6509 85.1614 12.3307C85.114 12.1946 85.0982 12.0987 85.0193 11.9954ZM59.1288 30.7851C58.8446 31.2893 58.7156 32.1995 59.0314 32.7339C59.5868 33.6693 60.3816 32.4289 60.6659 31.4482C60.758 31.123 60.7948 30.828 60.7501 30.649C60.4974 29.6834 59.4736 30.1675 59.1288 30.7851Z" fill="#C2C9D1"/>
<path fill-rule="evenodd" clip-rule="evenodd" d="M93.4494 12.4668C93.3757 12.5273 93.3283 12.6156 93.3231 12.7442C92.5993 12.9408 92.3308 14.1938 91.3675 14.0072C91.3991 14.1308 91.3175 14.3198 91.3465 14.4434C91.0043 14.4081 89.7384 14.7484 89.641 14.9652C89.2383 15.056 88.0144 15.1694 88.1408 15.7493C87.7881 15.8627 87.5723 15.8754 87.338 16.0871C87.0933 16.3065 87.1327 16.6241 86.8011 16.6846C86.7011 17.146 86.1484 17.9956 85.6404 18.0561C85.5852 18.4494 85.2509 18.7469 85.3693 19.2108C85.5667 19.3343 85.7904 19.3797 86.0273 19.3393C86.2221 18.9662 86.6037 18.757 87.0511 18.82C87.0538 18.7418 87.0722 18.6536 87.0722 18.578C87.4749 18.6107 88.3276 17.8721 88.5066 17.5998C89.3251 17.5292 90.3832 18.2679 90.7938 18.9738C91.0175 19.3595 90.828 19.7049 90.4727 20.0705C90.3806 20.1663 90.0989 20.2873 90.0463 20.378C89.9252 20.5797 89.9726 20.789 89.8726 20.9982C89.7436 21.268 89.162 21.8201 89.512 22.1756C89.9015 22.5714 90.4648 22.0949 90.7438 21.8957C91.3886 21.4419 91.7413 20.6301 92.3229 20.0805C92.7019 20.0856 92.9651 19.7024 93.3468 19.6494C93.381 19.6444 93.4152 19.6444 93.4494 19.6494V22.0773C93.0573 22.5739 92.7572 23.2697 92.1861 23.4109C91.8834 24.4698 90.9464 25.3093 90.4148 26.2749C89.9147 27.185 89.2383 28.1531 88.904 29.1464C88.5908 30.0742 88.196 30.9112 87.8802 31.8894C87.5381 32.9457 87.2301 34.0046 86.9432 35.1038C86.8327 35.5197 86.7722 35.9307 86.7406 36.3517H75.6653C75.8417 35.7517 75.8785 35.0533 75.9627 34.5037C76.1128 33.5382 76.8418 32.6684 77.2971 31.7557C77.734 30.8759 78.3499 29.8927 78.95 29.0935C79.3948 28.501 79.7738 27.8531 80.2002 27.248C80.3976 26.9657 80.7582 25.8917 81.0056 25.7631C82.0399 25.216 82.4189 22.6369 83.7796 22.6722C83.8217 21.8201 84.8403 21.8857 85.4825 22.1705C85.6299 22.6016 86.151 22.8714 86.3984 23.2521C86.609 23.5798 86.6511 23.9656 86.8722 24.2983C87.1143 24.6639 88.0329 26.4463 88.6856 25.7354C89.262 25.1076 88.3908 23.8824 88.0671 23.4008C87.5775 22.6672 86.9485 22.0949 86.38 21.4621C85.7089 20.7108 84.7377 19.5612 83.4638 20.0831C82.6953 20.3982 81.853 22.9899 80.8266 22.0621C80.5318 21.7949 80.5081 19.2385 80.6634 19.2309C81.0056 19.2133 81.4293 19.2864 81.7478 19.1729C82.0478 19.0671 82.1478 18.8276 82.5637 18.7645C83.0058 18.6965 83.9139 18.8805 84.1139 18.346C84.4297 17.5065 83.2822 17.8645 82.9032 17.9805C81.1924 18.4973 80.4818 17.7662 79.3553 16.6594C78.7579 16.072 78.3341 15.235 77.5867 14.7812C76.8576 14.34 75.9759 14.2316 75.2679 13.7854C74.7521 13.4627 74.3151 13.0089 73.8993 12.6408C73.4887 12.2777 73.4098 12.129 73.0913 11.6298C72.4175 10.5836 71.8727 9.67345 71.3621 8.57678C70.8831 7.54565 70.6304 6.51956 70.6304 5.31195C70.6304 4.43461 70.8252 4.00098 71.1173 3.17406C71.1752 3.00263 71.27 2.748 71.3279 2.48076H81.3372C81.2609 2.57656 81.2161 2.69758 81.2372 2.8438C80.9424 2.92447 80.5344 2.86901 80.4186 3.19171C79.9423 3.26986 79.5396 3.38079 79.0184 3.37323C78.5052 3.36819 78.1052 3.19927 77.6077 3.24465C76.9892 3.30516 76.955 3.67576 76.5628 4.07914C76.2391 4.41696 75.7917 4.6842 75.5548 5.06489C74.9573 5.38759 74.781 6.0103 74.6441 6.68343C74.5652 7.06664 74.3967 7.45741 74.4257 7.85826C74.4415 8.05995 74.5362 8.15575 74.5783 8.33727C74.6257 8.55913 74.5494 8.83141 74.6152 9.0457C74.681 9.25243 74.8731 9.37344 74.9758 9.55748C75.0679 9.71883 75.0889 9.97094 75.1969 10.1323C75.2916 10.271 75.4443 10.581 75.5469 10.6869C75.7101 10.8508 75.918 10.8886 76.0207 11.0802C76.1917 11.4004 75.9759 11.8542 76.1628 12.1668C76.2786 12.3559 76.4655 12.4391 76.5602 12.6483C76.597 12.729 76.6076 13.1274 76.6497 13.1727L76.6628 13.2055C76.9655 13.3265 77.4524 13.2685 77.7841 13.2509C77.7577 12.84 78.0604 12.5198 77.7814 12.1819C77.4656 11.7987 77.0576 11.9677 76.926 11.3853C76.7708 10.6768 76.6681 9.81211 76.9708 9.12637C77.184 8.64232 78.7868 7.73221 78.8868 8.67762C79.1211 8.73308 79.3606 8.73813 79.6001 8.78098C79.7185 9.08856 80.2212 8.93225 80.4634 8.85157C80.5134 8.79107 80.4871 8.81124 80.5555 8.76586C80.5923 8.6272 80.6608 8.52887 80.7082 8.38769C81.4372 8.544 80.7845 7.68683 80.5634 7.55321C80.3292 7.40951 79.458 7.11454 79.1553 7.24816C78.8842 7.36665 78.9921 7.56581 78.6552 7.59607C78.5157 7.60867 77.9551 7.52296 77.8341 7.46749C77.3419 7.24564 77.4656 6.53217 77.434 6.12375C77.5814 6.03299 77.6472 5.80357 77.6156 5.60188C77.9078 5.42792 78.042 5.08253 78.3262 4.97665C78.3736 4.64638 78.6184 4.5052 78.9658 4.54302C78.9869 3.65307 81.224 4.09931 81.7899 3.76652C81.9425 3.67576 82.1399 3.46147 82.2005 3.28751C82.2557 3.12616 82.3794 2.65976 82.3347 2.50345C82.3321 2.49589 82.3294 2.48832 82.3268 2.48076H83.677C83.6428 2.72026 83.6349 2.96733 83.7217 3.13877C83.8507 3.39844 84.993 3.91526 85.1904 3.585C85.2667 3.4539 85.3009 3.3102 85.2825 3.16398C84.864 3.10347 84.4955 2.8564 84.2586 2.52362C84.2508 2.51101 84.2402 2.49589 84.2297 2.48076H92.0834C92.8388 2.48076 93.4494 3.06565 93.4494 3.78669V12.4668ZM93.4494 18.4166C93.1099 18.4141 92.723 18.5805 92.7098 18.1191C92.0782 18.0889 91.0991 17.9981 91.0728 17.2065C90.0937 17.1838 91.1938 15.4089 92.165 15.4871C92.1887 15.3232 92.3229 15.2375 92.3229 15.051C92.6361 15.0837 92.923 14.7988 93.2652 14.7156C93.3231 14.7005 93.3836 14.6955 93.4494 14.693V18.4166ZM93.4494 26.3354C93.2783 26.4766 93.1573 26.6203 93.0362 26.8371C92.7519 27.3514 92.7388 27.9615 92.523 28.4985C92.1466 29.4237 91.6386 30.3465 91.1701 31.2515C90.7201 32.1213 90.5701 33.4121 90.399 34.4357C90.3174 34.9349 90.0674 35.7366 90.1147 36.3517H88.0513C88.0671 36.1904 88.0934 36.0315 88.1381 35.8727C88.2803 35.3609 88.6093 35.0962 88.6987 34.5668C88.8014 33.9466 88.7988 33.5709 89.0225 32.986C89.2172 32.4843 89.6541 31.9574 89.7936 31.4356C89.9358 30.8986 89.8436 30.4473 90.1279 29.9305C90.249 29.7137 90.4858 29.57 90.6227 29.3582C90.7648 29.1414 90.8806 28.7985 91.0675 28.5439C91.2491 28.2993 91.4886 28.1657 91.6307 27.9212C91.765 27.6892 91.7308 27.3791 91.8308 27.122C92.0203 26.643 92.3756 26.3051 92.6546 25.8866C93.002 25.3648 93.1862 24.7975 93.4494 24.2555V26.3354ZM93.4494 35.0458C93.4494 35.7668 92.8388 36.3517 92.0834 36.3517H91.6018C91.5939 36.1223 91.5939 35.8929 91.6307 35.6786C91.6781 35.3912 91.8492 35.1567 91.9045 34.8945C91.965 34.5995 91.8334 34.2668 91.9018 33.9743C91.9571 33.7323 92.165 33.5079 92.2571 33.2583C92.344 33.0239 92.3335 32.8272 92.3782 32.5423C92.4545 32.0558 92.5598 31.607 92.773 31.1582C92.9757 30.7297 93.2073 30.2885 93.4494 29.8498V35.0458ZM73.6466 36.3517H63.8216C64.1348 35.9685 64.3769 35.4744 64.5769 35.1517C64.8559 34.7029 65.2139 34.2315 65.3349 33.6869C65.4507 33.155 65.3692 32.5549 65.4507 32.0205C65.6087 30.9843 65.8824 30.4801 66.8825 30.1246C68.4327 29.5725 69.2486 28.7229 70.2777 27.5153C70.6252 27.1068 70.691 26.6379 70.8489 26.1589C71.0121 25.6623 71.0384 24.8278 71.4095 24.4496C71.6595 24.1899 72.7439 23.7588 72.3228 23.1512C71.9674 22.642 71.1489 23.2723 70.9015 23.5319C70.5725 23.8824 70.3567 24.4597 70.2383 24.916C70.1698 25.1858 70.204 25.4076 70.0751 25.6698C69.9409 25.9421 69.6698 25.8841 69.6671 26.2648C68.9881 26.3253 69.1407 26.9707 68.7223 27.3337C68.3117 27.6892 67.8642 27.659 67.551 28.2212C66.6957 28.2691 66.4088 27.9918 66.6772 27.185C66.8115 26.7766 67.1694 26.2245 67.4247 25.8665C67.7116 25.4631 68.2485 25.0925 68.538 24.7093C68.8644 24.2757 69.0091 23.7639 69.3513 23.3C69.7066 22.821 70.054 22.3168 70.4093 21.8352C70.8436 21.2529 70.9884 20.847 71.2568 20.2016C71.4121 19.8284 71.828 19.594 71.9806 19.2385C72.1043 18.9486 72.078 18.6284 72.1833 18.3712C72.3359 18.0032 72.7728 17.6754 72.886 17.2796C72.9781 16.9594 72.8413 16.546 72.8781 16.2132C72.986 15.2451 73.3913 13.5459 74.5152 14.7459C75.997 16.3266 77.2814 18.2023 78.3341 20.0049C78.6289 20.5041 78.7789 21.0411 79 21.505C79.2501 22.0268 79.6975 22.4832 79.9896 22.9949C80.2634 23.4714 80.287 23.953 80.2291 24.5101C80.2133 24.6689 80.1712 25.2311 80.0975 25.3622C79.9923 25.5463 79.6843 25.6068 79.5527 25.806C79 25.8312 78.3078 25.7505 78.0499 25.2412C77.084 25.1858 76.6971 25.4606 75.8917 25.8286C75.9601 26.4589 75.3811 26.464 75.0074 26.8119C74.6547 27.1447 74.5652 27.8279 74.2572 28.0472C74.1572 28.1632 74.273 28.1556 74.1204 28.2439C74.1309 28.9094 74.7231 29.1313 75.3232 29.0708C75.568 28.5968 76.0128 28.1783 76.3391 27.7472C76.6971 27.2732 76.5339 27.1951 77.1076 27.0564C77.4472 26.9757 77.8446 26.9581 78.1762 27.0236C78.2973 27.6312 78.0051 27.8859 77.763 28.38C77.4419 29.0355 77.3393 29.1136 76.7839 29.5548C76.5628 29.7313 76.5786 29.8624 76.4128 30.049C75.8706 30.6591 75.7311 31.4255 75.2837 32.1667C74.5626 33.3667 73.6124 34.8214 73.6466 36.3517ZM62.6846 36.3517H61.6528C62.1582 35.8576 62.6609 34.7987 61.9292 34.471C61.487 34.2718 61.2133 34.6071 60.987 34.9777C60.8396 35.2197 60.7106 35.4769 60.5659 35.6105C60.0342 36.1021 59.2051 35.9735 58.584 36.3114C57.9865 36.1727 57.5417 35.6609 57.5417 35.0458V24.1798C58.1181 24.1345 58.7656 23.9555 59.1762 23.9202C59.8315 23.8672 60.4579 24.1446 61.087 24.2479C61.7476 24.3563 62.0503 24.6034 62.5345 25.032C63.2557 25.6723 63.9926 26.5825 64.1585 27.5102C64.3453 28.559 64.0874 29.7187 64.0874 30.7776C64.0874 32.0053 63.9374 33.0844 63.7452 34.2416C63.611 35.0382 62.8609 35.5903 62.6846 36.3517ZM57.5417 12.192C57.547 12.1845 57.5496 12.1744 57.5575 12.1668C57.647 12.0307 57.7444 12.0029 57.8286 11.8996C58.026 11.6601 58.2471 11.3197 58.2445 11.0298C58.2445 10.7147 58.105 10.4651 57.9918 10.1953C57.8576 9.8701 57.826 9.54488 57.826 9.15159C57.8286 8.77342 57.8813 8.49358 57.8971 8.1255C57.9128 7.74229 57.8128 7.51035 57.7576 7.18261C57.726 6.991 57.8997 6.81201 57.8655 6.65318C57.8365 6.5246 57.6128 6.40863 57.547 6.28762C57.5444 6.2851 57.5444 6.28006 57.5417 6.27753V3.78669C57.5417 3.06565 58.1524 2.48076 58.9051 2.48076H60.6106C60.6316 2.51101 60.6501 2.53875 60.679 2.569C61.3607 3.28751 61.666 4.49512 61.8029 5.21363C61.9397 5.93214 61.1896 6.09349 60.8133 6.42124C60.4395 6.74646 59.4499 7.72717 59.8947 8.31458C60.3711 8.94738 59.9289 9.58774 60.3369 10.1777C61.158 11.355 66.5641 7.37925 66.9273 6.33552C67.2905 5.28926 69.1092 2.67741 69.1092 2.67741C69.1802 2.64463 69.2223 2.57152 69.2434 2.48076H69.9198C69.8514 2.78581 69.8198 3.07322 69.8145 3.22196C69.7698 4.10939 69.5092 4.88085 69.4724 5.76827C69.4197 7.06916 69.346 8.4961 69.8698 9.67345C70.3699 10.8029 71.7332 11.3702 71.9964 12.5551C72.1701 13.3442 72.1306 13.7097 71.9385 14.4535C71.7858 15.0434 71.9253 15.6838 71.7753 16.2787C71.5674 17.1157 70.8699 17.4183 70.4909 18.1116C70.2225 18.6007 70.204 19.3721 69.9672 19.9368C69.4855 21.0965 68.8828 22.5462 67.9853 23.3176C67.7432 23.5269 67.501 23.595 67.3589 23.8571C67.2299 24.0941 67.3273 24.4673 67.2142 24.6916C66.9773 25.1606 66.1666 26.285 65.5192 26.2749C65.0059 26.2648 64.8586 25.6471 64.698 25.2286C64.3374 24.2782 63.611 23.6328 62.6688 23.1235C61.1633 22.3117 59.2762 22.6672 57.5417 22.8941V12.192ZM67.3694 2.48076C67.4458 2.66732 67.5616 2.92699 67.3931 3.18919C67.1194 3.61273 65.6903 4.56067 65.5876 4.69176C65.485 4.82286 64.2585 4.91866 63.6084 4.72454C62.982 4.53293 62.2266 2.59673 62.1819 2.48076H67.3694ZM93.7179 0H57.2707C55.9889 0 54.9519 0.993313 54.9519 2.22109V36.6114C54.9519 37.8392 55.9889 38.8325 57.2707 38.8325H93.7179C94.9996 38.8325 96.0392 37.8392 96.0392 36.6114V2.22109C96.0392 0.993313 94.9996 0 93.7179 0ZM67.251 15.593C67.4484 15.7216 67.6063 15.7644 67.7853 15.709C67.9221 15.6661 68.1116 15.6106 68.2248 15.53C68.3459 15.4468 68.3275 15.3711 68.3985 15.2955C68.5354 15.1468 68.7354 15.0812 68.8828 14.9602C69.0091 14.8543 69.2013 14.7283 69.246 14.5669C69.2723 14.4686 69.2144 14.3551 69.2644 14.2593C69.3276 14.1333 69.4355 14.1534 69.5382 14.0602C69.6408 13.9719 69.7987 13.7803 69.775 13.6644C69.7487 13.5206 69.4987 13.3492 69.4092 13.2206C69.1881 12.903 69.0355 13.029 68.7591 13.1727C68.638 13.2358 68.4959 13.2711 68.3485 13.2988C68.1695 13.3341 67.98 13.3568 67.8116 13.4022C67.5932 13.4627 67.6142 13.4425 67.4668 13.6013C67.3852 13.6896 67.28 13.7602 67.1905 13.8433C67.0194 14.0047 66.6299 14.5694 66.6904 14.8014C66.7378 14.9804 67.0983 15.4896 67.251 15.593ZM85.7825 7.37169C85.7589 7.63388 85.4851 6.85487 85.5062 6.90277C85.3825 6.62292 85.343 6.6078 85.0114 6.53721C84.8035 6.49435 83.6375 6.40611 83.6901 6.80696C83.5322 6.91789 83.3059 6.991 83.3269 7.24059C83.1322 7.3011 82.6058 7.53808 83.1006 7.60363C83.0032 8.08012 84.6087 8.4961 84.9719 8.46837C85.1983 8.45072 85.3825 8.46585 85.5641 8.3045C85.6878 8.19609 85.6088 8.02466 85.7773 7.88852C85.972 7.73221 86.2984 7.88347 86.4195 7.61372C86.6169 7.17757 85.8247 6.8952 85.7825 7.37169ZM91.336 6.93806C91.207 6.72881 91.2202 6.55738 91.1201 6.36829C90.9517 6.05568 90.6227 5.81113 90.4253 5.5086C90.0726 4.97161 89.7831 4.12704 89.0251 3.8598C88.1434 3.55223 87.3643 3.71862 86.4326 3.68585C86.1905 4.06653 86.5695 4.34637 86.5221 4.71697C86.7643 4.76992 87.1933 5.25145 87.288 5.41784C87.4354 5.67247 87.4433 6.25484 87.2828 6.50191C87.038 6.53216 86.8959 6.8826 87.1459 6.99605C87.1222 7.22547 87.2801 7.4322 87.5091 7.47253C87.596 7.78515 87.5591 8.27424 88.0539 8.2566C88.2882 8.54904 88.2566 8.87426 88.2355 9.24487C88.025 9.24991 87.8855 9.98355 87.8355 10.2079C87.7828 10.45 87.8328 10.6668 87.7539 10.9063C87.6933 11.0928 87.517 11.1987 87.5617 11.4281C87.6618 11.9626 88.2145 11.7231 88.4224 11.4181C88.5487 11.234 88.6593 11.0878 88.6987 10.8609C88.7382 10.6264 88.6014 10.3617 88.8725 10.2457C88.8303 9.89783 89.1435 9.75413 89.3804 9.55244C89.6252 9.76673 89.92 9.60286 90.1016 9.94573C90.2121 10.155 90.1832 10.5483 90.0989 10.7651C90.0121 10.9844 89.8726 11.0222 89.7436 11.2214C89.6673 11.3424 89.6647 11.5416 89.5989 11.6349C89.4594 11.829 89.2567 11.8542 89.1199 12.0786C88.9883 12.2853 88.9383 12.661 88.9777 12.9005C89.0777 12.8954 89.3594 12.9811 89.4252 12.9559C89.6989 12.8601 89.5831 12.6357 89.7042 12.5223C89.8515 12.3887 90.1226 12.3988 90.2911 12.2475C90.449 12.1088 90.2963 11.9122 90.5543 11.8139C90.8464 10.4399 92.1413 8.94234 91.6413 7.3364C91.5781 7.12966 91.4412 7.10445 91.336 6.93806ZM82.4268 13.9114C82.1926 13.9467 81.9452 13.8963 81.7057 13.9165C81.6662 13.9921 81.6451 14.1232 81.6609 14.2089C81.6662 14.2341 82.311 14.6425 82.4268 14.6072C82.5979 14.5518 83.0532 14.2215 82.9716 13.9946C82.89 13.7652 82.6426 13.8786 82.4268 13.9114ZM85.0193 11.9954C84.9061 11.8441 84.7192 12.0332 84.7377 11.7382C83.9349 11.7206 83.2664 11.5012 82.5137 11.5668C82.1847 11.5945 81.8162 11.6147 81.5162 11.645C81.2556 11.6727 80.6055 11.5567 80.5108 11.771C80.3634 11.7382 80.1844 11.7105 80.0238 11.7382C80.0238 11.7912 80.0107 11.8492 80.0107 11.8996C79.658 12.0231 79.4553 11.9349 79.2816 12.3357C78.471 12.3786 78.8131 13.6467 78.8421 14.2089C78.929 14.2316 79.1053 14.2316 79.1921 14.2064C79.2343 14.1534 79.2843 14.1207 79.329 14.0753C79.4001 13.6417 79.9686 13.2232 80.2528 13.0038C81.0845 12.9786 81.9241 12.9937 82.79 12.9509C83.2375 12.9307 83.7007 12.8551 84.1455 12.9584C84.1481 13.0063 84.1639 13.0618 84.1692 13.1072C84.1692 13.1097 84.1692 13.1148 84.1692 13.1198C84.3034 13.0971 84.3955 13.1727 84.5087 13.1753C84.5271 13.2156 84.5166 13.2534 84.5245 13.2937C85.2693 13.1601 84.7008 14.1106 85.1904 14.1207C85.3641 14.1232 85.4746 13.3517 85.4693 13.2383C85.4614 12.8954 85.2746 12.6509 85.1614 12.3307C85.114 12.1946 85.0982 12.0987 85.0193 11.9954ZM59.1288 30.7851C58.8446 31.2893 58.7156 32.1995 59.0314 32.7339C59.5868 33.6693 60.3816 32.4289 60.6659 31.4482C60.758 31.123 60.7948 30.828 60.7501 30.649C60.4974 29.6834 59.4736 30.1675 59.1288 30.7851Z" fill="black" fill-opacity="0.25"/>
<path d="M44.792 55.7918C43.7023 57.5541 41.6889 61.371 40.3624 60.297C39.4754 59.5785 41.1125 56.3137 41.7942 55.333C42.4759 54.3548 44.0419 52.59 44.8604 52.9833C45.2999 53.1926 45.8842 54.0271 44.792 55.7918ZM47.9872 56.5885C47.9872 54.0321 48.103 51.5513 47.7029 50.2757C47.2765 48.9118 45.7237 48.3722 43.5997 49.9152C43.2233 50.19 42.8549 50.5933 42.4232 51.0244C40.4993 52.9985 37.2488 56.9793 36.6356 59.8659C36.6145 59.9693 36.6092 60.1004 36.6171 60.2517C36.225 60.7584 35.4354 60.9676 35.0143 60.713C34.4247 60.3525 34.0984 60.1508 34.3721 58.2524C34.5484 56.9717 34.4589 55.2901 34.48 54.0498C34.6405 51.1278 34.1036 50.2278 33.1956 50.3084C32.606 50.3589 32.5008 50.4622 32.0191 51.2312C31.5217 52.0253 31.1585 53.1043 31.0006 53.896C30.4715 56.6414 31.3138 60.2794 29.0213 59.9945C27.7922 59.8407 27.9712 58.2877 27.9528 56.9692C27.9317 56.1423 27.9317 55.4238 27.9528 54.4077C27.9712 53.2985 28.287 51.3673 28.3265 50.2555C28.366 49.5042 27.1474 48.6672 26.3604 48.6294C26.1841 48.6294 26.0288 48.6496 25.8709 48.705C25.3024 48.8739 24.8892 49.363 24.8681 49.9656C24.7918 52.0329 24.7313 54.5716 24.7707 56.6591C24.8102 60.0071 25.1445 62.3366 25.8104 63.4282C26.1657 64.0308 26.1867 64.6585 27.4711 64.8123C28.7555 64.9661 29.7162 63.6324 31.1085 62.4551C33.1956 64.8123 35.388 64.6081 37.3778 63.7509C37.7252 63.5997 38.0279 63.4005 38.2174 63.1257C38.6701 63.4358 39.2254 63.64 39.8965 63.6501C40.9572 63.6677 41.6942 63.161 42.3811 62.5585C43.068 61.9559 43.8234 60.7483 43.8471 60.9979C44.3366 66.03 48.5399 63.7635 48.7004 61.5425C48.7952 60.2239 47.9872 58.9987 47.9872 56.5885Z" fill="#C2C9D1"/>
<path d="M44.792 55.7918C43.7023 57.5541 41.6889 61.371 40.3624 60.297C39.4754 59.5785 41.1125 56.3137 41.7942 55.333C42.4759 54.3548 44.0419 52.59 44.8604 52.9833C45.2999 53.1926 45.8842 54.0271 44.792 55.7918ZM47.9872 56.5885C47.9872 54.0321 48.103 51.5513 47.7029 50.2757C47.2765 48.9118 45.7237 48.3722 43.5997 49.9152C43.2233 50.19 42.8549 50.5933 42.4232 51.0244C40.4993 52.9985 37.2488 56.9793 36.6356 59.8659C36.6145 59.9693 36.6092 60.1004 36.6171 60.2517C36.225 60.7584 35.4354 60.9676 35.0143 60.713C34.4247 60.3525 34.0984 60.1508 34.3721 58.2524C34.5484 56.9717 34.4589 55.2901 34.48 54.0498C34.6405 51.1278 34.1036 50.2278 33.1956 50.3084C32.606 50.3589 32.5008 50.4622 32.0191 51.2312C31.5217 52.0253 31.1585 53.1043 31.0006 53.896C30.4715 56.6414 31.3138 60.2794 29.0213 59.9945C27.7922 59.8407 27.9712 58.2877 27.9528 56.9692C27.9317 56.1423 27.9317 55.4238 27.9528 54.4077C27.9712 53.2985 28.287 51.3673 28.3265 50.2555C28.366 49.5042 27.1474 48.6672 26.3604 48.6294C26.1841 48.6294 26.0288 48.6496 25.8709 48.705C25.3024 48.8739 24.8892 49.363 24.8681 49.9656C24.7918 52.0329 24.7313 54.5716 24.7707 56.6591C24.8102 60.0071 25.1445 62.3366 25.8104 63.4282C26.1657 64.0308 26.1867 64.6585 27.4711 64.8123C28.7555 64.9661 29.7162 63.6324 31.1085 62.4551C33.1956 64.8123 35.388 64.6081 37.3778 63.7509C37.7252 63.5997 38.0279 63.4005 38.2174 63.1257C38.6701 63.4358 39.2254 63.64 39.8965 63.6501C40.9572 63.6677 41.6942 63.161 42.3811 62.5585C43.068 61.9559 43.8234 60.7483 43.8471 60.9979C44.3366 66.03 48.5399 63.7635 48.7004 61.5425C48.7952 60.2239 47.9872 58.9987 47.9872 56.5885Z" fill="black" fill-opacity="0.25"/>
<path d="M118.669 57.5489C118.248 57.3598 118.84 55.4009 119.819 54.4656C122.204 52.1815 123.438 51.3848 123.896 51.7151C124.356 52.0454 123.977 53.2933 122.288 54.6849C121.227 55.5698 119.09 57.738 118.669 57.5489ZM125.791 56.2833C126.988 55.0429 127.388 53.6412 127.344 51.768C127.286 49.3478 124.557 47.9536 121.082 49.4587C120.827 49.552 117.537 51.4806 115.968 54.3572C114.755 56.5808 115.026 59.175 115.105 59.475C115.792 62.6541 117.577 64.8677 124.643 64.3181C127.394 63.9046 126.894 60.6599 123.164 60.5062C121.09 60.4204 121.024 60.4658 119.922 60.365C120.548 60.0448 121.196 59.707 121.825 59.3313C123.317 58.4464 124.73 57.4128 125.791 56.2833Z" fill="#C2C9D1"/>
<path d="M118.669 57.5489C118.248 57.3598 118.84 55.4009 119.819 54.4656C122.204 52.1815 123.438 51.3848 123.896 51.7151C124.356 52.0454 123.977 53.2933 122.288 54.6849C121.227 55.5698 119.09 57.738 118.669 57.5489ZM125.791 56.2833C126.988 55.0429 127.388 53.6412 127.344 51.768C127.286 49.3478 124.557 47.9536 121.082 49.4587C120.827 49.552 117.537 51.4806 115.968 54.3572C114.755 56.5808 115.026 59.175 115.105 59.475C115.792 62.6541 117.577 64.8677 124.643 64.3181C127.394 63.9046 126.894 60.6599 123.164 60.5062C121.09 60.4204 121.024 60.4658 119.922 60.365C120.548 60.0448 121.196 59.707 121.825 59.3313C123.317 58.4464 124.73 57.4128 125.791 56.2833Z" fill="black" fill-opacity="0.25"/>
<path d="M91.3992 84.1924C90.9781 84.0033 91.5703 82.0444 92.5468 81.1091C94.934 78.8275 96.1683 78.0283 96.6289 78.3586C97.0869 78.6889 96.7079 79.9393 95.0182 81.331C93.9575 82.2159 91.8204 84.3815 91.3992 84.1924ZM98.5213 82.9293C99.7188 81.6864 100.119 80.2847 100.074 78.4141C100.016 75.9913 97.2869 74.5971 93.8127 76.1022C93.5574 76.1955 90.2649 78.1241 88.6989 81.0007C87.4829 83.2268 87.7566 85.8185 87.8356 86.1185C88.5225 89.2976 90.307 91.5137 97.3738 90.9616C100.122 90.5481 99.2688 87.606 97.2027 87.4396C95.134 87.2757 93.7548 87.1093 92.6494 87.0085C93.2785 86.6908 93.9259 86.3505 94.555 85.9748C96.0473 85.0899 97.4606 84.0563 98.5213 82.9293Z" fill="#C2C9D1"/>
<path d="M91.3992 84.1924C90.9781 84.0033 91.5703 82.0444 92.5468 81.1091C94.934 78.8275 96.1683 78.0283 96.6289 78.3586C97.0869 78.6889 96.7079 79.9393 95.0182 81.331C93.9575 82.2159 91.8204 84.3815 91.3992 84.1924ZM98.5213 82.9293C99.7188 81.6864 100.119 80.2847 100.074 78.4141C100.016 75.9913 97.2869 74.5971 93.8127 76.1022C93.5574 76.1955 90.2649 78.1241 88.6989 81.0007C87.4829 83.2268 87.7566 85.8185 87.8356 86.1185C88.5225 89.2976 90.307 91.5137 97.3738 90.9616C100.122 90.5481 99.2688 87.606 97.2027 87.4396C95.134 87.2757 93.7548 87.1093 92.6494 87.0085C93.2785 86.6908 93.9259 86.3505 94.555 85.9748C96.0473 85.0899 97.4606 84.0563 98.5213 82.9293Z" fill="black" fill-opacity="0.25"/>
<path d="M90.4358 53.8583C91.1464 53.6768 90.9543 55.2903 90.6726 56.3013C90.3884 57.3097 89.3067 58.9913 88.4434 60.0829C88.0117 60.6451 87.1643 61.3989 86.4984 61.3989C85.8351 61.3989 85.7877 59.5358 87.0195 57.3576C88.2118 55.2474 89.7225 54.0398 90.4358 53.8583ZM85.7088 64.8276C86.7695 64.8427 87.509 64.336 88.196 63.7335C88.8829 63.1309 89.6383 61.9233 89.662 62.1729C90.1515 67.2075 94.3547 64.9385 94.5153 62.7175C94.6074 61.3989 93.802 60.1737 93.802 57.766C93.802 55.2071 93.9178 52.7263 93.5178 51.4507C93.0914 50.0868 91.5359 49.5472 89.4146 51.0902C89.0382 51.365 88.6697 51.7683 88.2355 52.1994C86.3141 54.176 83.0637 58.1543 82.4504 61.0409C82.2636 61.9284 83.1426 64.7873 85.7088 64.8276Z" fill="#C2C9D1"/>
<path d="M90.4358 53.8583C91.1464 53.6768 90.9543 55.2903 90.6726 56.3013C90.3884 57.3097 89.3067 58.9913 88.4434 60.0829C88.0117 60.6451 87.1643 61.3989 86.4984 61.3989C85.8351 61.3989 85.7877 59.5358 87.0195 57.3576C88.2118 55.2474 89.7225 54.0398 90.4358 53.8583ZM85.7088 64.8276C86.7695 64.8427 87.509 64.336 88.196 63.7335C88.8829 63.1309 89.6383 61.9233 89.662 62.1729C90.1515 67.2075 94.3547 64.9385 94.5153 62.7175C94.6074 61.3989 93.802 60.1737 93.802 57.766C93.802 55.2071 93.9178 52.7263 93.5178 51.4507C93.0914 50.0868 91.5359 49.5472 89.4146 51.0902C89.0382 51.365 88.6697 51.7683 88.2355 52.1994C86.3141 54.176 83.0637 58.1543 82.4504 61.0409C82.2636 61.9284 83.1426 64.7873 85.7088 64.8276Z" fill="black" fill-opacity="0.25"/>
<path d="M27.0214 44.9083C28.3216 44.2654 27.84 42.2939 26.3266 42.0645C25.5765 41.9535 15.3882 44.5578 9.84269 47.084C7.52395 48.1403 9.07417 50.9085 10.8428 50.3059L18.4781 48.3042L18.4913 55.9456C18.5123 59.1424 17.9333 62.8433 15.7435 63.9753C11.4798 65.8056 6.89754 63.4459 4.50247 60.4937C3.59971 59.3819 0.812478 59.0743 0.615082 60.1659C0.615082 60.1659 0.138699 61.0811 1.63891 62.8433C2.68906 64.0787 6.18955 66.925 9.41105 67.6763C12.3351 68.3721 16.0383 68.0015 17.8254 66.6653C17.8622 66.6275 17.9412 66.572 18.0412 66.4964C19.8862 64.9938 21.1022 62.5459 21.6522 59.0113C22.1628 55.7944 22.755 52.1262 22.205 46.8218C22.205 46.8218 25.7239 45.5486 27.0214 44.9083Z" fill="#C2C9D1"/>
<path d="M27.0214 44.9083C28.3216 44.2654 27.84 42.2939 26.3266 42.0645C25.5765 41.9535 15.3882 44.5578 9.84269 47.084C7.52395 48.1403 9.07417 50.9085 10.8428 50.3059L18.4781 48.3042L18.4913 55.9456C18.5123 59.1424 17.9333 62.8433 15.7435 63.9753C11.4798 65.8056 6.89754 63.4459 4.50247 60.4937C3.59971 59.3819 0.812478 59.0743 0.615082 60.1659C0.615082 60.1659 0.138699 61.0811 1.63891 62.8433C2.68906 64.0787 6.18955 66.925 9.41105 67.6763C12.3351 68.3721 16.0383 68.0015 17.8254 66.6653C17.8622 66.6275 17.9412 66.572 18.0412 66.4964C19.8862 64.9938 21.1022 62.5459 21.6522 59.0113C22.1628 55.7944 22.755 52.1262 22.205 46.8218C22.205 46.8218 25.7239 45.5486 27.0214 44.9083Z" fill="black" fill-opacity="0.25"/>
<path d="M59.063 50.1221C56.9021 50.0187 55.444 52.4516 55.065 52.5045C54.6887 52.555 54.7413 50.7448 54.7413 50.7448C54.7624 49.991 53.8886 49.27 53.1042 49.2498C52.3199 49.2322 51.0829 50.0213 51.0618 51.3196C51.0618 51.3196 50.8276 60.7788 50.8513 61.9234C50.875 63.0679 51.1382 63.9932 52.6884 63.9932C54.6702 63.9755 54.3255 63.0654 54.4702 60.63C54.615 58.1921 55.1203 56.0744 56.7942 54.108C57.6154 53.1449 59.0445 53.8659 59.063 55.7643L58.7392 61.4065C58.7392 63.0654 59.1182 65.0798 60.9553 65.4428C61.9028 65.6294 63.1162 64.5781 63.1162 62.4931C63.1162 60.8368 62.1976 59.1275 62.145 52.7617C62.1345 51.4684 60.4184 50.1877 59.063 50.1221Z" fill="#C2C9D1"/>
<path d="M59.063 50.1221C56.9021 50.0187 55.444 52.4516 55.065 52.5045C54.6887 52.555 54.7413 50.7448 54.7413 50.7448C54.7624 49.991 53.8886 49.27 53.1042 49.2498C52.3199 49.2322 51.0829 50.0213 51.0618 51.3196C51.0618 51.3196 50.8276 60.7788 50.8513 61.9234C50.875 63.0679 51.1382 63.9932 52.6884 63.9932C54.6702 63.9755 54.3255 63.0654 54.4702 60.63C54.615 58.1921 55.1203 56.0744 56.7942 54.108C57.6154 53.1449 59.0445 53.8659 59.063 55.7643L58.7392 61.4065C58.7392 63.0654 59.1182 65.0798 60.9553 65.4428C61.9028 65.6294 63.1162 64.5781 63.1162 62.4931C63.1162 60.8368 62.1976 59.1275 62.145 52.7617C62.1345 51.4684 60.4184 50.1877 59.063 50.1221Z" fill="black" fill-opacity="0.25"/>
<path d="M105.496 61.1293C105.377 61.2402 103.58 62.9319 102.982 63.3882C100.929 64.9614 100.329 63.6277 101.135 62.405C101.922 61.4293 104.875 58.462 105.188 58.1796C106.425 57.0527 107.651 55.8703 108.317 56.1653C109.754 56.8535 106.733 60.0377 105.496 61.1293ZM114.473 64.1748C113.689 61.994 113.089 57.7863 113.036 54.7408C113.015 53.3643 113.576 49.9482 113.755 46.338C113.858 44.2732 112.713 43.8699 111.907 43.832C111.123 43.7942 110.497 44.1195 110.37 44.8632C109.344 50.9088 112.268 51.4483 107.412 53.7828C106.722 54.1156 105.999 54.5543 105.272 55.061C104.33 55.7014 103.167 56.8989 102.264 57.688C101.458 58.404 100.435 59.541 100.248 59.425C100.058 59.3116 100.214 45.5514 100.214 45.5514C100.214 44.7976 99.3556 44.422 98.5712 44.422C97.7659 44.422 96.6736 45.1909 96.6736 45.9447L96.5183 60.8343C96.5183 61.2301 96.6604 62.352 97.1868 62.4554C97.3553 62.4882 97.6474 62.8008 97.3579 64.374C97.2026 65.2261 97.5474 66.1387 98.0054 66.4841C98.5291 66.8825 99.0318 67.6413 100.264 67.664C102.83 67.7119 106.333 64.2807 107.138 63.5849C108.315 62.5336 109.446 60.4889 110.112 60.441C110.349 62.0394 110.699 63.7538 111.191 65.1101C111.447 65.8236 112.189 66.1891 112.934 65.9446C113.681 65.6799 114.729 64.8883 114.473 64.1748Z" fill="#C2C9D1"/>
<path d="M105.496 61.1293C105.377 61.2402 103.58 62.9319 102.982 63.3882C100.929 64.9614 100.329 63.6277 101.135 62.405C101.922 61.4293 104.875 58.462 105.188 58.1796C106.425 57.0527 107.651 55.8703 108.317 56.1653C109.754 56.8535 106.733 60.0377 105.496 61.1293ZM114.473 64.1748C113.689 61.994 113.089 57.7863 113.036 54.7408C113.015 53.3643 113.576 49.9482 113.755 46.338C113.858 44.2732 112.713 43.8699 111.907 43.832C111.123 43.7942 110.497 44.1195 110.37 44.8632C109.344 50.9088 112.268 51.4483 107.412 53.7828C106.722 54.1156 105.999 54.5543 105.272 55.061C104.33 55.7014 103.167 56.8989 102.264 57.688C101.458 58.404 100.435 59.541 100.248 59.425C100.058 59.3116 100.214 45.5514 100.214 45.5514C100.214 44.7976 99.3556 44.422 98.5712 44.422C97.7659 44.422 96.6736 45.1909 96.6736 45.9447L96.5183 60.8343C96.5183 61.2301 96.6604 62.352 97.1868 62.4554C97.3553 62.4882 97.6474 62.8008 97.3579 64.374C97.2026 65.2261 97.5474 66.1387 98.0054 66.4841C98.5291 66.8825 99.0318 67.6413 100.264 67.664C102.83 67.7119 106.333 64.2807 107.138 63.5849C108.315 62.5336 109.446 60.4889 110.112 60.441C110.349 62.0394 110.699 63.7538 111.191 65.1101C111.447 65.8236 112.189 66.1891 112.934 65.9446C113.681 65.6799 114.729 64.8883 114.473 64.1748Z" fill="black" fill-opacity="0.25"/>
<path d="M82.8346 45.0797C82.8346 45.0797 81.7029 47.5453 80.4711 51.0017C78.5893 56.2809 76.6469 63.1156 76.2732 63.1105C75.6547 63.1055 75.1993 60.9273 75.1993 60.9273L70.5382 45.8637C69.6538 43.688 66.3823 43.862 66.5639 47.3461C66.706 50.0538 68.4721 53.0917 70.1091 57.5314C71.7462 61.9735 74.0176 66.5871 74.0176 66.5871C74.8414 68.657 77.6102 68.2435 78.1998 66.5871C78.1998 66.5871 79.6526 62.4954 81.4713 57.4456C83.2899 52.3959 85.6534 46.91 85.6534 46.91C86.5615 44.0359 83.5637 42.9039 82.8346 45.0797Z" fill="#C2C9D1"/>
<path d="M82.8346 45.0797C82.8346 45.0797 81.7029 47.5453 80.4711 51.0017C78.5893 56.2809 76.6469 63.1156 76.2732 63.1105C75.6547 63.1055 75.1993 60.9273 75.1993 60.9273L70.5382 45.8637C69.6538 43.688 66.3823 43.862 66.5639 47.3461C66.706 50.0538 68.4721 53.0917 70.1091 57.5314C71.7462 61.9735 74.0176 66.5871 74.0176 66.5871C74.8414 68.657 77.6102 68.2435 78.1998 66.5871C78.1998 66.5871 79.6526 62.4954 81.4713 57.4456C83.2899 52.3959 85.6534 46.91 85.6534 46.91C86.5615 44.0359 83.5637 42.9039 82.8346 45.0797Z" fill="black" fill-opacity="0.25"/>
<path d="M148.883 57.6759C146.986 57.6432 135.96 62.7559 135.476 62.3248C135.347 62.1711 145.346 54.9935 145.346 54.9935C145.759 54.6557 146.696 53.8237 146.696 52.7774C146.696 51.7312 145.956 50.6093 143.867 50.869C140.653 51.2698 133.452 53.4254 131.554 54.164C129.657 54.9027 129.207 55.4574 129.207 56.0725C129.207 56.6877 129.399 58.1978 130.975 58.1045C132.552 58.0138 138.305 55.2103 139.271 55.3943C139.99 55.533 130.944 61.924 127.888 64.1425C125.477 65.9577 127.993 68.5696 129.786 67.9923C132.936 66.9763 136.697 65.1888 140.716 63.835C144.735 62.4786 149.654 60.971 149.654 60.971C150.244 60.7618 150.968 60.2273 151.005 59.123C151.044 58.0163 150.362 57.6986 148.883 57.6759Z" fill="#C2C9D1"/>
<path d="M148.883 57.6759C146.986 57.6432 135.96 62.7559 135.476 62.3248C135.347 62.1711 145.346 54.9935 145.346 54.9935C145.759 54.6557 146.696 53.8237 146.696 52.7774C146.696 51.7312 145.956 50.6093 143.867 50.869C140.653 51.2698 133.452 53.4254 131.554 54.164C129.657 54.9027 129.207 55.4574 129.207 56.0725C129.207 56.6877 129.399 58.1978 130.975 58.1045C132.552 58.0138 138.305 55.2103 139.271 55.3943C139.99 55.533 130.944 61.924 127.888 64.1425C125.477 65.9577 127.993 68.5696 129.786 67.9923C132.936 66.9763 136.697 65.1888 140.716 63.835C144.735 62.4786 149.654 60.971 149.654 60.971C150.244 60.7618 150.968 60.2273 151.005 59.123C151.044 58.0163 150.362 57.6986 148.883 57.6759Z" fill="black" fill-opacity="0.25"/>
<path d="M72.6437 86.3207C71.1935 86.2879 70.4566 87.3871 69.3354 87.5938C66.8219 88.0274 64.2952 88.0753 62.6081 87.4703C60.4262 86.661 59.2813 85.3979 58.5233 83.6861C57.5416 81.4726 57.7548 79.2011 58.1443 77.522C58.597 75.5707 59.4287 73.3547 60.7473 71.9882C62.1686 70.5083 65.8402 69.4671 67.1561 69.4343C68.4721 69.4016 68.6932 69.873 69.7986 69.8402C70.9014 69.8049 71.1778 69.2453 71.2462 68.7889C71.312 68.3301 70.1539 66.3057 66.814 66.3057C64.3584 66.3057 59.5866 67.2864 57.4048 70.0924C55.2229 72.9009 53.7911 75.9716 53.8595 80.149C53.8595 82.5667 55.2913 87.7905 58.7681 89.4872C62.2449 91.1864 65.2953 93.3066 71.3988 90.7452C75.252 89.1292 74.0913 86.3534 72.6437 86.3207Z" fill="#C2C9D1"/>
<path d="M72.6437 86.3207C71.1935 86.2879 70.4566 87.3871 69.3354 87.5938C66.8219 88.0274 64.2952 88.0753 62.6081 87.4703C60.4262 86.661 59.2813 85.3979 58.5233 83.6861C57.5416 81.4726 57.7548 79.2011 58.1443 77.522C58.597 75.5707 59.4287 73.3547 60.7473 71.9882C62.1686 70.5083 65.8402 69.4671 67.1561 69.4343C68.4721 69.4016 68.6932 69.873 69.7986 69.8402C70.9014 69.8049 71.1778 69.2453 71.2462 68.7889C71.312 68.3301 70.1539 66.3057 66.814 66.3057C64.3584 66.3057 59.5866 67.2864 57.4048 70.0924C55.2229 72.9009 53.7911 75.9716 53.8595 80.149C53.8595 82.5667 55.2913 87.7905 58.7681 89.4872C62.2449 91.1864 65.2953 93.3066 71.3988 90.7452C75.252 89.1292 74.0913 86.3534 72.6437 86.3207Z" fill="black" fill-opacity="0.25"/>
<path d="M73.9282 76.2206C73.644 77.2316 72.5622 78.9106 71.6989 80.0023C71.2673 80.567 70.4198 81.3183 69.7539 81.3183C69.0907 81.3183 69.0433 79.4577 70.2777 77.277C71.47 75.1668 72.9807 73.9592 73.6913 73.7777C74.402 73.5962 74.2125 75.2097 73.9282 76.2206ZM85.1035 66.2623C83.7401 66.2926 82.5557 66.706 81.653 67.4598C80.0054 68.8137 79.4184 71.0221 79.5185 74.8592C79.5185 74.8592 79.9712 78.2552 79.4711 78.5602C78.971 78.8653 77.4261 79.3443 77.1997 79.1275C76.9734 78.9081 77.0602 78.4115 77.0602 77.6854C77.0602 75.1265 77.1734 72.6457 76.7733 71.3726C76.347 70.0087 74.7915 69.4666 72.6701 71.012C72.2938 71.2843 71.9253 71.6877 71.4937 72.1213C69.5697 74.0954 66.3192 78.0736 65.706 80.9628C65.5191 81.8477 66.4008 84.7066 68.967 84.747C70.025 84.7621 70.7646 84.2554 71.4515 83.6528C72.1385 83.0528 72.5596 82.1956 72.7807 82.2057C73.3939 82.2385 73.086 85.1781 75.4047 85.2109C76.8444 85.231 77.5524 83.5545 77.7235 83.1209C77.9261 82.599 78.9157 82.3368 79.1553 82.4679C79.3921 82.599 79.2895 87.0714 79.5974 88.932C79.8685 90.5858 80.8555 92.0203 81.7793 92.0002C82.7005 91.9825 84.0849 90.6917 83.9612 89.4539C83.7559 87.432 82.9031 85.047 82.9031 81.457C82.9031 81.2805 85.972 80.5418 86.9248 80.2468C87.8802 79.9544 88.7329 78.9737 88.7671 77.9299C88.7934 77.1131 88.0144 76.4047 87.1985 76.3618C85.9378 76.2963 84.3349 77.7661 83.04 77.4711C82.7268 77.4005 82.8347 75.0231 82.8347 75.0231C82.7768 72.202 83.0558 69.9154 85.1087 69.4616C86.2905 69.1994 87.2432 70.8104 88.425 70.8104C89.4699 70.8104 89.8752 69.7137 89.7436 68.9826C89.4251 67.1976 86.4668 66.2346 85.1035 66.2623Z" fill="#C2C9D1"/>
<path d="M73.9282 76.2206C73.644 77.2316 72.5622 78.9106 71.6989 80.0023C71.2673 80.567 70.4198 81.3183 69.7539 81.3183C69.0907 81.3183 69.0433 79.4577 70.2777 77.277C71.47 75.1668 72.9807 73.9592 73.6913 73.7777C74.402 73.5962 74.2125 75.2097 73.9282 76.2206ZM85.1035 66.2623C83.7401 66.2926 82.5557 66.706 81.653 67.4598C80.0054 68.8137 79.4184 71.0221 79.5185 74.8592C79.5185 74.8592 79.9712 78.2552 79.4711 78.5602C78.971 78.8653 77.4261 79.3443 77.1997 79.1275C76.9734 78.9081 77.0602 78.4115 77.0602 77.6854C77.0602 75.1265 77.1734 72.6457 76.7733 71.3726C76.347 70.0087 74.7915 69.4666 72.6701 71.012C72.2938 71.2843 71.9253 71.6877 71.4937 72.1213C69.5697 74.0954 66.3192 78.0736 65.706 80.9628C65.5191 81.8477 66.4008 84.7066 68.967 84.747C70.025 84.7621 70.7646 84.2554 71.4515 83.6528C72.1385 83.0528 72.5596 82.1956 72.7807 82.2057C73.3939 82.2385 73.086 85.1781 75.4047 85.2109C76.8444 85.231 77.5524 83.5545 77.7235 83.1209C77.9261 82.599 78.9157 82.3368 79.1553 82.4679C79.3921 82.599 79.2895 87.0714 79.5974 88.932C79.8685 90.5858 80.8555 92.0203 81.7793 92.0002C82.7005 91.9825 84.0849 90.6917 83.9612 89.4539C83.7559 87.432 82.9031 85.047 82.9031 81.457C82.9031 81.2805 85.972 80.5418 86.9248 80.2468C87.8802 79.9544 88.7329 78.9737 88.7671 77.9299C88.7934 77.1131 88.0144 76.4047 87.1985 76.3618C85.9378 76.2963 84.3349 77.7661 83.04 77.4711C82.7268 77.4005 82.8347 75.0231 82.8347 75.0231C82.7768 72.202 83.0558 69.9154 85.1087 69.4616C86.2905 69.1994 87.2432 70.8104 88.425 70.8104C89.4699 70.8104 89.8752 69.7137 89.7436 68.9826C89.4251 67.1976 86.4668 66.2346 85.1035 66.2623Z" fill="black" fill-opacity="0.25"/>
<path d="M97.8343 68.9395C97.2052 68.2991 95.9761 68.9471 95.2892 69.5471L93.2889 71.3774C92.602 71.9799 92.6599 72.7211 93.2889 73.3791C93.9153 74.0372 95.0549 73.5884 95.7419 72.9884L97.7869 71.0295C98.4765 70.4269 98.4423 69.5975 97.8343 68.9395Z" fill="#C2C9D1"/>
<path d="M97.8343 68.9395C97.2052 68.2991 95.9761 68.9471 95.2892 69.5471L93.2889 71.3774C92.602 71.9799 92.6599 72.7211 93.2889 73.3791C93.9153 74.0372 95.0549 73.5884 95.7419 72.9884L97.7869 71.0295C98.4765 70.4269 98.4423 69.5975 97.8343 68.9395Z" fill="black" fill-opacity="0.25"/>
<path d="M101.327 88.8338H101.45C101.627 88.8338 101.74 88.8287 101.782 88.8136C101.824 88.801 101.858 88.7783 101.882 88.7455C101.908 88.7128 101.921 88.675 101.921 88.6346C101.921 88.5918 101.908 88.5565 101.885 88.5262C101.858 88.4934 101.824 88.4707 101.782 88.4581C101.737 88.443 101.627 88.4354 101.45 88.4354H101.327V88.8338ZM101.019 89.6607V88.206H101.327C101.614 88.206 101.774 88.206 101.811 88.2085C101.911 88.2186 101.993 88.2363 102.048 88.2665C102.103 88.2993 102.15 88.3447 102.19 88.4077C102.227 88.4707 102.245 88.5388 102.245 88.6144C102.245 88.7203 102.211 88.8111 102.14 88.8842C102.069 88.9598 101.966 89.0052 101.837 89.0229C101.885 89.0405 101.919 89.0582 101.945 89.0783C101.969 89.0985 102.003 89.1363 102.048 89.1893C102.058 89.2044 102.095 89.2649 102.158 89.3683L102.337 89.6607H101.956L101.829 89.4237C101.745 89.2649 101.674 89.1666 101.619 89.1237C101.564 89.0834 101.492 89.0632 101.406 89.0632H101.327V89.6607H101.019ZM101.664 87.8279C101.469 87.8279 101.279 87.8732 101.1 87.9665C100.919 88.0623 100.779 88.1959 100.674 88.3724C100.569 88.5489 100.519 88.7355 100.519 88.9271C100.519 89.1187 100.569 89.3027 100.671 89.4767C100.771 89.6506 100.913 89.7868 101.095 89.8826C101.277 89.9809 101.466 90.0313 101.664 90.0313C101.866 90.0313 102.056 89.9809 102.237 89.8826C102.416 89.7868 102.558 89.6506 102.661 89.4767C102.761 89.3027 102.814 89.1187 102.814 88.9271C102.814 88.7355 102.761 88.5489 102.658 88.3724C102.553 88.1959 102.411 88.0623 102.229 87.9665C102.048 87.8732 101.861 87.8279 101.664 87.8279ZM101.661 87.5581C101.908 87.5581 102.143 87.6186 102.366 87.7346C102.59 87.8531 102.769 88.0195 102.895 88.2388C103.027 88.4581 103.09 88.6876 103.09 88.9271C103.09 89.1666 103.027 89.3935 102.901 89.6078C102.774 89.8246 102.598 89.9935 102.374 90.1145C102.148 90.2355 101.911 90.296 101.661 90.296C101.413 90.296 101.177 90.2355 100.953 90.1145C100.727 89.9935 100.55 89.8246 100.424 89.6078C100.298 89.3935 100.234 89.1666 100.234 88.9271C100.234 88.6876 100.3 88.4581 100.427 88.2388C100.555 88.0195 100.732 87.8531 100.958 87.7346C101.182 87.6186 101.419 87.5581 101.661 87.5581Z" fill="#C2C9D1"/>
<path d="M101.327 88.8338H101.45C101.627 88.8338 101.74 88.8287 101.782 88.8136C101.824 88.801 101.858 88.7783 101.882 88.7455C101.908 88.7128 101.921 88.675 101.921 88.6346C101.921 88.5918 101.908 88.5565 101.885 88.5262C101.858 88.4934 101.824 88.4707 101.782 88.4581C101.737 88.443 101.627 88.4354 101.45 88.4354H101.327V88.8338ZM101.019 89.6607V88.206H101.327C101.614 88.206 101.774 88.206 101.811 88.2085C101.911 88.2186 101.993 88.2363 102.048 88.2665C102.103 88.2993 102.15 88.3447 102.19 88.4077C102.227 88.4707 102.245 88.5388 102.245 88.6144C102.245 88.7203 102.211 88.8111 102.14 88.8842C102.069 88.9598 101.966 89.0052 101.837 89.0229C101.885 89.0405 101.919 89.0582 101.945 89.0783C101.969 89.0985 102.003 89.1363 102.048 89.1893C102.058 89.2044 102.095 89.2649 102.158 89.3683L102.337 89.6607H101.956L101.829 89.4237C101.745 89.2649 101.674 89.1666 101.619 89.1237C101.564 89.0834 101.492 89.0632 101.406 89.0632H101.327V89.6607H101.019ZM101.664 87.8279C101.469 87.8279 101.279 87.8732 101.1 87.9665C100.919 88.0623 100.779 88.1959 100.674 88.3724C100.569 88.5489 100.519 88.7355 100.519 88.9271C100.519 89.1187 100.569 89.3027 100.671 89.4767C100.771 89.6506 100.913 89.7868 101.095 89.8826C101.277 89.9809 101.466 90.0313 101.664 90.0313C101.866 90.0313 102.056 89.9809 102.237 89.8826C102.416 89.7868 102.558 89.6506 102.661 89.4767C102.761 89.3027 102.814 89.1187 102.814 88.9271C102.814 88.7355 102.761 88.5489 102.658 88.3724C102.553 88.1959 102.411 88.0623 102.229 87.9665C102.048 87.8732 101.861 87.8279 101.664 87.8279ZM101.661 87.5581C101.908 87.5581 102.143 87.6186 102.366 87.7346C102.59 87.8531 102.769 88.0195 102.895 88.2388C103.027 88.4581 103.09 88.6876 103.09 88.9271C103.09 89.1666 103.027 89.3935 102.901 89.6078C102.774 89.8246 102.598 89.9935 102.374 90.1145C102.148 90.2355 101.911 90.296 101.661 90.296C101.413 90.296 101.177 90.2355 100.953 90.1145C100.727 89.9935 100.55 89.8246 100.424 89.6078C100.298 89.3935 100.234 89.1666 100.234 88.9271C100.234 88.6876 100.3 88.4581 100.427 88.2388C100.555 88.0195 100.732 87.8531 100.958 87.7346C101.182 87.6186 101.419 87.5581 101.661 87.5581Z" fill="black" fill-opacity="0.25"/>
</svg>
