<svg width="91" height="82" viewBox="0 0 91 82" fill="none" xmlns="http://www.w3.org/2000/svg">
<path fill-rule="evenodd" clip-rule="evenodd" d="M27.5257 68.8323H25.5707L24.3672 79.0075H23.916L22.4117 68.8323H19.4031L18.0492 79.0075H17.7484L16.2446 68.8323H14.2896L16.0948 82H19.4036L20.9074 71.6746H21.0578L22.4117 82H25.871L27.5257 68.8323ZM30.5337 82H32.6397V77.0621H36.8517V82H38.9572V68.9815H36.8512V73.9194H32.6392V68.9815H30.5332L30.5337 82ZM50.0873 74.9669C50.0873 71.076 48.2827 68.6816 44.9732 68.6816C41.3629 68.6816 39.8592 71.076 39.8592 74.9669C39.8592 78.558 41.0626 82 44.9732 82C48.7334 82 50.0873 78.558 50.0873 74.9669ZM50.9898 82H57.0064V79.007H53.0953V68.8318H50.9898V82ZM71.4454 68.9815H67.5353L64.6772 82H66.9331L67.3844 79.6056H71.5958L72.0471 82H74.1536L71.4454 68.9815ZM68.8886 71.8254H70.0926L71.1456 77.511H67.6858L68.8886 71.8254ZM13.3871 82V79.007H9.02517V76.4635H13.3871V74.6676H9.02517V71.8254H13.3871V68.8323H6.91917V79.3057L3.30943 68.8323H0V82H2.106L1.95557 71.6746L5.71574 82H13.3871ZM57.909 82H63.9245V79.007H60.0145V68.8318H57.909V82ZM82.2751 79.3057L78.5155 68.8323H75.2061V82H77.3126L77.1617 71.6746L80.9224 82H85.735C90.0974 82 91 79.7547 91 74.8168C90.849 70.7778 89.6461 68.8323 85.735 68.8323H82.1253V74.8168L82.2751 79.3057ZM84.3817 71.6746H85.886C88.1419 71.6746 89.1943 72.4234 89.1943 75.4159V75.2657C89.1943 78.2587 88.1413 79.1566 85.886 79.007H84.3817V71.6746ZM48.1317 74.9669C48.1317 76.9124 47.9818 79.1566 44.9732 79.1566C41.9652 79.1566 41.6643 76.9124 41.6643 74.9669C41.6643 73.1711 42.5669 71.6746 44.9732 71.6746C47.3801 71.6746 48.1317 73.1711 48.1317 74.9669ZM16.9968 26.4855C16.9968 25.5876 17.5985 24.989 18.0498 25.4379C23.4647 30.8248 43.4695 45.4895 43.3191 58.3573C43.1686 59.105 42.5669 59.554 41.8148 59.554C26.924 58.507 14.7404 52.6717 16.9968 26.4855ZM63.3233 3.59162C59.1119 1.34686 54.75 0.299844 49.4855 0C48.4325 0 47.9813 0.748254 47.8314 1.64616C47.3801 8.37991 47.53 12.1206 47.3801 18.7042C47.2291 19.7517 47.9818 21.0986 49.1852 19.6021C54.7495 14.2152 57.909 11.2227 63.4732 5.83584C64.3763 5.08813 64.076 3.89092 63.3233 3.59162ZM27.2248 3.59162C31.5867 1.34686 35.9486 0.299844 41.2131 0C42.2661 0 42.7174 0.748254 42.8678 1.64616C43.3191 8.37991 43.1686 12.1206 43.3191 18.7042C43.4695 19.7517 42.7173 21.0986 41.3635 19.6021C35.7987 14.2152 32.6397 11.2227 27.2254 5.83584C26.1718 5.08813 26.6231 3.89092 27.2248 3.59162ZM66.7832 7.78185C56.2537 17.8068 46.9288 24.54 47.3801 42.4971C47.3801 43.2448 47.9818 43.9936 49.0343 43.0957C57.758 34.5661 62.7216 29.9275 71.5958 21.3984C72.9497 20.0516 73.2511 18.8544 72.7998 16.7593C71.8972 13.0185 71.1456 11.3724 68.8886 8.37991C68.2875 7.78185 67.6858 7.482 66.7832 7.78185ZM23.916 7.78185C34.4443 17.8068 43.7703 24.5406 43.3191 42.4971C43.3191 43.2448 42.7174 43.9936 41.6643 43.0957C32.94 34.5656 27.977 29.9275 19.1028 21.3984C17.7489 20.0516 17.4481 18.8544 17.8994 16.7593C18.8019 13.0185 19.5541 11.3724 21.81 8.37991C22.4117 7.78185 23.0134 7.482 23.916 7.78185ZM73.8522 26.4855C73.8522 25.5876 73.401 24.989 72.7992 25.4379C67.5353 30.8248 47.3795 45.4895 47.53 58.3573C47.6799 59.105 48.4325 59.554 49.1852 59.554C63.925 58.507 76.1081 52.6717 73.8522 26.4855Z" fill="#C2C9D1"/>
<path fill-rule="evenodd" clip-rule="evenodd" d="M27.5257 68.8323H25.5707L24.3672 79.0075H23.916L22.4117 68.8323H19.4031L18.0492 79.0075H17.7484L16.2446 68.8323H14.2896L16.0948 82H19.4036L20.9074 71.6746H21.0578L22.4117 82H25.871L27.5257 68.8323ZM30.5337 82H32.6397V77.0621H36.8517V82H38.9572V68.9815H36.8512V73.9194H32.6392V68.9815H30.5332L30.5337 82ZM50.0873 74.9669C50.0873 71.076 48.2827 68.6816 44.9732 68.6816C41.3629 68.6816 39.8592 71.076 39.8592 74.9669C39.8592 78.558 41.0626 82 44.9732 82C48.7334 82 50.0873 78.558 50.0873 74.9669ZM50.9898 82H57.0064V79.007H53.0953V68.8318H50.9898V82ZM71.4454 68.9815H67.5353L64.6772 82H66.9331L67.3844 79.6056H71.5958L72.0471 82H74.1536L71.4454 68.9815ZM68.8886 71.8254H70.0926L71.1456 77.511H67.6858L68.8886 71.8254ZM13.3871 82V79.007H9.02517V76.4635H13.3871V74.6676H9.02517V71.8254H13.3871V68.8323H6.91917V79.3057L3.30943 68.8323H0V82H2.106L1.95557 71.6746L5.71574 82H13.3871ZM57.909 82H63.9245V79.007H60.0145V68.8318H57.909V82ZM82.2751 79.3057L78.5155 68.8323H75.2061V82H77.3126L77.1617 71.6746L80.9224 82H85.735C90.0974 82 91 79.7547 91 74.8168C90.849 70.7778 89.6461 68.8323 85.735 68.8323H82.1253V74.8168L82.2751 79.3057ZM84.3817 71.6746H85.886C88.1419 71.6746 89.1943 72.4234 89.1943 75.4159V75.2657C89.1943 78.2587 88.1413 79.1566 85.886 79.007H84.3817V71.6746ZM48.1317 74.9669C48.1317 76.9124 47.9818 79.1566 44.9732 79.1566C41.9652 79.1566 41.6643 76.9124 41.6643 74.9669C41.6643 73.1711 42.5669 71.6746 44.9732 71.6746C47.3801 71.6746 48.1317 73.1711 48.1317 74.9669ZM16.9968 26.4855C16.9968 25.5876 17.5985 24.989 18.0498 25.4379C23.4647 30.8248 43.4695 45.4895 43.3191 58.3573C43.1686 59.105 42.5669 59.554 41.8148 59.554C26.924 58.507 14.7404 52.6717 16.9968 26.4855ZM63.3233 3.59162C59.1119 1.34686 54.75 0.299844 49.4855 0C48.4325 0 47.9813 0.748254 47.8314 1.64616C47.3801 8.37991 47.53 12.1206 47.3801 18.7042C47.2291 19.7517 47.9818 21.0986 49.1852 19.6021C54.7495 14.2152 57.909 11.2227 63.4732 5.83584C64.3763 5.08813 64.076 3.89092 63.3233 3.59162ZM27.2248 3.59162C31.5867 1.34686 35.9486 0.299844 41.2131 0C42.2661 0 42.7174 0.748254 42.8678 1.64616C43.3191 8.37991 43.1686 12.1206 43.3191 18.7042C43.4695 19.7517 42.7173 21.0986 41.3635 19.6021C35.7987 14.2152 32.6397 11.2227 27.2254 5.83584C26.1718 5.08813 26.6231 3.89092 27.2248 3.59162ZM66.7832 7.78185C56.2537 17.8068 46.9288 24.54 47.3801 42.4971C47.3801 43.2448 47.9818 43.9936 49.0343 43.0957C57.758 34.5661 62.7216 29.9275 71.5958 21.3984C72.9497 20.0516 73.2511 18.8544 72.7998 16.7593C71.8972 13.0185 71.1456 11.3724 68.8886 8.37991C68.2875 7.78185 67.6858 7.482 66.7832 7.78185ZM23.916 7.78185C34.4443 17.8068 43.7703 24.5406 43.3191 42.4971C43.3191 43.2448 42.7174 43.9936 41.6643 43.0957C32.94 34.5656 27.977 29.9275 19.1028 21.3984C17.7489 20.0516 17.4481 18.8544 17.8994 16.7593C18.8019 13.0185 19.5541 11.3724 21.81 8.37991C22.4117 7.78185 23.0134 7.482 23.916 7.78185ZM73.8522 26.4855C73.8522 25.5876 73.401 24.989 72.7992 25.4379C67.5353 30.8248 47.3795 45.4895 47.53 58.3573C47.6799 59.105 48.4325 59.554 49.1852 59.554C63.925 58.507 76.1081 52.6717 73.8522 26.4855Z" fill="black" fill-opacity="0.25"/>
</svg>
