<svg width="150" height="75" viewBox="0 0 150 75" fill="none" xmlns="http://www.w3.org/2000/svg">
<path d="M35.4833 38.9861H45.8359L61.0903 0H51.4759L44.6255 17.4849L45.8062 0H35.5771L20.3235 38.9861H29.937L36.66 21.7378L35.4833 38.9861Z" fill="#C2C9D1"/>
<path d="M35.4833 38.9861H45.8359L61.0903 0H51.4759L44.6255 17.4849L45.8062 0H35.5771L20.3235 38.9861H29.937L36.66 21.7378L35.4833 38.9861Z" fill="black" fill-opacity="0.25"/>
<path d="M62.3375 0L47.0848 38.9861H56.6983L71.9511 0H62.3375Z" fill="#C2C9D1"/>
<path d="M62.3375 0L47.0848 38.9861H56.6983L71.9511 0H62.3375Z" fill="black" fill-opacity="0.25"/>
<path fill-rule="evenodd" clip-rule="evenodd" d="M19.2149 25.5482C5.78096 40.6704 -6.89147 60.7916 4.30201 70.0573C15.0531 78.9576 28.4678 73.8124 37.7052 70.2695L37.9498 70.1757C47.1938 66.6312 149.368 24.1006 149.368 24.1006C150.354 23.628 150.169 23.0372 148.936 23.3322C148.727 23.3824 128.93 28.5227 106.096 34.453L107.229 31.4254H96.0142L99.6991 21.9745H108.942L111.786 14.7088H102.543L105.712 6.49807H115.447L118.031 0H88.6972L78.6252 11.6961L83.2752 0H73.5382L58.4073 38.9861H68.0209L74.4809 22.6829L74.9234 38.9861L88.7528 38.9573C62.5474 45.7637 37.7037 52.2174 37.7037 52.2174C23.6517 55.9985 7.62944 47.7578 19.2149 25.5482ZM84.4608 36.3867L83.8444 16.0673L98.3797 0.769903L84.4608 36.3867Z" fill="#C2C9D1"/>
<path fill-rule="evenodd" clip-rule="evenodd" d="M19.2149 25.5482C5.78096 40.6704 -6.89147 60.7916 4.30201 70.0573C15.0531 78.9576 28.4678 73.8124 37.7052 70.2695L37.9498 70.1757C47.1938 66.6312 149.368 24.1006 149.368 24.1006C150.354 23.628 150.169 23.0372 148.936 23.3322C148.727 23.3824 128.93 28.5227 106.096 34.453L107.229 31.4254H96.0142L99.6991 21.9745H108.942L111.786 14.7088H102.543L105.712 6.49807H115.447L118.031 0H88.6972L78.6252 11.6961L83.2752 0H73.5382L58.4073 38.9861H68.0209L74.4809 22.6829L74.9234 38.9861L88.7528 38.9573C62.5474 45.7637 37.7037 52.2174 37.7037 52.2174C23.6517 55.9985 7.62944 47.7578 19.2149 25.5482ZM84.4608 36.3867L83.8444 16.0673L98.3797 0.769903L84.4608 36.3867Z" fill="black" fill-opacity="0.25"/>
</svg>
