<svg width="91" height="67" viewBox="0 0 91 67" fill="none" xmlns="http://www.w3.org/2000/svg">
<path fill-rule="evenodd" clip-rule="evenodd" d="M90.8462 26.9275C90.0007 22.1507 83.737 21.688 79.6651 22.4274C75.5927 23.1667 70.5826 25.2929 65.4778 27.6357C63.519 28.5345 61.2516 29.7192 59.066 30.9007C57.3547 30.6037 55.69 30.3785 54.2635 30.3785C50.8503 30.3785 47.9693 31.581 46.4341 32.197C44.8999 32.8135 44.4292 33.3368 44.555 33.6461C44.6803 33.9543 45.557 33.7994 46.9974 33.3062C48.4384 32.8135 49.6604 32.2887 52.9168 31.9504C54.0264 31.8347 55.3421 31.9305 56.796 32.1399C54.1942 33.5707 51.9325 34.8383 50.7887 35.3713C48.4089 36.4805 45.0915 38.4534 39.0774 38.6689C33.0633 38.8845 31.279 36.3267 29.3062 33.8611C27.3329 31.395 25.4228 26.5892 23.5122 23.106C21.6015 19.6235 17.3743 17.4666 17.3743 17.4666C22.1038 16.388 26.2994 13.3986 26.8006 8.80677C27.3019 4.21443 24.2961 0.732858 18.69 0.115825C13.084 -0.500699 8.26129 1.44161 5.06654 3.6295C1.8718 5.8174 -0.0699012 9.76264 0.556621 12.2588C1.18263 14.7555 3.03009 15.187 4.44002 14.786C5.84996 14.385 6.44437 12.8442 6.25642 12.2588C6.06846 11.6734 5.34822 10.8719 4.69063 11.1185C4.03252 11.3651 3.71978 11.2112 3.71978 11.2112C2.09134 9.51603 3.34387 6.03343 6.85187 4.06107C10.0114 2.28436 12.7924 2.03928 15.8759 2.47951C14.6939 3.03744 13.5602 3.68924 12.4859 4.42843C10.0114 6.12362 8.41455 9.45183 8.00706 13.6437C7.59956 17.8355 7.75593 19.7768 7.47425 25.3862C7.19309 30.9955 6.9109 34.5077 5.8774 35.7101C4.8439 36.9121 2.80848 37.8664 1.80604 38.4835C0.803605 39.1005 0.960495 40.0549 2.43256 39.7782C3.90411 39.5015 5.62783 38.4845 7.25575 37.7136C8.88419 36.9432 10.5442 36.5116 13.2693 36.4805C15.9944 36.449 15.8997 36.5417 16.0566 36.0485C16.2135 35.5552 15.8686 35.4625 14.9604 34.7227C14.0522 33.9829 13.7395 33.5513 13.8021 31.7022C13.8461 30.3927 13.8275 23.3598 13.813 18.4271C15.8246 18.9397 16.5599 21.5612 17.1517 23.6889C17.7777 25.939 18.6864 29.576 20.1585 32.226C22.8132 37.0074 25.5445 40.4243 30.9626 42.0884C36.3807 43.753 41.0786 42.0884 45.6823 40.3631C49.8991 38.7826 55.3996 35.3168 59.7127 32.6601C61.8393 33.0998 64.1693 33.6639 66.6361 34.1984C72.179 35.3993 77.0027 35.678 80.4159 35.3382C83.8287 35.0009 91.6918 31.7043 90.8462 26.9275ZM13.8058 16.1612C13.8032 15.186 13.8016 14.409 13.8016 13.9525C13.8016 11.3019 13.77 6.46296 15.618 4.73721C16.871 3.56632 17.4655 3.1801 18.1748 2.98292C20.5406 3.84044 20.9486 5.59575 21.1645 7.69805C21.4151 10.1331 20.2563 12.3215 18.1267 14.2322C16.6396 15.5661 14.789 16.0125 13.8058 16.1612ZM77.2232 33.1218C73.2772 33.4616 69.5797 32.7513 66.0101 32.197C64.7218 31.9962 63.2767 31.7038 61.7979 31.4118C66.3435 28.8698 73.4563 26.3375 77.3175 25.8483C81.4515 25.325 83.2368 26.5571 83.1742 28.7144C83.112 30.8717 81.1693 32.7824 77.2232 33.1218ZM35.6765 16.1505C36.0074 16.2952 35.8516 16.7181 35.8516 17.459V26.8653C35.8516 27.3835 36.053 27.6795 36.4543 27.4329C36.855 27.1863 37.7083 26.5199 37.959 26.6182C38.2101 26.7165 38.7874 26.9647 38.0097 28.1987C37.232 29.4328 35.8019 31.1122 34.6979 31.2355C33.594 31.3588 31.9889 31.2355 31.3116 30.4203C30.6338 29.605 30.3578 28.9381 30.3578 28.05V19.9526C30.3578 19.2856 30.2077 19.2617 29.8059 19.2617C29.4041 19.2617 28.7273 19.2362 28.6517 18.8418C28.5761 18.447 28.7263 18.2737 29.4041 18.0271C30.0819 17.78 33.8954 16.5954 34.5478 16.3977C35.1997 16.2 35.4508 16.0522 35.6765 16.1505ZM32.415 13.3115C32.8417 12.1508 32.9421 11.2622 32.8665 10.6946C32.7914 10.1269 32.3151 9.87983 32.3394 9.65768C32.3643 9.43502 33.2176 9.16395 34.1962 8.84295C35.1748 8.52195 36.1027 8.1021 36.7302 7.95434C37.3573 7.80607 37.7337 8.54692 36.9058 10.7195C36.0778 12.8916 34.4975 14.3239 33.6448 14.8176C32.792 15.3114 32.2208 15.5172 31.9635 15.1386C31.8123 14.9165 31.9884 14.4722 32.415 13.3115ZM47.8192 26.5199C46.7401 27.7055 45.5357 28.9146 43.6546 28.5197C41.773 28.1249 40.8197 26.6187 40.8197 24.9643V17.2868C40.8197 16.5174 40.886 16.4308 40.5184 16.3049C39.6449 16.3681 39.0732 16.2912 39.1131 16.0033C39.2141 15.2619 39.8654 15.3114 40.6685 14.6204C41.4716 13.9295 42.676 12.67 43.6044 11.2627C44.5323 9.85588 44.9087 7.95485 45.1852 7.16458C45.4612 6.37481 45.6615 6.02885 46.0882 6.17712C46.5149 6.3259 46.4393 6.59697 46.4393 7.4117V12.8162C46.5263 12.9538 46.6386 13.0353 46.7914 13.0159C47.3677 12.9416 47.9212 12.6949 48.2215 12.7194C48.5218 12.7439 48.6228 13.1637 48.6228 13.5341C48.6228 13.8709 48.5539 14.249 46.4393 14.9802V23.7796C46.4393 24.4716 46.1633 24.9898 46.8659 24.6932C47.5686 24.3967 48.222 23.7801 48.673 23.9529C49.124 24.1251 48.8982 25.3342 47.8192 26.5199ZM58.7667 23.4209C57.6877 24.6071 56.4833 25.8162 54.6011 25.4213C52.72 25.0254 51.7663 23.5193 51.7663 21.8654V14.1884C51.7663 13.4185 51.833 13.3319 51.4649 13.206C50.5919 13.2692 50.0208 13.1917 50.0601 12.9044C50.1611 12.164 50.8125 12.2124 51.6156 11.5215C52.4187 10.8306 53.623 9.57106 54.5514 8.16426C55.4798 6.75696 55.8552 4.85643 56.1322 4.06616C56.4082 3.2764 56.6086 2.93043 57.0353 3.07871C57.4619 3.22749 57.3863 3.49855 57.3863 4.31379V9.7178C57.4733 9.85537 57.5857 9.93741 57.7384 9.91753C58.3147 9.84314 58.8682 9.59704 59.1685 9.6215C59.4689 9.64647 59.5698 10.0653 59.5698 10.4357C59.5698 10.772 59.4999 11.1506 57.3863 11.8823V20.6817C57.3863 21.3737 57.1103 21.8919 57.813 21.5958C58.5156 21.2988 59.1691 20.6828 59.619 20.855C60.0705 21.0267 59.8448 22.2358 58.7667 23.4209ZM73.0028 7.01376C71.8642 5.97076 69.7443 4.82586 66.8742 6.32692C64.0031 7.82798 62.1929 9.71118 60.8223 13.8077C59.4523 17.9048 63.6417 21.3146 64.6239 21.7726C65.6067 22.2307 67.1321 23.0959 69.459 21.5438C71.787 19.9913 72.6408 18.3884 72.8987 17.8034C73.1576 17.218 72.8733 16.3783 71.9936 16.9637C71.1149 17.5492 69.8992 18.9998 68.0372 18.4398C66.6428 18.0205 66.0753 17.1018 65.7154 16.282C66.9431 15.5024 70.767 13.073 72.1495 12.1803C73.8038 11.1119 73.9596 11.1373 74.2175 10.4245C74.4764 9.71067 74.1403 8.05675 73.0028 7.01376ZM69.253 11.8741C68.3085 12.8993 67.1031 13.7909 65.1065 14.7361C64.7948 13.7405 64.6384 12.2613 65.7879 10.2711C67.2874 7.67563 68.8392 6.88638 69.4854 7.82849C70.1316 8.7706 70.2611 10.7796 69.253 11.8741ZM76.5191 6.70855C76.1913 6.54754 76.0023 6.60665 75.5886 6.68308C75.1738 6.75951 74.8896 6.45379 75.1226 6.14859C75.3561 5.84338 76.1318 5.28342 76.8551 4.64702C77.579 4.01113 78.3033 3.42569 79.1308 3.50212C79.9592 3.57855 80.9938 3.65498 81.9501 5.30889C81.9501 5.30889 83.3456 3.40022 84.2258 2.91668C84.2258 2.91668 85.5182 4.21443 86.3456 4.62205C87.1741 5.02865 87.6644 5.30889 88.4411 4.69797C89.2167 4.08705 89.3716 3.98566 89.604 4.18896C89.8365 4.39277 89.5523 5.43576 88.337 6.58117C87.1213 7.72607 85.8035 8.7441 84.6395 8.41342C83.4755 8.08274 82.1303 7.11566 82.1303 7.11566V14.5201C82.1303 15.131 82.3126 15.1565 82.907 14.8767C83.5014 14.5965 84.1217 14.037 84.4583 14.3422C84.7938 14.648 84.7425 15.5386 83.372 16.9123C82.0014 18.286 81.7943 18.77 79.545 18.77C77.2947 18.77 76.5708 16.3523 76.5708 15.6909V7.34495C76.5708 6.83542 76.7267 6.81046 76.5191 6.70855ZM12.4062 50.2708L14.5819 46.026C14.5819 46.026 11.6808 44.261 8.05469 44.261C4.42863 44.261 2.02351 45.9144 0.992597 48.9567C-0.0377984 51.9991 1.33641 55.2662 2.86284 55.9805C4.3898 56.6944 7.13821 57.6324 8.35967 58.1587C9.58113 58.6851 10.2304 60.4888 9.23783 61.3901C8.24524 62.291 5.99287 63.0802 2.3668 59.9997L0 64.3184C0 64.3184 3.16834 66.8349 7.02378 66.8349C10.8792 66.8349 14.1232 65.1825 15.1919 61.6892C16.2611 58.1959 14.9635 54.8147 11.6424 53.6882C8.32187 52.5616 6.1073 52.449 6.37499 50.3075C6.64217 48.167 10.4971 48.4309 12.4062 50.2708ZM32.6749 48.4864C31.4913 45.4059 27.598 44.8434 26.606 44.8434H17.0243V66.2541H22.5978V59.2303H26.4915C27.9035 59.2303 29.3927 59.1172 31.5301 57.3899C33.6675 55.6616 33.8586 51.567 32.6749 48.4864ZM25.1551 54.7974H22.5978V49.2008H24.5063C26.2238 49.2008 27.4836 49.8764 27.4836 52.0934C27.4836 54.3088 26.2243 54.7974 25.1551 54.7974ZM46.1871 44.0979C39.6034 44.0979 34.2661 49.2248 34.2661 55.549C34.2661 61.8732 39.6034 67 46.1871 67C52.7708 67 58.1081 61.8732 58.1081 55.549C58.1081 49.2248 52.7708 44.0979 46.1871 44.0979ZM46.1871 61.6811C42.8018 61.6811 40.0586 58.9352 40.0586 55.549C40.0586 52.1627 42.8018 49.4168 46.1871 49.4168C49.5719 49.4168 52.3156 52.1627 52.3156 55.549C52.3156 58.9352 49.5719 61.6811 46.1871 61.6811ZM65.1412 58.2173L70.318 66.2357H77.2807L70.6235 57.5845C70.6235 57.5845 71.555 57.5845 73.3134 56.5155C75.0713 55.4465 76.0541 51.834 74.9678 48.8309C73.8815 45.8283 70.4159 44.8612 68.4509 44.8612H59.4523V66.2357H65.1407L65.1412 58.2173ZM68.2448 49.3903C69.1753 49.6961 69.7443 51.273 69.5372 52.6477C69.3311 54.0219 67.1585 54.6328 66.4346 54.6328H65.1412V49.1361C66.3119 49.13 67.3889 49.1101 68.2448 49.3903ZM91 44.8612H76.1053V49.3903H80.7597V66.2357H86.3451V49.3903H91V44.8612Z" fill="#C2C9D1"/>
<path fill-rule="evenodd" clip-rule="evenodd" d="M90.8462 26.9275C90.0007 22.1507 83.737 21.688 79.6651 22.4274C75.5927 23.1667 70.5826 25.2929 65.4778 27.6357C63.519 28.5345 61.2516 29.7192 59.066 30.9007C57.3547 30.6037 55.69 30.3785 54.2635 30.3785C50.8503 30.3785 47.9693 31.581 46.4341 32.197C44.8999 32.8135 44.4292 33.3368 44.555 33.6461C44.6803 33.9543 45.557 33.7994 46.9974 33.3062C48.4384 32.8135 49.6604 32.2887 52.9168 31.9504C54.0264 31.8347 55.3421 31.9305 56.796 32.1399C54.1942 33.5707 51.9325 34.8383 50.7887 35.3713C48.4089 36.4805 45.0915 38.4534 39.0774 38.6689C33.0633 38.8845 31.279 36.3267 29.3062 33.8611C27.3329 31.395 25.4228 26.5892 23.5122 23.106C21.6015 19.6235 17.3743 17.4666 17.3743 17.4666C22.1038 16.388 26.2994 13.3986 26.8006 8.80677C27.3019 4.21443 24.2961 0.732858 18.69 0.115825C13.084 -0.500699 8.26129 1.44161 5.06654 3.6295C1.8718 5.8174 -0.0699012 9.76264 0.556621 12.2588C1.18263 14.7555 3.03009 15.187 4.44002 14.786C5.84996 14.385 6.44437 12.8442 6.25642 12.2588C6.06846 11.6734 5.34822 10.8719 4.69063 11.1185C4.03252 11.3651 3.71978 11.2112 3.71978 11.2112C2.09134 9.51603 3.34387 6.03343 6.85187 4.06107C10.0114 2.28436 12.7924 2.03928 15.8759 2.47951C14.6939 3.03744 13.5602 3.68924 12.4859 4.42843C10.0114 6.12362 8.41455 9.45183 8.00706 13.6437C7.59956 17.8355 7.75593 19.7768 7.47425 25.3862C7.19309 30.9955 6.9109 34.5077 5.8774 35.7101C4.8439 36.9121 2.80848 37.8664 1.80604 38.4835C0.803605 39.1005 0.960495 40.0549 2.43256 39.7782C3.90411 39.5015 5.62783 38.4845 7.25575 37.7136C8.88419 36.9432 10.5442 36.5116 13.2693 36.4805C15.9944 36.449 15.8997 36.5417 16.0566 36.0485C16.2135 35.5552 15.8686 35.4625 14.9604 34.7227C14.0522 33.9829 13.7395 33.5513 13.8021 31.7022C13.8461 30.3927 13.8275 23.3598 13.813 18.4271C15.8246 18.9397 16.5599 21.5612 17.1517 23.6889C17.7777 25.939 18.6864 29.576 20.1585 32.226C22.8132 37.0074 25.5445 40.4243 30.9626 42.0884C36.3807 43.753 41.0786 42.0884 45.6823 40.3631C49.8991 38.7826 55.3996 35.3168 59.7127 32.6601C61.8393 33.0998 64.1693 33.6639 66.6361 34.1984C72.179 35.3993 77.0027 35.678 80.4159 35.3382C83.8287 35.0009 91.6918 31.7043 90.8462 26.9275ZM13.8058 16.1612C13.8032 15.186 13.8016 14.409 13.8016 13.9525C13.8016 11.3019 13.77 6.46296 15.618 4.73721C16.871 3.56632 17.4655 3.1801 18.1748 2.98292C20.5406 3.84044 20.9486 5.59575 21.1645 7.69805C21.4151 10.1331 20.2563 12.3215 18.1267 14.2322C16.6396 15.5661 14.789 16.0125 13.8058 16.1612ZM77.2232 33.1218C73.2772 33.4616 69.5797 32.7513 66.0101 32.197C64.7218 31.9962 63.2767 31.7038 61.7979 31.4118C66.3435 28.8698 73.4563 26.3375 77.3175 25.8483C81.4515 25.325 83.2368 26.5571 83.1742 28.7144C83.112 30.8717 81.1693 32.7824 77.2232 33.1218ZM35.6765 16.1505C36.0074 16.2952 35.8516 16.7181 35.8516 17.459V26.8653C35.8516 27.3835 36.053 27.6795 36.4543 27.4329C36.855 27.1863 37.7083 26.5199 37.959 26.6182C38.2101 26.7165 38.7874 26.9647 38.0097 28.1987C37.232 29.4328 35.8019 31.1122 34.6979 31.2355C33.594 31.3588 31.9889 31.2355 31.3116 30.4203C30.6338 29.605 30.3578 28.9381 30.3578 28.05V19.9526C30.3578 19.2856 30.2077 19.2617 29.8059 19.2617C29.4041 19.2617 28.7273 19.2362 28.6517 18.8418C28.5761 18.447 28.7263 18.2737 29.4041 18.0271C30.0819 17.78 33.8954 16.5954 34.5478 16.3977C35.1997 16.2 35.4508 16.0522 35.6765 16.1505ZM32.415 13.3115C32.8417 12.1508 32.9421 11.2622 32.8665 10.6946C32.7914 10.1269 32.3151 9.87983 32.3394 9.65768C32.3643 9.43502 33.2176 9.16395 34.1962 8.84295C35.1748 8.52195 36.1027 8.1021 36.7302 7.95434C37.3573 7.80607 37.7337 8.54692 36.9058 10.7195C36.0778 12.8916 34.4975 14.3239 33.6448 14.8176C32.792 15.3114 32.2208 15.5172 31.9635 15.1386C31.8123 14.9165 31.9884 14.4722 32.415 13.3115ZM47.8192 26.5199C46.7401 27.7055 45.5357 28.9146 43.6546 28.5197C41.773 28.1249 40.8197 26.6187 40.8197 24.9643V17.2868C40.8197 16.5174 40.886 16.4308 40.5184 16.3049C39.6449 16.3681 39.0732 16.2912 39.1131 16.0033C39.2141 15.2619 39.8654 15.3114 40.6685 14.6204C41.4716 13.9295 42.676 12.67 43.6044 11.2627C44.5323 9.85588 44.9087 7.95485 45.1852 7.16458C45.4612 6.37481 45.6615 6.02885 46.0882 6.17712C46.5149 6.3259 46.4393 6.59697 46.4393 7.4117V12.8162C46.5263 12.9538 46.6386 13.0353 46.7914 13.0159C47.3677 12.9416 47.9212 12.6949 48.2215 12.7194C48.5218 12.7439 48.6228 13.1637 48.6228 13.5341C48.6228 13.8709 48.5539 14.249 46.4393 14.9802V23.7796C46.4393 24.4716 46.1633 24.9898 46.8659 24.6932C47.5686 24.3967 48.222 23.7801 48.673 23.9529C49.124 24.1251 48.8982 25.3342 47.8192 26.5199ZM58.7667 23.4209C57.6877 24.6071 56.4833 25.8162 54.6011 25.4213C52.72 25.0254 51.7663 23.5193 51.7663 21.8654V14.1884C51.7663 13.4185 51.833 13.3319 51.4649 13.206C50.5919 13.2692 50.0208 13.1917 50.0601 12.9044C50.1611 12.164 50.8125 12.2124 51.6156 11.5215C52.4187 10.8306 53.623 9.57106 54.5514 8.16426C55.4798 6.75696 55.8552 4.85643 56.1322 4.06616C56.4082 3.2764 56.6086 2.93043 57.0353 3.07871C57.4619 3.22749 57.3863 3.49855 57.3863 4.31379V9.7178C57.4733 9.85537 57.5857 9.93741 57.7384 9.91753C58.3147 9.84314 58.8682 9.59704 59.1685 9.6215C59.4689 9.64647 59.5698 10.0653 59.5698 10.4357C59.5698 10.772 59.4999 11.1506 57.3863 11.8823V20.6817C57.3863 21.3737 57.1103 21.8919 57.813 21.5958C58.5156 21.2988 59.1691 20.6828 59.619 20.855C60.0705 21.0267 59.8448 22.2358 58.7667 23.4209ZM73.0028 7.01376C71.8642 5.97076 69.7443 4.82586 66.8742 6.32692C64.0031 7.82798 62.1929 9.71118 60.8223 13.8077C59.4523 17.9048 63.6417 21.3146 64.6239 21.7726C65.6067 22.2307 67.1321 23.0959 69.459 21.5438C71.787 19.9913 72.6408 18.3884 72.8987 17.8034C73.1576 17.218 72.8733 16.3783 71.9936 16.9637C71.1149 17.5492 69.8992 18.9998 68.0372 18.4398C66.6428 18.0205 66.0753 17.1018 65.7154 16.282C66.9431 15.5024 70.767 13.073 72.1495 12.1803C73.8038 11.1119 73.9596 11.1373 74.2175 10.4245C74.4764 9.71067 74.1403 8.05675 73.0028 7.01376ZM69.253 11.8741C68.3085 12.8993 67.1031 13.7909 65.1065 14.7361C64.7948 13.7405 64.6384 12.2613 65.7879 10.2711C67.2874 7.67563 68.8392 6.88638 69.4854 7.82849C70.1316 8.7706 70.2611 10.7796 69.253 11.8741ZM76.5191 6.70855C76.1913 6.54754 76.0023 6.60665 75.5886 6.68308C75.1738 6.75951 74.8896 6.45379 75.1226 6.14859C75.3561 5.84338 76.1318 5.28342 76.8551 4.64702C77.579 4.01113 78.3033 3.42569 79.1308 3.50212C79.9592 3.57855 80.9938 3.65498 81.9501 5.30889C81.9501 5.30889 83.3456 3.40022 84.2258 2.91668C84.2258 2.91668 85.5182 4.21443 86.3456 4.62205C87.1741 5.02865 87.6644 5.30889 88.4411 4.69797C89.2167 4.08705 89.3716 3.98566 89.604 4.18896C89.8365 4.39277 89.5523 5.43576 88.337 6.58117C87.1213 7.72607 85.8035 8.7441 84.6395 8.41342C83.4755 8.08274 82.1303 7.11566 82.1303 7.11566V14.5201C82.1303 15.131 82.3126 15.1565 82.907 14.8767C83.5014 14.5965 84.1217 14.037 84.4583 14.3422C84.7938 14.648 84.7425 15.5386 83.372 16.9123C82.0014 18.286 81.7943 18.77 79.545 18.77C77.2947 18.77 76.5708 16.3523 76.5708 15.6909V7.34495C76.5708 6.83542 76.7267 6.81046 76.5191 6.70855ZM12.4062 50.2708L14.5819 46.026C14.5819 46.026 11.6808 44.261 8.05469 44.261C4.42863 44.261 2.02351 45.9144 0.992597 48.9567C-0.0377984 51.9991 1.33641 55.2662 2.86284 55.9805C4.3898 56.6944 7.13821 57.6324 8.35967 58.1587C9.58113 58.6851 10.2304 60.4888 9.23783 61.3901C8.24524 62.291 5.99287 63.0802 2.3668 59.9997L0 64.3184C0 64.3184 3.16834 66.8349 7.02378 66.8349C10.8792 66.8349 14.1232 65.1825 15.1919 61.6892C16.2611 58.1959 14.9635 54.8147 11.6424 53.6882C8.32187 52.5616 6.1073 52.449 6.37499 50.3075C6.64217 48.167 10.4971 48.4309 12.4062 50.2708ZM32.6749 48.4864C31.4913 45.4059 27.598 44.8434 26.606 44.8434H17.0243V66.2541H22.5978V59.2303H26.4915C27.9035 59.2303 29.3927 59.1172 31.5301 57.3899C33.6675 55.6616 33.8586 51.567 32.6749 48.4864ZM25.1551 54.7974H22.5978V49.2008H24.5063C26.2238 49.2008 27.4836 49.8764 27.4836 52.0934C27.4836 54.3088 26.2243 54.7974 25.1551 54.7974ZM46.1871 44.0979C39.6034 44.0979 34.2661 49.2248 34.2661 55.549C34.2661 61.8732 39.6034 67 46.1871 67C52.7708 67 58.1081 61.8732 58.1081 55.549C58.1081 49.2248 52.7708 44.0979 46.1871 44.0979ZM46.1871 61.6811C42.8018 61.6811 40.0586 58.9352 40.0586 55.549C40.0586 52.1627 42.8018 49.4168 46.1871 49.4168C49.5719 49.4168 52.3156 52.1627 52.3156 55.549C52.3156 58.9352 49.5719 61.6811 46.1871 61.6811ZM65.1412 58.2173L70.318 66.2357H77.2807L70.6235 57.5845C70.6235 57.5845 71.555 57.5845 73.3134 56.5155C75.0713 55.4465 76.0541 51.834 74.9678 48.8309C73.8815 45.8283 70.4159 44.8612 68.4509 44.8612H59.4523V66.2357H65.1407L65.1412 58.2173ZM68.2448 49.3903C69.1753 49.6961 69.7443 51.273 69.5372 52.6477C69.3311 54.0219 67.1585 54.6328 66.4346 54.6328H65.1412V49.1361C66.3119 49.13 67.3889 49.1101 68.2448 49.3903ZM91 44.8612H76.1053V49.3903H80.7597V66.2357H86.3451V49.3903H91V44.8612Z" fill="black" fill-opacity="0.25"/>
</svg>
