<svg width="202" height="200" viewBox="0 0 202 200" fill="none" xmlns="http://www.w3.org/2000/svg">
<path d="M100.429 35.1543C104.002 37.2074 107.791 39.8498 110.676 42.65L109.543 43.7854C103.85 43.182 97.8546 43.9351 92.4582 44.0181C91.8564 43.4126 90.6439 42.5023 91.7732 41.7417L100.429 35.1543ZM201.084 105.66C201.16 108.222 201.401 110.422 200.399 113.044C189.999 115.993 183.168 105.014 173.077 106.67L174.218 112.361C183.554 112.667 189.385 121.593 199.029 121.209C197.659 123.938 199.64 131.127 193.57 128.253C187.269 126.744 182.713 121.209 175.808 121.209C174.975 122.735 175.502 124.846 175.356 126.65C182.641 127.79 187.879 133.928 195.162 135.062C194.477 137.557 193.798 140.351 191.747 141.873C185.822 140.436 181.195 135.131 174.888 135.282L173.764 140.508C179.759 140.662 183.631 145.949 189.018 147.536C189.166 149.74 187.19 151.71 186.052 153.677C181.27 152.245 177.623 148.149 172.159 148.451C172.083 146.399 173.305 144.068 172.844 141.873C166.707 143.693 162.592 138.008 158.044 134.597C157.913 123.437 146.129 116.115 145.507 105.66C145.388 103.576 145.706 101.35 146.659 98.9589C150.532 90.0305 149.315 78.4386 145.068 70.1143C143.778 67.9237 141.492 66.1943 139.361 64.9065C142.478 71.4939 146.278 79.2774 144.381 87.3745C144.162 93.6273 140.462 99.6325 140.419 105.66C140.405 107.809 140.865 109.958 142.105 112.128C147.042 120.994 155.924 129.387 152.584 140.506C151.666 143.921 148.931 146.562 148.249 150.038C154.025 154.807 159.486 160.182 167.149 160.485C169.88 158.746 168.363 151.034 173.981 154.591L182.183 158.682C181.585 160.871 179.747 162.833 178.082 164.341C174.97 162.83 171.934 161.02 168.054 161.168C166.91 162.378 165.925 163.736 166.013 165.473C168.743 165.922 171.248 167.071 173.529 168.663C172.47 170.937 170.406 172.362 168.509 174.104L162.146 171.836C161.084 173.351 158.877 174.944 159.652 176.607C161.087 177.22 162.68 178.049 163.737 179.111C160.928 182.138 157.369 184.085 153.943 186.139C150.993 176.524 141.272 169.783 142.107 158.664L141.655 158.214C139.37 160.776 140.133 164.872 140.281 168.196C143.015 175.16 149.538 180.54 150.528 188.177C149.385 190.142 146.81 190.534 144.835 191.366C145.064 177.597 124.117 167.153 137.55 153.225C142.03 146.405 149.536 139.896 146.877 130.507C144.146 121.441 134.488 115.823 134.573 105.66L134.588 104.867C136.788 94.2689 143.471 82.9913 138.004 71.7164C136.48 67.1814 133.076 62.028 128.446 60.1327C135.349 68.0107 138.086 80.8646 134.137 91.4653C132.146 95.6819 129.406 100.705 129.131 105.662H129.115C128.968 108.251 129.498 110.825 131.173 113.266C136.415 121.745 145.518 131.06 140.281 142.11C134.362 150.961 124.039 159.964 129.804 171.622C133.978 178.584 140.436 185.532 138.694 194.091L131.862 196.359C136.417 180.395 114.098 171.014 123.441 155.045C129.21 146.493 139.526 138.47 133.686 127.12C130.195 120.087 122.981 115.925 123.209 107.137L123.457 105.661C125.808 93.1974 135.31 81.3993 128.666 68.0801C126.92 64.1472 123.43 60.1374 119.558 57.8652L119.324 58.0985C127.07 65.5909 129.426 77.9182 125.25 87.8276C123.301 93.6416 119.025 99.4331 118.155 105.663C117.742 108.601 118.091 111.645 119.793 114.852C124.726 122.641 133.377 130.904 127.979 140.974C122.294 149.291 112.803 157.384 116.594 168.201C120.769 177.664 129.489 186.679 124.781 198.413L117.732 200C123.346 188.565 114.927 177.218 109.996 167.3C103.996 153.071 122.886 146.258 123.189 133.249C123.117 124.852 114.165 120.085 112.273 112.366C108.398 109.107 104.382 113.662 99.7494 112.816C96.3296 113.501 91.0772 108.123 89.0357 113.953C86.6046 122.501 75.5294 128.785 80.397 138.923C85.0285 147.932 96.1747 154.52 92.4514 166.179C89.1176 177.07 78.1051 187.439 84.935 200C82.1294 199.094 76.8899 200.829 76.9656 196.36C72.6411 181.148 91.0826 172.287 85.3867 157.084C82.7359 147.772 70.6583 142.627 73.3173 131.427C75.2831 122.207 85.659 115.762 84.2036 105.663C84.0855 104.817 83.8768 103.952 83.5786 103.05C79.7058 92.1517 71.8046 81.251 76.5139 68.5319C77.8069 64.899 80.3895 61.7967 82.6588 58.5496C75.1439 62.5594 71.3529 71.0381 71.5085 79.6638C71.181 89.044 78.1303 97.0792 79.119 105.663C79.5079 109.127 78.9389 112.674 76.5139 116.437C71.5842 123.107 65.1371 130.139 68.0928 138.921C70.9033 147.78 81.984 153.146 81.301 163.443C81.226 175.622 67.0319 183.206 71.0548 196.827L63.9901 194.542C61.1851 182.438 74.0863 176.245 74.2343 165.045C76.0602 152.166 59.5858 147.388 60.5745 134.833C60.5035 125.295 68.9246 119.253 72.6439 111.23C73.2818 109.277 73.494 107.432 73.4087 105.663C72.9529 96.7921 64.9358 89.8563 66.2663 79.8822C66.7139 72.5416 69.2187 66.1072 74.0023 60.5865C67.4024 63.2302 64.6758 70.8055 62.8527 77.1637C59.6888 87.3589 67.2413 96.5295 67.9987 105.664C68.3344 109.698 67.3457 113.708 63.5391 117.808C58.0711 124.233 52.5259 132.34 56.4738 140.975C60.6543 150.503 73.7881 157.919 68.0915 169.803C64.9836 177.297 57.5416 182.969 57.8473 191.821C55.8754 190.988 53.8298 190.158 52.1541 188.648C52.1541 177.374 68.2389 170.332 60.5751 158.45C59.8962 160.795 59.7502 163.981 59.2187 166.629C56.5591 173.519 50.8686 179.035 48.7391 186.158C45.1781 184.787 41.4547 181.908 38.4928 178.882L42.5956 176.378C42.1398 174.862 40.9273 173.577 39.867 172.29C37.2026 171.917 35.4531 173.66 33.2568 174.343C31.3593 172.674 29.5279 171.16 28.0152 169.117C29.3771 165.25 40.0185 168.448 34.6275 162.089C30.9881 159.82 27.335 163.061 24.1479 164.574L19.8275 159.133C23.5468 156.865 27.2565 153.679 31.8826 154.592C33.0227 156.639 33.1019 159.65 35.2982 160.719C43.1175 160.567 48.6579 154.67 54.652 150.052C50.4742 143.854 47.0736 135.297 50.7847 127.801C53.7582 120.29 61.5058 113.963 61.8572 105.659C61.9364 103.769 61.6409 101.781 60.8119 99.6406C56.7153 89.1195 55.2695 74.9003 63.0888 65.5881C58.8373 66.727 56.3305 72.0103 54.886 76.0221C50.1856 86.2956 56.1306 95.8132 56.3359 105.659C56.3639 107.43 56.22 109.204 55.7894 110.992C51.7651 119.089 45.245 126.194 44.186 135.512C39.5545 138.457 35.752 143.609 29.1527 141.87C28.9207 143.609 29.4522 146.26 30.0574 148.229C24.8241 148.01 21.2556 151.856 16.8492 153.673C14.5021 152.922 13.8914 149.896 12.9826 147.779C18.1402 146.042 21.8608 140.887 27.7826 140.968C28.469 139.067 27.3978 137.325 27.0955 135.51C19.7293 132.25 8.05286 151.626 7.07102 134.827C14.4318 134.373 19.1356 127.56 26.4255 126.881L26.6431 121.44C18.3701 120.607 13.0481 129.087 4.77845 128.251L2.95463 120.99C12.5206 121.586 18.22 113.038 27.3302 112.578C28.5406 110.991 28.6866 108.645 28.92 106.452C18.976 105.16 12.1522 116.148 1.5982 112.811C1.5982 112.811 1.23453 108.238 1.03734 105.659H1.05167C0.980024 104.651 0.911793 103.948 0.911793 103.948C10.3229 107.589 18.5918 100.85 26.6431 97.3704C28.6907 96.7595 31.884 97.8187 32.8023 95.5506C32.7225 93.8096 35.9069 91.7741 33.2561 90.5591C21.4855 88.9665 13.6662 103.122 1.59683 96.6853L0.691406 94.8655C3.20231 60.6627 22.5486 27.5953 54.652 11.3228C67.6541 3.91419 83.8072 0.13776 100.097 0.00373806C119.757 -0.158857 139.622 4.98296 154.399 15.4129C168.749 24.1896 182.476 38.6538 189.926 53.337C197.05 66.2018 200.33 80.6374 201.309 96.0057C188.858 105.386 180.505 87.1684 167.826 91.2455C168.509 93.2171 168.887 95.2567 170.337 96.9214C181.574 96.8425 189.312 108.574 201.074 103.95L201.084 105.66ZM58.0636 63.5363C50.1685 58.3884 40.159 63.2356 32.801 66.0392C32.118 59.1489 29.3116 52.8717 23.4601 48.3313C22.8925 48.0496 22.1078 47.4571 21.4009 47.4135C20.9779 47.387 20.5753 47.5571 20.2628 48.0966C22.915 64.3649 12.3084 75.7167 4.7921 88.0576C7.29482 90.0972 11.3157 89.7924 14.3513 89.193C22.3193 86.016 29.9093 80.4864 39.3969 82.3817C42.2025 77.6141 46.9166 72.9961 50.7819 69.2122C53.1434 67.1746 56.3878 65.8807 58.0636 63.5363ZM82.2051 73.7533C82.0536 74.7329 82.2808 76.4793 83.7956 75.8044C86.1523 72.5505 90.3246 75.1248 92.9037 75.354V74.4383C91.4886 72.2226 88.5772 71.1096 85.6208 71.2205C84.9384 71.2443 84.2452 71.3436 83.5779 71.498C82.5886 71.7171 81.9001 72.6199 82.2051 73.7533ZM119.32 64.0037C117.201 59.3102 112.343 57.4107 107.934 56.276C105.773 56.0107 103.531 55.8311 101.306 55.81C100.89 55.8059 100.473 55.8004 100.058 55.81C93.8365 55.9351 87.8915 57.5278 84.2595 62.6342C83.7383 64.0758 81.4464 66.1004 83.5745 67.3923C88.3568 67.0875 93.8139 66.4895 97.0017 70.5816C97.0017 74.2179 99.3564 79.0556 95.4112 80.7966C92.1423 77.7787 88.2708 82.081 84.714 79.6591C83.0416 78.674 81.9833 79.8237 81.2983 81.2612C80.3096 90.6434 85.2366 100.998 94.0398 106.218C97.6076 107.501 102.404 108.721 106.127 106.901C115.083 102.743 118.793 93.213 120.46 84.4329C120.236 82.762 120.316 79.506 117.965 79.4271C115.31 81.1013 111.438 80.1122 108.624 79.4271C106.961 79.9625 106.884 82.3892 104.991 82.8491L103.837 81.9313C102.849 77.7753 102.24 71.8702 106.115 68.9945C110.445 67.2535 115.53 66.493 120.008 67.859C120.844 66.4222 119.553 65.2908 119.32 64.0037ZM114.751 71.4661C114.45 71.4735 114.157 71.4885 113.861 71.498C112.27 72.5559 107.636 71.7953 109.309 75.354C112.195 73.0777 116.218 74.6731 119.102 75.8044C120.168 75.2765 119.937 74.2166 120.007 73.3029C119.081 71.5851 116.869 71.4239 114.751 71.4661ZM147.798 39.4681C142.18 39.1708 137.475 42.3506 132.313 43.7895C131.863 39.4096 135.2 34.7842 135.962 30.3873C127.615 30.9227 121.004 35.9318 114.099 39.9335C112.501 36.0836 110.898 32.2139 109.311 28.3497L118.419 19.7199L118.653 18.5831L106.35 17.9001C104.231 14.1978 103.396 9.73836 100.891 6.33271C98.8412 10.1921 97.4643 14.2767 95.4167 18.1328L83.1283 18.8178V19.7199L92.4548 28.1164C91.3146 32.4323 90.255 37.1217 87.4493 40.3838C81.9847 37.1204 76.5979 33.5684 70.6065 31.3023C69.1648 30.8383 67.1096 30.0839 65.8194 31.0696C67.7142 35.2332 70.3677 39.7117 69.9214 44.2562C67.4153 43.7963 65.4455 42.1941 63.0908 41.5206C60.2749 40.7546 56.9337 39.2579 54.2017 40.1682C58.7568 46.5216 62.4747 53.171 63.7609 60.8171C78.872 53.5452 96.4947 49.5456 114.788 52.6533C123.362 54.0139 131.247 57.4965 138.914 60.3654C139.214 52.3478 144.299 45.9053 147.798 39.4681ZM173.747 83.0654C181.483 85.107 189.244 93.511 197.436 88.0583C190.302 76.2541 179.683 65.3534 182.636 49.9171C182.945 48.8633 182.262 47.7965 181.279 47.6469C176.651 49.5327 173.067 54.0792 171.236 58.5482C170.483 61.1913 170.036 64.001 168.975 66.4923C163.431 63.6152 157.515 60.828 150.76 61.5015C148.324 61.8042 144.832 61.9634 144.382 64.4568C152.048 68.5414 158.352 75.3581 163.049 82.6171C166.32 82.0851 170.332 82.5395 173.747 83.0654ZM92.6847 93.7334L92.9031 95.1016C95.8691 97.0717 96.7813 100.411 100.887 100.107C104.529 100.323 107.261 96.9214 109.075 94.1988C104.148 93.5205 98.1514 94.5702 92.6847 93.7334ZM96.7854 87.6072C96.9335 88.2134 96.4095 89.1216 97.2371 89.4277C99.6661 88.9018 104.066 90.7162 105.423 87.8406C104.476 86.7827 102.93 86.3024 101.307 86.3024C99.6852 86.3024 98.002 86.7738 96.7854 87.6072Z" fill="#C2C9D1"/>
<path d="M100.429 35.1543C104.002 37.2074 107.791 39.8498 110.676 42.65L109.543 43.7854C103.85 43.182 97.8546 43.9351 92.4582 44.0181C91.8564 43.4126 90.6439 42.5023 91.7732 41.7417L100.429 35.1543ZM201.084 105.66C201.16 108.222 201.401 110.422 200.399 113.044C189.999 115.993 183.168 105.014 173.077 106.67L174.218 112.361C183.554 112.667 189.385 121.593 199.029 121.209C197.659 123.938 199.64 131.127 193.57 128.253C187.269 126.744 182.713 121.209 175.808 121.209C174.975 122.735 175.502 124.846 175.356 126.65C182.641 127.79 187.879 133.928 195.162 135.062C194.477 137.557 193.798 140.351 191.747 141.873C185.822 140.436 181.195 135.131 174.888 135.282L173.764 140.508C179.759 140.662 183.631 145.949 189.018 147.536C189.166 149.74 187.19 151.71 186.052 153.677C181.27 152.245 177.623 148.149 172.159 148.451C172.083 146.399 173.305 144.068 172.844 141.873C166.707 143.693 162.592 138.008 158.044 134.597C157.913 123.437 146.129 116.115 145.507 105.66C145.388 103.576 145.706 101.35 146.659 98.9589C150.532 90.0305 149.315 78.4386 145.068 70.1143C143.778 67.9237 141.492 66.1943 139.361 64.9065C142.478 71.4939 146.278 79.2774 144.381 87.3745C144.162 93.6273 140.462 99.6325 140.419 105.66C140.405 107.809 140.865 109.958 142.105 112.128C147.042 120.994 155.924 129.387 152.584 140.506C151.666 143.921 148.931 146.562 148.249 150.038C154.025 154.807 159.486 160.182 167.149 160.485C169.88 158.746 168.363 151.034 173.981 154.591L182.183 158.682C181.585 160.871 179.747 162.833 178.082 164.341C174.97 162.83 171.934 161.02 168.054 161.168C166.91 162.378 165.925 163.736 166.013 165.473C168.743 165.922 171.248 167.071 173.529 168.663C172.47 170.937 170.406 172.362 168.509 174.104L162.146 171.836C161.084 173.351 158.877 174.944 159.652 176.607C161.087 177.22 162.68 178.049 163.737 179.111C160.928 182.138 157.369 184.085 153.943 186.139C150.993 176.524 141.272 169.783 142.107 158.664L141.655 158.214C139.37 160.776 140.133 164.872 140.281 168.196C143.015 175.16 149.538 180.54 150.528 188.177C149.385 190.142 146.81 190.534 144.835 191.366C145.064 177.597 124.117 167.153 137.55 153.225C142.03 146.405 149.536 139.896 146.877 130.507C144.146 121.441 134.488 115.823 134.573 105.66L134.588 104.867C136.788 94.2689 143.471 82.9913 138.004 71.7164C136.48 67.1814 133.076 62.028 128.446 60.1327C135.349 68.0107 138.086 80.8646 134.137 91.4653C132.146 95.6819 129.406 100.705 129.131 105.662H129.115C128.968 108.251 129.498 110.825 131.173 113.266C136.415 121.745 145.518 131.06 140.281 142.11C134.362 150.961 124.039 159.964 129.804 171.622C133.978 178.584 140.436 185.532 138.694 194.091L131.862 196.359C136.417 180.395 114.098 171.014 123.441 155.045C129.21 146.493 139.526 138.47 133.686 127.12C130.195 120.087 122.981 115.925 123.209 107.137L123.457 105.661C125.808 93.1974 135.31 81.3993 128.666 68.0801C126.92 64.1472 123.43 60.1374 119.558 57.8652L119.324 58.0985C127.07 65.5909 129.426 77.9182 125.25 87.8276C123.301 93.6416 119.025 99.4331 118.155 105.663C117.742 108.601 118.091 111.645 119.793 114.852C124.726 122.641 133.377 130.904 127.979 140.974C122.294 149.291 112.803 157.384 116.594 168.201C120.769 177.664 129.489 186.679 124.781 198.413L117.732 200C123.346 188.565 114.927 177.218 109.996 167.3C103.996 153.071 122.886 146.258 123.189 133.249C123.117 124.852 114.165 120.085 112.273 112.366C108.398 109.107 104.382 113.662 99.7494 112.816C96.3296 113.501 91.0772 108.123 89.0357 113.953C86.6046 122.501 75.5294 128.785 80.397 138.923C85.0285 147.932 96.1747 154.52 92.4514 166.179C89.1176 177.07 78.1051 187.439 84.935 200C82.1294 199.094 76.8899 200.829 76.9656 196.36C72.6411 181.148 91.0826 172.287 85.3867 157.084C82.7359 147.772 70.6583 142.627 73.3173 131.427C75.2831 122.207 85.659 115.762 84.2036 105.663C84.0855 104.817 83.8768 103.952 83.5786 103.05C79.7058 92.1517 71.8046 81.251 76.5139 68.5319C77.8069 64.899 80.3895 61.7967 82.6588 58.5496C75.1439 62.5594 71.3529 71.0381 71.5085 79.6638C71.181 89.044 78.1303 97.0792 79.119 105.663C79.5079 109.127 78.9389 112.674 76.5139 116.437C71.5842 123.107 65.1371 130.139 68.0928 138.921C70.9033 147.78 81.984 153.146 81.301 163.443C81.226 175.622 67.0319 183.206 71.0548 196.827L63.9901 194.542C61.1851 182.438 74.0863 176.245 74.2343 165.045C76.0602 152.166 59.5858 147.388 60.5745 134.833C60.5035 125.295 68.9246 119.253 72.6439 111.23C73.2818 109.277 73.494 107.432 73.4087 105.663C72.9529 96.7921 64.9358 89.8563 66.2663 79.8822C66.7139 72.5416 69.2187 66.1072 74.0023 60.5865C67.4024 63.2302 64.6758 70.8055 62.8527 77.1637C59.6888 87.3589 67.2413 96.5295 67.9987 105.664C68.3344 109.698 67.3457 113.708 63.5391 117.808C58.0711 124.233 52.5259 132.34 56.4738 140.975C60.6543 150.503 73.7881 157.919 68.0915 169.803C64.9836 177.297 57.5416 182.969 57.8473 191.821C55.8754 190.988 53.8298 190.158 52.1541 188.648C52.1541 177.374 68.2389 170.332 60.5751 158.45C59.8962 160.795 59.7502 163.981 59.2187 166.629C56.5591 173.519 50.8686 179.035 48.7391 186.158C45.1781 184.787 41.4547 181.908 38.4928 178.882L42.5956 176.378C42.1398 174.862 40.9273 173.577 39.867 172.29C37.2026 171.917 35.4531 173.66 33.2568 174.343C31.3593 172.674 29.5279 171.16 28.0152 169.117C29.3771 165.25 40.0185 168.448 34.6275 162.089C30.9881 159.82 27.335 163.061 24.1479 164.574L19.8275 159.133C23.5468 156.865 27.2565 153.679 31.8826 154.592C33.0227 156.639 33.1019 159.65 35.2982 160.719C43.1175 160.567 48.6579 154.67 54.652 150.052C50.4742 143.854 47.0736 135.297 50.7847 127.801C53.7582 120.29 61.5058 113.963 61.8572 105.659C61.9364 103.769 61.6409 101.781 60.8119 99.6406C56.7153 89.1195 55.2695 74.9003 63.0888 65.5881C58.8373 66.727 56.3305 72.0103 54.886 76.0221C50.1856 86.2956 56.1306 95.8132 56.3359 105.659C56.3639 107.43 56.22 109.204 55.7894 110.992C51.7651 119.089 45.245 126.194 44.186 135.512C39.5545 138.457 35.752 143.609 29.1527 141.87C28.9207 143.609 29.4522 146.26 30.0574 148.229C24.8241 148.01 21.2556 151.856 16.8492 153.673C14.5021 152.922 13.8914 149.896 12.9826 147.779C18.1402 146.042 21.8608 140.887 27.7826 140.968C28.469 139.067 27.3978 137.325 27.0955 135.51C19.7293 132.25 8.05286 151.626 7.07102 134.827C14.4318 134.373 19.1356 127.56 26.4255 126.881L26.6431 121.44C18.3701 120.607 13.0481 129.087 4.77845 128.251L2.95463 120.99C12.5206 121.586 18.22 113.038 27.3302 112.578C28.5406 110.991 28.6866 108.645 28.92 106.452C18.976 105.16 12.1522 116.148 1.5982 112.811C1.5982 112.811 1.23453 108.238 1.03734 105.659H1.05167C0.980024 104.651 0.911793 103.948 0.911793 103.948C10.3229 107.589 18.5918 100.85 26.6431 97.3704C28.6907 96.7595 31.884 97.8187 32.8023 95.5506C32.7225 93.8096 35.9069 91.7741 33.2561 90.5591C21.4855 88.9665 13.6662 103.122 1.59683 96.6853L0.691406 94.8655C3.20231 60.6627 22.5486 27.5953 54.652 11.3228C67.6541 3.91419 83.8072 0.13776 100.097 0.00373806C119.757 -0.158857 139.622 4.98296 154.399 15.4129C168.749 24.1896 182.476 38.6538 189.926 53.337C197.05 66.2018 200.33 80.6374 201.309 96.0057C188.858 105.386 180.505 87.1684 167.826 91.2455C168.509 93.2171 168.887 95.2567 170.337 96.9214C181.574 96.8425 189.312 108.574 201.074 103.95L201.084 105.66ZM58.0636 63.5363C50.1685 58.3884 40.159 63.2356 32.801 66.0392C32.118 59.1489 29.3116 52.8717 23.4601 48.3313C22.8925 48.0496 22.1078 47.4571 21.4009 47.4135C20.9779 47.387 20.5753 47.5571 20.2628 48.0966C22.915 64.3649 12.3084 75.7167 4.7921 88.0576C7.29482 90.0972 11.3157 89.7924 14.3513 89.193C22.3193 86.016 29.9093 80.4864 39.3969 82.3817C42.2025 77.6141 46.9166 72.9961 50.7819 69.2122C53.1434 67.1746 56.3878 65.8807 58.0636 63.5363ZM82.2051 73.7533C82.0536 74.7329 82.2808 76.4793 83.7956 75.8044C86.1523 72.5505 90.3246 75.1248 92.9037 75.354V74.4383C91.4886 72.2226 88.5772 71.1096 85.6208 71.2205C84.9384 71.2443 84.2452 71.3436 83.5779 71.498C82.5886 71.7171 81.9001 72.6199 82.2051 73.7533ZM119.32 64.0037C117.201 59.3102 112.343 57.4107 107.934 56.276C105.773 56.0107 103.531 55.8311 101.306 55.81C100.89 55.8059 100.473 55.8004 100.058 55.81C93.8365 55.9351 87.8915 57.5278 84.2595 62.6342C83.7383 64.0758 81.4464 66.1004 83.5745 67.3923C88.3568 67.0875 93.8139 66.4895 97.0017 70.5816C97.0017 74.2179 99.3564 79.0556 95.4112 80.7966C92.1423 77.7787 88.2708 82.081 84.714 79.6591C83.0416 78.674 81.9833 79.8237 81.2983 81.2612C80.3096 90.6434 85.2366 100.998 94.0398 106.218C97.6076 107.501 102.404 108.721 106.127 106.901C115.083 102.743 118.793 93.213 120.46 84.4329C120.236 82.762 120.316 79.506 117.965 79.4271C115.31 81.1013 111.438 80.1122 108.624 79.4271C106.961 79.9625 106.884 82.3892 104.991 82.8491L103.837 81.9313C102.849 77.7753 102.24 71.8702 106.115 68.9945C110.445 67.2535 115.53 66.493 120.008 67.859C120.844 66.4222 119.553 65.2908 119.32 64.0037ZM114.751 71.4661C114.45 71.4735 114.157 71.4885 113.861 71.498C112.27 72.5559 107.636 71.7953 109.309 75.354C112.195 73.0777 116.218 74.6731 119.102 75.8044C120.168 75.2765 119.937 74.2166 120.007 73.3029C119.081 71.5851 116.869 71.4239 114.751 71.4661ZM147.798 39.4681C142.18 39.1708 137.475 42.3506 132.313 43.7895C131.863 39.4096 135.2 34.7842 135.962 30.3873C127.615 30.9227 121.004 35.9318 114.099 39.9335C112.501 36.0836 110.898 32.2139 109.311 28.3497L118.419 19.7199L118.653 18.5831L106.35 17.9001C104.231 14.1978 103.396 9.73836 100.891 6.33271C98.8412 10.1921 97.4643 14.2767 95.4167 18.1328L83.1283 18.8178V19.7199L92.4548 28.1164C91.3146 32.4323 90.255 37.1217 87.4493 40.3838C81.9847 37.1204 76.5979 33.5684 70.6065 31.3023C69.1648 30.8383 67.1096 30.0839 65.8194 31.0696C67.7142 35.2332 70.3677 39.7117 69.9214 44.2562C67.4153 43.7963 65.4455 42.1941 63.0908 41.5206C60.2749 40.7546 56.9337 39.2579 54.2017 40.1682C58.7568 46.5216 62.4747 53.171 63.7609 60.8171C78.872 53.5452 96.4947 49.5456 114.788 52.6533C123.362 54.0139 131.247 57.4965 138.914 60.3654C139.214 52.3478 144.299 45.9053 147.798 39.4681ZM173.747 83.0654C181.483 85.107 189.244 93.511 197.436 88.0583C190.302 76.2541 179.683 65.3534 182.636 49.9171C182.945 48.8633 182.262 47.7965 181.279 47.6469C176.651 49.5327 173.067 54.0792 171.236 58.5482C170.483 61.1913 170.036 64.001 168.975 66.4923C163.431 63.6152 157.515 60.828 150.76 61.5015C148.324 61.8042 144.832 61.9634 144.382 64.4568C152.048 68.5414 158.352 75.3581 163.049 82.6171C166.32 82.0851 170.332 82.5395 173.747 83.0654ZM92.6847 93.7334L92.9031 95.1016C95.8691 97.0717 96.7813 100.411 100.887 100.107C104.529 100.323 107.261 96.9214 109.075 94.1988C104.148 93.5205 98.1514 94.5702 92.6847 93.7334ZM96.7854 87.6072C96.9335 88.2134 96.4095 89.1216 97.2371 89.4277C99.6661 88.9018 104.066 90.7162 105.423 87.8406C104.476 86.7827 102.93 86.3024 101.307 86.3024C99.6852 86.3024 98.002 86.7738 96.7854 87.6072Z" fill="black" fill-opacity="0.25"/>
<path opacity="0.99" d="M92.6899 84.9814H109.333V91.7979H92.6899V84.9814Z" fill="white"/>
<path d="M95.7647 88.6269C97.9153 89.1343 98.4475 89.8948 100.147 90.107C101.954 90.075 101.693 89.7091 104.845 88.6248C105.052 88.5521 105.336 88.097 104.983 87.748C103.026 85.8115 101.674 87.195 100.447 87.2318C98.8201 87.2494 97.2937 85.8428 95.7039 87.6712C95.4331 88.0426 95.2918 88.4072 95.7647 88.6269Z" fill="#C2C9D1"/>
<path d="M95.7647 88.6269C97.9153 89.1343 98.4475 89.8948 100.147 90.107C101.954 90.075 101.693 89.7091 104.845 88.6248C105.052 88.5521 105.336 88.097 104.983 87.748C103.026 85.8115 101.674 87.195 100.447 87.2318C98.8201 87.2494 97.2937 85.8428 95.7039 87.6712C95.4331 88.0426 95.2918 88.4072 95.7647 88.6269Z" fill="black" fill-opacity="0.25"/>
</svg>
