<svg width="24" height="24" viewBox="0 0 24 24" fill="none" xmlns="http://www.w3.org/2000/svg">
<path opacity="0.7" d="M24 6.54545V0H17.4545V2.18182H6.54545V0H0V6.54545H2.18182V17.4545H0V24H6.54545V21.8182H17.4545V24H24V17.4545H21.8182V6.54545H24ZM1.63636 1.63636H4.90909V4.90909H1.63636V1.63636ZM4.90909 22.3636H1.63636V19.0909H4.90909V22.3636ZM17.4545 19.6364H6.54545V17.4545H4.36364V6.54545H6.54545V4.36364H17.4545V6.54545H19.6364V17.4545H17.4545V19.6364ZM22.3636 22.3636H19.0909V19.0909H22.3636V22.3636ZM19.0909 4.90909V1.63636H22.3636V4.90909H19.0909Z" fill="#1B2B42"/>
</svg>
