<svg width="24" height="24" viewBox="0 0 24 24" fill="none" xmlns="http://www.w3.org/2000/svg">
<path opacity="0.7" d="M12 5.33333V0H0V24H24V5.33333H12ZM4.8 21.3333H2.4V18.6667H4.8V21.3333ZM4.8 16H2.4V13.3333H4.8V16ZM4.8 10.6667H2.4V8H4.8V10.6667ZM4.8 5.33333H2.4V2.66667H4.8V5.33333ZM9.6 21.3333H7.2V18.6667H9.6V21.3333ZM9.6 16H7.2V13.3333H9.6V16ZM9.6 10.6667H7.2V8H9.6V10.6667ZM9.6 5.33333H7.2V2.66667H9.6V5.33333ZM21.6 21.3333H12V18.6667H14.4V16H12V13.3333H14.4V10.6667H12V8H21.6V21.3333ZM19.2 10.6667H16.8V13.3333H19.2V10.6667ZM19.2 16H16.8V18.6667H19.2V16Z" fill="#1B2B42"/>
</svg>
