<svg width="48" height="48" viewBox="0 0 48 48" fill="none" xmlns="http://www.w3.org/2000/svg">
<rect y="12" width="44" height="28" rx="1" fill="#1B2B42"/>
<path d="M20 35C20 35.5523 20.4477 36 21 36H23C23.5523 36 24 35.5523 24 35V34H26C27.1 34 28 33.1 28 32V26C28 24.9 27.1 24 26 24H20V22H28V18H24V17C24 16.4477 23.5523 16 23 16H21C20.4477 16 20 16.4477 20 17V18H18C16.9 18 16 18.9 16 20V26C16 27.1 16.9 28 18 28H24V30H16V34H20V35Z" fill="white"/>
<path d="M47 14H46C45.4477 14 45 14.4477 45 15V40C45 40.5523 44.5523 41 44 41H7C6.44772 41 6 41.4477 6 42V43C6 43.5523 6.44772 44 7 44H47C47.5523 44 48 43.5523 48 43V15C48 14.4477 47.5523 14 47 14Z" fill="#1B2B42"/>
</svg>
