<svg width="38" height="34" viewBox="0 0 38 34" fill="none" xmlns="http://www.w3.org/2000/svg">
<path d="M33.6089 2.14625C33.1867 0.892501 32.0044 0 30.6111 0H7.38889C5.99556 0 4.83444 0.892501 4.39111 2.14625L0 14.875V31.875C0 33.0438 0.95 34 2.11111 34H4.22222C5.38333 34 6.33333 33.0438 6.33333 31.875V29.75H31.6667V31.875C31.6667 33.0438 32.6167 34 33.7778 34H35.8889C37.05 34 38 33.0438 38 31.875V14.875L33.6089 2.14625ZM7.38889 23.375C5.63667 23.375 4.22222 21.9513 4.22222 20.1875C4.22222 18.4237 5.63667 17 7.38889 17C9.14111 17 10.5556 18.4237 10.5556 20.1875C10.5556 21.9513 9.14111 23.375 7.38889 23.375ZM30.6111 23.375C28.8589 23.375 27.4444 21.9513 27.4444 20.1875C27.4444 18.4237 28.8589 17 30.6111 17C32.3633 17 33.7778 18.4237 33.7778 20.1875C33.7778 21.9513 32.3633 23.375 30.6111 23.375ZM4.22222 12.75L7.38889 3.1875H30.6111L33.7778 12.75H4.22222Z" fill="#1B2B42"/>
</svg>
