<svg width="24" height="24" viewBox="0 0 24 24" fill="none" xmlns="http://www.w3.org/2000/svg">
<g opacity="0.7">
<path d="M24 7.19836C23.9998 6.98419 23.9422 6.77398 23.8333 6.58955C23.7245 6.40512 23.5682 6.25319 23.3808 6.14954L12.5542 0.149409C12.3763 0.0513986 12.1765 0 11.9733 0C11.7702 0 11.5704 0.0513986 11.3925 0.149409L0.618706 6.10153C0.431542 6.20517 0.275489 6.35696 0.166707 6.54118C0.0579242 6.7254 0.000368943 6.93536 1.76788e-06 7.1493C-0.000365408 7.36324 0.0564686 7.57339 0.164618 7.75798C0.272767 7.94257 0.428299 8.0949 0.615106 8.19918L11.4417 14.2473C11.62 14.3475 11.8209 14.4002 12.0254 14.4004C12.2298 14.4006 12.4309 14.3483 12.6094 14.2485L23.3832 8.24838C23.5703 8.14431 23.7262 7.99206 23.8347 7.80742C23.9431 7.62279 24.0002 7.41249 24 7.19836ZM12.0273 11.8245L3.67157 7.15756L11.9721 2.57106L20.3291 7.20196L12.0273 11.8245Z" fill="#1B2B42"/>
<path d="M22.2178 10.9509L11.9996 16.627L1.78137 10.9509L0.61615 13.0486L11.4164 19.0487C11.5946 19.1477 11.7951 19.1996 11.999 19.1996C12.2029 19.1996 12.4034 19.1477 12.5816 19.0487L23.3818 13.0486L22.2178 10.9509Z" fill="#1B2B42"/>
<path d="M22.2178 15.751L11.9996 21.4271L1.78137 15.751L0.61615 17.8486L11.4164 23.8487C11.5946 23.9477 11.7951 23.9997 11.999 23.9997C12.2029 23.9997 12.4034 23.9477 12.5816 23.8487L23.3818 17.8486L22.2178 15.751Z" fill="#1B2B42"/>
</g>
</svg>
