<svg width="40" height="38" viewBox="0 0 40 38" fill="none" xmlns="http://www.w3.org/2000/svg">
<path d="M38 14H10V8.22605C10 6.23205 11.356 4.38005 13.322 4.05605C13.8963 3.95833 14.4849 3.98703 15.0469 4.14014C15.609 4.29324 16.1308 4.56707 16.5762 4.94254C17.0215 5.31802 17.3796 5.78609 17.6255 6.31415C17.8715 6.84221 17.9992 7.41754 18 8.00005H22C21.999 6.88265 21.7642 5.77782 21.3105 4.75665C20.8569 3.73548 20.1945 2.82059 19.366 2.07082C18.5375 1.32105 17.5612 0.753017 16.4999 0.403266C15.4387 0.0535142 14.3159 -0.0702112 13.204 0.0400499C9.046 0.44405 6 4.17805 6 8.35605V14H2C1.46957 14 0.960859 14.2108 0.585786 14.5858C0.210714 14.9609 0 15.4696 0 16V20C0 25.212 3.348 29.646 8 31.3V38H12V32H28V38H32V31.3C36.652 29.646 40 25.212 40 20V16C40 15.4696 39.7893 14.9609 39.4142 14.5858C39.0391 14.2108 38.5304 14 38 14Z" fill="#1B2B42"/>
</svg>
