<svg width="36" height="36" viewBox="0 0 36 36" fill="none" xmlns="http://www.w3.org/2000/svg">
<path d="M12.9106 35.9947H3.87219C2.82975 35.9744 1.83764 35.5423 1.1123 34.7927C0.386952 34.0431 -0.0127737 33.0368 0.000311426 31.9934V15.8221C-0.00381663 14.9958 0.181167 14.1796 0.541085 13.436C0.901003 12.6924 1.42629 12.0411 2.07667 11.5322L15.8731 0.738991C16.4799 0.259567 17.2307 -0.000816472 18.0039 1.92331e-06C18.7771 0.000820318 19.5273 0.262792 20.1332 0.743501L33.919 11.5292C34.5719 12.046 35.0985 12.7048 35.4591 13.4556C35.8196 14.2065 36.0046 15.0296 35.9999 15.8627V32.0303H32.3428V15.8454C32.3467 15.5697 32.2873 15.2969 32.1694 15.0478C32.0514 14.7987 31.878 14.58 31.6624 14.4084L17.9997 3.72044L4.33252 14.4121C4.12032 14.5792 3.9491 14.7926 3.83197 15.0361C3.71483 15.2796 3.65487 15.5466 3.65667 15.8168V32.04C3.65597 32.078 3.66276 32.1158 3.67665 32.1512C3.69054 32.1865 3.71126 32.2188 3.73762 32.2462C3.76398 32.2735 3.79546 32.2954 3.83028 32.3106C3.86509 32.3258 3.90255 32.334 3.94052 32.3346H12.3211V26.7971C12.3269 26.0207 12.6371 25.2777 13.1848 24.7278C13.7325 24.178 14.474 23.8653 15.2498 23.857H20.7452V27.5171H15.9797V32.9186C15.981 33.3227 15.9026 33.723 15.749 34.0967C15.5954 34.4704 15.3697 34.8101 15.0848 35.0964C14.7998 35.3826 14.4612 35.6098 14.0884 35.7648C13.7155 35.9199 13.3158 35.9998 12.9121 36L12.9106 35.9947Z" fill="#009DDC"/>
</svg>
