<svg width="48" height="48" viewBox="0 0 48 48" fill="none" xmlns="http://www.w3.org/2000/svg">
<path d="M17.2141 47.993H5.16292C3.773 47.9658 2.45019 47.3897 1.48306 46.3902C0.515935 45.3908 -0.0170317 44.0491 0.000415235 42.6579V21.0961C-0.00508884 19.9944 0.241556 18.9061 0.721447 17.9146C1.20134 16.9231 1.90172 16.0548 2.7689 15.3762L21.1641 0.985321C21.9732 0.346089 22.9743 -0.00108863 24.0052 2.56441e-06C25.0361 0.00109376 26.0364 0.35039 26.8442 0.991334L45.2254 15.3722C46.0958 16.0613 46.798 16.9397 47.2787 17.9408C47.7595 18.942 48.0061 20.0395 47.9999 21.1502V42.707H43.1237V21.1272C43.1289 20.7597 43.0498 20.3959 42.8925 20.0637C42.7353 19.7316 42.504 19.4399 42.2166 19.2112L23.9997 4.96058L5.77669 19.2162C5.49376 19.439 5.26547 19.7235 5.10929 20.0481C4.9531 20.3728 4.87315 20.7288 4.87556 21.0891V42.72C4.87463 42.7707 4.88368 42.821 4.9022 42.8682C4.92072 42.9154 4.94834 42.9584 4.98349 42.9949C5.01863 43.0314 5.06062 43.0606 5.10704 43.0808C5.15346 43.101 5.20341 43.1119 5.25403 43.1128H16.4281V35.7295C16.4359 34.6943 16.8495 33.7036 17.5798 32.9704C18.3101 32.2373 19.2987 31.8204 20.333 31.8094H27.6603V36.6895H21.3063V43.8915C21.308 44.4302 21.2035 44.964 20.9987 45.4623C20.7939 45.9605 20.493 46.4135 20.113 46.7951C19.7331 47.1768 19.2816 47.4797 18.7845 47.6864C18.2874 47.8932 17.7544 47.9997 17.2161 48L17.2141 47.993Z" fill="#009B72"/>
</svg>
