<svg width="24" height="24" viewBox="0 0 24 24" fill="none" xmlns="http://www.w3.org/2000/svg">
<path d="M13.9523 22C14.6396 22 15.1265 21.4081 15.4797 20.4916L21.7327 4.15752C21.9045 3.71838 22 3.32697 22 3.00239C22 2.38186 21.6181 2 20.9976 2C20.673 2 20.2816 2.09547 19.8425 2.2673L3.42243 8.55847C2.62053 8.86396 2 9.35084 2 10.0477C2 10.926 2.66826 11.222 3.58473 11.4988L8.73986 13.0644C9.35084 13.2554 9.69451 13.2363 10.105 12.8544L20.5776 3.06921C20.7017 2.95465 20.8449 2.97375 20.9403 3.05967C21.0358 3.15513 21.0453 3.29833 20.9308 3.42243L11.1838 13.9332C10.8115 14.3246 10.7828 14.6492 10.9642 15.2888L12.4821 20.3294C12.7685 21.2936 13.0644 22 13.9523 22Z" fill="white"/>
</svg>
