<svg width="21" height="24" viewBox="0 0 21 24" fill="none" xmlns="http://www.w3.org/2000/svg">
<path opacity="0.7" d="M20.9981 11.8791V10.1007C20.9983 8.77417 20.7287 7.4606 20.2045 6.23503C19.6804 5.00945 18.912 3.89586 17.9433 2.95788C16.9746 2.0199 15.8245 1.27591 14.5588 0.768386C13.2931 0.260866 11.9365 -0.000241433 10.5665 1.6751e-07H10.4317C7.66616 0.00146099 5.01429 1.0656 3.05843 2.95873C1.10257 4.85186 0.00260338 7.41921 8.74052e-05 10.097V11.9619V13.6171C-0.00300528 13.9643 0.0760121 14.3076 0.23108 14.6206C0.386147 14.9337 0.613155 15.2082 0.894715 15.4232L9.85044 23.7822C10.0356 23.9233 10.2644 24 10.5 24C10.7357 24 10.9645 23.9233 11.1496 23.7822L20.1054 15.4232C20.3853 15.2101 20.6114 14.938 20.7664 14.6276C20.9214 14.3172 21.0013 13.9767 21 13.6319V11.8791H20.9981ZM15.4594 13.7735C15.4599 13.8561 15.4436 13.938 15.4114 14.0145C15.3792 14.091 15.3318 14.1606 15.2718 14.2193C15.2119 14.2781 15.1405 14.3248 15.0619 14.3569C14.9833 14.3889 14.8989 14.4057 14.8136 14.4061H12.0595C11.9587 14.4061 11.8621 14.3674 11.7908 14.2984C11.7196 14.2294 11.6796 14.1359 11.6796 14.0383V12.2231C11.6791 12.1359 11.6431 12.0524 11.5794 11.9908C11.5158 11.9292 11.4296 11.8943 11.3396 11.8939H9.6605C9.57033 11.8939 9.48385 11.9285 9.42009 11.9903C9.35633 12.052 9.3205 12.1357 9.3205 12.2231V14.042C9.3205 14.1395 9.28048 14.2331 9.20924 14.3021C9.138 14.3711 9.04137 14.4098 8.94062 14.4098H6.17887C6.09365 14.4084 6.00956 14.3907 5.93142 14.3577C5.85328 14.3247 5.78262 14.2772 5.72351 14.2177C5.6644 14.1583 5.61799 14.0881 5.58694 14.0112C5.55589 13.9343 5.54081 13.8523 5.54257 13.7698V8.96959C5.54151 8.80676 5.57896 8.64587 5.65205 8.49922C5.72514 8.35258 5.83194 8.22408 5.96424 8.12358L10.1942 4.92343C10.2815 4.85645 10.3896 4.82 10.501 4.82C10.6124 4.82 10.7205 4.85645 10.8077 4.92343L15.0358 8.12358C15.1688 8.22484 15.2761 8.35421 15.3496 8.5018C15.423 8.64939 15.4605 8.81129 15.4594 8.97511V13.7735Z" fill="#1B2B42"/>
</svg>
