<svg width="29" height="14" viewBox="0 0 29 14" fill="none" xmlns="http://www.w3.org/2000/svg">
<path d="M15.7559 12.4296C16.2583 13.1002 16.6978 12.9884 17.6397 12.9885H24.8607C26.1165 12.9885 26.7444 12.9885 26.7444 11.8708V3.48837C26.7444 2.92955 26.7444 2.09131 24.8607 2.09131H3.51168C2.25586 2.09131 2.25586 2.92955 2.25586 3.48837V11.3119C2.25586 12.709 2.56981 12.9885 3.82564 12.9885H10.4187C11.9885 12.9884 12.3726 13.0888 12.6164 12.7091C13.8722 10.7532 15.128 11.5914 15.7559 12.4296Z" fill="white"/>
<path d="M17.6397 12.9885L17.6397 13.4885H17.6397V12.9885ZM15.7559 12.4296L15.3558 12.7294L15.7559 12.4296ZM12.6164 12.7091L12.1957 12.4389L12.1957 12.4389L12.6164 12.7091ZM10.4187 12.9885V13.4885H10.4187L10.4187 12.9885ZM17.6397 12.4885C17.5173 12.4885 17.4037 12.4903 17.3005 12.492C17.1957 12.4938 17.1042 12.4954 17.0186 12.4954C16.8455 12.4954 16.7249 12.4883 16.6275 12.4695C16.4768 12.4405 16.3442 12.381 16.1561 12.1299L15.3558 12.7294C15.67 13.1489 16.0084 13.3687 16.4385 13.4515C16.6315 13.4886 16.8288 13.4954 17.0186 13.4954C17.1146 13.4954 17.2158 13.4936 17.3174 13.4919C17.4204 13.4901 17.5266 13.4885 17.6397 13.4885L17.6397 12.4885ZM16.1561 12.1299C15.8131 11.672 15.2353 11.121 14.4847 11.0255C13.6683 10.9217 12.879 11.3746 12.1957 12.4389L13.0371 12.9792C13.6096 12.0876 14.0761 11.9816 14.3586 12.0176C14.7068 12.0618 15.0709 12.3491 15.3558 12.7294L16.1561 12.1299ZM12.1957 12.4389C12.1842 12.4568 12.1786 12.4614 12.1797 12.4604C12.1817 12.4586 12.1834 12.458 12.1805 12.4593C12.1677 12.4652 12.1194 12.4827 11.9802 12.4923C11.6788 12.5132 11.2462 12.4884 10.4187 12.4885L10.4187 13.4885C11.161 13.4884 11.7053 13.5138 12.0494 13.4899C12.2329 13.4772 12.4244 13.4486 12.6013 13.3665C12.7952 13.2765 12.9332 13.1411 13.0371 12.9792L12.1957 12.4389ZM10.4187 12.4885H3.82564V13.4885H10.4187V12.4885ZM3.82564 12.4885C3.18338 12.4885 3.00228 12.4024 2.92996 12.3273C2.84974 12.244 2.75586 12.0248 2.75586 11.3119H1.75586C1.75586 11.9961 1.81896 12.6152 2.20967 13.0209C2.60828 13.4348 3.21207 13.4885 3.82564 13.4885V12.4885ZM2.75586 11.3119V3.48837H1.75586V11.3119H2.75586ZM2.75586 3.48837C2.75586 3.18141 2.76695 2.97079 2.84875 2.82518C2.89224 2.74779 3.007 2.59131 3.51168 2.59131V1.59131C2.76054 1.59131 2.24739 1.85395 1.97692 2.33538C1.74477 2.7486 1.75586 3.23651 1.75586 3.48837H2.75586ZM3.51168 2.59131H24.8607V1.59131H3.51168V2.59131ZM24.8607 2.59131C25.7516 2.59131 26.0344 2.79311 26.1266 2.90249C26.228 3.02277 26.2444 3.18391 26.2444 3.48837H27.2444C27.2444 3.23401 27.2608 2.69661 26.8913 2.25808C26.5125 1.80862 25.8534 1.59131 24.8607 1.59131V2.59131ZM26.2444 3.48837V11.8708H27.2444V3.48837H26.2444ZM26.2444 11.8708C26.2444 12.1106 26.2095 12.2332 26.1793 12.2936C26.1575 12.3373 26.1315 12.3647 26.0702 12.3919C25.9917 12.4269 25.8633 12.4564 25.6478 12.4724C25.4347 12.4882 25.1804 12.4885 24.8607 12.4885V13.4885C25.1688 13.4885 25.464 13.4888 25.7218 13.4696C25.9772 13.4507 26.2413 13.4104 26.4767 13.3056C26.7294 13.1931 26.9389 13.0109 27.074 12.7403C27.2008 12.4863 27.2444 12.1897 27.2444 11.8708H26.2444ZM24.8607 12.4885H17.6397V13.4885H24.8607V12.4885Z" fill="white"/>
<path d="M1 4.72754C1 4.17526 1.44772 3.72754 2 3.72754H2.25582V8.09119H2C1.44772 8.09119 1 7.64348 1 7.09119V4.72754Z" fill="white" stroke="white"/>
<path d="M28 4.72754C28 4.17526 27.5523 3.72754 27 3.72754H26.7442V8.09119H27C27.5523 8.09119 28 7.64348 28 7.09119V4.72754Z" fill="white" stroke="white"/>
<path d="M13.3027 1C12.7505 1 12.3027 1.44772 12.3027 2L12.3027 2.09091L17.326 2.09091L17.326 2C17.326 1.44771 16.8783 0.999999 16.326 1L13.3027 1Z" fill="white" stroke="white"/>
<path d="M21.8115 3.72559H22.0615V3.47559H21.8115V3.72559ZM21.8115 3.88558V4.13558H22.0615V3.88558H21.8115ZM21.249 3.72559V3.47559H20.999V3.72559H21.249ZM21.249 3.78855L21.0092 3.85906L21.499 3.78855H21.249ZM21.2371 3.76845L21.0554 3.94022L21.0554 3.94022L21.2371 3.76845ZM21.1499 3.73167L21.1106 3.97867L21.118 3.97963L21.1499 3.73167ZM21.0168 3.77764L21.226 3.91492L21.2313 3.90609L21.0168 3.77764ZM19.9187 5.45097L19.7101 5.58871L19.9193 5.90568L20.1277 5.58814L19.9187 5.45097ZM18.814 3.77764L18.5993 3.90622L18.6053 3.91538L18.814 3.77764ZM18.6832 3.73167L18.7176 3.97935L18.7234 3.97841L18.6832 3.73167ZM18.596 3.76845L18.428 3.58308L18.4213 3.58954L18.596 3.76845ZM18.596 3.842L18.8047 3.70433L18.8035 3.70268L18.596 3.842ZM19.7869 5.64726L19.999 5.51489L19.9956 5.50959L19.7869 5.64726ZM20.0416 5.64726L19.8331 5.50917L19.8295 5.51493L20.0416 5.64726ZM21.2371 3.842L21.4456 3.9801L21.4496 3.97368L21.2371 3.842ZM21.249 3.81525H21.499L21.0066 3.75401L21.249 3.81525ZM21.249 3.88558H20.999V4.13558H21.249V3.88558ZM23.5799 5.70551L23.4898 5.47227L23.4881 5.47297L23.5799 5.70551ZM23.4146 5.68099L23.2325 5.85238L23.2377 5.85761L23.4146 5.68099ZM22.662 4.88104L22.8441 4.70973L22.7701 4.63104H22.662V4.88104ZM21.8199 4.88104V4.63104H21.5699V4.88104H21.8199ZM23.3665 3.86194L23.2265 4.06911L23.2276 4.06984L23.3665 3.86194ZM23.4101 4.714L23.2501 4.52186L23.2501 4.52186L23.4101 4.714ZM22.9419 4.87491L22.9186 4.62601L22.4099 4.67382L22.7598 5.04612L22.9419 4.87491ZM23.6189 5.59517L23.8037 5.42675L23.801 5.42396L23.6189 5.59517ZM23.1944 4.63278L23.3332 4.84068L23.1944 4.63278ZM23.1944 3.97688L23.0538 4.18368L23.0572 4.18588L23.1944 3.97688ZM21.5789 4.72013V4.47013H21.3289V4.72013H21.5789ZM21.5789 3.888H21.3289V4.138H21.5789V3.888ZM21.5615 3.72559V3.88558H22.0615V3.72559H21.5615ZM21.249 3.97559H21.8115V3.47559H21.249V3.97559ZM21.499 3.78855V3.72559H20.999V3.78855H21.499ZM21.0554 3.94022C21.0377 3.9215 21.0196 3.89442 21.0092 3.85906L21.4889 3.71803C21.4742 3.66824 21.4481 3.62775 21.4187 3.59667L21.0554 3.94022ZM21.118 3.97963C21.1212 3.98004 21.1154 3.97972 21.1043 3.97504C21.0927 3.97011 21.074 3.95981 21.0554 3.94022L21.4187 3.59667C21.3451 3.51884 21.2512 3.49262 21.1817 3.4837L21.118 3.97963ZM21.2313 3.90609C21.2138 3.93529 21.1844 3.95994 21.15 3.9718C21.1213 3.98171 21.1042 3.97755 21.1106 3.97856L21.1891 3.48477C21.1313 3.47557 21.0599 3.47396 20.9868 3.4992C20.9081 3.52637 20.8443 3.57912 20.8023 3.64918L21.2313 3.90609ZM20.1277 5.58814L21.2258 3.9148L20.8078 3.64048L19.7097 5.31381L20.1277 5.58814ZM18.6053 3.91538L19.7101 5.58871L20.1273 5.31323L19.0226 3.6399L18.6053 3.91538ZM18.7234 3.97841C18.7282 3.97763 18.7097 3.98179 18.68 3.97135C18.6449 3.95903 18.6162 3.93404 18.5995 3.9061L19.0284 3.64918C18.9872 3.58037 18.9245 3.52729 18.8458 3.49964C18.7725 3.47388 18.7009 3.47548 18.643 3.48492L18.7234 3.97841ZM18.7639 3.95368C18.7388 3.97637 18.7167 3.97941 18.7176 3.97928L18.6487 3.48405C18.5762 3.49413 18.4959 3.5217 18.4281 3.58321L18.7639 3.95368ZM18.8035 3.70268C18.8093 3.71124 18.8311 3.74621 18.8311 3.80139C18.8311 3.86571 18.8018 3.91687 18.7706 3.94735L18.4213 3.58954C18.3702 3.63943 18.3311 3.71255 18.3311 3.80139C18.3311 3.8811 18.3628 3.94314 18.3884 3.98133L18.8035 3.70268ZM19.9956 5.50959L18.8047 3.70434L18.3873 3.97967L19.5782 5.78492L19.9956 5.50959ZM19.8993 5.45243C19.9023 5.45243 19.9194 5.45296 19.9423 5.4642C19.9672 5.47639 19.9867 5.49529 19.999 5.51493L19.5748 5.77959C19.6531 5.9051 19.7811 5.95243 19.8993 5.95243V5.45243ZM19.9246 5.45243H19.8993V5.95243H19.9246V5.45243ZM19.8295 5.51493C19.8433 5.49279 19.8643 5.47391 19.8885 5.46251C19.8994 5.45738 19.9086 5.45485 19.9149 5.45362C19.9211 5.45242 19.9245 5.45243 19.9246 5.45243V5.95243C20.0393 5.95243 20.1726 5.90961 20.2537 5.77959L19.8295 5.51493ZM21.0286 3.70397L19.8331 5.50923L20.25 5.78529L21.4455 3.98004L21.0286 3.70397ZM21.0066 3.75401C21.0123 3.73168 21.0205 3.71689 21.0246 3.71033L21.4496 3.97368C21.4653 3.94824 21.4815 3.91561 21.4914 3.87649L21.0066 3.75401ZM21.499 3.88558V3.81525H20.999V3.88558H21.499ZM21.8115 3.63558H21.249V4.13558H21.8115V3.63558ZM23.4881 5.47297C23.4833 5.47485 23.4978 5.46801 23.5248 5.47201L23.4514 5.96659C23.5334 5.97877 23.6091 5.96273 23.6716 5.93806L23.4881 5.47297ZM23.5248 5.47201C23.5383 5.47402 23.552 5.4784 23.5647 5.48502C23.5772 5.49152 23.586 5.49881 23.5916 5.50437L23.2377 5.85761C23.2935 5.9135 23.3659 5.95391 23.4514 5.96659L23.5248 5.47201ZM23.5967 5.50968L22.8441 4.70973L22.4799 5.05235L23.2326 5.8523L23.5967 5.50968ZM22.662 4.63104H21.8199V5.13104H22.662V4.63104ZM21.5699 4.88104V5.62123H22.0699V4.88104H21.5699ZM21.5699 5.62123C21.5699 5.60409 21.5731 5.577 21.5879 5.54681C21.6032 5.51549 21.6258 5.49151 21.6494 5.47548C21.6901 5.44776 21.7198 5.45245 21.7006 5.45245V5.95245C21.7609 5.95245 21.8502 5.9436 21.9307 5.88881C22.0284 5.82229 22.0699 5.71892 22.0699 5.62123H21.5699ZM21.7006 5.45245C21.68 5.45245 21.7083 5.44757 21.7482 5.47424C21.7715 5.48978 21.7944 5.51348 21.8102 5.54512C21.8255 5.57571 21.8289 5.60343 21.8289 5.62123H21.3289C21.3289 5.72093 21.3722 5.82439 21.4705 5.89004C21.551 5.94378 21.6401 5.95245 21.7006 5.95245V5.45245ZM21.8115 3.97709H22.7744V3.47709H21.8115V3.97709ZM22.7744 3.97709C23.0146 3.97709 23.1533 4.01967 23.2265 4.0691L23.5064 3.65478C23.3134 3.52441 23.0574 3.47709 22.7744 3.47709V3.97709ZM23.2276 4.06984C23.2865 4.10917 23.3184 4.15982 23.3184 4.25885H23.8184C23.8184 4.00848 23.7156 3.79453 23.5053 3.65405L23.2276 4.06984ZM23.3184 4.25885V4.3508H23.8184V4.25885H23.3184ZM23.3184 4.3508C23.3184 4.44114 23.2911 4.48771 23.2501 4.52186L23.57 4.90614C23.7401 4.76456 23.8184 4.56901 23.8184 4.3508H23.3184ZM23.2501 4.52186C23.1984 4.56486 23.0989 4.60905 22.9186 4.62601L22.9653 5.12381C23.198 5.10194 23.4106 5.03886 23.57 4.90614L23.2501 4.52186ZM22.7598 5.04612L23.4367 5.76638L23.801 5.42396L23.1241 4.7037L22.7598 5.04612ZM23.4341 5.76358C23.4313 5.76052 23.4161 5.74355 23.405 5.71237C23.3923 5.67675 23.387 5.62706 23.4055 5.57468C23.4227 5.52603 23.4524 5.49806 23.468 5.48597C23.4832 5.47422 23.4932 5.47097 23.4899 5.47227L23.6699 5.93875C23.7169 5.92058 23.8315 5.86972 23.8769 5.74133C23.9303 5.59026 23.8455 5.47276 23.8036 5.42677L23.4341 5.76358ZM21.8199 4.97013H22.7744V4.47013H21.8199V4.97013ZM22.7744 4.97013C22.981 4.97013 23.1829 4.94107 23.3332 4.84068L23.0555 4.42488C23.0314 4.44095 22.9534 4.47013 22.7744 4.47013V4.97013ZM23.3332 4.84068C23.5064 4.72504 23.5774 4.54327 23.5774 4.3508H23.0774C23.0774 4.38686 23.0712 4.40449 23.0681 4.41114C23.0658 4.41598 23.0632 4.41974 23.0555 4.42488L23.3332 4.84068ZM23.5774 4.3508V4.25885H23.0774V4.3508H23.5774ZM23.5774 4.25885C23.5774 4.06635 23.5069 3.88298 23.3315 3.76788L23.0572 4.18588C23.0639 4.1903 23.066 4.19331 23.0681 4.19776C23.0711 4.20416 23.0774 4.22196 23.0774 4.25885H23.5774ZM23.3349 3.77011C23.1841 3.66767 22.9814 3.638 22.7744 3.638V4.138C22.9529 4.138 23.0302 4.16758 23.0538 4.18365L23.3349 3.77011ZM22.7744 3.638H21.8199V4.138H22.7744V3.638ZM21.8289 5.62123V4.72013H21.3289V5.62123H21.8289ZM21.8199 4.47013H21.5789V4.97013H21.8199V4.47013ZM21.8289 3.888V3.88558H21.3289V3.888H21.8289ZM21.8199 3.638H21.5789V4.138H21.8199V3.638Z" fill="#1B2B42"/>
</svg>
