<svg width="24" height="24" viewBox="0 0 24 24" fill="none" xmlns="http://www.w3.org/2000/svg">
<path opacity="0.7" d="M20.05 9.63179H6.75V6.89667C6.75 5.95212 7.3941 5.07484 8.32795 4.92136C8.60072 4.87507 8.88033 4.88866 9.14729 4.96119C9.41426 5.03372 9.66215 5.16343 9.87369 5.34129C10.0852 5.51915 10.2553 5.74087 10.3721 5.99101C10.4889 6.24115 10.5496 6.51368 10.55 6.78962H12.45C12.4495 6.26031 12.338 5.73696 12.1225 5.25323C11.907 4.76951 11.5924 4.33613 11.1988 3.98096C10.8053 3.6258 10.3416 3.35673 9.83746 3.19105C9.33337 3.02538 8.80008 2.96677 8.2719 3.019C6.29685 3.21037 4.85 4.97915 4.85 6.95825V9.63179H2.95C2.69804 9.63179 2.45641 9.7316 2.27825 9.90927C2.10009 10.0869 2 10.3279 2 10.5792V12.474C2 14.9429 3.5903 17.0432 5.8 17.8267V21.0005H7.7V18.1583H15.3V21.0005H17.2V17.8267C19.4097 17.0432 21 14.9429 21 12.474V10.5792C21 10.3279 20.8999 10.0869 20.7218 9.90927C20.5436 9.7316 20.302 9.63179 20.05 9.63179Z" fill="#1B2B42"/>
</svg>
